<svg width="51" height="51" viewBox="0 0 51 51" fill="none" xmlns="http://www.w3.org/2000/svg">
<circle cx="25.1653" cy="25.4214" r="25" fill="#6C93EC"/>
<path d="M17.9993 28.2548H27.9993V25.7548H17.9993V28.2548ZM17.9993 24.5048H32.9993V22.0048H17.9993V24.5048ZM17.9993 20.7548H32.9993V18.2548H17.9993V20.7548ZM12.9993 38.2548V15.7548C12.9993 15.0673 13.2443 14.4789 13.7343 13.9898C14.2243 13.5006 14.8126 13.2556 15.4993 13.2548H35.4993C36.1868 13.2548 36.7755 13.4998 37.2655 13.9898C37.7555 14.4798 38.0001 15.0681 37.9993 15.7548V30.7548C37.9993 31.4423 37.7547 32.031 37.2655 32.521C36.7764 33.011 36.1876 33.2556 35.4993 33.2548H17.9993L12.9993 38.2548ZM16.9368 30.7548H35.4993V15.7548H15.4993V32.161L16.9368 30.7548Z" fill="white"/>
</svg>
