<svg width="51" height="51" viewBox="0 0 51 51" fill="none" xmlns="http://www.w3.org/2000/svg">
<circle cx="25.1653" cy="25.4214" r="25" fill="#6C93EC"/>
<path d="M30.4993 13.2548C27.0493 13.2548 24.2493 16.0548 24.2493 19.5048C24.2493 22.9548 27.0493 25.7548 30.4993 25.7548C33.9493 25.7548 36.7493 22.9548 36.7493 19.5048C36.7493 16.0548 33.9493 13.2548 30.4993 13.2548ZM30.4993 23.2548C28.4243 23.2548 26.7493 21.5798 26.7493 19.5048C26.7493 17.4298 28.4243 15.7548 30.4993 15.7548C32.5743 15.7548 34.2493 17.4298 34.2493 19.5048C34.2493 21.5798 32.5743 23.2548 30.4993 23.2548ZM34.2493 30.7548H31.7493C31.7493 29.2548 30.8118 27.9048 29.4118 27.3798L21.7118 24.5048H11.7493V38.2548H19.2493V36.4548L27.9993 38.8798L37.9993 35.7548V34.5048C37.9993 32.4298 36.3243 30.7548 34.2493 30.7548ZM16.7493 35.7548H14.2493V27.0048H16.7493V35.7548ZM27.9618 36.2673L19.2493 33.8798V27.0048H21.2618L28.5368 29.7173C28.9618 29.8798 29.2493 30.2923 29.2493 30.7548C29.2493 30.7548 26.7493 30.6923 26.3743 30.5673L23.3993 29.5798L22.6118 31.9548L25.5868 32.9423C26.2243 33.1548 26.8868 33.2548 27.5618 33.2548H34.2493C34.7368 33.2548 35.1743 33.5548 35.3743 33.9673L27.9618 36.2673Z" fill="white"/>
</svg>
