<svg width="51" height="51" viewBox="0 0 51 51" fill="none" xmlns="http://www.w3.org/2000/svg">
<circle cx="25.1653" cy="25.4214" r="25" fill="#6C93EC"/>
<path d="M15.5745 38.938C14.8209 38.938 14.1756 38.6659 13.6385 38.1218C13.1014 37.5777 12.8333 36.9244 12.8342 36.1619V29.8464L16.6021 25.5089L18.5545 27.4868L15.8142 30.6098H34.5163L31.8446 27.5562L33.797 25.5783L37.4963 29.8464V36.1619C37.4963 36.9253 37.2278 37.5791 36.6907 38.1232C36.1536 38.6673 35.5088 38.9389 34.7561 38.938H15.5745ZM15.5745 36.1619H34.7561V33.3859H15.5745V36.1619ZM23.2814 28.3543L18.4517 23.4615C17.9265 22.9294 17.6698 22.2762 17.6817 21.5016C17.6936 20.7271 17.9617 20.0734 18.486 19.5404L25.1995 12.739C25.7247 12.207 26.3756 11.9294 27.152 11.9062C27.9284 11.8831 28.5792 12.1376 29.1044 12.6696L33.934 17.5624C34.4592 18.0945 34.7333 18.7422 34.7561 19.5057C34.7789 20.2691 34.5278 20.9168 34.0025 21.4489L27.152 28.389C26.6267 28.9211 25.9819 29.1816 25.2173 29.1705C24.4528 29.1594 23.8075 28.8873 23.2814 28.3543ZM32.0159 19.5404L27.1862 14.6476L20.4041 21.5183L25.2338 26.4111L32.0159 19.5404Z" fill="white"/>
</svg>
