<svg width="50" height="50" viewBox="0 0 50 50" fill="none" xmlns="http://www.w3.org/2000/svg">
<path d="M8.79169 28.125H20.3751C24.0835 28.125 25.0001 29.0417 25.0001 32.7083V41.2708C25.0001 44.9375 24.0835 45.8542 20.3751 45.8542H8.79169C5.08335 45.8542 4.16675 44.9375 4.16675 41.2708V32.7083C4.16675 29.0417 5.08335 28.125 8.79169 28.125Z" fill="#E69FBD"/>
<path d="M38.5417 22.9167C43.7194 22.9167 47.9167 18.7193 47.9167 13.5417C47.9167 8.364 43.7194 4.16667 38.5417 4.16667C33.3641 4.16667 29.1667 8.364 29.1667 13.5417C29.1667 18.7193 33.3641 22.9167 38.5417 22.9167Z" fill="#6C93EC"/>
<path fill-rule="evenodd" clip-rule="evenodd" d="M16.4211 5.61873C10.1621 6.71811 5.41675 12.1725 5.41675 18.75C5.41675 19.4403 4.8571 20 4.16675 20C3.47639 20 2.91675 19.4403 2.91675 18.75C2.91675 9.99713 9.99723 2.91666 18.7501 2.91666C19.2004 2.91666 19.6159 3.1589 19.8378 3.55078C20.0597 3.94266 20.0536 4.42361 19.8219 4.80977L17.6345 8.4556C17.2793 9.04758 16.5115 9.23954 15.9195 8.88436C15.3275 8.52918 15.1356 7.76135 15.4907 7.16938L16.4211 5.61873ZM38.5417 5.41666C34.0544 5.41666 30.4167 9.05434 30.4167 13.5417C30.4167 18.029 34.0544 21.6667 38.5417 21.6667C43.0291 21.6667 46.6667 18.029 46.6667 13.5417C46.6667 9.05434 43.0291 5.41666 38.5417 5.41666ZM27.9167 13.5417C27.9167 7.67363 32.6737 2.91666 38.5417 2.91666C44.4098 2.91666 49.1667 7.67363 49.1667 13.5417C49.1667 19.4097 44.4098 24.1667 38.5417 24.1667C32.6737 24.1667 27.9167 19.4097 27.9167 13.5417ZM5.96914 29.9289C5.67762 30.2182 5.41675 30.8656 5.41675 32.7083V34.2918H23.7501V32.7083C23.7501 30.8656 23.4892 30.2182 23.1977 29.9289C22.9027 29.6361 22.2406 29.375 20.3751 29.375H8.79169C6.92621 29.375 6.2641 29.6361 5.96914 29.9289ZM26.2501 32.7083C26.2501 30.8844 26.0526 29.2401 24.9588 28.1545C23.8684 27.0722 22.218 26.875 20.3751 26.875H8.79169C6.94883 26.875 5.29847 27.0722 4.20804 28.1545C3.11418 29.2401 2.91675 30.8844 2.91675 32.7083V41.2708C2.91675 43.0947 3.11418 44.739 4.20804 45.8247C5.29847 46.907 6.94883 47.1042 8.79169 47.1042H20.3751C22.218 47.1042 23.8684 46.907 24.9588 45.8247C26.0526 44.739 26.2501 43.0947 26.2501 41.2708V32.7083ZM23.7501 36.7918H5.41675V41.2708C5.41675 43.1136 5.67762 43.761 5.96914 44.0503C6.2641 44.343 6.92621 44.6042 8.79169 44.6042H20.3751C22.2406 44.6042 22.9027 44.343 23.1977 44.0503C23.4892 43.761 23.7501 43.1136 23.7501 41.2708V36.7918ZM45.8334 30C46.5238 30 47.0834 30.5596 47.0834 31.25C47.0834 40.0028 40.0029 47.0833 31.2501 47.0833C30.7997 47.0833 30.3842 46.8411 30.1623 46.4492C29.9405 46.0573 29.9465 45.5764 30.1782 45.1902L32.3657 41.5444C32.7209 40.9524 33.4887 40.7604 34.0807 41.1156C34.6726 41.4708 34.8646 42.2386 34.5094 42.8306L33.579 44.3813C39.838 43.2819 44.5834 37.8275 44.5834 31.25C44.5834 30.5596 45.1431 30 45.8334 30Z" fill="#1E1E1E"/>
</svg>
