<svg width="50" height="50" viewBox="0 0 50 50" fill="none" xmlns="http://www.w3.org/2000/svg">
<path d="M45.8333 17.7083C45.8333 25.1875 39.7708 31.25 32.2917 31.25C31.9375 31.25 31.5625 31.2292 31.2084 31.2084C30.6875 24.6042 25.3958 19.3125 18.7916 18.7916C18.7708 18.4375 18.75 18.0625 18.75 17.7083C18.75 10.2292 24.8125 4.16667 32.2917 4.16667C39.7708 4.16667 45.8333 10.2292 45.8333 17.7083Z" fill="#E69FBD"/>
<path fill-rule="evenodd" clip-rule="evenodd" d="M20 17.6755C26.3261 18.6606 31.3394 23.6739 32.3245 30C39.0982 29.9822 44.5833 24.4862 44.5833 17.7083C44.5833 10.9195 39.0805 5.41667 32.2917 5.41667C25.5138 5.41667 20.0178 10.9018 20 17.6755ZM17.5 17.7083C17.5 9.53882 24.1221 2.91667 32.2917 2.91667C40.4612 2.91667 47.0833 9.53882 47.0833 17.7083C47.0833 25.8779 40.4612 32.5 32.2917 32.5C31.8957 32.5 31.4861 32.4769 31.135 32.4562C30.5119 32.4196 30.0113 31.9289 29.9622 31.3066C29.4897 25.3153 24.6847 20.5103 18.6934 20.0378C18.0711 19.9887 17.5805 19.4881 17.5438 18.8651C17.5231 18.5139 17.5 18.1043 17.5 17.7083Z" fill="#1E1E1E"/>
<path d="M31.2501 32.2917C31.2501 39.7708 25.1876 45.8333 17.7084 45.8333C10.2292 45.8333 4.16675 39.7708 4.16675 32.2917C4.16675 24.8125 10.2292 18.75 17.7084 18.75C18.0626 18.75 18.4376 18.7708 18.7917 18.7916C25.3959 19.3125 30.6876 24.6042 31.2084 31.2084C31.2293 31.5625 31.2501 31.9375 31.2501 32.2917Z" fill="#6C93EC"/>
<path fill-rule="evenodd" clip-rule="evenodd" d="M17.7084 20C10.9196 20 5.41675 25.5029 5.41675 32.2917C5.41675 39.0805 10.9196 44.5833 17.7084 44.5833C24.4972 44.5833 30.0001 39.0805 30.0001 32.2917C30.0001 31.983 29.982 31.647 29.9613 31.2945C29.4836 25.3128 24.6872 20.5165 18.7056 20.0387C18.3531 20.018 18.0171 20 17.7084 20ZM2.91675 32.2917C2.91675 24.1221 9.53889 17.5 17.7084 17.5C18.1043 17.5 18.514 17.5231 18.8651 17.5438L18.89 17.5453L18.89 17.5455C26.107 18.1147 31.8854 23.8931 32.4546 31.1101L32.4565 31.1349L32.4563 31.135C32.4769 31.4861 32.5001 31.8957 32.5001 32.2917C32.5001 40.4612 25.8779 47.0833 17.7084 47.0833C9.53889 47.0833 2.91675 40.4612 2.91675 32.2917Z" fill="#1E1E1E"/>
<path d="M15.875 30.4583L17.7083 27.0833L19.5417 30.4583L22.9167 32.2917L19.5417 34.125L17.7083 37.5L15.875 34.125L12.5 32.2917L15.875 30.4583Z" fill="white"/>
<path fill-rule="evenodd" clip-rule="evenodd" d="M17.7083 25.8333C18.1665 25.8333 18.588 26.084 18.8067 26.4867L20.4635 29.5365L23.5133 31.1933C23.916 31.412 24.1667 31.8335 24.1667 32.2917C24.1667 32.7499 23.916 33.1713 23.5133 33.3901L20.4635 35.0468L18.8067 38.0967C18.588 38.4993 18.1665 38.75 17.7083 38.75C17.2501 38.75 16.8286 38.4993 16.6099 38.0967L14.9532 35.0468L11.9033 33.3901C11.5007 33.1713 11.25 32.7499 11.25 32.2917C11.25 31.8335 11.5007 31.412 11.9033 31.1933L14.9532 29.5365L16.6099 26.4867C16.8286 26.084 17.2501 25.8333 17.7083 25.8333ZM17.7083 29.702L16.9734 31.055C16.8581 31.2672 16.6839 31.4415 16.4717 31.5567L15.1187 32.2917L16.4717 33.0266C16.6839 33.1419 16.8581 33.3161 16.9734 33.5283L17.7083 34.8813L18.4433 33.5283C18.5585 33.3161 18.7328 33.1419 18.945 33.0266L20.298 32.2917L18.945 31.5567C18.7328 31.4415 18.5585 31.2672 18.4433 31.055L17.7083 29.702Z" fill="#1E1E1E"/>
</svg>
