<svg width="25" height="24" viewBox="0 0 25 24" fill="none" xmlns="http://www.w3.org/2000/svg">
<path fill-rule="evenodd" clip-rule="evenodd" d="M4.81625 0.00109863C4.74558 0.00107404 4.67571 0.0160334 4.61124 0.0449827C4.54677 0.0739321 4.48917 0.116233 4.44223 0.169067L0.442302 4.6689C0.378303 4.74097 0.336497 4.83 0.321916 4.92527C0.307336 5.02055 0.320603 5.118 0.360121 5.20591C0.399638 5.29382 0.463722 5.36844 0.544658 5.42078C0.625594 5.47313 0.719933 5.50095 0.816319 5.50092H4.32017V23.4416C4.31127 23.5174 4.31984 23.5942 4.34523 23.6662C4.37062 23.7382 4.41214 23.8034 4.46663 23.8568C4.52111 23.9103 4.5871 23.9506 4.65956 23.9746C4.73201 23.9986 4.80899 24.0057 4.88461 23.9953H20.8169C20.8945 23.9952 20.9709 23.977 21.0403 23.9423C21.1096 23.9075 21.1699 23.8572 21.2164 23.7951L24.2163 19.7973C24.272 19.723 24.3059 19.6346 24.3142 19.5422C24.3225 19.4497 24.3048 19.3567 24.2633 19.2737C24.2217 19.1906 24.1578 19.1208 24.0788 19.072C23.9998 19.0232 23.9088 18.9974 23.8159 18.9974H21.316C21.316 18.9958 21.316 18.9941 21.316 18.9924V0.499998C21.316 0.367396 21.2633 0.240249 21.1695 0.146484C21.0757 0.0527184 20.9486 1.3219e-05 20.816 0H4.81625V0.00109863ZM5.32015 1.00109H20.316V18.9935C20.316 18.9952 20.316 18.9969 20.316 18.9985H7.8201C7.7424 18.9985 7.66576 19.0166 7.59626 19.0513C7.52676 19.0861 7.46631 19.1365 7.41972 19.1987L5.32015 21.9965V5.05284C5.32408 5.01681 5.32408 4.98046 5.32015 4.94444V1.00219V1.00109ZM4.32017 1.81161V4.50093H1.93056L4.32017 1.81161ZM8.0701 19.9974H22.8159L20.567 22.9954H5.82112L8.0701 19.9974Z" fill="black"/>
<path d="M14.8162 3.50049C14.6835 3.5005 14.5564 3.55321 14.4626 3.64697C14.3689 3.74074 14.3162 3.86788 14.3162 4.00049V7.00038C14.3162 7.13298 14.3689 7.26014 14.4626 7.3539C14.5564 7.44765 14.6836 7.50031 14.8162 7.50032H17.8161C17.9487 7.50031 18.0759 7.44765 18.1696 7.3539C18.2634 7.26014 18.3161 7.13298 18.3161 7.00038V4.00049C18.3161 3.86788 18.2634 3.74074 18.1696 3.64697C18.0759 3.55321 17.9487 3.5005 17.8161 3.50049H14.8162ZM15.3161 4.50045H17.3161V6.50038H15.3161V4.50045Z" fill="black"/>
<path fill-rule="evenodd" clip-rule="evenodd" d="M7.82308 9.50049C7.75678 9.49948 7.69095 9.51164 7.6294 9.53631C7.56786 9.56099 7.51183 9.59767 7.46459 9.64419C7.41735 9.69072 7.37983 9.74618 7.35422 9.80734C7.32862 9.8685 7.31543 9.93412 7.31543 10.0004C7.31543 10.0667 7.32862 10.1324 7.35422 10.1935C7.37983 10.2547 7.41735 10.3102 7.46459 10.3567C7.51183 10.4032 7.56786 10.4399 7.6294 10.4646C7.69095 10.4893 7.75678 10.5014 7.82308 10.5004H17.8092C17.8755 10.5014 17.9414 10.4893 18.0029 10.4646C18.0645 10.4399 18.1205 10.4032 18.1677 10.3567C18.215 10.3102 18.2525 10.2547 18.2781 10.1935C18.3037 10.1324 18.3169 10.0667 18.3169 10.0004C18.3169 9.93412 18.3037 9.8685 18.2781 9.80734C18.2525 9.74618 18.215 9.69072 18.1677 9.64419C18.1205 9.59767 18.0645 9.56099 18.0029 9.53631C17.9414 9.51164 17.8755 9.49948 17.8092 9.50049H7.82308Z" fill="black"/>
<path fill-rule="evenodd" clip-rule="evenodd" d="M7.82308 12.5C7.75678 12.499 7.69095 12.5112 7.6294 12.5359C7.56786 12.5606 7.51183 12.5972 7.46459 12.6437C7.41735 12.6903 7.37983 12.7457 7.35422 12.8069C7.32862 12.868 7.31543 12.9337 7.31543 13C7.31543 13.0663 7.32862 13.1319 7.35422 13.1931C7.37983 13.2543 7.41735 13.3097 7.46459 13.3563C7.51183 13.4028 7.56786 13.4394 7.6294 13.4641C7.69095 13.4888 7.75678 13.5009 7.82308 13.4999H17.8092C17.8755 13.5009 17.9414 13.4888 18.0029 13.4641C18.0645 13.4394 18.1205 13.4028 18.1677 13.3563C18.215 13.3097 18.2525 13.2543 18.2781 13.1931C18.3037 13.1319 18.3169 13.0663 18.3169 13C18.3169 12.9337 18.3037 12.868 18.2781 12.8069C18.2525 12.7457 18.215 12.6903 18.1677 12.6437C18.1205 12.5972 18.0645 12.5606 18.0029 12.5359C17.9414 12.5112 17.8755 12.499 17.8092 12.5H7.82308Z" fill="black"/>
<path fill-rule="evenodd" clip-rule="evenodd" d="M7.82308 15.5C7.75678 15.499 7.69095 15.5112 7.6294 15.5358C7.56786 15.5605 7.51183 15.5971 7.46459 15.6437C7.41735 15.6902 7.37983 15.7457 7.35422 15.8068C7.32862 15.868 7.31543 15.9336 7.31543 15.9999C7.31543 16.0662 7.32862 16.1319 7.35422 16.193C7.37983 16.2542 7.41735 16.3097 7.46459 16.3562C7.51183 16.4027 7.56786 16.4394 7.6294 16.464C7.69095 16.4887 7.75678 16.5009 7.82308 16.4999H17.8092C17.8755 16.5009 17.9414 16.4887 18.0029 16.464C18.0645 16.4394 18.1205 16.4027 18.1677 16.3562C18.215 16.3097 18.2525 16.2542 18.2781 16.193C18.3037 16.1319 18.3169 16.0662 18.3169 15.9999C18.3169 15.9336 18.3037 15.868 18.2781 15.8068C18.2525 15.7457 18.215 15.6902 18.1677 15.6437C18.1205 15.5971 18.0645 15.5605 18.0029 15.5358C17.9414 15.5112 17.8755 15.499 17.8092 15.5H7.82308Z" fill="black"/>
<path fill-rule="evenodd" clip-rule="evenodd" d="M7.82308 6.50055C7.75678 6.49954 7.69094 6.51173 7.6294 6.5364C7.56785 6.56108 7.51183 6.59773 7.46459 6.64425C7.41735 6.69078 7.37983 6.74624 7.35422 6.8074C7.32862 6.86856 7.31543 6.93421 7.31543 7.00051C7.31543 7.06682 7.32862 7.13247 7.35422 7.19363C7.37983 7.25479 7.41735 7.31025 7.46459 7.35677C7.51183 7.4033 7.56785 7.43998 7.6294 7.46465C7.69094 7.48933 7.75678 7.50149 7.82308 7.50048H11.8093C11.8756 7.50149 11.9415 7.48933 12.003 7.46465C12.0646 7.43998 12.1206 7.4033 12.1678 7.35677C12.2151 7.31025 12.2526 7.25479 12.2782 7.19363C12.3038 7.13247 12.317 7.06682 12.317 7.00051C12.317 6.93421 12.3038 6.86856 12.2782 6.8074C12.2526 6.74624 12.2151 6.69078 12.1678 6.64425C12.1206 6.59773 12.0646 6.56108 12.003 6.5364C11.9415 6.51173 11.8756 6.49954 11.8093 6.50055H7.82308Z" fill="black"/>
<path fill-rule="evenodd" clip-rule="evenodd" d="M7.82308 3.50055C7.75678 3.49954 7.69094 3.51173 7.6294 3.5364C7.56785 3.56108 7.51183 3.59776 7.46459 3.64428C7.41735 3.69081 7.37983 3.74627 7.35422 3.80743C7.32862 3.86859 7.31543 3.93421 7.31543 4.00051C7.31543 4.06682 7.32862 4.13247 7.35422 4.19363C7.37983 4.25479 7.41735 4.31025 7.46459 4.35677C7.51183 4.4033 7.56785 4.43998 7.6294 4.46465C7.69094 4.48933 7.75678 4.50152 7.82308 4.50051H11.8093C11.8756 4.50152 11.9415 4.48933 12.003 4.46465C12.0646 4.43998 12.1206 4.4033 12.1678 4.35677C12.2151 4.31025 12.2526 4.25479 12.2782 4.19363C12.3038 4.13247 12.317 4.06682 12.317 4.00051C12.317 3.93421 12.3038 3.86859 12.2782 3.80743C12.2526 3.74627 12.2151 3.69081 12.1678 3.64428C12.1206 3.59776 12.0646 3.56108 12.003 3.5364C11.9415 3.51173 11.8756 3.49954 11.8093 3.50055H7.82308Z" fill="black"/>
</svg>
