<svg width="174" height="155" viewBox="0 0 174 155" fill="none" xmlns="http://www.w3.org/2000/svg">
<path d="M85.782 1.47285C74.2095 3.2046 30.6365 9.73242 10.8561 45.2318C-8.23336 79.4946 2.18089 127.557 34.6086 146.481C86.6532 176.848 169.83 117.239 165.975 92.8443C164.533 83.7114 151.305 82.1477 149.075 69.6743C145.557 49.9528 176.025 39.3072 173.208 24.6399C169.957 7.70955 124.351 -4.30464 85.782 1.47285Z" fill="#CADDFF"/>
<path d="M163.852 107.398H26.2508C23.9444 107.398 22.1853 105.528 22.5558 103.469L22.5491 16.4702C22.8428 14.8315 24.4083 13.625 26.2442 13.625H163.849C166.152 13.625 167.487 15.0566 167.544 17.5537L167.548 104.552C167.451 106.383 165.688 107.398 163.852 107.398Z" fill="#6C93EC"/>
<path d="M160.257 107.503H22.6559C20.3494 107.503 18.5936 105.627 18.9608 103.562L18.9575 16.6506C19.2512 15.0029 20.8167 13.7933 22.6525 13.7933H160.254C162.561 13.7933 163.896 15.231 163.949 17.737L163.953 104.649C163.856 106.485 162.097 107.503 160.257 107.503Z" fill="white"/>
<path d="M160.258 107.575H157.22C157.047 107.575 156.906 107.452 156.906 107.296C156.906 107.143 157.047 107.017 157.22 107.017H160.258C161.823 107.017 163.549 106.209 163.642 104.435L163.639 17.728C163.589 15.375 162.384 14.0754 160.254 14.0754H22.6526C20.967 14.0754 19.5484 15.1619 19.268 16.6655L19.2713 75.4549C19.2713 75.608 19.1311 75.734 18.9609 75.734C18.7873 75.734 18.6471 75.608 18.6471 75.4549L18.6438 16.6445C18.6438 16.6295 18.6471 16.6145 18.6471 16.5995C18.9676 14.8107 20.6532 13.5142 22.6526 13.5142H160.254C162.744 13.5142 164.203 15.0478 164.26 17.725L164.266 104.447C164.156 106.506 162.167 107.575 160.258 107.575Z" fill="black"/>
<path d="M37.6698 46.174C37.5963 43.926 35.5168 42.1943 33.0501 42.3623C30.6435 42.5274 28.821 44.4092 28.9278 46.6122C28.9812 47.6776 29.4719 48.6201 30.2496 49.2953C30.8471 49.8146 31.2009 50.5259 31.2243 51.2852L31.241 51.7384C31.251 52.1106 31.5914 52.3987 31.9987 52.3807L34.9694 52.2516C35.3766 52.2366 35.6971 51.9185 35.6837 51.5463L35.6704 51.0961C35.647 50.3488 35.9307 49.6075 36.4915 49.0522C37.2559 48.2929 37.7031 47.2755 37.6698 46.174Z" fill="white"/>
<path d="M33.3805 42.6324C33.2803 42.6324 33.1769 42.6354 33.0734 42.6414C30.8236 42.7945 29.1413 44.5352 29.2415 46.6001C29.2882 47.5635 29.7221 48.4489 30.4665 49.0942C31.1307 49.6704 31.5113 50.4448 31.538 51.2791L31.5513 51.7293C31.5546 51.8374 31.6047 51.9334 31.6882 52.0054C31.7683 52.0715 31.8717 52.1045 31.9819 52.1015L34.956 51.9724C35.193 51.9634 35.3799 51.7743 35.3732 51.5552L35.3599 51.1051C35.3331 50.2737 35.6603 49.4573 36.2611 48.8631C36.9988 48.1308 37.3893 47.1794 37.3559 46.1829C37.3225 45.1535 36.8452 44.2141 36.0141 43.5418C35.2831 42.9505 34.3585 42.6324 33.3805 42.6324ZM31.9619 52.6597C31.7015 52.6597 31.4578 52.5757 31.2642 52.4166C31.0573 52.2425 30.9371 52.0024 30.9271 51.7443L30.9138 51.2941C30.8904 50.6068 30.58 49.9706 30.0326 49.4964C29.1747 48.752 28.6707 47.7316 28.6173 46.6271C28.5038 44.2561 30.4398 42.2602 33.0267 42.0832C34.285 41.9991 35.4934 42.3683 36.4313 43.1246C37.3926 43.9019 37.9434 44.9824 37.9801 46.1649C38.0168 47.3084 37.5695 48.4009 36.7217 49.2382C36.231 49.7275 35.9607 50.3997 35.9807 51.087L35.9974 51.5372C36.0141 52.0625 35.5601 52.5067 34.9827 52.5337L32.0119 52.6597C31.9952 52.6597 31.9786 52.6597 31.9619 52.6597Z" fill="black"/>
<path d="M33.5773 55.0491C32.5626 55.0911 31.7148 54.3738 31.6847 53.4464L31.6514 52.3539L35.3231 52.1948L35.3564 53.2873C35.3865 54.2177 34.5887 55.007 33.5773 55.0491Z" fill="white"/>
<path d="M31.9717 52.6206L31.9984 53.4369C32.0084 53.8181 32.182 54.1662 32.4857 54.4184C32.7795 54.6615 33.16 54.7845 33.5605 54.7695C34.405 54.7335 35.0693 54.0702 35.0459 53.2959L35.0192 52.4885L31.9717 52.6206ZM33.4871 55.3308C32.9564 55.3308 32.4557 55.1537 32.0618 54.8295C31.6346 54.4724 31.3909 53.9832 31.3742 53.4519L31.3308 52.0863L35.6234 51.9003L35.6701 53.2779C35.7035 54.3583 34.7722 55.2767 33.5906 55.3277C33.5572 55.3308 33.5205 55.3308 33.4871 55.3308Z" fill="black"/>
<path d="M33.1468 39.7422C32.9833 39.7422 32.8431 39.6252 32.8364 39.4751L32.7029 36.7829C32.6962 36.6299 32.8297 36.4978 32.9999 36.4918C33.1702 36.4828 33.3171 36.6058 33.3237 36.7589L33.4606 39.4511C33.4673 39.6041 33.3337 39.7362 33.1635 39.7422C33.1568 39.7422 33.1535 39.7422 33.1468 39.7422Z" fill="black"/>
<path d="M25.7533 47.8039L24.1244 47.8009C23.9542 47.8009 23.814 47.6779 23.814 47.5218C23.814 47.3657 23.9542 47.2427 24.1244 47.2427H25.7533C25.9269 47.2427 26.067 47.3687 26.067 47.5248C26.067 47.6779 25.9269 47.8039 25.7533 47.8039Z" fill="black"/>
<path d="M27.2587 42.5217C27.1819 42.5217 27.1051 42.4976 27.045 42.4466L25.2058 40.901C25.0823 40.7959 25.0757 40.6188 25.1925 40.5048C25.3093 40.3937 25.5063 40.3877 25.6331 40.4928L27.4689 42.0384C27.5958 42.1435 27.6025 42.3206 27.4856 42.4316C27.4222 42.4916 27.3388 42.5217 27.2587 42.5217Z" fill="black"/>
<path d="M40.9143 47.8039C40.7408 47.8039 40.6039 47.6779 40.6006 47.5248C40.6006 47.3687 40.7408 47.2427 40.9143 47.2427H42.5432C42.7135 47.2427 42.8537 47.3657 42.8537 47.5218C42.8537 47.6779 42.7135 47.8009 42.5432 47.8009L40.9143 47.8039Z" fill="black"/>
<path d="M39.4122 42.5217C39.3287 42.5217 39.2453 42.4916 39.1819 42.4316C39.065 42.3206 39.0717 42.1435 39.1986 42.0384L41.0344 40.4928C41.1612 40.3877 41.3582 40.3937 41.475 40.5048C41.5918 40.6188 41.5852 40.7959 41.4617 40.901L39.6225 42.4466C39.5624 42.4976 39.4856 42.5217 39.4122 42.5217Z" fill="black"/>
<path d="M80.6521 33.5567C80.6488 40.0215 74.8308 45.2588 67.661 45.2528C60.4912 45.2498 54.6833 40.0035 54.6899 33.5387C54.6966 27.0739 60.5112 21.8367 67.6811 21.8427C74.8509 21.8457 80.6588 27.0919 80.6521 33.5567Z" fill="#CADDFF"/>
<path d="M67.9011 33.5955L74.7672 43.3167C78.2753 41.2218 80.5918 37.6353 80.5952 33.5565C80.5985 30.9724 79.6706 28.5834 78.0984 26.6445L67.9011 33.5955Z" fill="#99B9FF"/>
<path d="M70.4513 22.1249L67.9011 33.5958L78.0984 26.6478C76.2726 24.3939 73.5756 22.7551 70.4513 22.1249Z" fill="#6C93EC"/>
<path d="M71.6262 33.5506C71.6262 35.5225 69.8537 37.1161 67.6674 37.1161C65.4844 37.1131 63.7153 35.5165 63.7153 33.5446C63.7153 31.5757 65.4878 29.9791 67.6741 29.9821C69.8571 29.9821 71.6295 31.5818 71.6262 33.5506Z" fill="white"/>
<path d="M102.058 50.6491C101.974 50.6491 101.894 50.6191 101.837 50.565L96.38 45.6429C96.2565 45.5349 96.2565 45.3578 96.38 45.2468C96.5035 45.1387 96.7004 45.1387 96.8206 45.2498L102.058 49.9708L126.374 28.0613C126.495 27.9503 126.691 27.9503 126.815 28.0583C126.935 28.1694 126.935 28.3464 126.815 28.4545L102.278 50.565C102.221 50.6191 102.141 50.6491 102.058 50.6491Z" fill="black"/>
<path d="M67.8678 66.8472C67.7843 66.8472 67.7042 66.8172 67.6441 66.7632L60.1739 60.0283L52.7471 66.7482C52.6269 66.8592 52.43 66.8592 52.3065 66.7512C52.183 66.6401 52.183 66.463 52.3065 66.355L59.9536 59.434C60.0104 59.383 60.0905 59.353 60.1739 59.353C60.2574 59.353 60.3375 59.383 60.3942 59.434L67.8678 66.1719L90.8793 45.4179C91.0028 45.3099 91.1997 45.3099 91.3199 45.4179C91.4434 45.526 91.4434 45.7061 91.3232 45.8141L68.0881 66.7632C68.028 66.8172 67.9479 66.8472 67.8678 66.8472Z" fill="black"/>
<path d="M58.7852 59.6318C58.7852 58.9415 59.4093 58.3802 60.1737 58.3802C60.9414 58.3802 61.5623 58.9415 61.5623 59.6318C61.5623 60.3221 60.9414 60.8833 60.1737 60.8833C59.4093 60.8833 58.7852 60.3221 58.7852 59.6318Z" fill="#6C93EC"/>
<path d="M60.174 57.8192C59.0658 57.8192 58.1646 58.6326 58.1646 59.632C58.1646 60.6314 59.0658 61.4448 60.174 61.4448C61.2855 61.4448 62.1867 60.6314 62.1867 59.632C62.1867 58.6326 61.2855 57.8192 60.174 57.8192ZM60.174 58.3805C60.9417 58.3805 61.5625 58.9417 61.5625 59.632C61.5625 60.3223 60.9417 60.8835 60.174 60.8835C59.4096 60.8835 58.7854 60.3223 58.7854 59.632C58.7854 58.9417 59.4096 58.3805 60.174 58.3805Z" fill="black"/>
<path d="M100.713 50.3158C100.713 49.6255 101.333 49.0673 102.101 49.0673C102.869 49.0673 103.49 49.6255 103.49 50.3158C103.49 51.0091 102.869 51.5673 102.101 51.5673C101.333 51.5673 100.713 51.0091 100.713 50.3158Z" fill="#99B9FF"/>
<path d="M102.101 48.5059C100.993 48.5059 100.088 49.3192 100.088 50.3156C100.088 51.3151 100.993 52.1284 102.101 52.1284C103.209 52.1284 104.11 51.3151 104.11 50.3156C104.11 49.3192 103.209 48.5059 102.101 48.5059ZM102.101 49.0671C102.869 49.0671 103.489 49.6253 103.489 50.3156C103.489 51.0089 102.869 51.5672 102.101 51.5672C101.333 51.5672 100.712 51.0089 100.712 50.3156C100.712 49.6253 101.333 49.0671 102.101 49.0671Z" fill="black"/>
<path d="M125.53 28.1366C125.53 27.4463 126.151 26.885 126.919 26.885C127.683 26.885 128.304 27.4463 128.304 28.1366C128.304 28.8268 127.683 29.3881 126.919 29.3881C126.151 29.3881 125.53 28.8268 125.53 28.1366Z" fill="#6C93EC"/>
<path d="M126.918 26.3235C125.807 26.3235 124.905 27.1368 124.905 28.1363C124.905 29.1357 125.807 29.9461 126.918 29.9461C128.026 29.9461 128.927 29.1357 128.927 28.1363C128.927 27.1368 128.026 26.3235 126.918 26.3235ZM126.918 26.8847C127.682 26.8847 128.303 27.446 128.303 28.1363C128.303 28.8266 127.682 29.3878 126.918 29.3878C126.15 29.3878 125.529 28.8266 125.529 28.1363C125.529 27.446 126.15 26.8847 126.918 26.8847Z" fill="black"/>
<path d="M66.6057 66.424C66.6057 65.7307 67.2266 65.1694 67.9943 65.1694C68.762 65.1694 69.3828 65.7307 69.3828 66.424C69.3828 67.1143 68.762 67.6725 67.9943 67.6725C67.2266 67.6725 66.6057 67.1143 66.6057 66.424Z" fill="#99B9FF"/>
<path d="M67.9948 64.6111C66.8866 64.6111 65.9854 65.4244 65.9854 66.4239C65.9854 67.4203 66.8866 68.2336 67.9948 68.2336C69.103 68.2336 70.0075 67.4203 70.0075 66.4239C70.0075 65.4244 69.103 64.6111 67.9948 64.6111ZM67.9948 65.1693C68.7625 65.1693 69.3833 65.7306 69.3833 66.4239C69.3833 67.1142 68.7625 67.6724 67.9948 67.6724C67.2271 67.6724 66.6062 67.1142 66.6062 66.4239C66.6062 65.7306 67.2271 65.1693 67.9948 65.1693Z" fill="black"/>
<path d="M92.5544 43.1485C92.5544 42.4582 93.1753 41.897 93.943 41.897C94.7074 41.897 95.3282 42.4582 95.3282 43.1485C95.3282 43.8388 94.7074 44.4001 93.943 44.4001C93.1753 44.4001 92.5544 43.8388 92.5544 43.1485Z" fill="#6C93EC"/>
<path d="M93.9429 41.339C92.8314 41.339 91.9302 42.1493 91.9302 43.1488C91.9302 44.1482 92.8314 44.9616 93.9429 44.9616C95.0511 44.9616 95.9523 44.1482 95.9523 43.1488C95.9523 42.1493 95.0511 41.339 93.9429 41.339ZM93.9429 41.8972C94.7073 41.8972 95.3282 42.4585 95.3282 43.1488C95.3282 43.8391 94.7073 44.4003 93.9429 44.4003C93.1752 44.4003 92.5544 43.8391 92.5544 43.1488C92.5544 42.4585 93.1752 41.8972 93.9429 41.8972Z" fill="black"/>
<path d="M56.7791 90.6446L54.5527 90.6026C53.5714 90.5846 52.7903 89.8612 52.7903 88.9789L52.8136 79.3357C52.8136 78.4293 53.6381 77.703 54.6395 77.718L56.8458 77.751C57.8272 77.766 58.6149 78.4863 58.6149 79.3717C58.6149 81.8298 58.6149 86.5298 58.6149 89.0239C58.6149 89.9333 57.7871 90.6656 56.7791 90.6446Z" fill="#CADDFF"/>
<path d="M64.6699 90.6443L62.4402 90.6023C61.4622 90.5843 60.6812 89.861 60.6812 88.9786L60.7045 73.2488C60.7079 72.3424 61.529 71.6161 62.5337 71.6281L64.74 71.6641C65.7214 71.6791 66.5058 72.3964 66.5058 73.2818C66.5058 76.8413 66.5058 85.41 66.5058 89.0266C66.5058 89.933 65.678 90.6653 64.6699 90.6443Z" fill="#CADDFF"/>
<path d="M72.564 90.6444L70.3343 90.6023C69.3563 90.5843 68.5719 89.861 68.5752 88.9786L68.5986 76.4932C68.5986 75.5869 69.4197 74.8575 70.4244 74.8725L72.6308 74.9056C73.6121 74.9206 74.3998 75.6409 74.3998 76.5263C74.3998 79.5246 74.3998 85.9803 74.3998 89.0237C74.3998 89.933 73.5687 90.6654 72.564 90.6444Z" fill="#CADDFF"/>
<path d="M80.4549 90.6445L78.2251 90.6024C77.2471 90.5844 76.4661 89.8611 76.4661 88.9817L76.4894 64.4161C76.4894 63.5097 77.3139 62.7834 78.3186 62.7954L80.5216 62.8284C81.503 62.8435 82.2907 63.5668 82.2907 64.4522C82.2907 69.3353 82.2907 84.0626 82.2907 89.0268C82.2907 89.9332 81.4629 90.6655 80.4549 90.6445Z" fill="#CADDFF"/>
<path d="M88.346 90.6441L86.1163 90.602C85.1382 90.584 84.3572 89.8637 84.3572 88.9813L84.3839 58.092C84.3839 57.1856 85.205 56.4563 86.2097 56.4713L88.4161 56.5043C89.3974 56.5193 90.1818 57.2396 90.1818 58.125C90.1818 63.8305 90.1818 83.2189 90.1818 89.0234C90.1818 89.9328 89.354 90.6651 88.346 90.6441Z" fill="#CADDFF"/>
<path d="M96.2363 90.6442L94.0066 90.6022C93.0286 90.5842 92.2476 89.8639 92.2476 88.9815L92.2743 53.3891C92.2743 52.4827 93.0987 51.7534 94.1001 51.7684L96.3064 51.8014C97.2878 51.8164 98.0722 52.5367 98.0722 53.4221C98.0722 59.6918 98.0722 82.6428 98.0722 89.0235C98.0722 89.9329 97.2444 90.6652 96.2363 90.6442Z" fill="#99B9FF"/>
<path d="M104.13 90.6443L101.901 90.6023C100.923 90.5843 100.138 89.864 100.142 88.9816L100.165 63.6957C100.165 62.7923 100.989 62.063 101.991 62.078L104.197 62.111C105.179 62.126 105.966 62.8463 105.966 63.7317C105.966 68.7139 105.966 83.9604 105.966 89.0266C105.966 89.933 105.138 90.6653 104.13 90.6443Z" fill="#CADDFF"/>
<path d="M112.022 90.6441L109.792 90.6021C108.814 90.5841 108.033 89.8638 108.033 88.9814L108.056 55.4299C108.059 54.5235 108.881 53.7942 109.885 53.8092L112.092 53.8422C113.07 53.8572 113.857 54.5805 113.857 55.4629C113.857 61.4955 113.857 82.8918 113.857 89.0264C113.857 89.9328 113.03 90.6651 112.022 90.6441Z" fill="#CADDFF"/>
<path d="M119.912 90.6441L117.682 90.6021C116.704 90.5841 115.923 89.8638 115.923 88.9814L115.95 45.3546C115.95 44.4482 116.775 43.7189 117.776 43.7339L119.982 43.7669C120.964 43.7819 121.748 44.5022 121.748 45.3876C121.748 52.5517 121.748 81.7393 121.748 89.0264C121.748 89.9328 120.92 90.6651 119.912 90.6441Z" fill="#CADDFF"/>
<path d="M127.913 90.6442L125.683 90.6022C124.702 90.5842 123.921 89.8639 123.921 88.9815L123.947 38.5837C123.947 37.6773 124.772 36.948 125.773 36.963L127.98 36.999C128.961 37.011 129.749 37.7343 129.749 38.6167C129.749 46.4741 129.749 81.031 129.749 89.0265C129.749 89.9329 128.921 90.6652 127.913 90.6442Z" fill="#99B9FF"/>
<path d="M146.051 23.9733H136.842C136.124 23.9733 135.543 23.4511 135.543 22.8058C135.543 22.1605 136.124 21.6383 136.842 21.6383H146.051C146.769 21.6383 147.349 22.1605 147.349 22.8058C147.349 23.4511 146.769 23.9733 146.051 23.9733Z" fill="#CADDFF"/>
<path d="M156.349 23.9733H151.989C151.272 23.9733 150.691 23.4511 150.691 22.8058C150.691 22.1605 151.272 21.6383 151.989 21.6383H156.349C157.066 21.6383 157.647 22.1605 157.647 22.8058C157.647 23.4511 157.066 23.9733 156.349 23.9733Z" fill="#CADDFF"/>
<path d="M156.506 29.1086H137.103C136.382 29.1086 135.801 28.5863 135.801 27.9411C135.801 27.2988 136.382 26.7736 137.103 26.7736H156.506C157.223 26.7736 157.804 27.2988 157.804 27.9411C157.804 28.5863 157.223 29.1086 156.506 29.1086Z" fill="#CADDFF"/>
<path d="M156.766 34.2439H141.472C140.754 34.2439 140.174 33.7217 140.174 33.0764C140.174 32.4342 140.754 31.9089 141.472 31.9089H156.766C157.481 31.9089 158.065 32.4342 158.065 33.0764C158.065 33.7217 157.481 34.2439 156.766 34.2439Z" fill="#CADDFF"/>
<path d="M154.196 39.379H137.62C136.899 39.379 136.321 38.8567 136.321 38.2114C136.321 37.5692 136.899 37.0439 137.62 37.0439H154.196C154.913 37.0439 155.494 37.5692 155.494 38.2114C155.494 38.8567 154.913 39.379 154.196 39.379Z" fill="#CADDFF"/>
<path d="M156.399 44.3761H141.589C140.871 44.3761 140.291 43.8539 140.291 43.2086C140.291 42.5634 140.871 42.0411 141.589 42.0411H156.399C157.117 42.0411 157.698 42.5634 157.698 43.2086C157.698 43.8539 157.117 44.3761 156.399 44.3761Z" fill="#CADDFF"/>
<path d="M118.681 47.4438C118.687 43.476 122.259 40.2436 126.662 40.2256C131.064 40.2106 134.629 43.413 134.622 47.3807C134.616 51.3514 131.044 54.5838 126.642 54.5988C122.239 54.6169 118.674 51.4145 118.681 47.4438Z" fill="white"/>
<path d="M126.698 40.5075C126.685 40.5075 126.675 40.5075 126.665 40.5075C122.439 40.5225 118.998 43.6348 118.994 47.4465C118.991 49.2953 119.789 51.03 121.237 52.3296C122.683 53.6202 124.595 54.3345 126.641 54.3195C130.864 54.3044 134.305 51.1921 134.312 47.3805C134.312 45.5317 133.514 43.7969 132.066 42.4973C130.63 41.2128 128.724 40.5075 126.698 40.5075ZM126.605 54.8807C124.412 54.8807 122.352 54.1154 120.8 52.7258C119.228 51.3182 118.367 49.4453 118.37 47.4435C118.377 43.3287 122.095 39.9643 126.661 39.9462C128.864 39.9372 130.944 40.7026 132.506 42.1012C134.075 43.5058 134.936 45.3816 134.933 47.3835C134.929 51.4982 131.208 54.8627 126.641 54.8807C126.631 54.8807 126.618 54.8807 126.605 54.8807Z" fill="black"/>
<path d="M130.693 44.0764L128.267 45.3639C128.14 45.43 128.137 45.595 128.26 45.6641L128.617 45.8741C128.711 45.9252 128.734 46.0362 128.677 46.1173L127.552 47.6989C127.492 47.783 127.372 47.807 127.282 47.753L125.193 46.5464C125.099 46.4924 124.979 46.5164 124.922 46.5975L122.409 50.112C122.349 50.193 122.375 50.3041 122.465 50.3551L123.23 50.7963C123.32 50.8503 123.443 50.8263 123.5 50.7453L125.313 48.2182C125.373 48.1341 125.493 48.1101 125.583 48.1641L127.673 49.3707C127.763 49.4247 127.883 49.4007 127.943 49.3196L129.769 46.7505C129.829 46.6695 129.949 46.6455 130.039 46.6995L130.426 46.9216C130.55 46.9936 130.713 46.9216 130.727 46.7895L130.987 44.2444C131.004 44.1034 130.83 44.0043 130.693 44.0764Z" fill="#6C93EC"/>
<path d="M45.9614 125.645L16.8482 125.387C11.5844 125.387 7.0782 122.299 6.15694 117.599L1.17345 92.199C0.579306 89.1737 3.14615 86.3975 6.53746 86.3975H25.5335L45.9614 125.645Z" fill="#99B9FF"/>
<path d="M6.53716 86.6767C5.02509 86.6767 3.59647 87.277 2.61847 88.3214C1.62711 89.3869 1.20987 90.7795 1.48024 92.1511L6.46373 117.551C7.33826 121.999 11.6074 125.108 16.8479 125.108L45.4704 125.363L25.3329 86.6767H6.53716ZM46.4518 125.931L16.8446 125.667C11.3003 125.667 6.77749 122.368 5.84955 117.65L0.866068 92.2471C0.565656 90.7135 1.02962 89.1528 2.14115 87.9613C3.23598 86.7908 4.83817 86.1155 6.53716 86.1155H25.7301L25.8135 86.2775L46.4518 125.931Z" fill="#6C93EC"/>
<path d="M28.5907 150.358H23.8042V125.342L28.5907 125.471V150.358Z" fill="#99B9FF"/>
<path d="M24.1147 150.076H28.2804V125.744L24.1147 125.63V150.076ZM28.9046 150.637H23.4905V125.051L28.9046 125.201V150.637Z" fill="#6C93EC"/>
<path d="M37.5097 147.909H15.9636C12.6023 147.909 9.87524 150.355 9.87524 153.374H43.5947C43.5947 150.355 40.871 147.909 37.5097 147.909Z" fill="#99B9FF"/>
<path d="M10.1953 153.095H43.2739C43.1104 150.364 40.5869 148.188 37.5094 148.188H15.9632C12.8823 148.188 10.3589 150.364 10.1953 153.095ZM43.9048 153.654H9.56445V153.375C9.56445 150.205 12.435 147.627 15.9632 147.627H37.5094C41.0375 147.627 43.9048 150.205 43.9048 153.375V153.654Z" fill="#6C93EC"/>
<path d="M9.04699 106.287C8.90012 106.287 8.7666 106.191 8.74324 106.056L6.3266 93.7267C6.29656 93.5736 6.41004 93.4295 6.58028 93.4025C6.74717 93.3755 6.91073 93.4776 6.94077 93.6306L9.35407 105.96C9.38411 106.11 9.27063 106.257 9.10373 106.284C9.0837 106.287 9.06701 106.287 9.04699 106.287Z" fill="#6C93EC"/>
<path d="M31.4976 78.3871C31.4976 78.3871 34.4883 75.1277 37.5625 76.7544C39.3583 77.7028 40.9038 79.3115 43.3504 80.3109C44.3652 80.7281 44.956 80.8242 44.956 80.8242C44.956 80.8242 43.2703 81.7366 38.4404 81.8866C33.6105 82.0367 31.4976 78.3871 31.4976 78.3871Z" fill="black"/>
<path d="M40.0365 75.5479C37.5765 75.1908 36.0811 72.9998 35.6305 71.7963C35.3234 70.971 35.4803 70.5298 35.5771 70.3347C35.9075 69.6714 36.7487 69.4223 37.0858 69.3142C40.2101 68.3058 40.3202 66.1839 42.7569 65.9468C44.7329 65.7547 44.773 67.1413 48.0475 67.3964C48.715 67.4474 49.7298 67.4714 50.7578 68.0657C51.2485 68.3508 51.9395 68.753 52.0363 69.3052C52.1331 69.8605 51.6457 70.7008 45.2169 73.7802C41.5386 75.5419 40.8643 75.668 40.0365 75.5479Z" fill="black"/>
<path d="M46.5118 71.6939C46.5118 71.6939 42.9202 70.5113 41.6685 70.5774C40.4168 70.6434 40.4702 73.5036 40.4702 73.5036C40.4702 73.5036 39.1817 72.1891 38.4207 73.0354C37.6597 73.8818 39.6557 74.8272 39.6557 74.8272L33.3438 80.0225L39.1951 81.388L42.1658 78.4798C42.1658 78.4798 43.1605 79.5092 44.0684 79.2991C44.9763 79.086 46.2981 76.9431 46.2981 76.9431C46.7922 76.8771 47.1093 76.4389 46.9791 76.0037L46.7488 75.2324C46.6086 74.7642 46.5986 74.269 46.7287 73.7978C46.899 73.1675 46.8522 72.5042 46.5952 71.8979L46.5118 71.6939Z" fill="white"/>
<path d="M33.978 79.8814L39.0917 81.0729L41.9356 78.2907C41.9957 78.2307 42.0791 78.2007 42.1692 78.1977C42.2594 78.2007 42.3428 78.2367 42.4029 78.2967C42.6432 78.5458 43.4009 79.1611 43.9884 79.026C44.5558 78.894 45.5405 77.5944 46.0245 76.8081C46.0713 76.733 46.1547 76.682 46.2515 76.667C46.4017 76.646 46.5285 76.574 46.612 76.4569C46.6921 76.3429 46.7188 76.2078 46.6788 76.0788L46.4484 75.3074C46.2916 74.7942 46.2849 74.248 46.4251 73.7318C46.582 73.1525 46.5386 72.5522 46.3049 71.997L46.2715 71.913C45.1934 71.5648 42.6199 70.8085 41.6886 70.8565C40.9676 70.8955 40.7673 72.6513 40.7807 73.4977C40.784 73.6147 40.7039 73.7197 40.5804 73.7648C40.4602 73.8068 40.3234 73.7768 40.2366 73.6867C40.0664 73.5157 39.4889 73.0324 39.045 73.0324C39.0416 73.0324 39.0383 73.0324 39.035 73.0324C38.8881 73.0355 38.7713 73.0925 38.6645 73.2125C38.5743 73.3116 38.5443 73.4076 38.571 73.5187C38.6578 73.9058 39.3721 74.374 39.8027 74.5811C39.8928 74.6231 39.9529 74.7012 39.9662 74.7912C39.9796 74.8812 39.9429 74.9713 39.8661 75.0343L33.978 79.8814ZM39.1952 81.6672C39.1685 81.6672 39.1418 81.6642 39.1151 81.6582L33.2637 80.2956C33.1536 80.2686 33.0701 80.1905 33.0401 80.0915C33.0134 79.9925 33.0501 79.8844 33.1336 79.8154L39.1384 74.8722C38.7145 74.6231 38.0803 74.1669 37.9602 73.6327C37.8967 73.3566 37.9735 73.0895 38.1805 72.8584C38.4008 72.6123 38.6945 72.4772 39.0216 72.4712C39.4422 72.4652 39.8628 72.6693 40.1765 72.8824C40.2433 71.955 40.5203 70.3583 41.6519 70.2983C42.9503 70.2292 46.4718 71.3817 46.6187 71.4328C46.7055 71.4598 46.7722 71.5198 46.8023 71.5948L46.889 71.7989C47.1661 72.4592 47.2162 73.1735 47.0292 73.8638C46.9157 74.29 46.9224 74.7372 47.0493 75.1604L47.2796 75.9317C47.3664 76.2138 47.313 76.52 47.1327 76.7631C46.9858 76.9701 46.7622 77.1202 46.5018 77.1892C46.158 77.7295 45.0599 79.3562 44.1453 79.5693C43.3575 79.7524 42.5631 79.2091 42.1726 78.885L39.4222 81.5771C39.3621 81.6342 39.2786 81.6672 39.1952 81.6672Z" fill="black"/>
<path d="M42.1658 78.7591C42.079 78.7591 41.9923 78.7261 41.9288 78.6601C41.1044 77.7987 40.9241 76.9673 40.9141 76.9313C40.8841 76.7812 40.9942 76.6342 41.1645 76.6042C41.3313 76.5772 41.4949 76.6762 41.5283 76.8293C41.5316 76.8413 41.6952 77.5586 42.4028 78.2969C42.513 78.4139 42.4996 78.591 42.3694 78.6931C42.3094 78.7381 42.2359 78.7591 42.1658 78.7591Z" fill="black"/>
<path d="M48.4946 145.187C48.9085 144.809 51.3051 138.116 51.3051 138.116L56.0349 141.15L50.8478 147.414L48.4946 145.187Z" fill="white"/>
<path d="M48.8783 145.142L50.8176 146.978L55.5975 141.213L51.4685 138.566C50.8577 140.268 49.4524 144.103 48.8783 145.142ZM50.8477 147.693C50.7609 147.693 50.6808 147.663 50.6207 147.606L48.2675 145.379C48.154 145.271 48.154 145.103 48.2675 144.995C48.5445 144.664 49.8864 141.165 51.0079 138.032C51.0379 137.945 51.1114 137.879 51.2048 137.852C51.2983 137.822 51.4051 137.837 51.4852 137.888L56.2184 140.922C56.2851 140.967 56.3319 141.033 56.3452 141.105C56.3586 141.18 56.3352 141.258 56.2851 141.318L51.098 147.579C51.0413 147.648 50.9578 147.687 50.8677 147.693C50.861 147.693 50.8544 147.693 50.8477 147.693Z" fill="black"/>
<path d="M57.0227 153.647L53.8751 153.629C51.7922 153.62 49.8563 152.669 48.7214 151.102L45.6071 146.675C44.7493 145.454 45.2299 143.83 46.6519 143.152C47.9503 142.533 49.3122 141.927 49.6293 141.957C50.2768 142.011 50.5405 144.763 50.5405 144.763L53.3444 144.86C53.3444 144.86 54.7296 150.034 55.9479 150.622C56.8358 151.051 57.4567 151.681 57.8739 152.255C58.3078 152.855 57.8205 153.65 57.0227 153.647Z" fill="black"/>
<path d="M56.7061 152.825C56.6927 152.825 56.676 152.822 56.6593 152.819L52.3534 152.237C51.292 152.096 50.3674 151.537 49.8166 150.709L46.0114 145C45.9246 144.868 45.9714 144.697 46.1216 144.616C46.2684 144.538 46.4587 144.58 46.5488 144.715L50.3507 150.421C50.808 151.105 51.5724 151.564 52.4469 151.684L56.7528 152.267C56.923 152.291 57.0398 152.432 57.0165 152.585C56.9898 152.723 56.8596 152.825 56.7061 152.825Z" fill="white"/>
<path d="M51.3917 148.531C51.2549 148.531 51.128 148.45 51.0913 148.327C51.0446 148.177 51.1447 148.023 51.3116 147.981L53.7082 147.393C53.8751 147.354 54.0454 147.441 54.0921 147.591C54.1355 147.741 54.0387 147.894 53.8718 147.933L51.4752 148.522C51.4451 148.528 51.4184 148.531 51.3917 148.531Z" fill="white"/>
<path d="M52.6401 149.638C52.5 149.638 52.3731 149.551 52.3397 149.422C52.2963 149.274 52.3998 149.121 52.5667 149.085L54.1756 148.731C54.3425 148.695 54.5127 148.788 54.5528 148.938C54.5928 149.085 54.4893 149.238 54.3225 149.274L52.7169 149.629C52.6902 149.635 52.6669 149.638 52.6401 149.638Z" fill="white"/>
<path d="M64.6436 143.908L70.1377 148.866L73.0517 147.906L67.9848 141.564L64.6436 143.908Z" fill="white"/>
<path d="M65.1106 143.935L70.2176 148.542L72.5575 147.771L67.9211 141.963L65.1106 143.935ZM70.1375 149.149C70.054 149.149 69.9773 149.119 69.9172 149.065L64.423 144.106C64.3596 144.049 64.3262 143.971 64.3329 143.89C64.3362 143.812 64.3796 143.737 64.4497 143.689L67.7943 141.342C67.861 141.294 67.9445 141.273 68.0279 141.285C68.1147 141.297 68.1881 141.336 68.2382 141.399L73.3051 147.744C73.3619 147.816 73.3752 147.906 73.3485 147.99C73.3185 148.071 73.2484 148.14 73.1583 148.17L70.2443 149.131C70.2109 149.143 70.1742 149.149 70.1375 149.149Z" fill="black"/>
<path d="M68.4018 148.092C68.4018 148.092 68.1348 150.202 68.5854 152.066C68.8257 153.059 69.8237 153.758 70.9553 153.758H84.4404C85.4051 153.758 85.8423 152.678 85.1013 152.123C82.7047 150.316 78.2953 147.561 72.8712 146.753L71.3592 148.653L68.4018 148.092Z" fill="black"/>
<path d="M83.7993 152.372H69.8235C69.65 152.372 69.5098 152.246 69.5098 152.093C69.5098 151.937 69.65 151.814 69.8235 151.814H83.7993C83.9729 151.814 84.1097 151.937 84.1097 152.093C84.1097 152.246 83.9729 152.372 83.7993 152.372Z" fill="white"/>
<path d="M76.0019 150.142C75.9618 150.142 75.9218 150.136 75.8817 150.121C75.7248 150.064 75.6481 149.899 75.7115 149.755L76.4525 148.143C76.5193 148.002 76.6995 147.933 76.8597 147.993C77.0199 148.05 77.0934 148.215 77.0299 148.359L76.2889 149.971C76.2389 150.076 76.122 150.142 76.0019 150.142Z" fill="white"/>
<path d="M78.4325 150.565C78.4025 150.565 78.3691 150.562 78.3357 150.553C78.1722 150.505 78.0854 150.346 78.1388 150.199L78.6728 148.744C78.7262 148.597 78.9032 148.518 79.0667 148.567C79.2303 148.615 79.3204 148.774 79.267 148.921L78.7296 150.373C78.6862 150.493 78.566 150.565 78.4325 150.565Z" fill="white"/>
<path d="M35.5572 109.207C35.5572 109.207 60.6716 106.581 68.1385 112.389C75.6054 118.193 56.349 143.164 56.349 143.164L50.2607 139.106L56.0353 121.458L32.8235 115.537L35.5572 109.207Z" fill="black"/>
<path d="M21.7378 120.699C25.3862 121.74 31.9118 123.082 41.0342 122.971C43.6245 122.941 46.0177 124.226 47.196 126.299C49.8997 131.059 55.7477 139.631 65.2741 145.187L69.8236 142.984L58.2111 119.504C57.1496 117.359 55.1669 115.693 52.7169 114.885L29.7021 107.304C29.7021 107.304 22.5656 105.512 19.0642 111.236C18.44 112.256 18.0161 113.178 17.739 114.003C16.7911 116.83 18.6036 119.808 21.7378 120.699Z" fill="black"/>
<path d="M63.4582 130.394C63.338 130.394 63.2245 130.331 63.1745 130.229L57.9273 119.616C56.9059 117.554 54.9666 115.925 52.6067 115.15L41.5882 111.519C41.4247 111.465 41.3412 111.306 41.4013 111.158C41.4614 111.014 41.6417 110.939 41.8019 110.993L52.8236 114.622C55.3404 115.453 57.4066 117.188 58.4947 119.388L63.7419 130.001C63.812 130.142 63.7419 130.307 63.585 130.37C63.545 130.385 63.5016 130.394 63.4582 130.394Z" fill="white"/>
<path d="M57.3302 139.514C57.2501 139.514 57.1667 139.487 57.1066 139.43C56.0485 138.44 55.007 137.38 54.0123 136.273C53.9055 136.153 53.9256 135.978 54.0591 135.879C54.1926 135.783 54.3895 135.801 54.4963 135.921C55.481 137.014 56.5091 138.061 57.5572 139.04C57.674 139.151 57.6707 139.331 57.5472 139.436C57.4871 139.49 57.4103 139.514 57.3302 139.514Z" fill="white"/>
<path d="M54.2556 136.378C54.1621 136.378 54.0754 136.342 54.0119 136.273C53.5246 135.732 53.0373 135.168 52.5633 134.598C52.4632 134.475 52.4899 134.298 52.6267 134.208C52.7669 134.115 52.9605 134.142 53.064 134.265C53.5313 134.829 54.0153 135.384 54.4959 135.921C54.6061 136.041 54.5827 136.219 54.4492 136.315C54.3925 136.357 54.3224 136.378 54.2556 136.378Z" fill="white"/>
<path d="M68.3448 73.6508C68.4716 73.4287 69.0958 72.7564 69.3829 72.5644L72.4003 70.0463C72.4003 70.0463 72.7909 71.2588 72.3169 71.9761C73.2415 72.0031 73.9758 72.1442 73.9758 72.1442C73.9758 72.1442 75.351 71.0547 75.6948 70.8656C76.0386 70.6795 76.4892 70.3794 76.9499 70.3854C77.4105 70.3914 77.8711 70.7096 77.8711 70.7096L75.2208 73.7259L70.4009 74.9174L69.4029 82.3696L67.2065 79.7254L68.3448 73.6508Z" fill="white"/>
<path d="M67.5336 79.6535L69.1859 81.6404L70.0938 74.8815C70.1072 74.7704 70.1973 74.6774 70.3208 74.6474L75.0406 73.4799L77.4071 70.7817C77.267 70.7217 77.1001 70.6677 76.9465 70.6647C76.9432 70.6647 76.9398 70.6647 76.9365 70.6647C76.6328 70.6647 76.3056 70.8537 76.0119 71.0188C75.9585 71.0488 75.9084 71.0788 75.8584 71.1059C75.6247 71.2349 74.7268 71.9222 74.1827 72.3544C74.106 72.4144 74.0058 72.4384 73.909 72.4174C73.9023 72.4174 73.1914 72.2824 72.3068 72.2554C72.1967 72.2523 72.0965 72.1953 72.0431 72.1083C71.9897 72.0212 71.9931 71.9162 72.0498 71.8322C72.2701 71.496 72.2634 70.9858 72.2067 70.5896L69.5965 72.7716C69.5864 72.7776 69.5798 72.7836 69.5698 72.7896C69.3361 72.9456 68.7887 73.5249 68.6452 73.744L67.5336 79.6535ZM69.4029 82.6488C69.3061 82.6488 69.2126 82.6068 69.1525 82.5348L66.9562 79.8937C66.9028 79.8306 66.8827 79.7526 66.8961 79.6806L68.0377 73.6059C68.041 73.5789 68.0543 73.5519 68.0677 73.5279C68.2079 73.2728 68.8488 72.5825 69.1826 72.3514L72.1867 69.8393C72.2668 69.7733 72.3803 69.7493 72.4837 69.7763C72.5872 69.8003 72.6707 69.8753 72.7007 69.9684C72.7141 70.0134 73.0078 70.9408 72.7708 71.7181C73.2715 71.7511 73.6754 71.8082 73.8857 71.8442C74.2395 71.5651 75.2275 70.7967 75.5346 70.6256C75.5813 70.6016 75.628 70.5746 75.6781 70.5446C76.0253 70.3495 76.4525 70.1064 76.9365 70.1064C76.9398 70.1064 76.9465 70.1064 76.9532 70.1064C77.5039 70.1124 78.0046 70.4486 78.0614 70.4876C78.1281 70.5326 78.1682 70.6016 78.1782 70.6737C78.1916 70.7487 78.1648 70.8237 78.1148 70.8808L75.4645 73.8971C75.4244 73.9451 75.3677 73.9781 75.3043 73.9961L70.688 75.1366L69.7099 82.4027C69.6966 82.5168 69.6065 82.6098 69.483 82.6398C69.4563 82.6458 69.4296 82.6488 69.4029 82.6488Z" fill="black"/>
<path d="M43.7481 81.6164C43.7481 81.6164 48.6515 85.9353 57.9575 84.9598C67.2636 83.9874 67.5406 75.2596 67.5406 75.2596H70.5948C70.5948 75.2596 75.111 90.5092 59.0023 95.3083C42.8969 100.11 37.6531 91.6917 37.6531 91.6917L43.7481 81.6164Z" fill="#6C93EC"/>
<path d="M30.7836 117.014C30.7836 117.014 20.8834 120.564 15.2957 117.14C8.24607 112.815 11.9244 100.497 14.4279 95.3082C16.6442 90.7283 20.0389 87.5019 25.0157 82.7778C26.4343 81.4302 27.2955 80.7249 28.6073 80.1607C33.7944 77.9307 40.0896 80.4578 43.1839 81.7034C45.5338 82.6458 47.3429 83.6962 48.5546 84.4766C48.5546 84.4766 38.6176 95.4883 38.8179 102.172C39.0182 108.853 42.079 108.577 42.079 108.577C42.079 108.577 37.8566 114.664 30.7836 117.014Z" fill="#6C93EC"/>
<path d="M39.0185 85.7943C39.3022 87.7842 39.9798 90.3113 41.5853 92.9074C46.7057 101.185 56.9797 103.193 59.0058 103.553L56.9764 105.585C56.9764 105.585 35.1532 108.799 28.8245 90.8935C28.8245 90.8935 26.4212 84.2066 31.7652 82.5529C32.8767 82.2108 34.3387 82.0097 35.7407 82.4989C38.164 83.3483 38.925 85.5092 39.0185 85.7943Z" fill="#6C93EC"/>
<path d="M56.7556 105.189C56.9192 105.099 58.4413 102.98 60.1169 102.538C61.7892 102.094 65.4275 105.393 65.4275 105.393L56.7556 105.189Z" fill="white"/>
<path d="M57.4038 104.922L64.6337 105.096C63.2184 103.925 61.1522 102.554 60.2043 102.806C59.0727 103.106 57.9679 104.283 57.4038 104.922ZM65.4281 105.675C65.4248 105.675 65.4214 105.675 65.4214 105.675L56.7462 105.468C56.606 105.465 56.4892 105.378 56.4525 105.258C56.4224 105.147 56.4658 105.033 56.566 104.964C56.5993 104.934 56.6928 104.826 56.7763 104.73C57.3237 104.105 58.6088 102.644 60.0274 102.269C61.8265 101.794 65.2645 104.847 65.6517 105.198C65.7385 105.279 65.7652 105.399 65.7152 105.507C65.6651 105.609 65.5516 105.675 65.4281 105.675Z" fill="black"/>
<path d="M24.6682 83.1078C24.6682 83.1078 21.5373 78.0566 32.8227 77.4474C34.6886 77.3453 35.2895 77.5734 37.9164 78.921C43.5608 81.8173 44.956 80.8238 44.956 80.8238L43.7477 84.3203L24.6682 83.1078Z" fill="#6C93EC"/>
<path d="M26.0336 82.5227C25.9835 82.5227 25.9335 82.5137 25.8867 82.4897C25.7332 82.4147 25.6798 82.2466 25.7599 82.1085C25.7899 82.0605 28.8875 77.0964 35.4832 79.5394C35.6401 79.5995 35.7169 79.7615 35.6501 79.9056C35.5867 80.0467 35.4031 80.1157 35.2429 80.0557C29.1612 77.8047 26.4208 82.1896 26.3073 82.3757C26.2506 82.4687 26.1438 82.5227 26.0336 82.5227Z" fill="black"/>
<path d="M38.8178 102.451C38.7544 102.451 38.691 102.433 38.6343 102.397C38.2471 102.142 29.178 96.1278 27.8228 89.4289C27.7928 89.2758 27.9029 89.1317 28.0731 89.1047C28.2434 89.0747 28.4036 89.1768 28.437 89.3298C29.7454 95.8066 38.908 101.884 39.0014 101.944C39.1416 102.037 39.1717 102.211 39.0682 102.337C39.0081 102.409 38.9146 102.451 38.8178 102.451Z" fill="black"/>
<path d="M42.687 95.2332C42.6135 95.2332 42.5401 95.2092 42.48 95.1612C42.3498 95.0591 42.3398 94.882 42.4533 94.765C45.6911 91.5146 45.1103 86.9226 45.1036 86.8776C45.0802 86.7245 45.2037 86.5834 45.374 86.5654C45.5442 86.5474 45.7011 86.6555 45.7211 86.8085C45.7478 87.0066 46.3453 91.6947 42.9206 95.1371C42.8572 95.2002 42.7737 95.2332 42.687 95.2332Z" fill="black"/>
<path d="M42.1725 94.309C42.059 94.309 41.9489 94.252 41.8921 94.156L38.7946 88.6036C38.7145 88.4655 38.7779 88.2944 38.9314 88.2254C39.085 88.1564 39.2719 88.2134 39.3487 88.3515L42.4496 93.9038C42.5263 94.0419 42.4663 94.21 42.3094 94.279C42.266 94.3 42.2192 94.309 42.1725 94.309Z" fill="black"/>
<path d="M33.5442 77.7058C33.3372 77.7058 33.1136 77.7148 32.8666 77.7268C28.6108 77.9579 25.877 78.8733 24.9658 80.3769C24.188 81.6585 24.9791 82.958 24.9891 82.97C25.0559 83.0781 25.0359 83.2101 24.9424 83.3002C20.276 87.7391 16.9014 90.9475 14.7384 95.4224C12.5588 99.9334 8.44316 112.59 15.4861 116.909C20.8702 120.21 30.5801 116.789 30.6769 116.753C36.5783 114.793 40.5137 110.126 41.5451 108.79C41.2714 108.721 40.9276 108.58 40.5671 108.304C39.3588 107.365 38.6745 105.453 38.5277 102.623C38.521 102.517 38.5811 102.421 38.6779 102.367C38.7747 102.316 38.8982 102.313 38.9983 102.367C46.7055 106.437 55.7379 105.459 56.8194 105.324L58.4149 103.727C55.2238 103.1 48.4479 101.227 43.6647 96.1307C43.5746 96.0347 43.5679 95.8966 43.648 95.7916C43.7281 95.6895 43.875 95.6475 44.0085 95.6895C48.1375 97.0161 53.1477 96.821 58.9055 95.1043C65.4679 93.1504 69.3799 89.2548 70.5314 83.5283C71.2791 79.8157 70.5615 76.5082 70.3479 75.6619H67.8311C67.6809 77.1655 66.5126 84.4077 57.9943 85.302C52.7972 85.8453 48.9119 84.7078 46.5653 83.6543C46.5586 83.6513 46.552 83.6483 46.542 83.6423C46.0212 83.3542 45.5072 83.0751 44.9498 82.808C44.9431 82.805 44.9331 82.799 44.9264 82.796C44.6994 82.6609 44.5058 82.5318 44.3356 82.4178L44.3056 82.3968C44.2021 82.3278 44.1554 82.2047 44.1954 82.0907L44.4858 81.2503C43.5812 81.3523 41.6252 81.1513 37.7633 79.1674C35.5035 78.0059 34.8226 77.7058 33.5442 77.7058ZM21.6646 118.92C19.3681 118.92 17.0249 118.529 15.1323 117.371C11.9913 115.444 10.556 111.695 10.9866 106.527C11.3371 102.304 12.8592 97.9045 14.1677 95.2003C16.3506 90.6834 19.7052 87.466 24.3382 83.0601C24.1079 82.6189 24.0078 81.8686 24.0011 81.7335C23.9344 80.2088 24.9891 77.5917 32.8299 77.1685C34.7558 77.0635 35.3867 77.3006 38.0737 78.6812C43.3342 81.3824 44.7595 80.608 44.7762 80.599C44.883 80.524 45.0266 80.524 45.14 80.593C45.2502 80.662 45.2969 80.7911 45.2535 80.9081L44.8563 82.0666C44.9798 82.1477 45.1133 82.2347 45.2569 82.3218C45.8176 82.5889 46.335 82.871 46.8557 83.1591C49.1255 84.1766 52.884 85.272 57.9209 84.7438C66.8564 83.8074 67.2236 75.4578 67.2269 75.3738C67.2336 75.2237 67.3705 75.1036 67.5407 75.1036H70.5949C70.7351 75.1036 70.8586 75.1877 70.8953 75.3107C70.942 75.4668 72.0335 79.2184 71.1456 83.6273C70.3245 87.7151 67.5674 93.1144 59.1025 95.6385C53.7051 97.2442 48.9319 97.5443 44.893 96.5299C49.7831 101.203 56.3687 102.8 59.0691 103.277C59.1793 103.298 59.266 103.367 59.3028 103.463C59.3395 103.559 59.3128 103.664 59.2393 103.739L57.2066 105.771C57.1598 105.819 57.0964 105.849 57.0263 105.861C56.9295 105.876 47.4365 107.212 39.1852 103.106C39.4189 106.068 40.2767 107.338 40.9743 107.878C41.5518 108.328 42.0458 108.298 42.0491 108.298C42.166 108.286 42.2828 108.337 42.3462 108.427C42.4096 108.52 42.4096 108.634 42.3462 108.724C42.3028 108.784 37.9903 114.922 30.9006 117.275C30.6302 117.371 26.2375 118.92 21.6646 118.92Z" fill="black"/>
<path d="M86.9339 104.846H68.4553L82.1541 85.9232C82.5813 85.332 83.3257 84.9718 84.1301 84.9718H99.124C100.075 84.9718 100.656 85.8872 100.145 86.5895L86.9339 104.846Z" fill="black"/>
<path d="M90.8725 91.6077C90.275 92.4361 88.9832 93.1084 87.9885 93.1084C86.9972 93.1084 86.6801 92.4361 87.2809 91.6077C87.8817 90.7793 89.1735 90.1071 90.1649 90.1071C91.1562 90.1071 91.4733 90.7793 90.8725 91.6077Z" fill="white"/>
<path d="M85.5318 106.425H53.8818C53.0741 106.425 52.4165 105.837 52.4165 105.107V104.711H86.9972V105.107C86.9972 105.837 86.3429 106.425 85.5318 106.425Z" fill="black"/>
<path d="M85.9727 105.141H70.1043C69.9307 105.141 69.7905 105.017 69.7905 104.861C69.7905 104.708 69.9307 104.582 70.1043 104.582H85.9727C86.1429 104.582 86.2831 104.708 86.2831 104.861C86.2831 105.017 86.1429 105.141 85.9727 105.141Z" fill="white"/>
<path d="M95.0717 106.449H25.7635C24.4717 106.449 23.467 107.664 23.6139 109.051L28.4004 154.449H31.8552L28.8611 111.842C28.8077 111.092 29.3584 110.45 30.056 110.45H89.5508C90.5922 110.45 91.4167 111.407 91.3366 112.533L88.3692 154.716H91.8272L96.6939 108.412C96.8041 107.364 96.0463 106.449 95.0717 106.449Z" fill="white"/>
<path d="M88.7028 154.434H91.5434L96.3834 108.385C96.4334 107.902 96.2699 107.422 95.9427 107.098C95.6991 106.86 95.392 106.731 95.0716 106.731H25.7634C25.3094 106.731 24.8755 106.914 24.535 107.251C24.0844 107.695 23.8541 108.361 23.9242 109.024L28.684 154.167H31.5246L28.5505 111.861C28.5138 111.374 28.6907 110.909 29.0345 110.582C29.3116 110.318 29.6754 110.171 30.0559 110.171H89.5507C90.0747 110.171 90.5787 110.372 90.9659 110.744C91.4466 111.206 91.6969 111.864 91.6469 112.548L88.7028 154.434ZM91.8271 154.995H88.369C88.2823 154.995 88.2022 154.962 88.1421 154.905C88.0853 154.848 88.0553 154.773 88.0586 154.698L91.026 112.515C91.0627 111.981 90.8758 111.476 90.5086 111.128C90.2416 110.87 89.9011 110.729 89.5507 110.729H30.0559C29.7922 110.729 29.602 110.858 29.4885 110.966C29.2682 111.179 29.148 111.497 29.1714 111.825L32.1688 154.431C32.1721 154.509 32.1421 154.584 32.0854 154.638C32.0253 154.695 31.9418 154.728 31.855 154.728H28.4003C28.2401 154.728 28.1066 154.617 28.0899 154.473L23.3033 109.075C23.2166 108.247 23.4969 107.443 24.0744 106.872C24.5317 106.419 25.1325 106.17 25.7634 106.17H95.0716C95.5689 106.17 96.0429 106.365 96.4034 106.722C96.854 107.167 97.071 107.791 97.0042 108.436L92.1375 154.74C92.1208 154.884 91.9873 154.995 91.8271 154.995Z" fill="black"/>
<path d="M80.5748 10.0056C80.4479 10.0056 80.3278 9.93654 80.2844 9.82249C80.2243 9.67542 80.3077 9.51635 80.4713 9.46533C94.6741 4.86734 112.405 4.51319 123.677 6.19692C123.847 6.22393 123.961 6.36799 123.934 6.52106C123.904 6.67413 123.744 6.77617 123.574 6.74916C112.382 5.07744 94.7775 5.42859 80.6816 9.99056C80.6482 10.0026 80.6115 10.0056 80.5748 10.0056Z" fill="black"/>
<path d="M83.3792 6.62597C83.2523 6.62597 83.1322 6.55694 83.0854 6.44289C83.0254 6.29583 83.1088 6.13676 83.269 6.08274C93.3528 2.72128 105.196 2.49018 109.355 2.90436C109.525 2.92237 109.648 3.06043 109.628 3.2135C109.608 3.36656 109.452 3.47761 109.285 3.4626C105.176 3.05143 93.4663 3.27953 83.486 6.60796C83.4493 6.61997 83.4126 6.62597 83.3792 6.62597Z" fill="black"/>
<path d="M119.492 131.624C119.392 131.624 119.295 131.582 119.235 131.504C119.138 131.378 119.175 131.201 119.315 131.113C124.786 127.734 129.489 124.099 133.291 120.318C133.404 120.201 133.601 120.195 133.728 120.297C133.858 120.399 133.868 120.576 133.752 120.693C129.92 124.508 125.18 128.169 119.669 131.576C119.616 131.609 119.552 131.624 119.492 131.624Z" fill="black"/>
<path d="M108.243 141.474C108.11 141.474 107.989 141.399 107.946 141.279C107.893 141.132 107.983 140.976 108.15 140.928C113.507 139.391 126.351 133.359 133.187 125.742C133.297 125.621 133.491 125.603 133.625 125.7C133.761 125.799 133.781 125.976 133.675 126.096C126.348 134.253 113.207 140.064 108.337 141.462C108.307 141.471 108.273 141.474 108.243 141.474Z" fill="black"/>
<path d="M105.172 135.856C105.152 135.856 105.129 135.853 105.109 135.85C104.942 135.817 104.832 135.67 104.865 135.517L105.149 134.271C105.182 134.118 105.349 134.022 105.516 134.052C105.683 134.082 105.793 134.229 105.76 134.382L105.476 135.631C105.446 135.763 105.316 135.856 105.172 135.856Z" fill="black"/>
<path d="M104.181 140.225C104.161 140.225 104.141 140.222 104.121 140.219C103.951 140.189 103.844 140.042 103.877 139.889L104.161 138.641C104.194 138.488 104.358 138.391 104.528 138.421C104.695 138.455 104.805 138.602 104.772 138.752L104.488 140C104.458 140.132 104.328 140.225 104.181 140.225Z" fill="black"/>
<path d="M103.109 137.081C103.089 137.081 103.065 137.078 103.042 137.075L101.677 136.804C101.51 136.771 101.403 136.624 101.44 136.471C101.477 136.321 101.643 136.225 101.81 136.258L103.176 136.528C103.346 136.561 103.453 136.708 103.416 136.858C103.383 136.991 103.252 137.081 103.109 137.081Z" fill="black"/>
<path d="M107.892 138.02C107.869 138.02 107.846 138.017 107.826 138.014L106.457 137.744C106.29 137.711 106.183 137.561 106.22 137.411C106.257 137.26 106.424 137.164 106.591 137.197L107.956 137.465C108.126 137.498 108.233 137.648 108.196 137.798C108.163 137.93 108.036 138.02 107.892 138.02Z" fill="black"/>
<path d="M114.662 132.573C114.485 132.573 114.304 132.606 114.134 132.675C113.47 132.942 113.17 133.659 113.463 134.271C113.607 134.572 113.867 134.8 114.198 134.917C114.521 135.028 114.872 135.019 115.189 134.893C115.853 134.623 116.157 133.905 115.863 133.293C115.72 132.996 115.459 132.768 115.129 132.651C114.979 132.597 114.818 132.573 114.662 132.573ZM114.662 135.553C114.431 135.553 114.198 135.514 113.974 135.436C113.483 135.268 113.099 134.932 112.889 134.494C112.462 133.602 112.906 132.558 113.88 132.165C114.351 131.976 114.872 131.96 115.353 132.129C115.843 132.3 116.224 132.633 116.434 133.071C116.865 133.962 116.421 135.01 115.446 135.403C115.196 135.502 114.929 135.553 114.662 135.553Z" fill="black"/>
<path d="M155.635 127.105C153.972 124.439 154.179 123.188 154.653 122.54C155.494 121.384 157.384 121.873 158.218 120.619C159.079 119.328 157.521 118.155 158.101 116.501C158.786 114.544 162.187 112.701 164.373 113.809C166.239 114.757 166.733 117.617 165.622 119.094C164.387 120.736 161.673 120.018 160.905 121.546C160.201 122.954 162.137 124.283 161.519 125.583C161.162 126.327 159.924 127.153 155.635 127.105Z" fill="#99B9FF"/>
<path d="M155.321 128.472C155.287 128.472 155.251 128.469 155.22 128.457C155.057 128.406 154.97 128.247 155.027 128.1C158.084 120.168 162.097 117.593 162.267 117.488C162.407 117.401 162.601 117.431 162.701 117.56C162.798 117.686 162.764 117.86 162.621 117.947C162.581 117.974 158.598 120.543 155.614 128.283C155.571 128.4 155.451 128.472 155.321 128.472Z" fill="white"/>
<path d="M153.058 126.182C153.038 123.694 153.832 122.176 154.563 121.251C155.892 119.564 157.367 119.39 157.871 117.761C158.352 116.221 157.23 115.756 157.607 114.021C158.051 111.956 159.817 111.815 160.271 110.116C160.825 108.045 158.549 106.998 157.407 104.096C155.928 100.338 158.378 98.6364 157.818 95.1249C156.906 89.4314 148.895 84.1822 145.471 85.6108C142.24 86.9614 142.003 94.7017 144.616 100.326C147.397 106.32 151.709 106.233 152.337 111.245C152.767 114.708 150.958 116.737 151.889 122.059C152.207 123.859 152.704 125.291 153.058 126.182Z" fill="#6C93EC"/>
<path d="M153.906 128.587C153.789 128.587 153.676 128.527 153.622 128.425C151.943 125.132 152.624 121.543 153.482 116.996C153.929 114.616 154.44 111.921 154.637 108.955C155.184 100.708 147.5 90.7104 147.424 90.6114C147.327 90.4853 147.36 90.3112 147.5 90.2212C147.644 90.1341 147.838 90.1642 147.934 90.2902C148.014 90.3923 155.818 100.546 155.258 108.988C155.061 111.984 154.547 114.697 154.096 117.089C153.255 121.54 152.591 125.057 154.19 128.191C154.26 128.332 154.193 128.497 154.036 128.563C153.993 128.578 153.949 128.587 153.906 128.587Z" fill="#99B9FF"/>
<path d="M151.011 126.792C150.641 125.207 150.247 122.872 150.377 120.057C150.591 115.465 152.01 113.511 150.584 111.797C149.012 109.906 146.365 111.17 144.493 108.922C143.214 107.388 143.855 106.092 142.099 104.648C141.765 104.372 140.677 103.502 139.142 103.397C137.717 103.294 137.213 103.946 135.393 104.516C132.102 105.548 130.634 104.39 129.422 105.479C128.35 106.44 128.137 108.568 129.158 109.741C131.084 111.953 136.178 109.378 138.09 111.476C139.723 113.268 136.909 116.137 138.695 118.133C140.307 119.934 143.528 118.655 144.85 120.537C145.858 121.978 144.446 123.394 145.38 124.895C146.358 126.461 149.045 126.762 151.011 126.792Z" fill="#6C93EC"/>
<path d="M152.236 128.518C152.17 128.518 152.103 128.5 152.046 128.461C150.344 127.278 149.763 125.333 148.882 122.389C148.221 120.183 147.4 117.437 145.811 114.078C142.27 106.587 132.616 107.448 132.52 107.458C132.346 107.476 132.196 107.364 132.176 107.211C132.156 107.058 132.279 106.92 132.449 106.902C132.553 106.893 142.667 105.99 146.385 113.859C147.987 117.254 148.818 120.021 149.483 122.242C150.331 125.078 150.891 126.951 152.427 128.016C152.564 128.112 152.59 128.287 152.484 128.41C152.423 128.482 152.33 128.518 152.236 128.518Z" fill="white"/>
<path d="M146.098 128.194C146.372 128.305 160.581 128.194 160.581 128.194L158.805 141.216C158.759 141.568 158.675 141.916 158.528 142.246C157.831 143.845 156.102 144.935 154.136 144.935C151.936 144.935 150.027 143.569 149.536 141.646L146.098 128.194Z" fill="#6C93EC"/>
</svg>
