<svg width="167" height="158" viewBox="0 0 167 158" fill="none" xmlns="http://www.w3.org/2000/svg">
<path d="M164.126 135.661C164.309 137.527 164.021 139.398 163.057 141.419C154.55 159.272 110.75 159.912 81.8657 153.824C77.181 152.835 70.937 151.519 63.9671 149.462C44.7183 143.781 19.9544 132.459 7.39659 106.839C4.15412 100.225 2.02734 93.2287 0.946511 86.1218C-2.6256 62.726 5.11767 38.1193 21.5963 21.9501C64.9243 -20.5659 156.135 7.16519 166.005 37.321C169.916 49.2716 160.281 59.2697 154.652 74.1742C151.707 81.9658 149.856 91.0999 151.609 102.557C151.641 102.748 151.669 102.94 151.701 103.128C151.736 103.343 151.771 103.553 151.809 103.765C153.216 111.894 155.97 117.841 158.519 122.673C161.241 127.836 163.736 131.732 164.126 135.661Z" fill="#CADDFF"/>
<path d="M158.519 122.673C128.142 114.284 38.2811 95.2352 32.6741 84.4807C26.7692 73.149 37.1179 56.4446 43.9483 55.446C48.9721 54.7075 124.877 68.446 154.652 74.1746C151.707 81.9662 149.856 91.1002 151.609 102.557C151.641 102.749 151.669 102.94 151.701 103.128C151.736 103.344 151.771 103.556 151.809 103.765C153.216 111.895 155.97 117.842 158.519 122.673Z" fill="#99B9FF"/>
<path d="M105.473 94.3438L51.1621 80.0821L51.1684 77.7201L69.5012 69.4352L123.609 80.8146C123.793 80.8535 123.859 81.0777 123.72 81.1764L105.473 94.3438Z" fill="#5479F7"/>
<path d="M105.333 91.9463L51.1682 77.7205L69.3616 67.0406L123.945 78.5188L105.333 91.9463Z" fill="#CADDFF"/>
<path d="M105.473 94.3441L105.333 91.9462L123.945 78.5187L124.037 80.1302C124.065 80.6265 123.853 81.084 123.457 81.368L105.473 94.3441Z" fill="#5479F7"/>
<path d="M98.4267 88.5529C98.3316 88.5529 98.2397 88.511 98.1795 88.4333C98.0844 88.3047 98.1161 88.1283 98.2524 88.0356L112.053 78.8119C112.192 78.7222 112.379 78.7521 112.474 78.8806C112.572 79.0092 112.541 79.1856 112.405 79.2753L98.601 88.502C98.5471 88.5349 98.4869 88.5529 98.4267 88.5529Z" fill="#99B9FF"/>
<path d="M93.4536 87.0878C93.3585 87.0878 93.2634 87.046 93.2063 86.9682C93.1112 86.8397 93.1429 86.6633 93.2792 86.5736L106.756 77.6727C106.896 77.583 107.083 77.6129 107.178 77.7415C107.273 77.87 107.241 78.0464 107.105 78.1361L93.6279 87.037C93.574 87.0729 93.5138 87.0878 93.4536 87.0878Z" fill="#99B9FF"/>
<path d="M88.8989 85.9723C88.8038 85.9723 88.7119 85.9305 88.6548 85.8527C88.5566 85.7242 88.5883 85.5478 88.7246 85.4581L101.875 76.5722C102.011 76.4795 102.198 76.5094 102.297 76.635C102.395 76.7635 102.363 76.9399 102.227 77.0326L89.0764 85.9185C89.0225 85.9544 88.9591 85.9723 88.8989 85.9723Z" fill="#99B9FF"/>
<path d="M79.7895 83.3832C79.6944 83.3832 79.6025 83.3413 79.5423 83.2636C79.4472 83.135 79.4789 82.9556 79.6152 82.866L92.2586 74.5093C92.3949 74.4196 92.5819 74.4495 92.677 74.578C92.7721 74.7066 92.7404 74.886 92.6041 74.9757L79.9638 83.3324C79.9099 83.3683 79.8497 83.3832 79.7895 83.3832Z" fill="#99B9FF"/>
<path d="M84.2524 84.5821C84.1573 84.5821 84.0654 84.5403 84.0052 84.4595C83.9101 84.331 83.9418 84.1546 84.0781 84.0649L96.9972 75.469C97.1335 75.3763 97.3205 75.4092 97.4188 75.5348C97.5139 75.6633 97.4822 75.8427 97.3459 75.9324L84.4267 84.5283C84.3728 84.5642 84.3126 84.5821 84.2524 84.5821Z" fill="#99B9FF"/>
<path d="M74.7246 82.1039C74.6295 82.1039 74.5344 82.0621 74.4774 81.9814C74.3823 81.8528 74.414 81.6764 74.5535 81.5867L87.3807 73.2031C87.517 73.1134 87.704 73.1463 87.7991 73.2749C87.8942 73.4034 87.8593 73.5798 87.723 73.6695L74.8958 82.0561C74.8451 82.089 74.7848 82.1039 74.7246 82.1039Z" fill="#99B9FF"/>
<path d="M70.2806 80.9404C70.1824 80.9404 70.0905 80.8955 70.0302 80.8178C69.9351 80.6892 69.97 80.5128 70.1063 80.4231L82.6039 72.2518C82.7402 72.1621 82.9304 72.195 83.0255 72.3236C83.1206 72.4521 83.0857 72.6285 82.9494 72.7182L70.4518 80.8895C70.3979 80.9224 70.3377 80.9404 70.2806 80.9404Z" fill="#99B9FF"/>
<path d="M65.8784 79.7772C65.7833 79.7772 65.6882 79.7354 65.628 79.6546C65.536 79.5261 65.5677 79.3497 65.704 79.26L77.7579 71.3787C77.8974 71.292 78.0844 71.3219 78.1795 71.4504C78.2746 71.579 78.2397 71.7584 78.1034 71.8481L66.0495 79.7264C65.9956 79.7593 65.9354 79.7772 65.8784 79.7772Z" fill="#99B9FF"/>
<path d="M61.8119 78.6499C61.7168 78.6499 61.6217 78.608 61.5647 78.5273C61.4696 78.3987 61.5044 78.2223 61.6407 78.1326L73.7231 70.2334C73.8594 70.1467 74.0464 70.1766 74.1415 70.3052C74.2366 70.4367 74.2017 70.6131 74.0654 70.7028L61.983 78.5991C61.9323 78.632 61.8721 78.6499 61.8119 78.6499Z" fill="#99B9FF"/>
<path d="M103.583 89.9462C103.558 89.9462 103.53 89.9432 103.501 89.9342L57.4503 77.4814C57.2919 77.4395 57.1999 77.2811 57.2443 77.1316C57.2919 76.9791 57.4567 76.8924 57.6183 76.9372L103.523 89.3512L116.788 80.0407C116.921 79.945 117.111 79.972 117.213 80.0975C117.311 80.2231 117.282 80.4025 117.149 80.4952L103.764 89.8894C103.713 89.9282 103.65 89.9462 103.583 89.9462Z" fill="#99B9FF"/>
<path d="M106.744 87.581C106.718 87.581 106.69 87.578 106.665 87.569L62.2335 75.8786C62.0751 75.8368 61.98 75.6813 62.0243 75.5288C62.0687 75.3793 62.2367 75.2896 62.3984 75.3315L106.826 87.0219C106.988 87.0637 107.08 87.2222 107.035 87.3717C106.997 87.4973 106.877 87.581 106.744 87.581Z" fill="#99B9FF"/>
<path d="M109.533 85.5777C109.508 85.5777 109.479 85.5747 109.454 85.5687L65.0228 73.8783C64.8644 73.8334 64.7693 73.678 64.8137 73.5285C64.858 73.376 65.026 73.2863 65.1845 73.3311L109.616 85.0216C109.777 85.0634 109.869 85.2189 109.825 85.3714C109.787 85.4969 109.666 85.5777 109.533 85.5777Z" fill="#99B9FF"/>
<path d="M113.904 82.573C113.879 82.573 113.853 82.57 113.831 82.564L68.0973 71.8902C67.9356 71.8513 67.8342 71.6988 67.8754 71.5463C67.9166 71.3939 68.0783 71.3012 68.2399 71.3371L113.974 82.0109C114.138 82.0498 114.237 82.2052 114.196 82.3577C114.161 82.4863 114.037 82.573 113.904 82.573Z" fill="#99B9FF"/>
<path d="M116.969 80.1993C116.947 80.1993 116.924 80.1964 116.899 80.1904L69.4315 69.7139C69.2699 69.678 69.1684 69.5255 69.2096 69.373C69.2445 69.2205 69.4093 69.1249 69.571 69.1607L117.038 79.6373C117.2 79.6731 117.302 79.8256 117.264 79.9781C117.232 80.1097 117.105 80.1993 116.969 80.1993Z" fill="#99B9FF"/>
<path d="M125.137 50.1146L105.498 47.3519C105.371 47.3519 105.327 47.4626 105.327 47.5702V63.2999C105.327 64.8068 94.17 68.7176 94.0591 68.5202L94.0464 70.1826C94.0464 70.4935 94.3348 70.7686 94.7057 70.7686H94.9561L111.422 73.6479C112.186 73.6479 112.94 73.4864 113.631 73.2143L122.687 69.6265C124.316 68.9777 125.343 67.5904 125.343 66.0775V50.3328C125.343 50.2252 125.263 50.1146 125.137 50.1146Z" fill="#5479F7"/>
<path d="M103.339 46.4346V62.1673C103.339 63.7191 102.278 65.1333 100.614 65.803L94.5058 68.2577C94.1065 68.4161 94.2428 68.9184 94.6833 68.9184L111.466 71.7977C112.221 71.7977 112.965 71.6572 113.647 71.3881L120.414 68.7062C122.094 68.0394 123.162 66.6222 123.162 65.0645V49.3138C123.162 49.2481 123.102 49.1972 123.026 49.1972L103.479 46.318C103.4 46.318 103.339 46.3718 103.339 46.4346Z" fill="white"/>
<path d="M155.247 63.6229C154.579 64.1461 152.826 65.5304 152.826 65.5304L77.0509 52.1956C74.2807 51.7471 72.2712 49.4598 72.3187 46.8138L73.1079 1.90592L75.7355 0.578416C76.2173 0.336237 76.7751 0.25252 77.3108 0.345206L154.42 13.4408C155.577 13.6382 156.42 14.586 156.42 15.6922L156.214 62.119C156.214 62.7498 155.764 63.2192 155.247 63.6229Z" fill="#5479F7"/>
<path d="M153.986 63.6533C153.986 64.8433 152.842 65.7462 151.596 65.5339L73.8308 51.7028C72.864 51.5383 72.1604 50.746 72.1604 49.8221V3.79605C72.1604 2.60309 73.3046 1.70314 74.5534 1.91542L152.316 15.1336C153.282 15.2981 153.986 16.0904 153.986 17.0143V63.6533Z" fill="#99B9FF"/>
<path d="M151.992 65.8148C151.856 65.8148 151.72 65.8029 151.584 65.782L84.9275 53.8763C84.7626 53.8494 84.658 53.6999 84.6866 53.5444C84.7183 53.3889 84.8767 53.2903 85.0416 53.3172L151.691 65.2229C152.186 65.3066 152.69 65.181 153.076 64.876C153.463 64.5711 153.685 64.1256 153.685 63.6532V34.4122C153.685 34.2537 153.818 34.1282 153.986 34.1282C154.154 34.1282 154.287 34.2537 154.287 34.4122V63.6532C154.287 64.296 153.986 64.8999 153.463 65.3125C153.048 65.6384 152.528 65.8148 151.992 65.8148Z" fill="black"/>
<path d="M72.1602 22.7277C71.9923 22.7277 71.8591 22.5991 71.8591 22.4407V3.79584C71.8591 3.14404 72.1634 2.53112 72.6959 2.11254C73.2284 1.69396 73.9225 1.52054 74.604 1.63416L150.319 14.5056C150.48 14.5325 150.591 14.682 150.56 14.8344C150.531 14.9899 150.373 15.0916 150.211 15.0647L74.4994 2.19327C73.9923 2.10955 73.4756 2.23811 73.0826 2.54906C72.6896 2.85702 72.4613 3.31148 72.4613 3.79584V22.4407C72.4613 22.5991 72.3282 22.7277 72.1602 22.7277Z" fill="black"/>
<path d="M146.078 21.6247V57.7125C146.078 58.9323 144.909 59.8502 143.638 59.632L80.506 48.7787C79.5235 48.6113 78.8071 47.804 78.8071 46.8622V11.2588C78.8071 10.3858 79.6502 9.72798 80.5599 9.88645L146.078 21.6247Z" fill="#CADDFF"/>
<path d="M79.5992 16.9782L150.233 29.8706C151.193 30.047 152.081 29.3533 152.081 28.4354V20.4076C152.081 19.702 151.552 19.1011 150.816 18.9695L80.0366 6.421C79.0762 6.25058 78.1919 6.94423 78.1951 7.86212L78.2268 15.4205C78.2299 16.1799 78.8036 16.8347 79.5992 16.9782Z" fill="white"/>
<path d="M79.6568 16.7002L150.294 29.5925C150.658 29.6583 151.039 29.5686 151.327 29.3444C151.616 29.1201 151.78 28.7883 151.78 28.4355V20.4077C151.78 19.8396 151.353 19.3552 150.763 19.2476L79.9801 6.69909C79.6125 6.63331 79.2353 6.72599 78.95 6.95322C78.6616 7.17747 78.4968 7.50934 78.4968 7.86215L78.5285 15.4176C78.5316 16.0424 79.0071 16.5806 79.6568 16.7002ZM150.532 30.1815C150.414 30.1815 150.297 30.1726 150.177 30.1487L79.5396 17.2563C78.6077 17.0859 77.9294 16.3145 77.9263 15.4205L77.8946 7.86514C77.8914 7.34191 78.1354 6.85157 78.5633 6.5167C78.9881 6.18184 79.5459 6.0443 80.0942 6.14297L150.874 18.6915C151.749 18.8469 152.386 19.5675 152.386 20.4077V28.4355C152.386 28.9587 152.139 29.449 151.711 29.7839C151.375 30.044 150.96 30.1815 150.532 30.1815Z" fill="black"/>
<path d="M94.2237 16.1709L116.341 19.989C117.146 20.1295 117.945 19.7229 118.259 19.0113L118.262 19.0083C118.693 18.0426 118.065 16.9513 116.972 16.7629L94.8545 12.9448C94.0494 12.8043 93.2507 13.2109 92.9369 13.9225L92.9337 13.9255C92.5058 14.8912 93.1302 15.9826 94.2237 16.1709Z" fill="#99B9FF"/>
<path d="M122.623 21.0593L131.343 22.5483C132.148 22.6888 132.946 22.2822 133.263 21.5706V21.5676C133.694 20.6018 133.067 19.5105 131.973 19.3222L123.254 17.8332C122.449 17.6957 121.65 18.1023 121.333 18.8109V18.8139C120.902 19.7796 121.53 20.8709 122.623 21.0593Z" fill="#99B9FF"/>
<path d="M139.726 20.5183C140.684 19.6183 142.233 19.6183 143.191 20.5183C144.148 21.4212 144.148 22.8832 143.191 23.7832C142.233 24.6861 140.684 24.6861 139.726 23.7832C138.769 22.8832 138.769 21.4212 139.726 20.5183ZM139.149 24.3244C140.325 25.4306 142.17 25.5143 143.451 24.5815L145.416 26.4322C145.581 26.5877 145.847 26.5877 146.012 26.4322C146.176 26.2767 146.176 26.0256 146.012 25.8701L144.046 24.0194C145.029 22.8145 144.937 21.0803 143.768 19.9771C142.493 18.7781 140.424 18.7781 139.149 19.9771C137.875 21.179 137.875 23.1254 139.149 24.3244Z" fill="black"/>
<path d="M82.864 15.5282L82.1064 15.3668L84.4266 9.80261L85.1809 9.96108L82.864 15.5282Z" fill="#99B9FF"/>
<path d="M82.2935 11.8562L82.5565 11.2014L87.4504 12.2269L87.1873 12.8817L82.2935 11.8562Z" fill="#99B9FF"/>
<path d="M81.6978 13.3487L81.9608 12.6909L86.8546 13.7164L86.5916 14.3712L81.6978 13.3487Z" fill="#99B9FF"/>
<path d="M84.6709 15.9049L83.9165 15.7465L86.2335 10.1793L86.991 10.3378L84.6709 15.9049Z" fill="#99B9FF"/>
<path d="M98.934 30.3219L87.0322 28.2141C85.3238 27.9151 83.9387 26.3843 83.9387 24.7996C83.9387 23.215 85.3238 22.1775 87.0322 22.4795L98.934 24.5844C100.642 24.8863 102.027 26.4172 102.027 27.9988C102.027 29.5834 100.642 30.6239 98.934 30.3219Z" fill="white"/>
<path d="M98.9877 30.0407C99.7452 30.1753 100.446 30.0258 100.962 29.6221C101.454 29.2394 101.726 28.6624 101.726 27.9986C101.726 26.5485 100.446 25.1403 98.8768 24.8653L86.975 22.7574C86.2207 22.6228 85.517 22.7723 85.0004 23.179C84.5091 23.5617 84.2397 24.1387 84.2397 24.7995C84.2397 26.2526 85.517 27.6578 87.0859 27.9358L98.9877 30.0407ZM99.5233 30.6566C99.3142 30.6566 99.0955 30.6387 98.8768 30.5998L86.975 28.495C85.1335 28.1691 83.6375 26.5127 83.6375 24.7995C83.6375 23.9653 83.9861 23.2358 84.6168 22.7395C85.2729 22.2252 86.1509 22.0338 87.0859 22.1983L98.9877 24.3061C100.829 24.632 102.328 26.2884 102.328 27.9986C102.328 28.8328 101.98 29.5653 101.349 30.0587C100.845 30.4533 100.211 30.6566 99.5233 30.6566Z" fill="#5479F7"/>
<path d="M95.7006 28.0226C95.6816 28.0226 95.6626 28.0226 95.6435 28.0196L86.4898 26.3991C86.325 26.3692 86.2172 26.2227 86.2489 26.0672C86.2806 25.9117 86.4359 25.8131 86.6008 25.84L95.7545 27.4605C95.9193 27.4874 96.0271 27.6369 95.9954 27.7924C95.97 27.9299 95.8432 28.0226 95.7006 28.0226Z" fill="#5479F7"/>
<path d="M99.4726 28.6835C99.387 28.6835 99.3046 28.6506 99.2444 28.5849L97.4092 26.5577C97.3014 26.4381 97.3173 26.2587 97.4441 26.1571C97.5708 26.0554 97.761 26.0704 97.8688 26.19L99.704 28.2141C99.8117 28.3337 99.7959 28.5131 99.6691 28.6148C99.612 28.6596 99.5423 28.6835 99.4726 28.6835Z" fill="black"/>
<path d="M97.6378 28.3579C97.5522 28.3579 97.4635 28.322 97.4033 28.2502C97.2987 28.1307 97.3209 27.9513 97.4508 27.8526L99.286 26.4773C99.416 26.3786 99.6061 26.3965 99.7107 26.5221C99.8153 26.6447 99.7931 26.8211 99.6632 26.9198L97.828 28.2981C97.7709 28.3399 97.7044 28.3579 97.6378 28.3579Z" fill="black"/>
<path d="M119.39 33.9396L109.102 32.1187C107.393 31.8168 106.008 30.2889 106.008 28.7043C106.008 27.1197 107.393 26.0822 109.102 26.3842L119.39 28.202C121.099 28.504 122.484 30.0348 122.484 31.6194C122.484 33.2041 121.099 34.2416 119.39 33.9396Z" fill="white"/>
<path d="M119.447 33.6616C120.202 33.7931 120.902 33.6436 121.419 33.24C121.91 32.8573 122.18 32.2803 122.18 31.6195C122.18 30.1664 120.905 28.7612 119.333 28.4831L109.045 26.6623C108.29 26.5278 107.59 26.6772 107.073 27.0839C106.582 27.4666 106.309 28.0406 106.309 28.7044C106.309 30.1575 107.587 31.5627 109.159 31.8408L119.447 33.6616ZM119.98 34.2775C119.767 34.2775 119.555 34.2566 119.333 34.2207L109.045 32.3999C107.206 32.074 105.707 30.4146 105.707 28.7044C105.707 27.8702 106.056 27.1377 106.687 26.6444C107.346 26.1301 108.224 25.9387 109.159 26.1032L119.447 27.924C121.286 28.2499 122.785 29.9063 122.785 31.6195C122.785 32.4537 122.436 33.1862 121.806 33.6795C121.302 34.0712 120.668 34.2775 119.98 34.2775Z" fill="#5479F7"/>
<path d="M116.338 31.6734C116.319 31.6734 116.3 31.6734 116.281 31.6704L108.601 30.31C108.436 30.2831 108.328 30.1336 108.36 29.9781C108.392 29.8256 108.547 29.724 108.712 29.7509L116.392 31.1113C116.557 31.1382 116.664 31.2877 116.633 31.4432C116.604 31.5807 116.48 31.6734 116.338 31.6734Z" fill="#5479F7"/>
<path d="M120.021 32.3191C119.936 32.3191 119.85 32.2832 119.79 32.2174L117.958 30.1903C117.847 30.0737 117.863 29.8943 117.989 29.7926C118.116 29.688 118.306 29.7029 118.414 29.8225L120.249 31.8497C120.357 31.9693 120.341 32.1487 120.214 32.2503C120.161 32.2952 120.091 32.3191 120.021 32.3191Z" fill="black"/>
<path d="M118.186 31.9932C118.097 31.9932 118.008 31.9574 117.951 31.8856C117.847 31.763 117.866 31.5866 117.999 31.4879L119.831 30.1096C119.961 30.0109 120.151 30.0319 120.256 30.1545C120.36 30.277 120.338 30.4564 120.208 30.5551L118.373 31.9334C118.319 31.9723 118.253 31.9932 118.186 31.9932Z" fill="black"/>
<path d="M116.883 42.5829L103.628 40.2359C101.919 39.9339 100.534 38.4061 100.534 36.8214C100.534 35.2368 101.919 34.1963 103.628 34.4983L116.883 36.8454C118.591 37.1473 119.976 38.6752 119.976 40.2598C119.976 41.8444 118.591 42.8819 116.883 42.5829Z" fill="white"/>
<path d="M116.94 42.3018C117.695 42.4363 118.395 42.2868 118.915 41.8832C119.406 41.4975 119.676 40.9234 119.676 40.2597C119.676 38.8096 118.398 37.4014 116.829 37.1233L103.571 34.7792C102.813 34.6447 102.116 34.7942 101.596 35.1978C101.105 35.5835 100.836 36.1576 100.836 36.8213C100.836 38.2714 102.113 39.6796 103.682 39.9577L116.94 42.3018ZM117.473 42.9177C117.264 42.9177 117.048 42.8997 116.829 42.8609L103.571 40.5138C101.729 40.1909 100.233 38.5315 100.233 36.8213C100.233 35.9871 100.579 35.2546 101.21 34.7613C101.869 34.247 102.747 34.0557 103.682 34.2201L116.94 36.5642C118.782 36.8901 120.278 38.5495 120.278 40.2597C120.278 41.0939 119.929 41.8264 119.298 42.3197C118.794 42.7144 118.164 42.9177 117.473 42.9177Z" fill="#5479F7"/>
<path d="M113.866 40.2752C113.85 40.2752 113.831 40.2752 113.812 40.2722L103.001 38.3587C102.836 38.3288 102.728 38.1823 102.76 38.0268C102.788 37.8744 102.947 37.7727 103.112 37.7996L113.923 39.7131C114.088 39.74 114.195 39.8895 114.164 40.045C114.135 40.1795 114.008 40.2752 113.866 40.2752Z" fill="#5479F7"/>
<path d="M117.552 40.8733C117.466 40.8733 117.381 40.8374 117.321 40.7716L115.485 38.7475C115.378 38.6279 115.393 38.4485 115.52 38.3468C115.647 38.2452 115.837 38.2571 115.945 38.3767L117.78 40.4039C117.888 40.5235 117.872 40.7029 117.745 40.8045C117.688 40.8494 117.618 40.8733 117.552 40.8733Z" fill="black"/>
<path d="M115.717 40.5474C115.628 40.5474 115.539 40.5116 115.479 40.4398C115.374 40.3172 115.397 40.1378 115.527 40.0421L117.362 38.6638C117.492 38.5651 117.682 38.5861 117.786 38.7087C117.891 38.8312 117.869 39.0106 117.739 39.1093L115.904 40.4846C115.847 40.5265 115.78 40.5474 115.717 40.5474Z" fill="black"/>
<path d="M93.4569 38.4365L87.0322 37.3004C85.3238 36.9984 83.9387 35.4706 83.9387 33.8859C83.9387 32.3013 85.3238 31.2638 87.0322 31.5628L93.4569 32.7019C95.1653 33.0039 96.5504 34.5317 96.5504 36.1164C96.5504 37.701 95.1653 38.7385 93.4569 38.4365Z" fill="white"/>
<path d="M93.5138 38.1584C94.2682 38.293 94.9687 38.1435 95.4885 37.7398C95.9798 37.3542 96.2492 36.7801 96.2492 36.1163C96.2492 34.6663 94.9718 33.258 93.4029 32.98L86.975 31.8438C86.2207 31.7093 85.517 31.8588 85.0004 32.2624C84.5091 32.6451 84.2397 33.2221 84.2397 33.8859C84.2397 35.336 85.517 36.7442 87.0859 37.0223L93.5138 38.1584ZM94.0463 38.7743C93.8371 38.7743 93.6216 38.7564 93.4029 38.7175L86.975 37.5814C85.1335 37.2555 83.6375 35.5961 83.6375 33.8859C83.6375 33.0517 83.9861 32.3192 84.6168 31.8259C85.2729 31.3116 86.1509 31.1203 87.0859 31.2847L93.5138 32.4209C95.3554 32.7468 96.8514 34.4061 96.8514 36.1163C96.8514 36.9505 96.5059 37.683 95.872 38.1764C95.368 38.571 94.7341 38.7743 94.0463 38.7743Z" fill="#5479F7"/>
<path d="M90.3411 36.1133C90.3221 36.1133 90.303 36.1133 90.284 36.1103L86.471 35.4346C86.3062 35.4047 86.1984 35.2552 86.2301 35.1027C86.2618 34.9472 86.4171 34.8456 86.582 34.8755L90.395 35.5512C90.5598 35.5781 90.6675 35.7276 90.6358 35.883C90.6105 36.0206 90.4837 36.1133 90.3411 36.1133Z" fill="#5479F7"/>
<path d="M93.9228 36.6932C93.8372 36.6932 93.7516 36.6573 93.6914 36.5916L91.8562 34.5674C91.7485 34.4478 91.7643 34.2684 91.8911 34.1668C92.0179 34.0651 92.208 34.0771 92.3158 34.1967L94.151 36.2238C94.2588 36.3434 94.2429 36.5228 94.1161 36.6245C94.0591 36.6693 93.9893 36.6932 93.9228 36.6932Z" fill="black"/>
<path d="M92.0879 36.3677C91.9992 36.3677 91.9104 36.3319 91.8502 36.2601C91.7488 36.1375 91.7678 35.9581 91.9009 35.8625L93.7329 34.4841C93.8629 34.3855 94.053 34.4064 94.1576 34.529C94.2622 34.6516 94.24 34.8309 94.1101 34.9296L92.2749 36.305C92.221 36.3468 92.1545 36.3677 92.0879 36.3677Z" fill="black"/>
<path d="M99.5172 47.7318C99.327 47.7318 99.1336 47.7138 98.934 47.6779L87.0322 45.5731C85.3238 45.2711 83.9387 43.7433 83.9387 42.1586C83.9387 40.7594 85.0195 39.7847 86.449 39.7847C86.636 39.7847 86.8325 39.7996 87.0322 39.8355L98.934 41.9434C100.642 42.2423 102.027 43.7732 102.027 45.3578C102.027 46.7571 100.947 47.7318 99.5172 47.7318Z" fill="#D1DAEF"/>
<path d="M98.934 47.6778L87.0322 45.5729C85.3238 45.2709 83.9387 43.7431 83.9387 42.1585C83.9387 40.5738 85.3238 39.5334 87.0322 39.8353L98.934 41.9432C100.642 42.2422 102.027 43.773 102.027 45.3576C102.027 46.9393 100.642 47.9798 98.934 47.6778Z" fill="white"/>
<path d="M86.4457 40.0686C85.8942 40.0686 85.3966 40.227 85.0004 40.535C84.5091 40.9177 84.2397 41.4947 84.2397 42.1585C84.2397 43.6086 85.517 45.0168 87.0859 45.2919L98.9877 47.3997C99.7452 47.5313 100.446 47.3848 100.962 46.9811C101.454 46.5955 101.726 46.0184 101.726 45.3576C101.726 43.9046 100.446 42.4993 98.8768 42.2213L86.975 40.1164C86.7943 40.0835 86.6168 40.0686 86.4457 40.0686ZM99.5233 48.0156C99.3142 48.0156 99.0955 47.9977 98.8768 47.9558L86.975 45.851C85.1335 45.5251 83.6375 43.8687 83.6375 42.1585C83.6375 41.3243 83.9861 40.5918 84.6168 40.0985C85.2729 39.5842 86.1509 39.3928 87.0859 39.5573L98.9877 41.6622C100.829 41.9881 102.328 43.6444 102.328 45.3576C102.328 46.1918 101.98 46.9243 101.349 47.4177C100.845 47.8093 100.211 48.0156 99.5233 48.0156Z" fill="#5479F7"/>
<path d="M95.831 45.406C95.812 45.406 95.7961 45.403 95.7771 45.4L86.4364 43.7466C86.2747 43.7197 86.167 43.5702 86.1955 43.4148C86.2272 43.2623 86.3857 43.1606 86.5505 43.1905L95.888 44.8409C96.0529 44.8708 96.1575 45.0203 96.1289 45.1728C96.1004 45.3103 95.9736 45.406 95.831 45.406Z" fill="#5479F7"/>
<path d="M99.4726 46.249C99.387 46.249 99.3046 46.2161 99.2444 46.1503L97.4092 44.1232C97.3014 44.0036 97.3173 43.8242 97.4441 43.7255C97.5708 43.6209 97.761 43.6358 97.8688 43.7554L99.704 45.7825C99.8117 45.9021 99.7959 46.0815 99.6691 46.1832C99.612 46.228 99.5423 46.249 99.4726 46.249Z" fill="black"/>
<path d="M97.6378 45.9262C97.5522 45.9262 97.4635 45.8903 97.4033 45.8186C97.2987 45.696 97.3209 45.5166 97.4508 45.4209L99.286 44.0426C99.416 43.9439 99.6061 43.9649 99.7107 44.0874C99.8153 44.21 99.7931 44.3894 99.6632 44.4851L97.828 45.8634C97.7709 45.9053 97.7044 45.9262 97.6378 45.9262Z" fill="black"/>
<path d="M135.394 45.8545L127.051 44.3805C125.346 44.0786 123.961 42.5507 123.961 40.9661C123.961 39.3815 125.346 38.341 127.051 38.643L135.394 40.12C137.102 40.4219 138.487 41.9528 138.487 43.5344C138.487 45.119 137.102 46.1595 135.394 45.8545Z" fill="white"/>
<path d="M135.45 45.5764C136.205 45.7109 136.905 45.5614 137.422 45.1578C137.913 44.7721 138.186 44.198 138.186 43.5343C138.186 42.0842 136.908 40.676 135.336 40.3979L126.997 38.9239C126.243 38.7893 125.539 38.9388 125.023 39.3425C124.531 39.7282 124.262 40.3022 124.262 40.966C124.262 42.4161 125.539 43.8243 127.108 44.1024L135.45 45.5764ZM135.983 46.1923C135.774 46.1923 135.555 46.1743 135.336 46.1355L126.997 44.6585C125.156 44.3356 123.66 42.6762 123.66 40.966C123.66 40.1318 124.005 39.3993 124.639 38.906C125.295 38.3917 126.173 38.2003 127.108 38.3648L135.45 39.8388C137.289 40.1647 138.788 41.8241 138.788 43.5343C138.788 44.3685 138.439 45.101 137.809 45.5943C137.305 45.989 136.671 46.1923 135.983 46.1923Z" fill="#5479F7"/>
<path d="M132.347 43.4898C132.328 43.4898 132.313 43.4898 132.294 43.4868L126.452 42.4523C126.29 42.4224 126.183 42.2759 126.211 42.1205C126.243 41.968 126.401 41.8663 126.566 41.8932L132.404 42.9277C132.569 42.9576 132.674 43.1041 132.645 43.2596C132.617 43.3942 132.49 43.4898 132.347 43.4898Z" fill="#5479F7"/>
<path d="M136.03 44.1411C135.948 44.1411 135.862 44.1082 135.802 44.0424L133.967 42.0153C133.859 41.8957 133.875 41.7163 134.002 41.6146C134.129 41.513 134.319 41.5279 134.427 41.6475L136.262 43.6716C136.37 43.7912 136.354 43.9706 136.227 44.0723C136.17 44.1201 136.1 44.1411 136.03 44.1411Z" fill="black"/>
<path d="M134.198 43.8155C134.11 43.8155 134.021 43.7796 133.961 43.7109C133.856 43.5883 133.878 43.4089 134.008 43.3102L135.843 41.9319C135.973 41.8362 136.164 41.8572 136.268 41.9797C136.373 42.1023 136.351 42.2787 136.221 42.3774L134.385 43.7557C134.328 43.7976 134.262 43.8155 134.198 43.8155Z" fill="black"/>
<path d="M60.6584 83.431C61.3969 83.3174 62.2685 83.1589 63.511 82.5131L73.0767 77.3376C73.9135 76.9041 74.2019 75.9144 73.7202 75.152C73.7202 75.152 72.988 73.8993 71.4729 74.569C70.8707 74.8351 67.5458 76.7456 67.1179 76.8533C66.4333 77.0207 65.961 76.647 66.0086 75.9862C66.0339 75.6483 66.0435 75.3404 66.0466 75.0773C66.053 74.4404 66.4301 73.8574 67.0229 73.5405C68.2305 72.8977 71.8977 71.2054 72.3794 70.8346C73.0958 70.2815 74.1893 69.5909 74.3636 68.7029L74.4048 68.4726C74.5759 67.5518 73.6251 66.8043 72.6805 67.1182L63.53 70.2098C62.3572 70.5984 61.3588 71.3519 60.7059 72.3445L57.3366 77.4781C56.5759 78.6322 55.1718 79.284 53.7297 79.1465L41.2764 81.8643C37.5744 81.4905 37.3176 87.9487 37.3176 87.9487C37.511 89.8592 39.3969 91.2345 41.3588 91.0312L60.6584 83.431Z" fill="white"/>
<path d="M37.6215 87.9429C37.7102 88.7621 38.1413 89.5066 38.8386 90.0418C39.5328 90.574 40.4202 90.8311 41.2824 90.7534L60.5438 83.171C60.5629 83.1621 60.585 83.1561 60.6104 83.1531C61.3996 83.0275 62.2047 82.8661 63.3648 82.2651L72.9274 77.0926C73.2665 76.9162 73.5042 76.6292 73.6025 76.2854C73.7007 75.9475 73.65 75.5947 73.4598 75.2957C73.3933 75.1851 72.8101 74.2911 71.5993 74.8263C71.3616 74.931 70.6389 75.3286 69.8719 75.7472C68.3854 76.5634 67.4662 77.0597 67.1936 77.1255C66.7689 77.2332 66.379 77.1704 66.1001 76.9491C65.818 76.7309 65.6785 76.384 65.7071 75.9684C65.7261 75.6695 65.7419 75.3705 65.7451 75.0745C65.7514 74.3419 66.1857 73.6603 66.8735 73.2925C67.3521 73.0384 68.2015 72.6258 69.0985 72.1922C70.3568 71.5823 71.9194 70.8229 72.1888 70.6166C72.2903 70.5388 72.398 70.4581 72.509 70.3744C73.1461 69.899 73.9353 69.31 74.0652 68.6522L74.1064 68.425C74.1698 68.0961 74.043 67.7702 73.7736 67.5549C73.4979 67.3337 73.1239 67.2709 72.7784 67.3845L63.6342 70.476C62.5248 70.8438 61.5771 71.5584 60.9622 72.4942L57.593 77.6278C56.7847 78.8567 55.2792 79.5623 53.7514 79.4337L41.3426 82.1425C41.3109 82.1485 41.276 82.1515 41.2443 82.1485C40.5882 82.0797 40.0335 82.2442 39.5423 82.6448C37.856 84.0202 37.6373 87.6529 37.6215 87.9429ZM40.9781 91.3364C40.0779 91.3364 39.1778 91.0344 38.4583 90.4843C37.6278 89.8474 37.1175 88.9564 37.0193 87.9758C37.0161 87.9638 37.0161 87.9519 37.0161 87.9399C37.0225 87.7725 37.1999 83.8019 39.1461 82.2143C39.7515 81.7239 40.4583 81.5087 41.2538 81.5774L53.6627 78.8686C53.6944 78.8596 53.7293 78.8596 53.761 78.8626C55.0795 78.9882 56.3822 78.3872 57.0795 77.3288L60.4488 72.1952C61.1365 71.1488 62.1952 70.3505 63.4313 69.9409L72.5787 66.8493C73.1302 66.6669 73.7229 66.7686 74.1635 67.1214C74.5977 67.4682 74.8006 67.9915 74.7023 68.5207L74.6611 68.7539C74.49 69.6239 73.5993 70.2877 72.883 70.8199C72.7752 70.9006 72.6706 70.9783 72.5692 71.0561C72.2776 71.2833 71.1144 71.8514 69.3743 72.6945C68.4836 73.1281 67.6373 73.5377 67.1714 73.7858C66.6674 74.0549 66.3537 74.5512 66.3473 75.0804C66.3442 75.3854 66.3315 75.6964 66.3093 76.0043C66.2934 76.2315 66.3537 76.4139 66.4836 76.5126C66.6104 76.6113 66.8101 76.6352 67.0415 76.5784C67.2633 76.5186 68.6484 75.7591 69.5676 75.2569C70.379 74.8114 71.0827 74.4287 71.3457 74.3121C72.7467 73.6931 73.6817 74.5004 73.9828 75.0147C74.2522 75.4392 74.3251 75.9445 74.1857 76.4319C74.043 76.9282 73.7007 77.3378 73.2221 77.586L63.6595 82.7614C62.4297 83.3983 61.5423 83.5807 60.7435 83.7092L41.4757 91.2945C41.4472 91.3065 41.4186 91.3125 41.3901 91.3155C41.2538 91.3274 41.1175 91.3364 40.9781 91.3364Z" fill="black"/>
<path d="M93.6152 90.822C93.2951 97.3071 92.4203 113.073 91.65 112.935C90.6611 112.759 73.0256 101.388 73.0256 101.388L65.7642 121.393C65.7642 121.393 91.7008 135.365 99.7198 128.608C105.466 123.764 103.39 96.7539 103.099 91.713L93.6152 90.822Z" fill="white"/>
<path d="M93.3113 130.749C89.755 130.749 85.1845 129.765 79.6283 127.798C72.2051 125.173 65.6821 121.675 65.6156 121.639C65.4888 121.57 65.4317 121.429 65.4793 121.301L72.7408 101.299C72.7693 101.215 72.839 101.149 72.931 101.119C73.0197 101.092 73.118 101.104 73.1972 101.155C79.8977 105.475 89.9928 111.877 91.5554 112.594C92.034 111.342 92.7154 102.94 93.3145 90.8101C93.3208 90.6517 93.4634 90.5291 93.6314 90.5381C93.7962 90.547 93.923 90.6786 93.9167 90.837C93.8057 93.1183 93.5015 98.9785 93.1275 104.058C92.4872 112.699 92.1005 112.989 91.8913 113.144C91.8026 113.207 91.698 113.234 91.5934 113.213C90.6267 113.043 76.763 104.142 73.1813 101.837L66.1322 121.259C68.6457 122.581 92.1354 134.618 99.5173 128.396C103.039 125.43 104.164 113.464 102.864 92.8283C102.836 92.3948 102.814 92.024 102.798 91.731C102.788 91.5726 102.915 91.438 103.08 91.429C103.248 91.4231 103.391 91.5427 103.4 91.6981C103.416 91.9911 103.438 92.3589 103.467 92.7954C103.679 96.1859 104.18 104.124 103.939 111.641C103.638 121.047 102.288 126.826 99.9199 128.82C98.3953 130.106 96.1861 130.749 93.3113 130.749Z" fill="black"/>
<path d="M103.114 91.8176C106.246 87.0039 106.16 80.785 105.631 77.5799C105.244 75.2358 99.5642 70.6822 98.6418 70.4998C97.7417 70.3204 96.5848 71.4925 97.0761 72.3266C97.2853 72.6794 97.7797 72.7512 98.2108 73.1608C98.42 73.3582 98.1252 74.1863 98.0428 74.9876C97.7924 77.3347 97.4406 79.7505 97.1173 78.7369C96.8986 78.0373 96.6514 76.4198 96.4675 75.0534C96.3027 73.8335 94.1442 72.3894 93.504 72.3595C93.3106 72.3536 93.0222 72.3565 92.7433 72.4731C92.1252 72.7363 91.8304 73.5286 92.1918 74.0638C92.4897 74.5033 93.6751 75.6185 93.6751 75.6185C93.7258 75.7321 93.7544 75.8517 93.7575 75.9743L93.9287 84.1307C93.9287 84.1307 92.1189 83.2487 90.9746 80.8328C89.8304 78.417 87.7322 79.2153 87.7322 79.2153C87.7322 79.2153 90.1411 84.7167 91.2219 87.7933C92.3027 90.8698 93.5832 91.0253 93.5832 91.0253L103.114 91.8176Z" fill="white"/>
<path d="M103.115 92.1019C103.061 92.1019 103.004 92.0869 102.956 92.06C102.813 91.9763 102.769 91.8029 102.858 91.6683C106.496 86.0773 105.558 78.9883 105.33 77.6249C104.966 75.4034 99.4252 70.9455 98.5789 70.7781C98.2429 70.7093 97.7865 70.9306 97.4981 71.3013C97.254 71.6123 97.197 71.9441 97.3396 72.1893C97.4125 72.3119 97.5678 72.3986 97.7643 72.5062C97.9672 72.6198 98.2017 72.7484 98.4268 72.9607C98.674 73.1969 98.5947 73.6035 98.4743 74.2194C98.4236 74.4676 98.3697 74.7486 98.3412 75.0177C97.8974 79.2035 97.6249 79.2275 97.3111 79.2574C96.9814 79.2902 96.8673 78.9345 96.8293 78.8178C96.6455 78.2318 96.4204 76.9761 96.1669 75.0865C96.0211 74.0012 93.964 72.6677 93.4886 72.6438C93.3301 72.6378 93.0924 72.6378 92.8673 72.7335C92.6391 72.8291 92.4553 73.0354 92.376 73.2866C92.3063 73.5138 92.3317 73.741 92.4458 73.9115C92.6772 74.2493 93.5646 75.1134 93.8911 75.4154C93.9165 75.4423 93.9386 75.4722 93.9545 75.5081C94.0211 75.6546 94.0559 75.81 94.0591 75.9715L94.2302 84.1249C94.2302 84.2265 94.1764 84.3192 94.0876 84.373C93.9957 84.4239 93.8848 84.4298 93.7897 84.382C93.7104 84.3461 91.8721 83.4252 90.6993 80.9496C89.9228 79.3052 88.6993 79.3022 88.1383 79.4009C88.6518 80.5879 90.5789 85.0637 91.5076 87.7067C92.4965 90.5112 93.6217 90.7444 93.6312 90.7474C93.7928 90.7743 93.9038 90.9179 93.8784 91.0703C93.8531 91.2228 93.7104 91.3275 93.5456 91.3095C93.3966 91.2916 92.0464 91.0404 90.9371 87.8831C89.8689 84.8514 87.4759 79.377 87.4537 79.3231C87.422 79.2544 87.422 79.1736 87.4537 79.1049C87.4854 79.0361 87.5425 78.9793 87.6185 78.9524C87.6407 78.9434 90.002 78.0823 91.2508 80.7164C91.9925 82.2801 93.0258 83.1801 93.6153 83.5957L93.4569 75.9805C93.4537 75.9117 93.441 75.8429 93.4157 75.7771C93.1906 75.5619 92.2207 74.632 91.9386 74.2164C91.7263 73.9055 91.6787 73.5078 91.7992 73.1221C91.926 72.7185 92.2334 72.3777 92.6201 72.2162C92.8768 72.1056 93.1716 72.0607 93.5203 72.0787C94.2588 72.1116 96.5821 73.6394 96.7659 75.0177C96.9592 76.4439 97.1367 77.5232 97.2857 78.19C97.3966 77.6817 97.552 76.7339 97.7421 74.9609C97.7707 74.6709 97.8277 74.3749 97.8784 74.1178C97.9355 73.8397 98.0084 73.463 97.9767 73.3434C97.8119 73.1909 97.6312 73.0922 97.4569 72.9966C97.216 72.862 96.9656 72.7245 96.8134 72.4644C96.5504 72.0189 96.6233 71.4598 97.01 70.9635C97.3745 70.5 98.0369 70.0904 98.7025 70.222C99.8372 70.4462 105.53 75.1194 105.929 77.5382C106.161 78.9374 107.121 86.2058 103.371 91.9643C103.314 92.054 103.216 92.1019 103.115 92.1019Z" fill="black"/>
<path d="M100.87 80.1481C100.858 80.1481 100.845 80.1481 100.832 80.1481C100.667 80.1272 100.55 79.9866 100.572 79.8282C100.791 78.1628 101.029 75.8337 101.051 75.6035L100.946 72.8229C100.937 72.5777 100.816 72.3475 100.617 72.192L99.4788 71.304C99.3489 71.2054 99.3299 71.026 99.4376 70.9034C99.5422 70.7838 99.7324 70.7659 99.8624 70.8675L101 71.7555C101.333 72.0126 101.533 72.3953 101.549 72.802L101.653 75.6005C101.656 75.6154 101.656 75.6244 101.653 75.6394C101.65 75.6633 101.403 78.1479 101.171 79.8999C101.149 80.0434 101.019 80.1481 100.87 80.1481Z" fill="black"/>
<path d="M103.561 82.2081C103.549 82.2081 103.539 82.2051 103.526 82.2051C103.362 82.1872 103.241 82.0467 103.26 81.8912C103.412 80.6175 103.472 79.8222 103.504 77.8997L103.507 77.6246C103.526 76.7277 103.539 75.9533 103.441 75.2895C103.285 74.2431 102.138 73.4657 102.129 73.4568C101.992 73.3671 101.961 73.1877 102.056 73.0591C102.154 72.9335 102.341 72.9036 102.477 72.9933C102.534 73.0322 103.847 73.9262 104.037 75.2118C104.141 75.9174 104.129 76.7127 104.113 77.6336L104.106 77.9087C104.075 79.8551 104.014 80.6594 103.862 81.954C103.843 82.1005 103.713 82.2081 103.561 82.2081Z" fill="black"/>
<path d="M74.8673 128.485C73.1494 129.328 67.4124 125.352 65.4568 126.306C64.0369 126.996 63.666 139.578 63.9671 149.462C44.7183 143.781 19.9545 132.459 7.39661 106.838C4.15414 100.225 2.02736 93.2286 0.946533 86.1216C4.41087 82.1152 10.8578 78.2613 15.3903 77.7022C19.7706 77.161 24.6644 76.1833 29.0923 76.7035C37.3269 77.6723 54.151 83.0899 57.9259 84.7044C61.7009 86.322 76.8197 100.784 78.5345 102.237C80.2524 103.693 78.6201 126.637 74.8673 128.485Z" fill="black"/>
<path d="M53.3301 61.6831L51.3555 63.3246C51.2223 63.4382 51.1431 63.5967 51.1399 63.7611C51.1368 64.8076 51.1019 68.6645 50.9656 69.3821C50.8103 70.2162 50.0908 70.9517 49.7358 71.1311C48.7913 71.6065 46.0908 71.3972 46.0908 71.3972C46.0908 71.3972 45.0702 70.9278 43.2984 75.0748C41.9038 78.3337 41.4664 78.7583 42.5472 79.9991C42.8769 80.3758 40.8452 83.0189 34.506 82.8186C24.8737 82.5106 21.4791 78.1872 22.1384 77.5743C27.9735 72.1686 29.2033 64.38 29.2223 63.1572C29.235 62.2183 32.7818 56.998 36.0338 55.4463C38.2525 54.3879 40.9403 55.9187 42.7437 54.3191L48.2651 48.2915C48.2651 48.2915 49.8372 50.4891 50.5948 52.866C50.8008 53.5208 50.9498 54.1875 50.9815 54.8274C50.9878 54.9171 50.9941 55.0277 51.01 55.1592C51.1241 56.1818 51.609 58.4212 53.4379 60.843C53.6376 61.1091 53.5932 61.4679 53.3301 61.6831Z" fill="white"/>
<path d="M22.3635 77.7653C22.354 77.8161 22.3794 78.0284 22.652 78.4022C23.6979 79.8283 27.3715 82.3069 34.5157 82.5342C39.2732 82.6837 41.3017 81.1947 41.812 80.7373C42.148 80.4323 42.2526 80.214 42.2748 80.1333C41.27 78.9553 41.5394 78.3424 42.5125 76.1328C42.6615 75.789 42.8295 75.4033 43.0165 74.9698C43.9737 72.7334 44.8675 71.4477 45.6694 71.1577C45.8913 71.077 46.0561 71.0919 46.1512 71.1158C46.9055 71.1726 48.896 71.2324 49.5933 70.8796C49.8944 70.7272 50.5315 70.0604 50.6678 69.3339C50.7851 68.715 50.8326 65.4171 50.839 63.7608C50.8421 63.5126 50.9594 63.2764 51.1559 63.112L53.1306 61.4705L53.1337 61.4675C53.2764 61.3509 53.3017 61.1566 53.1908 61.0071C51.251 58.4388 50.8104 56.0828 50.7122 55.1888C50.6963 55.0513 50.6868 54.9376 50.6805 54.842C50.6488 54.2709 50.5252 53.637 50.3033 52.9494C49.736 51.1584 48.6805 49.4512 48.2272 48.7636L42.9721 54.5041L42.9531 54.528C41.8722 55.4818 40.5157 55.416 39.2035 55.3562C38.1702 55.3054 37.1052 55.2546 36.1702 55.7001C32.9626 57.2309 29.5363 62.4303 29.5236 63.1598C29.5046 64.4903 28.1797 72.3656 22.3635 77.7653ZM35.1591 83.1112C34.9436 83.1112 34.7217 83.1082 34.4935 83.1022C26.3699 82.8421 22.4681 79.6908 21.8532 78.2048C21.6535 77.7264 21.8152 77.4783 21.9293 77.3736C27.6092 72.1055 28.9024 64.4424 28.9214 63.1538C28.9372 62.0177 32.6615 56.7375 35.8976 55.1918C36.9753 54.6775 38.1226 54.7343 39.232 54.7881C40.4681 54.845 41.6377 54.9018 42.5252 54.1214L48.0371 48.1028C48.0973 48.037 48.1892 48.0011 48.2811 48.0071C48.3762 48.0101 48.4618 48.0579 48.5157 48.1297C48.5791 48.2224 50.1226 50.396 50.8833 52.7849C51.1147 53.5145 51.251 54.1991 51.2827 54.8121C51.289 54.8958 51.2954 55.0004 51.3112 55.126C51.4063 55.9781 51.8279 58.2205 53.6821 60.6782C53.9737 61.0609 53.9071 61.5841 53.5299 61.8951L51.5553 63.5365C51.4856 63.5963 51.4444 63.68 51.4444 63.7637C51.4412 64.2571 51.4127 68.6253 51.2637 69.4325C51.0957 70.3205 50.3382 71.1487 49.8786 71.3819C48.8865 71.8812 46.3509 71.7019 46.0656 71.6809C46.0402 71.6779 46.0149 71.672 45.9927 71.666C45.9261 71.666 45.0386 71.7646 43.5775 75.1821C43.3905 75.6186 43.2193 76.0043 43.0703 76.3481C42.1068 78.5397 41.9578 78.8746 42.7819 79.8194C42.8612 79.9091 42.9657 80.1183 42.7756 80.4861C42.2051 81.5714 39.7201 83.1112 35.1591 83.1112Z" fill="black"/>
<path d="M41.2319 66.012C41.2319 66.012 41.1178 68.5414 41.5742 69.4055C42.0306 70.2666 44.1479 70.6971 44.1479 70.6971L41.2319 66.012Z" fill="white"/>
<path d="M44.1478 70.981C44.1256 70.981 44.1034 70.978 44.0812 70.975C43.853 70.9271 41.8118 70.4876 41.3047 69.5309C40.8261 68.6309 40.918 66.2659 40.9275 65.9998C40.937 65.8414 41.0765 65.7188 41.2444 65.7278C41.4093 65.7337 41.5392 65.8683 41.5329 66.0238C41.5012 66.7084 41.498 68.6249 41.8435 69.2767C42.1636 69.8837 43.6597 70.3053 44.2112 70.4189C44.3728 70.4518 44.4774 70.6042 44.4425 70.7567C44.4108 70.8883 44.2841 70.981 44.1478 70.981Z" fill="black"/>
<path d="M41.1427 62.2511C39.9605 62.2511 38.1031 61.8444 37.0952 59.5363C36.4771 58.125 36.6768 56.8663 37.6245 56.1727C38.6229 55.4401 40.1665 55.5209 41.3773 56.367C41.8274 56.6839 42.4169 57.5629 42.4835 57.6586C42.5722 57.7932 42.5278 57.9696 42.3884 58.0533C42.2457 58.134 42.0587 58.0951 41.9732 57.9606C41.8083 57.7184 41.3234 57.0397 41.0159 56.8244C40.0397 56.1398 38.7687 56.0531 37.9953 56.6211C37.2632 57.1563 37.1364 58.14 37.653 59.321C38.9906 62.3856 41.9383 61.6202 42.0619 61.5873C42.2235 61.5425 42.3884 61.6292 42.4359 61.7787C42.4835 61.9311 42.3915 62.0866 42.2331 62.1315C42.2204 62.1345 41.7798 62.2511 41.1427 62.2511Z" fill="black"/>
<path d="M50.877 52.5877C50.7914 52.6774 50.6963 52.77 50.5949 52.8657C49.4411 53.9451 47.2795 55.3862 42.0782 56.4685C41.8785 56.5074 41.6757 56.5492 41.4665 56.5881C41.457 56.5911 41.4316 56.5851 41.3841 56.5672C41.289 56.5373 41.1115 56.4745 40.8865 56.4027L40.8833 56.3998C40.1448 56.1665 38.8738 55.8436 37.9831 56.2831L37.9768 56.2861C37.6535 56.4476 37.3809 56.7107 37.2034 57.1143C36.915 57.7721 36.9562 58.5196 37.2415 59.1803L37.7137 60.2716C37.7137 60.2716 35.5521 66.8494 34.2526 67.2709C31.8976 68.0304 29.7835 67.9437 28.5378 67.7732C28.4586 67.7971 28.373 67.8031 28.2938 67.7852C28.1099 67.7463 27.9324 67.7075 27.7613 67.6716C26.6266 67.4234 19.3873 63.7489 18.7026 55.6702C18.2018 49.7891 22.5632 50.42 22.6076 50.1898C23.3049 46.4973 26.7914 40.2784 33.7961 41.5072C36.354 41.9557 36.1606 38.8402 36.373 38.6608C38.8294 36.553 39.2224 39.2768 42.0307 39.0316C46.7153 38.619 51.1527 39.3366 52.4364 41.3996C54.6709 44.9874 54.8674 48.5035 50.877 52.5877Z" fill="black"/>
<path d="M129.279 131.227C128.091 134.08 124.668 135.482 121.638 134.358C118.607 133.237 117.118 130.011 118.31 127.161C119.498 124.306 122.921 122.907 125.951 124.028C128.981 125.152 130.471 128.375 129.279 131.227ZM129.194 119.208L127.061 118.419L125.657 120.368C125.13 120.267 124.601 120.21 124.072 120.195L123.168 118.003L120.902 118.32L120.722 120.67C120.218 120.832 119.729 121.032 119.26 121.268L117.308 119.794L115.517 121.137L116.604 123.253C116.259 123.627 115.942 124.031 115.66 124.461L113.187 124.103L112.351 126.109L114.42 127.433C114.316 127.93 114.252 128.429 114.237 128.925L111.91 129.777L112.249 131.909L114.744 132.082C114.918 132.558 115.127 133.018 115.381 133.458L113.815 135.294L115.241 136.983L117.492 135.957C117.888 136.286 118.316 136.585 118.775 136.848L118.395 139.177L120.525 139.967L121.932 138.02C122.458 138.119 122.991 138.179 123.517 138.194L124.42 140.385L126.687 140.065L126.867 137.718C127.371 137.557 127.863 137.357 128.329 137.117L130.281 138.594L132.072 137.252L130.981 135.132C131.33 134.761 131.647 134.358 131.929 133.924L134.401 134.283L135.238 132.277L133.168 130.955C133.273 130.456 133.336 129.957 133.352 129.46L135.679 128.611L135.34 126.476L132.845 126.306C132.674 125.831 132.462 125.37 132.208 124.928L133.774 123.092L132.348 121.406L130.097 122.428C129.701 122.102 129.273 121.803 128.813 121.537L129.194 119.208Z" fill="white"/>
<path d="M120.699 104.581C120.043 106.157 118.154 106.928 116.483 106.309C114.81 105.691 113.989 103.912 114.645 102.339C115.301 100.763 117.19 99.9889 118.86 100.611C120.534 101.23 121.358 103.009 120.699 104.581ZM120.651 97.9498L119.475 97.5162L118.702 98.5896C118.41 98.5358 118.119 98.5029 117.827 98.4939L117.326 97.286L116.078 97.4594L115.976 98.757C115.697 98.8467 115.428 98.9574 115.171 99.0859L114.093 98.2727L113.105 99.0142L113.707 100.18C113.513 100.387 113.339 100.611 113.184 100.85L111.821 100.65L111.358 101.759L112.499 102.488C112.442 102.763 112.407 103.039 112.398 103.311L111.114 103.783L111.301 104.958L112.68 105.054C112.775 105.314 112.892 105.568 113.032 105.813L112.166 106.827L112.952 107.757L114.195 107.191C114.414 107.374 114.651 107.538 114.902 107.685L114.692 108.967L115.868 109.404L116.645 108.331C116.937 108.384 117.228 108.417 117.52 108.426L118.017 109.634L119.269 109.458L119.368 108.163C119.646 108.073 119.916 107.963 120.176 107.831L121.25 108.648L122.239 107.906L121.64 106.737C121.83 106.531 122.005 106.309 122.16 106.07L123.526 106.271L123.986 105.161L122.845 104.432C122.902 104.157 122.937 103.882 122.946 103.607L124.23 103.137L124.043 101.962L122.667 101.866C122.572 101.603 122.455 101.349 122.315 101.107L123.177 100.094L122.391 99.1637L121.152 99.7287C120.933 99.5464 120.696 99.3819 120.442 99.2354L120.651 97.9498Z" fill="white"/>
<path d="M24.5882 28.3577C24.5185 28.3577 24.4488 28.3368 24.3917 28.2889C24.2649 28.1873 24.2522 28.0079 24.36 27.8913C33.2221 18.1652 45.7451 10.7832 59.6215 7.10267C59.7831 7.06081 59.9479 7.14752 59.9955 7.3C60.0399 7.4495 59.9479 7.60796 59.7863 7.64982C46.0209 11.3005 33.6025 18.6197 24.8196 28.259C24.7594 28.3248 24.6738 28.3577 24.5882 28.3577Z" fill="black"/>
<path d="M21.6311 22.8206C21.3364 22.8206 21.0479 22.9252 20.8261 23.1405C20.4204 23.5232 20.4584 24.1361 20.9116 24.5637C21.1082 24.7461 21.3807 24.8477 21.6787 24.8477H21.6819C21.9956 24.8477 22.2936 24.7311 22.5028 24.5338C22.7025 24.3394 22.8102 24.0883 22.8007 23.8252C22.7944 23.5561 22.6676 23.3079 22.4457 23.1226C22.208 22.9193 21.9164 22.8206 21.6311 22.8206ZM21.6787 25.4158C21.2191 25.4158 20.7975 25.2573 20.4869 24.9643C19.7896 24.3095 19.7516 23.3528 20.395 22.7399C21.0638 22.103 22.1193 22.0851 22.8483 22.698C23.1937 22.988 23.3903 23.3827 23.4061 23.8072C23.4188 24.2288 23.2508 24.6295 22.9307 24.9344C22.6105 25.2394 22.1573 25.4158 21.685 25.4158H21.6787Z" fill="black"/>
<path d="M24.0749 18.0064L24.6962 20.7332C25.5139 20.1173 26.4743 19.3609 27.01 18.9393L24.0749 18.0064ZM24.5028 21.5255C24.468 21.5255 24.4331 21.5195 24.3982 21.5106C24.3 21.4747 24.2271 21.397 24.2081 21.3013L23.3745 17.6387C23.3523 17.537 23.3871 17.4354 23.4695 17.3666C23.5488 17.2978 23.6629 17.2769 23.7643 17.3098L27.7104 18.5596C27.815 18.5925 27.8911 18.6762 27.9101 18.7778C27.9323 18.8765 27.8943 18.9811 27.8087 19.0469C27.7897 19.0619 25.9291 20.5448 24.6898 21.4657C24.636 21.5046 24.5694 21.5255 24.5028 21.5255Z" fill="black"/>
<path d="M111.336 151.532C102.775 151.532 92.4171 150.476 80.8514 147.202C80.6929 147.157 80.601 146.999 80.6485 146.85C80.6961 146.7 80.8641 146.613 81.0257 146.658C99.8593 151.989 115.479 151.409 125.267 149.983C135.875 148.437 142.107 145.594 142.17 145.567C142.319 145.495 142.5 145.555 142.572 145.695C142.645 145.836 142.585 146.006 142.436 146.075C142.373 146.105 136.075 148.978 125.387 150.539C121.546 151.101 116.807 151.532 111.336 151.532Z" fill="black"/>
<path d="M110.737 147.214C107.932 147.214 105.184 147.055 102.512 146.732C102.347 146.712 102.23 146.571 102.249 146.416C102.271 146.26 102.423 146.149 102.588 146.167C109.999 147.058 117.964 146.703 126.262 145.109C126.423 145.076 126.582 145.175 126.617 145.33C126.648 145.483 126.544 145.635 126.382 145.665C121.01 146.697 115.777 147.214 110.737 147.214Z" fill="black"/>
<path d="M153.086 138.905C152.934 138.905 152.781 138.926 152.632 138.968C152.23 139.082 151.9 139.336 151.701 139.683C151.289 140.403 151.577 141.303 152.338 141.689C152.709 141.877 153.133 141.916 153.536 141.802C153.938 141.689 154.268 141.435 154.468 141.088C154.876 140.367 154.591 139.47 153.827 139.082C153.596 138.965 153.342 138.905 153.086 138.905ZM153.083 142.436C152.724 142.436 152.373 142.353 152.052 142.188C150.997 141.653 150.601 140.409 151.168 139.414C151.444 138.932 151.903 138.579 152.458 138.424C153.016 138.265 153.602 138.322 154.116 138.582C155.171 139.118 155.567 140.361 154.997 141.357C154.724 141.838 154.265 142.191 153.707 142.347C153.501 142.406 153.292 142.436 153.083 142.436Z" fill="black"/>
<path d="M145.996 110.974C145.996 110.974 137.485 93.4023 142.366 70.6255C142.366 70.6255 155.558 81.0362 150.801 110.974H145.996Z" fill="white"/>
<path d="M146.192 110.69H150.541C152.921 95.4532 150.534 85.4461 148.107 79.7235C145.999 74.7573 143.498 72.0814 142.557 71.1874C140.186 82.6894 141.286 92.7862 142.642 99.2683C143.973 105.625 145.799 109.823 146.192 110.69ZM150.801 111.258H145.996C145.878 111.258 145.771 111.192 145.72 111.09C145.701 111.045 143.561 106.585 142.053 99.3968C140.664 92.7653 139.539 82.3815 142.072 70.5715C142.091 70.4728 142.167 70.3921 142.265 70.3592C142.366 70.3263 142.477 70.3443 142.56 70.41C142.696 70.5177 145.948 73.1308 148.649 79.4693C151.127 85.2906 153.568 95.4891 151.099 111.015C151.076 111.153 150.95 111.258 150.801 111.258Z" fill="#5479F7"/>
<path d="M148.078 109.425H148.059C147.894 109.416 147.768 109.282 147.777 109.126C148.427 97.8991 143.051 73.9293 142.997 73.6872C142.962 73.5347 143.064 73.3822 143.229 73.3523C143.39 73.3194 143.552 73.4151 143.587 73.5705C143.641 73.8127 149.035 97.8543 148.379 109.156C148.37 109.308 148.237 109.425 148.078 109.425Z" fill="#5479F7"/>
<path d="M154.557 82.4084C154.557 82.4084 143.593 101.068 150.189 109.141H153.717C153.717 109.141 160.769 94.5563 154.557 82.4084Z" fill="#CADDFF"/>
<path d="M150.338 108.857H153.517C154.252 107.233 159.834 94.1348 154.538 83.0454C152.883 86.0412 144.709 101.699 150.338 108.857ZM153.717 109.425H150.189C150.094 109.425 150.005 109.383 149.948 109.314C147.149 105.888 147.035 100.285 149.612 92.6608C151.517 87.0249 154.265 82.3159 154.294 82.271C154.347 82.1783 154.455 82.1155 154.566 82.1245C154.68 82.1275 154.779 82.1903 154.829 82.283C158.072 88.6275 157.669 95.6268 156.763 100.381C155.78 105.52 154.008 109.222 153.992 109.258C153.942 109.359 153.834 109.425 153.717 109.425Z" fill="#5479F7"/>
<path d="M151.837 109.919C151.676 109.919 151.539 109.799 151.533 109.647C151.216 101.939 154.227 82.5614 154.259 82.367C154.284 82.2116 154.436 82.1039 154.601 82.1278C154.766 82.1488 154.88 82.2953 154.855 82.4507C154.826 82.6421 151.822 101.972 152.139 109.623C152.145 109.781 152.015 109.913 151.847 109.919H151.837Z" fill="#5479F7"/>
<path d="M133.622 89.3632C133.622 89.3632 142.962 92.365 146.344 110.137H142.671C142.671 110.137 135.004 100.378 133.622 89.3632Z" fill="#CADDFF"/>
<path d="M142.826 109.853H145.983C144.236 100.976 140.972 95.9618 138.525 93.3127C136.557 91.181 134.794 90.2003 133.989 89.8266C135.415 99.8008 141.986 108.74 142.826 109.853ZM146.344 110.421H142.671C142.576 110.421 142.487 110.379 142.43 110.304C142.35 110.206 134.699 100.357 133.324 89.396C133.311 89.3003 133.352 89.2047 133.431 89.1419C133.514 89.0821 133.621 89.0641 133.72 89.094C133.818 89.1269 136.163 89.9043 138.943 92.9001C141.485 95.6359 144.883 100.841 146.642 110.086C146.658 110.17 146.636 110.253 146.579 110.319C146.518 110.382 146.436 110.421 146.344 110.421Z" fill="#5479F7"/>
<path d="M144.338 109.919C144.192 109.919 144.065 109.82 144.04 109.682C142.652 101.783 136.642 93.8211 136.582 93.7404C136.484 93.6118 136.515 93.4354 136.652 93.3457C136.788 93.2531 136.975 93.283 137.073 93.4085C137.133 93.4893 143.225 101.556 144.636 109.59C144.661 109.745 144.55 109.889 144.388 109.916C144.369 109.919 144.354 109.919 144.338 109.919Z" fill="#5479F7"/>
<path d="M137.225 108.725H160.271L160.788 118.992C160.915 121.51 158.782 123.615 156.106 123.615H142.943C139.78 123.615 137.213 121.196 137.216 118.215L137.225 108.725Z" fill="#5479F7"/>
</svg>
