<svg width="303" height="275" viewBox="0 0 303 275" fill="none" xmlns="http://www.w3.org/2000/svg">
<mask id="mask0_3717_19531" style="mask-type:luminance" maskUnits="userSpaceOnUse" x="30" y="0" width="242" height="275">
<path d="M30.5496 0.93689H271.649V274.712H30.5496V0.93689Z" fill="white"/>
</mask>
<g mask="url(#mask0_3717_19531)">
<path d="M176.222 2.93891C169.404 1.79441 162.736 1.18129 156.259 1.00871C153.524 0.931504 150.829 0.931504 148.159 1.00871C92.3673 2.58466 52.316 35.4888 48.9095 38.3819C46.6452 40.303 39.4214 46.5932 31.2258 56.721L151.244 274.184L151.345 274.375L151.45 274.175L270.973 57.9245C247.608 29.7527 213.448 9.1655 176.222 2.93891Z" fill="#99B9FF"/>
</g>
<path d="M260.723 27.4458C260.723 19.943 254.055 13.9572 245.829 13.9572L77.4386 13.9117C69.213 13.9117 62.5403 19.9476 62.5403 27.3959L62.5503 200.759L24.9236 200.741C24.9236 208.335 30.4792 214.825 38.1287 216.991C39.8971 217.491 41.7707 217.759 43.7194 217.759L212.195 217.754C222.58 217.754 230.991 210.138 230.991 200.737L230.931 27.4413L260.723 27.4458Z" fill="white"/>
<path d="M43.5642 218.25C43.2637 218.25 43.0232 218.027 43.0232 217.755C43.0232 217.482 43.2637 217.26 43.5642 217.26C53.6284 217.26 61.819 209.848 61.819 200.733C61.819 200.46 62.0645 200.238 62.365 200.238C62.6656 200.238 62.9111 200.46 62.9111 200.733C62.9111 210.393 54.2346 218.25 43.5642 218.25Z" fill="black"/>
<path d="M230.786 27.9278C230.485 27.9278 230.24 27.7098 230.24 27.4373C230.24 19.7301 237.163 13.4581 245.674 13.4581C245.974 13.4581 246.22 13.6807 246.22 13.9532C246.22 14.2257 245.974 14.4482 245.674 14.4482C237.764 14.4482 231.332 20.2751 231.332 27.4373C231.332 27.7098 231.086 27.9278 230.786 27.9278Z" fill="black"/>
<path d="M230.796 77.8176C230.49 77.8176 230.25 77.5996 230.25 77.3271L230.23 27.4417C230.23 27.31 230.285 27.1828 230.39 27.092C230.49 26.9966 230.631 26.9467 230.776 26.9467L260.012 26.9512C259.726 20.0116 253.404 14.4481 245.679 14.4481L77.2835 14.4072C69.3685 14.4072 62.9312 20.2341 62.9312 27.3963V42.6698C62.9312 42.9423 62.6907 43.1603 62.3852 43.1603C62.0846 43.1603 61.8391 42.9423 61.8391 42.6698V27.3963C61.8391 19.6891 68.7673 13.4171 77.2835 13.4171L245.679 13.4625C254.191 13.4625 261.114 19.7345 261.114 27.4462C261.114 27.5779 261.059 27.7006 260.953 27.7914C260.853 27.8868 260.713 27.9367 260.568 27.9367L231.322 27.9322L231.337 77.3271C231.337 77.5996 231.097 77.8176 230.796 77.8176Z" fill="black"/>
<path d="M25.9753 207.318C25.7599 207.318 25.5495 207.195 25.4693 207C24.6227 205.001 24.1919 202.899 24.1919 200.755C24.1919 200.623 24.247 200.496 24.3522 200.405C24.4524 200.31 24.5927 200.26 24.7379 200.26H34.4064C34.7069 200.26 34.9524 200.482 34.9524 200.755C34.9524 201.027 34.7069 201.25 34.4064 201.25H25.289C25.3491 203.103 25.7499 204.915 26.4863 206.645C26.5965 206.9 26.4562 207.186 26.1707 207.281C26.1105 207.304 26.0404 207.318 25.9753 207.318Z" fill="black"/>
<path d="M72.0534 218.304L43.5541 218.281C41.9059 218.281 40.2728 218.09 38.6948 217.718C38.3993 217.65 38.2289 217.382 38.3041 217.114C38.3792 216.85 38.6748 216.691 38.9704 216.76C40.4582 217.114 42.0011 217.291 43.5541 217.291L72.0534 217.314C72.354 217.314 72.5994 217.536 72.5994 217.809C72.5994 218.086 72.354 218.304 72.0534 218.304Z" fill="black"/>
<path d="M88.309 218.254C88.0084 218.254 87.7629 218.032 87.7629 217.759C87.7629 217.487 88.0084 217.264 88.309 217.264H192.112C192.412 217.264 192.658 217.482 192.658 217.755C192.658 218.032 192.412 218.25 192.112 218.25L88.309 218.254Z" fill="black"/>
<path d="M212.04 218.24H210.116C209.816 218.24 209.57 218.022 209.57 217.749C209.57 217.477 209.816 217.254 210.116 217.254H212.04C222.064 217.254 230.22 209.838 230.22 200.727C230.22 200.455 230.465 200.232 230.766 200.232C231.066 200.232 231.312 200.455 231.312 200.727C231.312 210.383 222.665 218.24 212.04 218.24Z" fill="black"/>
<path d="M86.3608 71.8225C86.3608 73.2486 87.6533 74.4067 89.2413 74.4067H206.88C208.473 74.4067 209.761 73.2486 209.761 71.8225C209.761 70.3919 208.473 69.2338 206.88 69.2338H89.2413C87.6533 69.2338 86.3608 70.3919 86.3608 71.8225Z" fill="#CADDFF"/>
<path d="M86.3608 118.102C86.3608 119.532 87.6533 120.69 89.2413 120.69H194.126C195.719 120.69 197.007 119.532 197.007 118.102C197.007 116.676 195.719 115.517 194.126 115.517H89.2413C87.6533 115.517 86.3608 116.676 86.3608 118.102Z" fill="#CADDFF"/>
<path d="M113.022 188.243C113.022 189.673 114.314 190.831 115.902 190.831H136.872C138.46 190.831 139.748 189.673 139.748 188.243C139.748 186.817 138.46 185.659 136.872 185.659H115.902C114.314 185.659 113.022 186.817 113.022 188.243Z" fill="#CADDFF"/>
<path d="M89.2409 138.662C87.5877 138.662 86.2602 139.911 86.3704 141.419C86.4656 142.79 87.8082 143.83 89.3411 143.83H156.319C157.912 143.83 159.199 142.672 159.199 141.246C159.199 139.82 157.912 138.662 156.319 138.662H89.2409Z" fill="#CADDFF"/>
<path d="M206.785 138.662H178.146C176.558 138.662 175.265 139.82 175.265 141.246C175.265 142.672 176.558 143.83 178.146 143.83H206.88C208.534 143.83 209.866 142.577 209.756 141.073C209.656 139.697 208.318 138.662 206.785 138.662Z" fill="#CADDFF"/>
<path d="M206.785 126.953H142.127C140.534 126.953 139.246 128.112 139.246 129.538C139.246 130.968 140.534 132.126 142.127 132.126H206.88C208.533 132.126 209.866 130.873 209.756 129.365C209.655 127.994 208.318 126.953 206.785 126.953Z" fill="#CADDFF"/>
<path d="M211.093 150.016H164.014C162.426 150.016 161.133 151.174 161.133 152.6C161.133 154.031 162.426 155.189 164.014 155.189H211.189C212.842 155.189 214.174 153.936 214.064 152.428C213.964 151.056 212.626 150.016 211.093 150.016Z" fill="#CADDFF"/>
<path d="M89.2409 126.953C87.5877 126.953 86.2602 128.207 86.3704 129.71C86.4656 131.086 87.8082 132.126 89.3411 132.126H122.569C124.162 132.126 125.45 130.968 125.45 129.538C125.45 128.112 124.162 126.953 122.569 126.953H89.2409Z" fill="#CADDFF"/>
<path d="M89.2409 103.809C87.5877 103.809 86.2602 105.063 86.3704 106.571C86.4656 107.947 87.8082 108.982 89.3411 108.982H162.08C163.673 108.982 164.96 107.824 164.96 106.398C164.96 104.968 163.673 103.809 162.08 103.809H89.2409Z" fill="#CADDFF"/>
<path d="M206.785 103.809H189.968C188.38 103.809 187.087 104.968 187.087 106.398C187.087 107.824 188.38 108.982 189.968 108.982H206.88C208.533 108.982 209.866 107.733 209.756 106.226C209.655 104.849 208.318 103.809 206.785 103.809Z" fill="#CADDFF"/>
<path d="M89.2409 80.6698C87.5877 80.6698 86.2602 81.9233 86.3704 83.4311C86.4656 84.8027 87.8082 85.8427 89.3411 85.8427H113.883C115.471 85.8427 116.758 84.6846 116.758 83.2585C116.758 81.8279 115.471 80.6698 113.883 80.6698H89.2409Z" fill="#CADDFF"/>
<path d="M206.785 80.6698H133.886C132.298 80.6698 131.006 81.8279 131.006 83.2585C131.006 84.6846 132.298 85.8427 133.886 85.8427H206.88C208.534 85.8427 209.866 84.5892 209.756 83.0814C209.656 81.7098 208.318 80.6698 206.785 80.6698Z" fill="#CADDFF"/>
<path d="M89.2409 92.3778C87.5877 92.3778 86.2602 93.6268 86.3704 95.1346C86.4656 96.5107 87.8082 97.5507 89.3411 97.5507H119.944C121.532 97.5507 122.825 96.3926 122.825 94.962C122.825 93.5359 121.532 92.3778 119.944 92.3778H89.2409Z" fill="#CADDFF"/>
<path d="M206.785 92.3778H143.284C141.696 92.3778 140.404 93.5359 140.404 94.962C140.404 96.3926 141.696 97.5507 143.284 97.5507H206.88C208.533 97.5507 209.866 96.2972 209.756 94.7894C209.656 93.4178 208.318 92.3778 206.785 92.3778Z" fill="#CADDFF"/>
<path d="M88.8906 27.6368C88.1542 27.6368 87.558 28.1772 87.558 28.8449V59.1058C87.558 59.7689 88.1542 60.3093 88.8906 60.3093H114.234C114.965 60.3093 115.561 59.7689 115.561 59.1058V28.8449C115.561 28.1772 114.965 27.6368 114.234 27.6368H88.8906ZM114.234 61.2994H88.8906C87.553 61.2994 86.4709 60.3139 86.4709 59.1058V28.8449C86.4709 27.6322 87.553 26.6512 88.8906 26.6512H114.234C115.566 26.6512 116.653 27.6322 116.653 28.8449V59.1058C116.653 60.3139 115.566 61.2994 114.234 61.2994Z" fill="#99B9FF"/>
<path d="M87.0872 55.9226C87.0672 56.8218 87.0521 57.6121 87.0421 58.2797C87.0171 59.6694 88.2544 60.8048 89.7924 60.8048H113.187C114.72 60.8048 115.957 59.6694 115.937 58.2842C115.927 57.5848 115.917 56.8082 115.892 56.0543C111.554 54.819 106.67 54.1059 101.5 54.0832C96.3348 54.0605 91.4455 54.719 87.0872 55.9226Z" fill="#99B9FF"/>
<path d="M113.748 43.0419C111.924 37.0878 108.157 29.2807 101.099 30.239C94.3256 31.1564 91.1345 37.8871 89.6717 43.1009C88.78 46.2755 91.4551 49.3547 95.072 49.3729L108.327 49.4365C112.024 49.4546 114.734 46.271 113.748 43.0419Z" fill="#99B9FF"/>
<path d="M107.907 36.1247C107.902 36.1111 107.897 36.0838 107.897 36.0838L95.8588 36.0021C95.8588 36.0021 95.8538 36.0157 95.8488 36.0248C95.6935 36.5698 95.6034 37.142 95.6034 37.737L95.5833 40.9252C95.5733 43.0598 96.6754 44.9446 98.3586 46.0436L98.3085 54.3776C98.3035 56.0352 99.7763 57.3841 101.605 57.3932C103.438 57.4023 104.931 56.067 104.936 54.4093L104.986 46.1981C106.79 45.1353 108.002 43.2006 108.012 40.9843L108.037 37.3873C108.037 36.9558 107.992 36.5289 107.907 36.1247Z" fill="white"/>
<path d="M101.625 57.884C101.62 57.884 101.61 57.884 101.605 57.884C100.573 57.884 99.6058 57.5161 98.8794 56.8485C98.158 56.1854 97.7572 55.3089 97.7623 54.3733L97.8123 46.2892C97.8123 46.0167 98.0728 45.7987 98.3584 45.7987C98.659 45.7987 98.9044 46.0212 98.9044 46.2983L98.8543 54.3779C98.8543 55.0455 99.1349 55.6813 99.6559 56.1536C100.177 56.6305 100.868 56.8939 101.61 56.8985C102.356 56.9076 103.047 56.6441 103.573 56.1764C104.099 55.704 104.39 55.0727 104.395 54.4051L104.44 46.2892C104.44 46.0167 104.69 45.7987 104.986 45.7987C105.292 45.7987 105.532 46.0212 105.532 46.2983L105.482 54.4097C105.477 55.3452 105.071 56.2172 104.34 56.8758C103.613 57.5298 102.647 57.884 101.625 57.884Z" fill="#99B9FF"/>
<path d="M101.815 43.6419C101.81 43.6419 101.805 43.6419 101.8 43.6419C100.988 43.6374 100.207 43.3286 99.6507 42.7927C99.4503 42.5928 99.4603 42.2795 99.6808 42.0933C99.9012 41.907 100.247 41.9161 100.452 42.116C100.803 42.4611 101.284 42.6519 101.805 42.6564C102.311 42.661 102.807 42.4702 103.167 42.125C103.373 41.9298 103.718 41.9207 103.939 42.1069C104.159 42.2976 104.169 42.6065 103.959 42.8063C103.393 43.3467 102.631 43.6419 101.815 43.6419Z" fill="#99B9FF"/>
<path d="M101.795 47.5612C101.785 47.5612 101.77 47.5612 101.76 47.5612C101.46 47.5612 101.214 47.3387 101.219 47.0662C101.219 46.7937 101.465 46.5711 101.765 46.5711C101.77 46.5711 101.785 46.5711 101.795 46.5711C103.288 46.5711 104.701 46.0034 105.768 44.9634C106.855 43.9052 107.461 42.4882 107.466 40.9849L107.491 37.3834C107.506 34.3996 105.072 31.9562 102.061 31.9425C102.051 31.9425 102.041 31.9425 102.031 31.9425C98.8046 31.9425 96.1646 34.5358 96.1496 37.7377L96.1295 40.9304C96.1195 43.1331 97.417 45.1496 99.4409 46.067C99.7064 46.1896 99.8166 46.4849 99.6813 46.7301C99.5461 46.9754 99.2204 47.0707 98.9499 46.9481C96.5604 45.8672 95.0224 43.501 95.0375 40.9213L95.0575 37.7331C95.0775 33.9772 98.2336 30.9388 102.066 30.957C105.678 30.9752 108.603 33.8591 108.583 37.388L108.558 40.9895C108.548 42.7425 107.842 44.3957 106.569 45.6356C105.292 46.88 103.594 47.5612 101.795 47.5612Z" fill="#99B9FF"/>
<path d="M195.774 43.3508L195.894 50.0634C196.01 50.8991 196.671 51.5894 197.568 51.8028L197.948 51.9981C198.559 52.1389 198.88 52.257 199.261 53.5241L185.74 52.1026C185.555 51.7393 185.615 51.3169 186.211 51.2715L186.857 51.1307C187.744 50.949 188.425 50.3041 188.59 49.4911L189.407 40.912L195.774 43.3508Z" fill="white"/>
<path d="M186.601 51.6938L198.474 52.9428C198.294 52.584 198.118 52.5431 197.813 52.475C197.763 52.4659 197.718 52.4477 197.678 52.425L197.362 52.2615C196.275 51.9754 195.493 51.1443 195.353 50.1224C195.353 50.1043 195.348 50.0906 195.348 50.0725L195.233 43.6824L189.888 41.6341L189.131 49.5366C189.131 49.5502 189.131 49.5638 189.126 49.582C188.926 50.5902 188.079 51.3895 186.977 51.6121L186.601 51.6938ZM199.261 54.0192C199.241 54.0192 199.22 54.0146 199.195 54.0146L185.675 52.5931C185.484 52.5704 185.324 52.4659 185.244 52.307C185.053 51.9345 185.053 51.5485 185.244 51.2578C185.349 51.0989 185.595 50.8355 186.121 50.781L186.732 50.6493C187.408 50.513 187.919 50.0361 188.049 49.4276L188.866 40.8711C188.881 40.7121 188.976 40.5714 189.126 40.4896C189.277 40.4079 189.462 40.3988 189.622 40.4578L195.984 42.8967C196.185 42.9739 196.315 43.1465 196.32 43.3418L196.44 50.0271C196.535 50.6583 197.031 51.1625 197.708 51.3214C197.753 51.335 197.798 51.3532 197.838 51.3714L198.153 51.5349C198.97 51.7347 199.386 52.0617 199.787 53.3924C199.837 53.5514 199.792 53.7239 199.671 53.8466C199.571 53.9556 199.416 54.0192 199.261 54.0192Z" fill="#99B9FF"/>
<path d="M199.471 30.3753C197.628 30.1936 199.076 32.1829 192.578 30.0256C189.913 29.14 191.111 32.1102 190.414 31.8922C187.844 31.0929 186.847 31.8332 186.221 32.2147C185.495 32.6507 184.738 33.7498 184.834 34.8034C184.969 36.1932 186.968 36.7064 187.924 39.6766C188.596 41.7612 188.33 42.9965 189.227 43.3417C190.129 43.6869 190.875 42.6014 191.892 42.9102C193.215 43.3144 192.829 45.39 194.086 46.3165C194.873 46.9023 196.771 47.243 199.912 46.044C200.423 45.8487 200.709 45.3491 200.589 44.8631C200.433 44.2364 200.238 43.4462 199.977 42.7059C198.74 39.177 197.418 38.3323 197.964 37.4557C198.8 36.1205 201.641 37.0424 202.182 35.9343C202.748 34.7852 201.991 30.6251 199.471 30.3753Z" fill="#99B9FF"/>
<path d="M192.969 38.1641C193.194 38.5911 193.385 39.0361 193.545 39.4948C193.841 40.3441 194.362 41.8065 194.717 42.6013C195.163 43.5914 198.344 42.8284 199.336 42.565C199.496 42.5241 199.581 42.3652 199.521 42.2244L199.231 41.3751L200.007 41.2343C200.102 41.2025 200.188 41.1571 200.253 41.089C200.413 40.9209 200.428 40.6893 200.308 40.5122C199.692 39.5902 198.585 38.0688 198.099 36.2294C198.049 36.0432 197.883 35.8979 197.673 35.8615C196.956 35.7389 195.238 35.5981 193.51 36.5519C192.899 36.8834 192.663 37.5783 192.969 38.1641Z" fill="white"/>
<path d="M199 42.3743C199.005 42.3789 199.005 42.388 199.01 42.3971L199 42.3743ZM193.46 37.9508C193.695 38.4004 193.896 38.8682 194.066 39.3451C194.346 40.1535 194.867 41.6295 195.223 42.4152C195.323 42.6378 196.511 42.774 198.93 42.1563L198.534 40.9982L199.827 40.7621L199.672 40.5123C199.015 39.554 198.028 38.1007 197.568 36.3476C196.966 36.2477 195.378 36.1023 193.79 36.9698C193.42 37.1787 193.274 37.5965 193.46 37.9508ZM196.125 43.596C195.093 43.596 194.457 43.3281 194.216 42.7876C193.84 41.9701 193.309 40.4669 193.024 39.6403C192.874 39.2088 192.688 38.7819 192.473 38.3732C192.047 37.5602 192.373 36.5974 193.224 36.1296C195.138 35.0805 197.042 35.2531 197.773 35.3757C198.194 35.4483 198.529 35.739 198.63 36.116C199.05 37.7146 199.982 39.0862 200.598 39.9945L200.774 40.2579C201.024 40.6213 200.979 41.0891 200.663 41.4161C200.543 41.5432 200.378 41.6386 200.188 41.7022L200.112 41.7204L199.932 41.7521L200.042 42.0791C200.112 42.2517 200.097 42.4697 199.997 42.6559C199.897 42.8376 199.707 42.9784 199.491 43.0374C198.104 43.4098 196.976 43.596 196.125 43.596Z" fill="#99B9FF"/>
<path d="M192.383 41.3214C190.449 41.93 189.793 40.2995 190.218 39.3276C190.399 38.9189 191.025 38.8825 191.28 39.2504L192.503 41.0171C192.583 41.1306 192.523 41.2805 192.383 41.3214Z" fill="white"/>
<path d="M179.729 52.9702L179.834 60.691L207.932 60.5684C207.792 57.1076 207.161 54.2918 202.707 53.0747C201.38 52.7113 200.092 52.4161 198.855 52.1799C198.625 52.1345 198.389 52.0891 198.164 52.0528C198.159 52.0482 198.154 52.0482 198.154 52.0482C196.956 51.8302 195.804 51.6713 194.707 51.5577C193.334 51.4124 192.037 51.3352 190.83 51.317C188.926 51.2762 187.228 51.367 185.755 51.5214C185.735 51.5214 185.72 51.5214 185.705 51.526C181.557 51.9619 179.729 52.9702 179.729 52.9702Z" fill="#99B9FF"/>
<path d="M190.374 55.1364L192.142 58.2611L191.646 60.6908H194.827L194.261 58.2247L195.764 55.3408L195.964 54.9548L194.427 53.0155L194.026 52.5114L193.57 52.525L192.974 52.5386L192.418 52.5522L192.197 52.7793L190.219 54.8548L190.374 55.1364Z" fill="white"/>
<path d="M187.443 58.0704C185.915 55.6224 184.663 52.4614 186.356 50.4677L188.671 48.2059C188.671 48.2059 189.928 51.6394 192.984 52.5296L187.443 58.0704Z" fill="white"/>
<path d="M186.772 50.7859C185.324 52.5253 186.486 55.3593 187.554 57.2214L192.057 52.7206C190.128 51.8531 189.001 50.1092 188.49 49.11L186.772 50.7859ZM187.443 58.5657C187.423 58.5657 187.403 58.5657 187.383 58.5611C187.208 58.543 187.053 58.4521 186.967 58.3159C185.429 55.8498 183.997 52.4345 185.92 50.1682C185.935 50.1546 185.945 50.1455 185.955 50.1319L188.27 47.8701C188.4 47.743 188.596 47.6885 188.786 47.7248C188.976 47.7611 189.127 47.8838 189.187 48.0473C189.202 48.0836 190.399 51.2582 193.149 52.0575C193.325 52.112 193.465 52.2392 193.51 52.4027C193.56 52.5616 193.515 52.7388 193.39 52.8614L187.844 58.4022C187.744 58.5066 187.594 58.5657 187.443 58.5657Z" fill="#99B9FF"/>
<path d="M193.54 52.4798C195.629 51.4988 195.995 48.4559 195.995 48.4559C195.995 48.4559 198.409 50.0818 198.935 52.4798C199.712 56.0087 198.134 58.384 198.134 58.384L193.54 52.4798Z" fill="white"/>
<path d="M194.311 52.6205L198.028 57.3938C198.409 56.4718 198.88 54.7505 198.404 52.5796C198.094 51.1672 197.057 50.0318 196.35 49.4005C196.1 50.3361 195.529 51.7803 194.311 52.6205ZM198.134 58.8789C197.958 58.8789 197.793 58.8017 197.688 58.67L193.094 52.7658C192.999 52.6478 192.969 52.5024 193.004 52.3616C193.044 52.2254 193.144 52.1073 193.284 52.0437C195.098 51.1899 195.449 48.4286 195.454 48.4013C195.474 48.2242 195.599 48.0698 195.774 48.0017C195.955 47.929 196.165 47.9517 196.32 48.0562C196.425 48.1288 198.91 49.8274 199.471 52.3843C200.278 56.0585 198.67 58.5337 198.605 58.6382C198.509 58.7835 198.339 58.8698 198.154 58.8789C198.149 58.8789 198.139 58.8789 198.134 58.8789Z" fill="#99B9FF"/>
<path d="M181.161 27.6368C180.425 27.6368 179.829 28.1772 179.829 28.8449V59.1058C179.829 59.7689 180.425 60.3093 181.161 60.3093H206.505C207.236 60.3093 207.832 59.7689 207.832 59.1058V28.8449C207.832 28.1772 207.236 27.6368 206.505 27.6368H181.161ZM206.505 61.2994H181.161C179.824 61.2994 178.737 60.3139 178.737 59.1058V28.8449C178.737 27.6322 179.824 26.6512 181.161 26.6512H206.505C207.837 26.6512 208.924 27.6322 208.924 28.8449V59.1058C208.924 60.3139 207.837 61.2994 206.505 61.2994Z" fill="#99B9FF"/>
<path d="M150.177 34.9263C150.157 34.9263 150.137 34.9263 150.112 34.9263C149.816 34.8945 149.601 34.6492 149.636 34.3767L149.977 31.7244C150.007 31.4519 150.282 31.2566 150.578 31.2884C150.878 31.3202 151.094 31.5655 151.059 31.838L150.718 34.4903C150.688 34.7446 150.453 34.9263 150.177 34.9263Z" fill="#99B9FF"/>
<path d="M147.351 34.6811C147.191 34.6811 147.036 34.6175 146.926 34.4994L145.844 33.2868C145.658 33.0733 145.693 32.7645 145.929 32.5919C146.164 32.4194 146.505 32.4557 146.695 32.6646L147.772 33.8772C147.963 34.0907 147.928 34.3995 147.692 34.5721C147.592 34.6448 147.472 34.6811 147.351 34.6811Z" fill="#99B9FF"/>
<path d="M152.972 35.4298C152.802 35.4298 152.637 35.3572 152.527 35.2255C152.351 35.0029 152.406 34.6941 152.647 34.5351L153.999 33.645C154.24 33.486 154.58 33.536 154.761 33.754C154.936 33.9765 154.881 34.2853 154.641 34.4443L153.293 35.3345C153.193 35.398 153.083 35.4298 152.972 35.4298Z" fill="#99B9FF"/>
<path d="M144.727 35.7481C144.642 35.7481 144.557 35.73 144.472 35.6936L143.39 35.1804C143.119 35.0533 143.019 34.7535 143.154 34.5128C143.294 34.2721 143.625 34.1767 143.891 34.3039L144.978 34.8171C145.248 34.9443 145.348 35.2395 145.208 35.4847C145.113 35.6528 144.923 35.7481 144.727 35.7481Z" fill="#99B9FF"/>
<path d="M155.237 37.1471C154.981 37.1471 154.756 36.9836 154.706 36.752C154.646 36.484 154.836 36.2252 155.132 36.1707L156.314 35.9572C156.61 35.9073 156.895 36.0798 156.95 36.3478C157.01 36.6157 156.82 36.8746 156.524 36.9291L155.347 37.138C155.307 37.1471 155.272 37.1471 155.237 37.1471Z" fill="#99B9FF"/>
<path d="M150.177 34.9263C150.157 34.9263 150.137 34.9263 150.112 34.9263C149.816 34.8945 149.601 34.6492 149.636 34.3767L149.977 31.7244C150.007 31.4519 150.282 31.2566 150.578 31.2884C150.878 31.3202 151.094 31.5655 151.059 31.838L150.718 34.4903C150.688 34.7446 150.453 34.9263 150.177 34.9263Z" fill="#99B9FF"/>
<path d="M147.351 34.6811C147.191 34.6811 147.036 34.6175 146.926 34.4994L145.844 33.2868C145.658 33.0733 145.693 32.7645 145.929 32.5919C146.164 32.4194 146.505 32.4557 146.695 32.6646L147.772 33.8772C147.963 34.0907 147.928 34.3995 147.692 34.5721C147.592 34.6448 147.472 34.6811 147.351 34.6811Z" fill="#99B9FF"/>
<path d="M152.972 35.4298C152.802 35.4298 152.637 35.3572 152.527 35.2255C152.351 35.0029 152.406 34.6941 152.647 34.5351L153.999 33.645C154.24 33.486 154.58 33.536 154.761 33.754C154.936 33.9765 154.881 34.2853 154.641 34.4443L153.293 35.3345C153.193 35.398 153.083 35.4298 152.972 35.4298Z" fill="#99B9FF"/>
<path d="M144.727 35.7481C144.642 35.7481 144.557 35.73 144.472 35.6936L143.39 35.1804C143.119 35.0533 143.019 34.7535 143.154 34.5128C143.294 34.2721 143.625 34.1767 143.891 34.3039L144.978 34.8171C145.248 34.9443 145.348 35.2395 145.208 35.4847C145.113 35.6528 144.923 35.7481 144.727 35.7481Z" fill="#99B9FF"/>
<path d="M155.237 37.1471C154.981 37.1471 154.756 36.9836 154.706 36.752C154.646 36.484 154.836 36.2252 155.132 36.1707L156.314 35.9572C156.61 35.9073 156.895 36.0798 156.95 36.3478C157.01 36.6157 156.82 36.8746 156.524 36.9291L155.347 37.138C155.307 37.1471 155.272 37.1471 155.237 37.1471Z" fill="#99B9FF"/>
<path d="M146.49 56.8257C145.689 56.8257 144.922 56.3715 144.627 55.6494C144.446 55.1998 144.466 54.7184 144.692 54.2914C144.912 53.8736 145.298 53.5648 145.779 53.4149L149.215 52.3522C149.501 52.2659 149.812 52.4021 149.907 52.661C150.002 52.9199 149.852 53.2015 149.566 53.2877L146.135 54.3459C145.929 54.4141 145.769 54.5412 145.679 54.7184C145.578 54.9 145.573 55.1089 145.654 55.3042C145.819 55.7175 146.315 55.9355 146.756 55.7993L153.383 53.751C153.669 53.6602 153.979 53.801 154.075 54.0598C154.17 54.3187 154.02 54.5957 153.734 54.6866L147.106 56.7349C146.906 56.7984 146.696 56.8257 146.49 56.8257Z" fill="#99B9FF"/>
<path d="M143.524 54.8089C142.783 54.8089 142.077 54.3866 141.801 53.7235L141.746 53.5782C141.576 53.1649 141.596 52.7198 141.801 52.3292C142.007 51.9432 142.362 51.6525 142.808 51.5163L147.883 49.9494C148.168 49.8586 148.474 49.9994 148.574 50.2582C148.669 50.5171 148.519 50.7941 148.233 50.885L143.164 52.4518C142.998 52.5018 142.863 52.6108 142.788 52.7516C142.713 52.9015 142.703 53.074 142.773 53.2375L142.828 53.3783C142.963 53.719 143.374 53.9006 143.74 53.7871L149.065 52.143C149.351 52.0567 149.661 52.193 149.756 52.4518C149.857 52.7107 149.701 52.9877 149.416 53.0786L144.091 54.7227C143.9 54.7817 143.71 54.8089 143.524 54.8089Z" fill="#99B9FF"/>
<path d="M140.924 53.2291C140.148 53.2291 139.412 52.7886 139.126 52.0937C138.951 51.6577 138.971 51.1945 139.186 50.7812C139.402 50.377 139.772 50.0772 140.243 49.9319L146.931 47.8654C147.216 47.7746 147.527 47.9154 147.622 48.1697C147.722 48.4286 147.567 48.7102 147.282 48.801L140.594 50.8675C140.404 50.9265 140.258 51.0446 140.173 51.2081C140.083 51.3761 140.078 51.5669 140.148 51.7486C140.303 52.1255 140.759 52.3344 141.165 52.2073L147.858 50.1363C148.143 50.05 148.454 50.1862 148.549 50.4451C148.649 50.704 148.494 50.9856 148.208 51.0718L141.521 53.1428C141.325 53.2019 141.125 53.2291 140.924 53.2291Z" fill="#99B9FF"/>
<path d="M141.395 50.2906C140.619 50.2906 139.883 49.8501 139.597 49.1506C139.422 48.7146 139.442 48.2514 139.657 47.8381C139.868 47.4384 140.243 47.1342 140.709 46.9934L143.685 46.0714C143.97 45.9851 144.276 46.1214 144.376 46.3802C144.471 46.6391 144.321 46.9207 144.035 47.007L141.065 47.9244C140.874 47.9834 140.724 48.1061 140.644 48.265C140.554 48.4331 140.549 48.6238 140.619 48.81C140.774 49.187 141.23 49.3913 141.636 49.2642L147.041 47.5974C147.327 47.5066 147.637 47.6428 147.733 47.9017C147.828 48.1606 147.677 48.4421 147.392 48.5284L141.987 50.1998C141.791 50.2588 141.591 50.2906 141.395 50.2906Z" fill="#99B9FF"/>
<path d="M153.559 54.7143C153.338 54.7143 153.133 54.5917 153.048 54.3918C152.943 54.1375 153.083 53.8514 153.368 53.756L154.255 53.4517C155.973 52.8658 157.461 51.853 158.548 50.5223L159.014 49.9501C159.195 49.7276 159.535 49.6821 159.781 49.8456C160.021 50.0046 160.071 50.318 159.891 50.536L159.425 51.1082C158.213 52.5979 156.56 53.7287 154.636 54.3782L153.749 54.6825C153.689 54.7007 153.624 54.7143 153.559 54.7143Z" fill="#99B9FF"/>
<path d="M156.394 42.1245L159.896 49.5501L162.285 48.6826L158.779 41.2571L156.394 42.1245ZM159.74 50.6174C159.435 50.6174 159.134 50.4493 159.009 50.1768L155.267 42.2517C155.182 42.0791 155.182 41.8747 155.262 41.7021C155.342 41.525 155.492 41.3888 155.688 41.3161L158.648 40.2443C159.044 40.0989 159.5 40.2715 159.67 40.6303L163.412 48.5555C163.493 48.7326 163.498 48.9324 163.417 49.1096C163.332 49.2821 163.182 49.4184 162.987 49.4911L160.031 50.5629C159.936 50.5992 159.836 50.6174 159.74 50.6174Z" fill="#99B9FF"/>
<path d="M134.197 46.2303L136.641 47.1613L139.822 39.8311L137.373 38.9046L134.197 46.2303ZM136.817 48.2377C136.711 48.2377 136.611 48.2195 136.511 48.1832L133.505 47.0387C133.11 46.8933 132.914 46.4755 133.069 46.1213L136.476 38.2733C136.551 38.0962 136.701 37.9554 136.897 37.8827C137.092 37.8055 137.308 37.8055 137.508 37.8827L140.514 39.0227C140.904 39.1726 141.1 39.5859 140.944 39.9446L137.543 47.7926C137.463 47.9697 137.318 48.106 137.122 48.1832C137.022 48.2195 136.922 48.2377 136.817 48.2377Z" fill="#99B9FF"/>
<path d="M144.617 45.7399C144.416 45.7399 144.216 45.7263 144.011 45.6991C143.224 45.5946 142.488 45.2948 141.881 44.8271C141.651 44.6499 141.621 44.3366 141.816 44.1322C142.012 43.9233 142.357 43.896 142.588 44.0731C143.039 44.4183 143.59 44.6454 144.171 44.7226C145.609 44.9134 146.971 44.1594 147.407 42.9287C147.502 42.6698 147.808 42.529 148.093 42.6107C148.379 42.6925 148.539 42.9741 148.449 43.2329C147.903 44.7499 146.35 45.7399 144.617 45.7399Z" fill="#99B9FF"/>
<path d="M152.466 45.2448C152.211 45.2448 151.955 45.1948 151.715 45.0994L147.717 43.5235C147.442 43.4145 147.312 43.1238 147.432 42.874C147.552 42.6242 147.873 42.5107 148.153 42.6197L152.151 44.1956C152.346 44.2729 152.557 44.2774 152.742 44.2047C152.917 44.1411 153.057 44.0185 153.133 43.855C153.288 43.5053 153.093 43.092 152.697 42.9331L146.199 40.4125C144.992 39.9447 143.68 39.763 142.397 39.8856L140.659 40.0537C140.363 40.0809 140.093 39.8856 140.058 39.6131C140.028 39.3452 140.243 39.0999 140.544 39.0727L142.282 38.9046C143.75 38.7638 145.253 38.9682 146.63 39.5041L153.128 42.0247C154.069 42.3972 154.52 43.3872 154.14 44.232C153.954 44.6407 153.604 44.9586 153.153 45.1221C152.932 45.2039 152.697 45.2448 152.466 45.2448Z" fill="#99B9FF"/>
<path d="M139.547 51.3076C139.386 51.3076 139.226 51.2395 139.116 51.1169L136.516 48.1149C136.331 47.9014 136.371 47.5926 136.611 47.4245C136.847 47.252 137.192 47.2928 137.373 47.5063L139.978 50.5083C140.163 50.7218 140.118 51.0306 139.882 51.1986C139.782 51.2713 139.662 51.3076 139.547 51.3076Z" fill="#99B9FF"/>
<path d="M153.444 43.201C153.228 43.201 153.028 43.0874 152.938 42.8967C153.068 43.1828 153.193 42.2608 153.228 42.2472L155.302 41.4615C155.578 41.357 155.898 41.4751 156.014 41.7249C156.129 41.9792 155.999 42.2654 155.723 42.3744L153.654 43.1601C153.584 43.1873 153.509 43.201 153.444 43.201Z" fill="#99B9FF"/>
<path d="M148.749 193.184C148.659 193.184 148.564 193.161 148.479 193.12C148.218 192.984 148.128 192.68 148.279 192.444L154.195 183.065C154.581 182.452 155.277 182.075 156.053 182.053C156.825 182.034 157.546 182.375 157.972 182.965L159.816 185.531C160.026 185.827 160.367 185.995 160.752 185.995C161.138 185.995 161.484 185.827 161.694 185.531L163.528 182.979C163.953 182.384 164.685 182.048 165.451 182.066C166.233 182.089 166.924 182.47 167.31 183.088L172.45 191.336C172.655 191.667 173.011 191.858 173.447 191.853C173.862 191.849 174.228 191.644 174.418 191.308L181.317 179.278C181.697 178.61 182.449 178.197 183.28 178.197C183.285 178.197 183.29 178.197 183.295 178.197C184.132 178.206 184.883 178.628 185.259 179.305L187.067 182.588C187.203 182.829 187.098 183.129 186.827 183.252C186.556 183.37 186.226 183.274 186.091 183.029L184.282 179.75C184.092 179.4 183.716 179.187 183.285 179.187H183.28C182.854 179.187 182.484 179.391 182.283 179.736L175.39 191.763C175.009 192.426 174.288 192.83 173.462 192.843C172.62 192.857 171.904 192.476 171.498 191.822L166.358 183.569C166.163 183.261 165.812 183.065 165.416 183.056C165.02 183.043 164.66 183.215 164.444 183.515L162.611 186.072C162.2 186.644 161.504 186.985 160.752 186.985C160.001 186.985 159.31 186.644 158.899 186.072L157.055 183.506C156.84 183.206 156.479 183.034 156.083 183.043C155.693 183.052 155.337 183.242 155.142 183.551L149.225 192.934C149.125 193.093 148.94 193.184 148.749 193.184Z" fill="#6C93EC"/>
<path d="M31.2256 56.7213L151.244 274.184C130.82 275.138 110.452 272.449 91.6657 265.614C39.3511 246.589 2.38563 196.595 0.577182 143.103C-0.730309 104.363 16.768 74.579 31.2256 56.7213Z" fill="#CADDFF"/>
<path d="M300.589 160.83C288.406 226.997 219.67 270.914 151.45 274.175L270.972 57.9252C294.853 86.7192 307.472 123.429 300.589 160.83Z" fill="#CADDFF"/>
<path d="M226.212 250.713L224.413 262.167L219.8 262.185L219.584 250.917L226.212 250.713Z" fill="white"/>
<path d="M220.14 251.394L220.336 261.686L223.937 261.676L225.581 251.226L220.14 251.394ZM219.8 262.68C219.504 262.68 219.259 262.462 219.254 262.194L219.038 250.926C219.033 250.658 219.269 250.431 219.564 250.422L226.192 250.218C226.352 250.213 226.512 250.272 226.618 250.381C226.728 250.49 226.778 250.636 226.753 250.781L224.949 262.24C224.914 262.48 224.684 262.662 224.413 262.662L219.805 262.68C219.8 262.68 219.8 262.68 219.8 262.68Z" fill="black"/>
<path d="M224.569 273.121C222.76 273.294 220.065 273.367 216.463 273.081C215.176 272.976 214.269 271.895 214.475 270.742C215.036 267.631 216.594 262.149 219.053 259.633L220.271 261.2L220.992 259.578C221.107 259.406 224.163 259.288 224.223 259.619L224.414 261.2L226.147 259.437L226.052 265.219C226.042 265.855 226.107 266.495 226.252 267.117L226.708 269.116C226.978 270.319 226.638 271.595 225.711 272.49C225.35 272.84 224.945 273.085 224.569 273.121Z" fill="white"/>
<path d="M219.024 260.45C216.864 263.103 215.497 268.126 215.016 270.819C214.941 271.241 215.061 271.677 215.352 272.013C215.637 272.345 216.048 272.549 216.514 272.585C220.346 272.89 222.976 272.776 224.509 272.631C224.729 272.608 225.025 272.436 225.316 272.149C226.097 271.396 226.418 270.296 226.172 269.216L225.716 267.217C225.566 266.559 225.496 265.882 225.506 265.21L225.576 260.759L224.82 261.527C224.674 261.672 224.449 261.726 224.243 261.667C224.038 261.608 223.893 261.445 223.868 261.25L223.717 259.942C223.181 259.869 221.919 259.896 221.403 259.973L220.777 261.381C220.702 261.554 220.531 261.667 220.331 261.69C220.136 261.708 219.935 261.631 219.82 261.481L219.024 260.45ZM221.067 273.766C219.765 273.766 218.222 273.712 216.419 273.571C215.647 273.507 214.961 273.171 214.49 272.617C214.014 272.068 213.814 271.355 213.939 270.66C214.084 269.842 215.467 262.553 218.648 259.301C218.758 259.192 218.923 259.129 219.084 259.138C219.249 259.147 219.404 259.224 219.499 259.347L220.141 260.169L220.481 259.392C220.496 259.369 220.506 259.347 220.521 259.324C220.927 258.715 223.958 258.983 223.988 258.988C224.158 259.015 224.679 259.101 224.764 259.533C224.764 259.542 224.769 259.551 224.769 259.565L224.825 260.037L225.741 259.11C225.892 258.956 226.132 258.901 226.342 258.979C226.558 259.056 226.693 259.238 226.693 259.446L226.598 265.223C226.588 265.827 226.648 266.432 226.783 267.017L227.239 269.016C227.555 270.415 227.134 271.836 226.112 272.826C225.626 273.294 225.115 273.562 224.624 273.612C223.773 273.694 222.59 273.766 221.067 273.766Z" fill="black"/>
<path d="M221.273 271.723C219.995 271.723 218.417 271.636 216.629 271.35C216.334 271.305 216.133 271.046 216.183 270.778C216.238 270.51 216.524 270.328 216.819 270.374C221.228 271.078 224.384 270.519 224.414 270.515C224.709 270.46 225 270.633 225.055 270.901C225.115 271.169 224.925 271.427 224.629 271.486C224.549 271.5 223.297 271.723 221.273 271.723Z" fill="black"/>
<path d="M222.746 267.331H218.563C218.262 267.331 218.017 267.108 218.017 266.836C218.017 266.563 218.262 266.341 218.563 266.341H222.746C223.046 266.341 223.292 266.563 223.292 266.836C223.292 267.108 223.046 267.331 222.746 267.331Z" fill="black"/>
<path d="M259.305 251.735L260.928 265.088L267.13 266.264L266.749 250.609L259.305 251.735Z" fill="white"/>
<path d="M261.424 264.679L266.569 265.651L266.218 251.19L259.901 252.148L261.424 264.679ZM267.13 266.759C267.09 266.759 267.055 266.754 267.015 266.745L260.818 265.569C260.582 265.528 260.412 265.355 260.387 265.142L258.764 251.789C258.729 251.531 258.929 251.29 259.215 251.249L266.664 250.123C266.814 250.095 266.975 250.136 267.1 250.227C267.22 250.318 267.295 250.454 267.295 250.595L267.676 266.255C267.676 266.404 267.606 266.545 267.476 266.645C267.375 266.718 267.255 266.759 267.13 266.759Z" fill="black"/>
<path d="M258.303 271.455C258.168 269.116 258.163 264.806 259.736 262.731L264.695 264.329V263.371C264.695 263.058 264.941 262.808 265.251 262.79L268.022 262.644C269.054 262.594 270.081 262.785 271.022 263.203C273.808 264.443 282.269 267.622 283.446 271.192C283.787 272.245 282.88 273.299 281.668 273.331C278.882 273.404 272.185 273.481 260.167 273.108C259.165 273.077 258.353 272.359 258.303 271.455Z" fill="white"/>
<path d="M258.849 271.427C258.89 272.081 259.461 272.594 260.187 272.617C272.075 272.985 278.737 272.912 281.653 272.835C282.074 272.826 282.474 272.63 282.725 272.321C282.96 272.026 283.031 271.667 282.92 271.331C281.959 268.402 275.241 265.55 272.015 264.178C271.539 263.974 271.118 263.797 270.787 263.647C269.926 263.265 268.984 263.088 268.052 263.138L265.282 263.284C265.277 263.284 265.247 263.311 265.247 263.37V264.328C265.247 264.487 265.156 264.642 265.011 264.732C264.866 264.823 264.681 264.846 264.515 264.791L259.972 263.329C259.045 264.864 258.634 267.775 258.849 271.427ZM276.112 273.884C272.42 273.884 267.2 273.82 260.147 273.602C258.854 273.561 257.828 272.648 257.757 271.481C257.617 269.047 257.627 264.642 259.29 262.448C259.431 262.262 259.686 262.189 259.922 262.262L264.155 263.629V263.37C264.155 262.798 264.62 262.325 265.222 262.294L267.987 262.153C269.109 262.094 270.241 262.303 271.268 262.761C271.599 262.907 272.01 263.084 272.48 263.284C276.107 264.823 282.865 267.694 283.967 271.05C284.173 271.681 284.042 272.353 283.612 272.898C283.161 273.457 282.444 273.802 281.683 273.82C280.486 273.852 278.662 273.884 276.112 273.884Z" fill="black"/>
<path d="M274.194 271.669C270.672 271.669 265.908 271.528 260.703 270.978C260.402 270.951 260.192 270.706 260.227 270.433C260.262 270.161 260.533 269.966 260.833 269.997C271.378 271.106 280.105 270.529 280.19 270.524C280.486 270.502 280.751 270.706 280.776 270.978C280.796 271.251 280.571 271.487 280.27 271.51C280.225 271.514 277.891 271.669 274.194 271.669Z" fill="black"/>
<path d="M272.655 267.845C272.545 267.845 272.435 267.817 272.34 267.754L267.561 264.643C267.315 264.484 267.26 264.175 267.435 263.952C267.616 263.73 267.951 263.68 268.197 263.839L272.976 266.95C273.221 267.109 273.277 267.418 273.101 267.64C272.991 267.772 272.826 267.845 272.655 267.845Z" fill="black"/>
<path d="M261.239 165.108C261.239 165.108 270.131 220.33 268.237 257.19L265.462 257.444C263.969 257.576 262.471 257.612 260.974 257.544L258.344 257.421C258.344 257.421 247.738 201.432 242.448 192.131C242.448 192.131 228.051 241.925 227.495 255.414C227.495 255.414 221.098 255.995 218.543 255.169C217.175 242.148 216.779 228.673 216.714 220.212C216.514 196 219.074 185 220.471 179.782C221.759 174.991 223.136 171.098 224.148 168.464L227.515 159.772L261.239 165.108Z" fill="#6C93EC"/>
<path d="M258.804 256.949L260.998 257.049C262.466 257.113 263.949 257.081 265.407 256.949L267.711 256.74C269.419 221.888 261.504 170.313 260.753 165.531L227.875 160.33L224.659 168.628C223.252 172.307 222.024 176.099 221.002 179.9C219.304 186.218 217.07 197.272 217.255 220.207C217.315 227.238 217.626 241.026 219.054 254.792C221.218 255.332 225.546 255.069 226.974 254.96C227.8 240.967 241.777 192.499 241.917 192.008C241.977 191.809 242.163 191.663 242.388 191.641C242.608 191.618 242.829 191.722 242.934 191.904C248.029 200.86 257.777 251.554 258.804 256.949ZM262.476 258.071C261.96 258.071 261.454 258.057 260.948 258.035L258.313 257.917C258.063 257.903 257.847 257.735 257.802 257.508C257.702 256.967 247.954 205.679 242.583 193.616C240.284 201.696 228.537 243.397 228.041 255.432C228.031 255.682 227.82 255.882 227.55 255.905C227.284 255.932 220.997 256.491 218.362 255.632C218.162 255.569 218.022 255.405 218.002 255.214C216.539 241.299 216.223 227.315 216.168 220.217C215.978 197.172 218.232 186.036 219.94 179.669C220.972 175.831 222.21 172.012 223.632 168.306L226.999 159.608C227.084 159.381 227.344 159.245 227.605 159.286L261.334 164.618C261.565 164.654 261.745 164.822 261.78 165.036C261.87 165.585 270.657 220.73 268.778 257.213C268.768 257.458 268.558 257.658 268.292 257.685L265.517 257.935C264.51 258.026 263.488 258.071 262.476 258.071Z" fill="black"/>
<path d="M241.947 194.242C241.902 194.242 241.852 194.238 241.801 194.224C241.511 194.151 241.341 193.879 241.421 193.615L242.899 188.742C243.354 187.243 244.682 186.117 246.36 185.804L247.743 185.545C248.038 185.49 248.329 185.663 248.389 185.926C248.449 186.194 248.259 186.458 247.963 186.512L246.581 186.771C245.308 187.012 244.296 187.866 243.951 189.006L242.473 193.879C242.408 194.097 242.187 194.242 241.947 194.242Z" fill="black"/>
<path d="M222.41 185.164C222.149 185.164 221.914 184.992 221.869 184.751C221.824 184.483 222.024 184.229 222.32 184.183C229.934 183.034 231.457 177.657 231.472 177.602C231.542 177.339 231.843 177.175 232.133 177.239C232.424 177.303 232.604 177.57 232.534 177.834C232.519 177.897 230.816 183.902 222.5 185.155C222.47 185.16 222.44 185.164 222.41 185.164Z" fill="black"/>
<path d="M261.639 181.535C261.564 181.535 261.494 181.521 261.419 181.494C256.51 179.559 256.63 175.331 256.635 175.286C256.645 175.013 256.91 174.804 257.201 174.813C257.496 174.822 257.737 175.05 257.722 175.322C257.717 175.472 257.647 178.933 261.855 180.586C262.135 180.695 262.261 180.985 262.14 181.235C262.05 181.421 261.85 181.535 261.639 181.535Z" fill="black"/>
<path d="M260.522 119.142C254.641 118.542 242.087 117.461 233.456 118.179C230.851 118.393 227.088 119.837 225.105 121.385C219.269 125.945 208.253 135.996 206.414 148.049C206.144 149.812 207.421 151.46 209.335 151.846L219.509 153.89C219.509 153.89 215.451 168.369 215.777 170.867C216.107 173.369 224.514 177.62 235.029 174.132C243.224 171.412 254.831 169.245 262.195 171.593C262.265 171.616 262.972 176.743 263.042 176.753C265.411 177.066 267.791 176.23 267.736 173.219L266.614 157.582L280.104 155.97L281.307 155.607C284.949 154.508 286.837 150.87 285.43 147.632C282.264 140.329 277.479 128.502 268.628 121.976C266.734 120.577 262.947 119.387 260.522 119.142Z" fill="black"/>
<path d="M254.391 167.256H275.466C276.383 167.256 277.179 166.692 277.4 165.889L284.694 139.261C285.004 138.126 284.052 137.026 282.76 137.026H261.685C260.768 137.026 259.971 137.59 259.751 138.394L252.457 165.021C252.147 166.157 253.098 167.256 254.391 167.256Z" fill="#99B9FF"/>
<path d="M281.267 150.634L280.556 153.322L278.011 152.55C276.603 152.128 275.256 151.565 273.993 150.87L272.531 150.066C271.438 149.466 270.021 149.934 269.6 151.029C268.698 153.345 268.874 157.224 278.051 159.662C283.116 161.007 284.569 155.13 283.912 151.864C283.742 151.029 283.291 150.497 282.825 150.161C282.269 149.757 281.443 150.011 281.267 150.634Z" fill="white"/>
<path d="M271.498 150.298C271.333 150.298 271.167 150.325 271.007 150.375C270.586 150.511 270.261 150.811 270.11 151.192C269.624 152.441 269.685 153.622 270.291 154.694C271.348 156.56 274.013 158.073 278.206 159.185C279.543 159.544 280.671 159.358 281.552 158.636C283.255 157.251 283.817 154.149 283.376 151.955C283.255 151.365 282.955 150.888 282.484 150.547C282.319 150.425 282.143 150.461 282.078 150.479C282.008 150.502 281.848 150.57 281.793 150.752L281.086 153.436C281.051 153.572 280.956 153.686 280.821 153.754C280.686 153.822 280.53 153.835 280.385 153.79L277.835 153.022C276.397 152.586 275.005 152.005 273.707 151.292L272.249 150.488C272.019 150.361 271.759 150.298 271.498 150.298ZM279.458 160.348C278.962 160.348 278.441 160.28 277.895 160.135C273.407 158.945 270.521 157.264 269.324 155.148C268.582 153.84 268.502 152.359 269.083 150.861C269.339 150.198 269.91 149.68 270.636 149.444C271.363 149.212 272.154 149.285 272.811 149.644L274.273 150.447C275.506 151.124 276.818 151.674 278.181 152.082L280.165 152.682L280.736 150.52C280.736 150.516 280.736 150.516 280.736 150.511C280.866 150.057 281.237 149.693 281.733 149.544C282.223 149.394 282.759 149.48 283.165 149.775C283.852 150.27 284.277 150.942 284.448 151.778C284.939 154.208 284.343 157.691 282.284 159.372C281.487 160.021 280.53 160.348 279.458 160.348Z" fill="black"/>
<path d="M232.524 135.224C231.472 136.201 230.27 137.036 228.957 137.713C224.534 139.997 213.964 145.52 211.334 147.555C207.987 150.143 206.384 151.111 209.074 157.778C213.463 168.646 233.927 140.747 233.927 140.747C233.927 140.747 239.938 141.732 241.286 136.964C241.286 136.964 244.422 137.495 245.724 136.982C246.726 136.591 246.681 135.052 245.349 134.884L236.702 133.426C235.51 133.23 234.293 133.585 233.446 134.366L232.524 135.224Z" fill="white"/>
<path d="M236.056 133.866C235.229 133.866 234.427 134.166 233.836 134.711L232.915 135.569C231.828 136.577 230.585 137.445 229.228 138.144C224.819 140.415 214.284 145.924 211.689 147.931L211.394 148.158C208.273 150.565 207.105 151.465 209.59 157.609C210.131 158.954 210.923 159.662 212.01 159.78C212.12 159.794 212.235 159.799 212.355 159.799C218.036 159.799 229.468 145.933 233.476 140.474C233.591 140.31 233.806 140.224 234.027 140.26C234.247 140.297 239.552 141.101 240.76 136.841C240.83 136.586 241.105 136.427 241.391 136.477C242.212 136.618 244.567 136.9 245.509 136.527C245.804 136.414 245.899 136.109 245.864 135.878C245.844 135.714 245.734 135.428 245.273 135.369L236.602 133.907C236.421 133.879 236.236 133.866 236.056 133.866ZM212.32 160.784C212.17 160.784 212.025 160.775 211.88 160.761C210.367 160.598 209.25 159.653 208.563 157.95C205.928 151.419 207.226 150.075 210.687 147.404L210.983 147.177C213.643 145.115 224.253 139.575 228.692 137.286C229.954 136.632 231.116 135.823 232.133 134.879L233.055 134.02C234.027 133.121 235.429 132.712 236.797 132.935L245.443 134.397C246.24 134.497 246.841 135.028 246.946 135.746C247.057 136.468 246.641 137.163 245.944 137.436C244.807 137.881 242.658 137.658 241.676 137.522C240.224 141.518 235.54 141.4 234.192 141.278C232.394 143.694 219.424 160.784 212.32 160.784Z" fill="black"/>
<path d="M252.558 108.905L253.204 117.052C253.349 118.115 254.191 118.987 255.333 119.255L258.494 120.004L256.445 121.417C251.896 124.555 245.594 124.56 241.041 121.43L237.794 119.201L241.722 118.406C242.849 118.174 243.721 117.357 243.921 116.326L245.659 105.544L252.558 108.905Z" fill="white"/>
<path d="M239.061 119.451L241.371 121.036C245.714 124.02 251.776 124.015 256.109 121.027L257.271 120.227L255.192 119.737C253.829 119.415 252.833 118.384 252.662 117.112L252.036 109.209L246.085 106.312L244.462 116.399C244.216 117.643 243.189 118.615 241.842 118.888L239.061 119.451ZM248.735 124.26C245.904 124.26 243.074 123.447 240.709 121.826L237.463 119.592C237.293 119.478 237.218 119.283 237.258 119.097C237.308 118.906 237.468 118.761 237.674 118.72L241.601 117.925C242.518 117.739 243.219 117.076 243.385 116.24L245.118 105.472C245.143 105.313 245.253 105.172 245.413 105.099C245.574 105.027 245.759 105.031 245.919 105.108L252.818 108.469C252.978 108.546 253.088 108.701 253.103 108.869L253.749 117.017C253.865 117.857 254.541 118.556 255.468 118.779L258.634 119.524C258.834 119.573 258.989 119.719 259.029 119.905C259.069 120.091 258.989 120.282 258.824 120.396L256.775 121.812C254.406 123.443 251.57 124.26 248.735 124.26Z" fill="black"/>
<path d="M262.787 97.5602C260.623 96.5201 262.361 99.7492 255.247 94.1721C252.412 91.9512 252.312 96.0978 251.57 95.5255C248.85 93.4 248.945 93.4682 247.232 93.2002C246.09 93.0231 244.572 94.4446 244.121 95.7889C243.52 97.5647 244.827 98.6229 244.382 102.71C244.066 105.585 243.069 106.993 243.986 107.806C244.908 108.633 246.41 107.624 247.498 108.456C248.9 109.532 247.297 111.925 248.334 113.624C248.985 114.696 251.129 115.954 255.643 115.854C256.374 115.84 256.996 115.354 257.116 114.696C257.266 113.856 257.457 112.793 257.537 111.766C257.942 106.861 256.775 105.236 257.927 104.4C259.681 103.115 262.671 105.503 263.939 104.377C265.256 103.21 265.747 98.9772 262.787 97.5602Z" fill="black"/>
<path d="M252.021 100.307L252.111 101.643C252.151 102.274 252.146 102.905 252.091 103.536C251.991 104.717 251.836 106.752 251.841 107.896C251.851 109.581 257.592 109.908 257.592 109.908L258.323 109.173L258.994 109.2C259.125 109.204 259.26 109.186 259.375 109.132C259.666 108.995 259.811 108.714 259.761 108.441C259.485 106.956 259.014 103.677 259.54 101.125C259.54 101.125 256.344 98.7813 252.021 100.307Z" fill="white"/>
<path d="M252.587 100.644L252.652 101.616C252.697 102.265 252.692 102.924 252.637 103.573C252.537 104.699 252.377 106.757 252.387 107.897C252.392 108.591 254.962 109.227 257.366 109.4L257.917 108.846C258.028 108.737 258.183 108.678 258.343 108.682L259.02 108.705C259.08 108.71 259.115 108.696 259.125 108.691C259.21 108.651 259.23 108.578 259.22 108.523C258.924 106.897 258.504 103.864 258.944 101.348C258.178 100.884 255.753 99.6808 252.587 100.644ZM257.592 110.404C257.582 110.404 257.572 110.404 257.562 110.404C256.094 110.317 251.31 109.89 251.295 107.901C251.29 106.725 251.45 104.64 251.55 103.5C251.6 102.892 251.605 102.279 251.565 101.675L251.475 100.335C251.46 100.121 251.6 99.9215 251.821 99.8443C256.389 98.232 259.741 100.639 259.881 100.744C260.036 100.857 260.112 101.039 260.077 101.216C259.556 103.732 260.056 107.052 260.297 108.36C260.387 108.85 260.117 109.336 259.626 109.568C259.435 109.659 259.205 109.704 258.974 109.695L258.559 109.677L258.003 110.24C257.897 110.345 257.747 110.404 257.592 110.404Z" fill="black"/>
<path d="M251.01 104.432C251.01 104.432 250.799 101.212 249.206 101.62C247.613 102.025 247.944 105.563 251.01 104.432Z" fill="white"/>
<path d="M48.1075 100.449C51.5741 97.0518 56.7239 96.3387 60.5963 97.297C65.4956 98.5096 67.9703 102.347 69.7136 105.054C72.7945 109.841 71.3067 111.576 73.7263 114.355C78.0145 119.279 88.4193 116.018 93.4839 119.801C105.652 128.889 99.0195 143.908 88.2339 150.997C81.0402 155.725 71.2516 152.991 68.5865 152.246C60.5061 149.989 47.1156 145.566 45.8231 135.002C44.9515 127.899 52.9567 122.203 48.6535 116.281C47.5614 114.773 46.6547 114.364 45.8381 112.475C44.5156 109.414 44.2201 104.259 48.1075 100.449Z" fill="black"/>
<path d="M60.7572 101.284C58.9137 99.9306 60.0809 95.943 61.2582 93.7948C61.699 92.9864 63.6778 89.3758 66.2777 89.5166C68.9428 89.6619 71.5027 93.7176 70.5459 96.9331C69.3586 100.952 62.9163 102.869 60.7572 101.284Z" fill="black"/>
<path d="M73.1907 125.777C67.6351 124.137 59.174 122.957 49.0547 125.877C45.3677 126.94 42.7226 129.878 42.2667 133.361L34.026 176.33C33.6203 179.45 38.229 182.488 41.4752 183.601C44.8717 184.768 50.0015 185.867 57.2603 185.867C65.0451 185.867 74.4531 185.831 77.6091 184.573C77.7043 184.541 77.7994 184.5 77.8946 184.459C81.9574 182.743 84.3519 178.86 83.9512 174.818L82.273 168.505C80.4194 161.538 79.5628 154.389 79.7181 147.227L79.9886 134.719C80.194 130.696 77.4187 127.026 73.1907 125.777Z" fill="#6C93EC"/>
<path d="M34.2766 144.239C34.2766 144.239 40.8541 127.739 48.2332 126.154L44.4811 149.534L34.2766 144.239Z" fill="#6C93EC"/>
<path d="M89.5214 153.868C92.3418 151.847 93.524 148.486 92.5221 145.357C91.6204 142.55 90.4782 139.162 89.4863 136.714C86.0898 128.339 79.0564 126.468 76.3162 125.873C75.8804 125.778 71.0061 125.192 71.0061 125.192L73.9417 150.82L86.4806 155.475L89.5214 153.868Z" fill="#6C93EC"/>
<path d="M80.6297 174.31C80.4343 174.31 80.2439 174.214 80.1487 174.046C74.5731 164.459 57.5607 164.077 50.1967 165.39C45.5278 166.226 40.6886 169.05 40.6385 169.078C40.388 169.223 40.0473 169.159 39.882 168.932C39.7217 168.701 39.7918 168.396 40.0423 168.247C40.2477 168.128 45.112 165.294 49.9813 164.422C53.4479 163.805 59.6697 163.478 65.8014 164.6C73.1855 165.953 78.4806 169.059 81.1106 173.588C81.2508 173.828 81.1506 174.128 80.8851 174.255C80.805 174.291 80.7148 174.31 80.6297 174.31Z" fill="black"/>
<path d="M60.3311 157.719L28.0245 157.673C27.208 157.673 26.4966 157.165 26.3012 156.447L20.8158 135.805C20.5403 134.788 21.3919 133.802 22.5491 133.807L54.8557 133.852C55.6722 133.852 56.3886 134.357 56.5839 135.079L62.0644 155.72C62.3399 156.738 61.4883 157.719 60.3311 157.719Z" fill="#99B9FF"/>
<path d="M22.5491 134.302C22.1633 134.302 21.8127 134.456 21.5772 134.729C21.3368 135.001 21.2566 135.351 21.3468 135.687L26.8272 156.329C26.9625 156.829 27.4584 157.178 28.0295 157.178L60.331 157.224C60.331 157.224 60.331 157.224 60.3361 157.224C60.7168 157.224 61.0725 157.069 61.3079 156.797C61.5434 156.52 61.6235 156.175 61.5333 155.834L56.0529 135.192C55.9176 134.697 55.4217 134.343 54.8556 134.343L22.5491 134.302ZM60.3361 158.209C60.331 158.209 60.331 158.209 60.331 158.209L28.0245 158.168C26.9524 158.164 26.0257 157.505 25.7702 156.565L20.2847 135.919C20.1144 135.288 20.2697 134.634 20.7156 134.116C21.1614 133.607 21.8277 133.312 22.5491 133.312L54.8556 133.357C55.9277 133.357 56.8544 134.016 57.1099 134.961L62.5954 155.602C62.7657 156.234 62.6104 156.892 62.1645 157.405C61.7187 157.918 61.0524 158.209 60.3361 158.209Z" fill="black"/>
<path d="M38.6047 146.151C38.9253 147.395 40.2228 148.19 41.5052 147.918C42.7877 147.645 43.5642 146.414 43.2385 145.17C42.9179 143.921 41.6205 143.131 40.338 143.403C39.0556 143.676 38.2791 144.907 38.6047 146.151Z" fill="white"/>
<path d="M22.7097 143.662L23.1205 145.147C23.2958 145.769 24.0573 146.096 24.7035 145.819L30.1689 143.476C30.8903 143.162 31.7619 143.494 32.0124 144.18C32.5234 145.592 32.0926 148.095 25.1343 150.652C20.8862 152.209 20.7309 147.981 21.4273 145.406C21.7328 144.262 22.7097 143.662 22.7097 143.662Z" fill="white"/>
<path d="M22.4188 144.634C22.2335 144.866 22.0531 145.161 21.958 145.524C21.4871 147.264 21.5171 149.426 22.489 150.184C23.01 150.593 23.8315 150.593 24.9286 150.193C29.8781 148.377 32.2075 146.296 31.4961 144.334C31.421 144.144 31.2707 143.989 31.0603 143.908C30.8499 143.826 30.6094 143.83 30.399 143.921L24.9336 146.269C24.4778 146.464 23.9568 146.464 23.5009 146.269C23.045 146.074 22.7144 145.706 22.5942 145.266L22.4188 144.634ZM23.4859 151.483C22.8196 151.483 22.2435 151.297 21.7726 150.933C20.3148 149.789 20.39 147.178 20.8959 145.288C21.2466 143.976 22.3587 143.281 22.4038 143.254C22.5491 143.163 22.7395 143.145 22.9048 143.199C23.0701 143.258 23.1953 143.385 23.2404 143.54L23.6512 145.025C23.6913 145.179 23.8065 145.306 23.9668 145.375C24.1271 145.443 24.3074 145.443 24.4677 145.375L29.9332 143.026C30.4241 142.818 30.9902 142.808 31.4911 142.999C31.9821 143.195 32.3628 143.567 32.5281 144.026C33.1793 145.815 32.463 148.495 25.3394 151.106C24.6581 151.36 24.0419 151.483 23.4859 151.483Z" fill="black"/>
<path d="M69.8746 137.336C69.8746 137.336 84.3823 144.738 87.373 147.059C90.3687 149.38 93.6149 151.147 89.3818 156.206C85.7849 160.512 79.4529 156.66 68.2866 142.163C67.7656 141.482 66.909 141.06 66.0173 140.878C64.8951 140.651 63.272 139.852 62.5256 137.19C62.5256 137.19 57.2305 137.871 56.7646 135.537L64.7098 134.388C65.7768 134.22 66.8689 134.538 67.6203 135.237L69.8746 137.336Z" fill="white"/>
<path d="M62.5251 136.695C62.7706 136.695 62.991 136.845 63.0511 137.067C63.7174 139.438 65.095 140.187 66.137 140.396C67.2491 140.623 68.1709 141.15 68.737 141.877C76.7122 152.241 82.3629 157.309 86.0049 157.373C87.137 157.387 88.1089 156.914 88.9455 155.906C92.5373 151.61 90.5134 150.084 87.7181 147.967C87.4877 147.79 87.2522 147.613 87.0218 147.431C84.1012 145.17 69.7489 137.839 69.6086 137.762C69.5635 137.744 69.5184 137.712 69.4834 137.68L67.2291 135.582C66.6029 134.996 65.6962 134.733 64.8045 134.878L57.5406 135.923C58.4273 136.945 61.3529 136.84 62.445 136.699C62.47 136.699 62.4951 136.695 62.5251 136.695ZM86.075 158.363C86.0449 158.363 86.0149 158.363 85.9848 158.359C81.9121 158.286 76.1461 153.231 67.8403 142.445C67.4345 141.918 66.7432 141.536 65.8965 141.364C64.8546 141.15 63.0261 140.396 62.1193 137.726C60.7117 137.839 56.694 137.953 56.2281 135.623C56.1981 135.491 56.2331 135.36 56.3183 135.246C56.4035 135.142 56.5337 135.069 56.679 135.046L64.6241 133.902C65.8615 133.702 67.1289 134.074 68.0106 134.892L70.2098 136.94C71.4221 137.558 84.8076 144.411 87.7281 146.682C87.9586 146.859 88.189 147.036 88.4195 147.209C91.1797 149.298 94.0352 151.46 89.8171 156.506C88.7852 157.736 87.5278 158.363 86.075 158.363Z" fill="black"/>
<path d="M54.9909 117.866C54.2095 118.22 53.2626 118.074 52.6465 117.516C51.9501 116.88 51.3891 116.208 50.9332 115.527L50.0465 115.54C49.761 115.545 49.5255 115.345 49.5155 115.091L49.3602 111.952C48.6789 110.944 48.4034 110.095 48.3383 109.404C48.2331 108.242 49.3803 106.148 50.5425 105.635C52.1155 104.94 54.9509 104.568 56.4337 106.584C57.0699 107.452 58.1019 108.069 58.7281 107.969C59.3192 107.878 59.5596 107.42 59.8502 106.947C60.3912 106.066 61.7388 105.24 63.0313 106.63C64.3388 108.042 63.432 109.336 62.6205 110.417C62.2898 110.853 62.6455 112.066 62.7808 112.579L64.6944 119.977C65.1904 121.876 66.6882 123.434 68.7021 124.133L70.756 124.846C70.756 124.846 68.4917 131.073 59.4144 130.896C52.4862 130.759 53.0172 125.614 53.0172 125.614L53.9289 125.25C56.3085 124.301 57.6109 121.953 57.0348 119.655L56.4287 117.216L54.9909 117.866Z" fill="white"/>
<path d="M53.5532 125.941C53.5683 126.5 53.7186 127.794 54.7405 128.825C55.7374 129.829 57.3104 130.36 59.4244 130.401C66.6081 130.546 69.3283 126.482 70.0346 125.124L68.5067 124.597C66.3226 123.838 64.6995 122.153 64.1635 120.091L62.2198 112.58C61.9693 111.644 61.7639 110.681 62.1697 110.141C63.0614 108.951 63.6174 108.029 62.6155 106.948C62.2348 106.539 61.849 106.353 61.4733 106.385C60.9674 106.43 60.5365 106.843 60.3261 107.189L60.271 107.275C59.9855 107.747 59.6348 108.329 58.8233 108.46C57.8564 108.61 56.6341 107.752 55.9779 106.857C54.6303 105.022 51.9903 105.545 50.783 106.08C49.8712 106.48 48.7942 108.356 48.8843 109.369C48.9495 110.091 49.2651 110.872 49.8261 111.694C49.8762 111.767 49.9013 111.848 49.9063 111.93L50.0566 115.068L50.9232 115.032C51.1036 115.028 51.2989 115.118 51.3991 115.268C51.865 115.963 52.4161 116.603 53.0373 117.167C53.4881 117.58 54.1744 117.684 54.7455 117.425L56.1833 116.771C56.3335 116.703 56.5089 116.703 56.6592 116.767C56.8094 116.831 56.9197 116.958 56.9597 117.108L57.5709 119.546C58.2021 122.072 56.7593 124.66 54.1444 125.705L53.5532 125.941ZM59.7851 131.391C59.6599 131.391 59.5296 131.391 59.3994 131.386C56.9647 131.341 55.1212 130.696 53.9189 129.474C52.2658 127.794 52.4662 125.659 52.4712 125.569C52.4912 125.392 52.6165 125.233 52.7968 125.16L53.7085 124.801C55.8426 123.943 57.0198 121.826 56.5039 119.764L56.048 117.939L55.2314 118.311C54.2446 118.756 53.0473 118.579 52.2608 117.861C51.6546 117.307 51.1086 116.694 50.6327 116.027L50.0566 116.036C49.4705 116.045 48.9946 115.641 48.9695 115.109L48.8192 112.103C48.2181 111.185 47.8724 110.291 47.7973 109.45C47.677 108.156 48.8944 105.813 50.302 105.19C52.396 104.264 55.3517 104.218 56.8896 106.308C57.4607 107.093 58.3123 107.538 58.6329 107.484C58.9034 107.443 59.0387 107.252 59.3192 106.798L59.3743 106.707C59.73 106.13 60.4414 105.481 61.3681 105.399C61.8891 105.354 62.6706 105.476 63.4471 106.312C65.0602 108.047 63.8128 109.709 63.0714 110.699C62.9962 110.813 62.9712 111.194 63.2768 112.348L63.3118 112.471L65.2255 119.864C65.6813 121.608 67.054 123.03 68.8975 123.67L70.9514 124.383C71.2219 124.479 71.3622 124.751 71.272 125.001C71.247 125.065 68.8424 131.391 59.7851 131.391Z" fill="black"/>
<path d="M55.4617 246.766L60.2709 259.765C60.2709 259.765 55.0309 259.36 54.53 259.447C54.029 259.538 47.9023 247.593 47.9023 247.593L55.4617 246.766Z" fill="white"/>
<path d="M54.4648 258.956C54.4548 258.956 54.4397 258.961 54.4297 258.961C54.4397 258.961 54.4498 258.956 54.4648 258.956ZM54.8155 258.942C55.7522 258.942 57.9765 259.097 59.4944 259.206L55.086 247.302L48.7138 248.002C51.2186 252.866 54.0139 258.034 54.7353 258.942C54.7603 258.942 54.7854 258.942 54.8155 258.942ZM60.2708 260.255C60.2558 260.255 60.2408 260.255 60.2258 260.255C57.751 260.064 54.9808 259.892 54.6251 259.933C54.1091 260.023 53.9087 260.06 50.5373 253.77C48.9593 250.822 47.4214 247.834 47.4063 247.802C47.3312 247.656 47.3412 247.493 47.4264 247.352C47.5115 247.216 47.6618 247.121 47.8372 247.102L55.3966 246.276C55.6571 246.244 55.8975 246.385 55.9777 246.607L60.7918 259.606C60.8469 259.765 60.8169 259.937 60.7017 260.069C60.5965 260.187 60.4412 260.255 60.2708 260.255Z" fill="black"/>
<path d="M59.1693 256.908C59.1693 256.908 51.9355 254.22 50.598 257.589C48.8997 261.881 46.2346 268.421 46.2346 268.421C45.7838 269.561 46.6504 270.774 47.983 270.869C50.628 271.06 54.5705 271.219 56.409 270.633C59.3095 269.711 64.1187 261.4 64.1187 261.4L62.6359 254.329C62.6359 254.329 60.0159 253.992 59.1693 256.908Z" fill="#6C93EC"/>
<path d="M46.435 267.931C46.3098 268.244 46.2346 268.422 46.2346 268.422C45.7838 269.561 46.6504 270.774 47.983 270.869C50.628 271.06 54.5705 271.219 56.409 270.633C57.3508 270.334 58.498 269.253 59.6151 267.931H46.435Z" fill="white"/>
<path d="M54.0241 256.382C53.3728 256.382 52.7567 256.463 52.2407 256.672C51.6846 256.895 51.3139 257.254 51.1135 257.758C49.4303 262 46.7753 268.526 46.7502 268.59C46.5949 268.985 46.645 269.416 46.9005 269.766C47.151 270.12 47.5618 270.343 48.0276 270.379C51.9852 270.665 54.8957 270.592 56.2283 270.17C58.3924 269.48 62.1596 263.694 63.5472 261.323L62.1846 254.815C61.5284 254.856 60.2359 255.178 59.6999 257.031C59.6598 257.172 59.5546 257.285 59.4143 257.349C59.2741 257.413 59.1088 257.417 58.9635 257.363C58.9284 257.349 56.2834 256.382 54.0241 256.382ZM52.2407 271.537C50.7929 271.537 49.265 271.46 47.9375 271.365C47.1309 271.306 46.4196 270.919 45.9838 270.302C45.5429 269.689 45.4477 268.944 45.7233 268.254C45.7533 268.185 48.4034 261.664 50.0866 257.426C50.3871 256.663 50.9632 256.105 51.7998 255.769C54.004 254.878 57.4756 255.828 58.8232 256.259C59.7149 254.084 61.7187 253.711 62.7156 253.838C62.9461 253.87 63.1314 254.029 63.1715 254.238L64.6543 261.309C64.6794 261.418 64.6593 261.532 64.6042 261.632C64.1033 262.499 59.6047 270.143 56.589 271.101C55.562 271.428 53.9589 271.537 52.2407 271.537Z" fill="black"/>
<path d="M69.103 249.959L67.4699 263.035L60.8923 261.4L61.3983 249.619L69.103 249.959Z" fill="white"/>
<path d="M61.453 261.026L66.9986 262.403L68.4964 250.426L61.9239 250.136L61.453 261.026ZM67.4695 263.524C67.4194 263.524 67.3743 263.524 67.3242 263.511L60.7466 261.876C60.5062 261.817 60.3359 261.608 60.3459 261.381L60.8518 249.6C60.8619 249.468 60.922 249.345 61.0322 249.255C61.1374 249.168 61.2827 249.118 61.4279 249.127L69.1276 249.463C69.2779 249.473 69.4232 249.536 69.5184 249.641C69.6185 249.741 69.6636 249.877 69.6436 250.013L68.0105 263.088C67.9904 263.234 67.9053 263.361 67.775 263.443C67.6849 263.497 67.5747 263.524 67.4695 263.524Z" fill="black"/>
<path d="M68.091 272.667H57.6861C56.2785 272.667 55.1964 271.536 55.4018 270.273C55.7475 268.143 56.8796 264.615 60.2711 259.764C60.6418 259.233 61.293 258.91 61.9843 258.91H65.1454C65.6914 258.91 66.1523 259.283 66.2074 259.773L66.4478 261.844L67.4047 260.949C67.7804 260.6 68.4366 260.736 68.6019 261.199C69.2081 262.871 70.3152 266.454 70.3954 270.537C70.4204 271.709 69.3784 272.667 68.091 272.667Z" fill="#6C93EC"/>
<path d="M57.6861 272.668H68.091C69.3784 272.668 70.4204 271.709 70.3954 270.538C70.3904 270.247 70.3803 269.961 70.3653 269.675H55.517C55.4719 269.884 55.4319 270.088 55.4018 270.274C55.1964 271.537 56.2785 272.668 57.6861 272.668Z" fill="white"/>
<path d="M61.984 259.406C61.478 259.406 61.0021 259.642 60.7316 260.028C57.3852 264.824 56.2781 268.285 55.9425 270.347C55.8673 270.805 56.0176 271.268 56.3483 271.618C56.6839 271.972 57.1698 272.172 57.6858 272.172H68.0906C68.5665 272.172 69.0124 272.004 69.348 271.695C69.6837 271.387 69.859 270.978 69.849 270.546C69.7688 266.563 68.7118 263.075 68.0856 261.354C68.0606 261.281 67.9954 261.259 67.9604 261.25C67.9253 261.245 67.8552 261.241 67.7951 261.295L66.8382 262.185C66.688 262.326 66.4675 262.371 66.2672 262.308C66.0668 262.244 65.9265 262.085 65.9015 261.895L65.666 259.828C65.636 259.587 65.4155 259.406 65.145 259.406H61.984ZM68.0906 273.162H57.6858C56.8542 273.162 56.0677 272.835 55.5217 272.263C54.9806 271.695 54.7402 270.941 54.8604 270.201C55.2161 268.048 56.3583 264.442 59.8099 259.501C60.2858 258.82 61.0973 258.416 61.984 258.416H65.145C65.9766 258.416 66.6629 258.979 66.7481 259.724L66.8683 260.741L67.0136 260.609C67.3242 260.314 67.77 260.201 68.2058 260.291C68.6417 260.382 68.9823 260.664 69.1226 261.045C69.7638 262.821 70.8609 266.418 70.9411 270.528C70.9561 271.228 70.6655 271.886 70.1245 272.386C69.5835 272.885 68.8621 273.162 68.0906 273.162Z" fill="black"/>
<path d="M44.4057 171.439C44.6812 170.835 45.2323 170.372 45.9186 170.176C49.7208 169.096 62.9861 166.248 76.6421 174.178C77.2834 174.555 77.6991 175.181 77.7492 175.872C78.2452 182.157 80.0837 215.002 68.6118 253.893L60.8821 253.393L59.3041 186.899C59.3041 186.899 47.8573 211.274 57.165 250.073L49.1247 251.417C49.1247 251.417 37.3623 237.406 35.2533 216.002C33.3897 197.063 42.3217 176.035 44.4057 171.439Z" fill="black"/>
<path d="M58.6332 193.488C58.6281 193.488 58.6231 193.488 58.6181 193.488C58.3176 193.479 58.0771 193.252 58.0871 192.979L58.2925 186.662C58.3326 185.576 57.7665 184.55 56.7846 183.928L53.7739 182.011C53.5284 181.852 53.4683 181.548 53.6436 181.325C53.814 181.098 54.1546 181.044 54.4001 181.203L57.4108 183.119C58.6933 183.937 59.4347 185.272 59.3846 186.689L59.1792 193.006C59.1692 193.274 58.9287 193.488 58.6332 193.488Z" fill="#CADDFF"/>
<path d="M14.6592 72.2586C14.569 72.2586 14.4788 72.2404 14.3937 72.195C14.1282 72.0633 14.038 71.759 14.1883 71.5229C14.3787 71.214 33.6404 40.7214 54.5652 28.1956C54.8157 28.0412 55.1563 28.1048 55.3217 28.3364C55.487 28.5635 55.4168 28.8678 55.1664 29.0176C34.4619 41.4163 15.3255 71.7045 15.1351 72.0088C15.0349 72.1723 14.8496 72.2586 14.6592 72.2586Z" fill="#CADDFF"/>
<path d="M285.816 69.6292C285.615 69.6292 285.425 69.5293 285.33 69.3612C273.818 49.1237 252.547 33.8456 252.337 33.6912C252.096 33.5231 252.056 33.2098 252.247 32.9963C252.427 32.7829 252.773 32.7465 253.008 32.9146C253.223 33.069 274.684 48.4833 286.301 68.9071C286.437 69.1478 286.332 69.4475 286.066 69.5701C285.986 69.611 285.901 69.6292 285.816 69.6292Z" fill="#CADDFF"/>
<path d="M28.9565 104.704C27.7893 104.704 26.8324 105.567 26.8324 106.63C26.8324 107.688 27.7893 108.555 28.9565 108.555C30.1287 108.555 31.0855 107.688 31.0855 106.63C31.0855 105.567 30.1287 104.704 28.9565 104.704ZM28.9565 109.541C27.1831 109.541 25.7454 108.233 25.7454 106.63C25.7454 105.022 27.1831 103.718 28.9565 103.718C30.7299 103.718 32.1726 105.022 32.1726 106.63C32.1726 108.233 30.7299 109.541 28.9565 109.541Z" fill="white"/>
<path d="M16.5779 95.7295L22.2738 100.884L24.3627 93.8402L16.5779 95.7295ZM22.5593 102.333C22.414 102.333 22.2738 102.283 22.1736 102.188L15.1402 95.8203C14.9999 95.6977 14.9498 95.516 14.9999 95.3434C15.05 95.1754 15.1953 95.0392 15.3856 94.9937L24.9889 92.6639C25.1793 92.6185 25.3797 92.6684 25.5199 92.791C25.6552 92.9182 25.7103 93.0999 25.6602 93.2679L23.0853 101.97C23.0352 102.138 22.8899 102.274 22.6996 102.319C22.6545 102.328 22.6044 102.333 22.5593 102.333Z" fill="white"/>
<path d="M273.542 98.9587C272.425 98.9587 271.518 99.7807 271.518 100.789C271.518 101.802 272.425 102.624 273.542 102.624C274.659 102.624 275.566 101.802 275.566 100.789C275.566 99.7807 274.659 98.9587 273.542 98.9587ZM273.542 103.614C271.824 103.614 270.426 102.347 270.426 100.789C270.426 99.2357 271.824 97.9686 273.542 97.9686C275.26 97.9686 276.658 99.2357 276.658 100.789C276.658 102.347 275.26 103.614 273.542 103.614Z" fill="white"/>
<path d="M274.314 90.5382L278.401 94.2396L282.489 90.5382L278.401 86.8413L274.314 90.5382ZM278.401 95.4341C278.256 95.4341 278.121 95.3841 278.016 95.2888L273.156 90.8879C273.056 90.7971 272.996 90.6699 272.996 90.5382C272.996 90.411 273.056 90.2839 273.156 90.1885L278.016 85.7922C278.121 85.7014 278.256 85.6469 278.401 85.6469C278.547 85.6469 278.687 85.7014 278.787 85.7922L283.646 90.1885C283.862 90.3838 283.862 90.6972 283.646 90.8879L278.787 95.2888C278.687 95.3841 278.547 95.4341 278.401 95.4341Z" fill="white"/>
<path d="M151.34 267.25C151.335 267.25 151.335 267.25 151.335 267.25C151.129 267.25 150.944 267.145 150.849 266.977L133.481 235.508C133.345 235.263 133.456 234.968 133.726 234.845C133.997 234.722 134.322 234.818 134.458 235.063L151.34 265.655L168.447 235.063C168.583 234.818 168.913 234.722 169.184 234.845C169.449 234.968 169.559 235.263 169.424 235.508L151.826 266.982C151.73 267.145 151.54 267.25 151.34 267.25Z" fill="#CADDFF"/>
<path d="M151.34 259.383C151.335 259.383 151.335 259.383 151.335 259.383C151.129 259.383 150.944 259.274 150.849 259.111L142.162 243.374C142.032 243.129 142.137 242.834 142.408 242.711C142.678 242.588 143.009 242.688 143.139 242.934L151.34 257.789L159.65 242.929C159.786 242.688 160.116 242.588 160.382 242.711C160.652 242.834 160.757 243.133 160.622 243.379L151.825 259.111C151.73 259.279 151.54 259.383 151.34 259.383Z" fill="#CADDFF"/>
<path d="M253.825 82.3774C253.745 82.3774 253.659 82.3593 253.579 82.3229C253.314 82.2003 253.204 81.9051 253.334 81.6598L262.677 64.7604C262.812 64.5197 263.142 64.4198 263.408 64.5424C263.679 64.665 263.789 64.9602 263.653 65.2055L254.316 82.1049C254.215 82.2775 254.025 82.3774 253.825 82.3774Z" fill="#CADDFF"/>
<path d="M49.5153 81.4462C49.3149 81.4462 49.1196 81.3417 49.0244 81.1737L39.1906 63.3568C39.0554 63.1116 39.1656 62.8118 39.4361 62.6892C39.7066 62.5711 40.0322 62.6665 40.1675 62.9118L50.0012 80.7286C50.1365 80.9739 50.0263 81.2691 49.7558 81.3917C49.6806 81.428 49.5955 81.4462 49.5153 81.4462Z" fill="#CADDFF"/>
<path d="M207.882 235.321L193.835 242.715L179.799 235.312L193.991 227.823L207.882 235.321Z" fill="#6C93EC"/>
<path d="M180.881 235.313L193.835 242.144L206.805 235.318L193.991 228.401L180.881 235.313ZM193.835 243.211C193.74 243.211 193.645 243.188 193.56 243.147L179.523 235.74C179.358 235.649 179.253 235.486 179.253 235.313C179.253 235.136 179.358 234.973 179.523 234.886L193.72 227.397C193.891 227.311 194.101 227.311 194.271 227.402L208.163 234.895C208.328 234.986 208.428 235.15 208.428 235.322C208.423 235.499 208.323 235.663 208.153 235.749L194.106 243.147C194.021 243.188 193.931 243.211 193.835 243.211Z" fill="black"/>
<path d="M193.835 257.693V242.656L207.937 235.294V250.159L193.835 257.693Z" fill="white"/>
<path d="M194.382 242.942V256.83L207.396 249.877V236.148L194.382 242.942ZM193.836 258.188C193.745 258.188 193.65 258.165 193.565 258.125C193.395 258.034 193.29 257.87 193.29 257.693V242.656C193.29 242.479 193.395 242.315 193.565 242.229L207.667 234.867C207.832 234.776 208.043 234.776 208.213 234.867C208.378 234.953 208.483 235.117 208.483 235.294V250.159C208.483 250.336 208.383 250.495 208.218 250.585L194.111 258.12C194.026 258.165 193.931 258.188 193.836 258.188Z" fill="black"/>
<path d="M193.836 257.693V242.656L179.854 235.285V250.195L193.836 257.693Z" fill="#99B9FF"/>
<path d="M180.4 249.914L193.289 256.827V242.938L180.4 236.144V249.914ZM193.835 258.189C193.74 258.189 193.645 258.166 193.56 258.121L179.578 250.623C179.413 250.532 179.313 250.373 179.313 250.196V235.286C179.313 235.109 179.413 234.945 179.583 234.859C179.754 234.768 179.959 234.768 180.129 234.859L194.111 242.23C194.276 242.316 194.381 242.48 194.381 242.657V257.694C194.381 257.871 194.276 258.035 194.106 258.126C194.021 258.166 193.931 258.189 193.835 258.189Z" fill="black"/>
<path d="M221.924 212.949L207.877 220.343L193.841 212.936L208.038 205.451L221.924 212.949Z" fill="#6C93EC"/>
<path d="M194.927 212.936L207.877 219.771L220.852 212.94L208.032 206.023L194.927 212.936ZM207.877 220.838C207.782 220.838 207.692 220.816 207.602 220.77L193.57 213.363C193.4 213.276 193.299 213.113 193.299 212.936C193.299 212.763 193.4 212.6 193.57 212.509L207.762 205.024C207.937 204.933 208.148 204.933 208.318 205.029L222.204 212.522C222.37 212.613 222.475 212.777 222.47 212.949C222.47 213.127 222.37 213.285 222.199 213.376L208.153 220.77C208.067 220.816 207.972 220.838 207.877 220.838Z" fill="black"/>
<path d="M207.882 235.321V220.279L221.984 212.922V227.787L207.882 235.321Z" fill="white"/>
<path d="M208.428 220.565V234.454L221.438 227.505V213.776L208.428 220.565ZM207.882 235.816C207.787 235.816 207.697 235.794 207.612 235.748C207.441 235.662 207.336 235.498 207.336 235.321V220.279C207.336 220.107 207.441 219.943 207.607 219.852L221.714 212.49C221.879 212.404 222.089 212.404 222.26 212.49C222.425 212.581 222.53 212.745 222.53 212.922V227.787C222.53 227.959 222.425 228.123 222.26 228.214L208.158 235.744C208.073 235.794 207.977 235.816 207.882 235.816Z" fill="black"/>
<path d="M207.882 235.321V220.28L193.9 212.913V227.823L207.882 235.321Z" fill="#99B9FF"/>
<path d="M194.446 227.541L207.336 234.454V220.565L194.446 213.771V227.541ZM207.882 235.816C207.787 235.816 207.692 235.794 207.601 235.744L193.625 228.25C193.454 228.159 193.354 228 193.354 227.823V212.913C193.354 212.736 193.459 212.572 193.63 212.481C193.8 212.395 194.005 212.395 194.176 212.481L208.157 219.857C208.323 219.943 208.428 220.107 208.428 220.279V235.321C208.428 235.498 208.323 235.662 208.152 235.748C208.067 235.794 207.977 235.816 207.882 235.816Z" fill="black"/>
<path d="M165.497 207.164L151.45 214.562L137.413 207.155L151.61 199.67L165.497 207.164Z" fill="#6C93EC"/>
<path d="M138.5 207.154L151.45 213.989L164.42 207.158L151.605 200.246L138.5 207.154ZM151.45 215.056C151.355 215.056 151.26 215.034 151.174 214.988L137.138 207.581C136.972 207.494 136.867 207.331 136.867 207.154C136.867 206.981 136.972 206.818 137.138 206.727L151.335 199.242C151.505 199.151 151.72 199.151 151.891 199.247L165.777 206.74C165.943 206.831 166.043 206.99 166.043 207.167C166.043 207.34 165.938 207.503 165.772 207.59L151.725 214.988C151.64 215.034 151.545 215.056 151.45 215.056Z" fill="black"/>
<path d="M151.454 229.54V214.502L165.556 207.14V222.005L151.454 229.54Z" fill="white"/>
<path d="M151.996 214.784V228.672L165.01 221.724V207.994L151.996 214.784ZM151.454 230.035C151.359 230.035 151.264 230.012 151.184 229.967C151.014 229.881 150.908 229.717 150.908 229.54V214.503C150.908 214.321 151.009 214.162 151.179 214.071L165.281 206.709C165.451 206.623 165.662 206.623 165.827 206.709C165.997 206.8 166.102 206.963 166.102 207.141V222.005C166.102 222.182 165.997 222.341 165.832 222.432L151.73 229.967C151.645 230.008 151.55 230.035 151.454 230.035Z" fill="black"/>
<path d="M151.455 229.54V214.503L137.473 207.132V222.042L151.455 229.54Z" fill="#99B9FF"/>
<path d="M138.019 221.761L150.908 228.673V214.785L138.019 207.99V221.761ZM151.454 230.035C151.354 230.035 151.259 230.008 151.174 229.967L137.192 222.469C137.027 222.378 136.927 222.215 136.927 222.042V207.132C136.927 206.955 137.032 206.791 137.202 206.701C137.372 206.614 137.578 206.614 137.748 206.705L151.725 214.076C151.895 214.162 151.995 214.326 151.995 214.503V229.54C151.995 229.718 151.895 229.881 151.72 229.967C151.64 230.013 151.544 230.035 151.454 230.035Z" fill="black"/>
<path d="M122.99 235.313L108.944 242.707L94.907 235.304L109.104 227.819L122.99 235.313Z" fill="#6C93EC"/>
<path d="M95.9892 235.304L108.944 242.134L121.914 235.308L109.099 228.391L95.9892 235.304ZM108.944 243.202C108.849 243.202 108.754 243.179 108.668 243.138L94.6316 235.731C94.4663 235.64 94.3611 235.481 94.3611 235.304C94.3611 235.127 94.4663 234.963 94.6316 234.877L108.829 227.388C108.999 227.297 109.209 227.301 109.38 227.392L123.271 234.886C123.436 234.977 123.537 235.14 123.537 235.313C123.537 235.49 123.431 235.649 123.266 235.74L109.219 243.138C109.134 243.179 109.039 243.202 108.944 243.202Z" fill="black"/>
<path d="M108.944 257.684V242.647L123.051 235.285V250.15L108.944 257.684Z" fill="white"/>
<path d="M109.49 242.934V256.822L122.505 249.869V236.14L109.49 242.934ZM108.944 258.18C108.854 258.18 108.759 258.157 108.673 258.117C108.503 258.026 108.398 257.862 108.398 257.685V242.648C108.398 242.471 108.503 242.307 108.673 242.221L122.775 234.859C122.946 234.768 123.151 234.768 123.321 234.859C123.487 234.945 123.592 235.109 123.592 235.286V250.15C123.592 250.328 123.492 250.487 123.326 250.577L109.225 258.112C109.139 258.157 109.044 258.18 108.944 258.18Z" fill="black"/>
<path d="M108.944 257.684V242.647L94.9673 235.276V250.186L108.944 257.684Z" fill="#99B9FF"/>
<path d="M95.5132 249.905L108.398 256.818V242.929L95.5132 236.135V249.905ZM108.944 258.18C108.849 258.18 108.753 258.157 108.668 258.112L94.6866 250.614C94.5213 250.523 94.4211 250.364 94.4211 250.187V235.277C94.4211 235.1 94.5213 234.936 94.6917 234.85C94.862 234.759 95.0724 234.759 95.2377 234.85L109.219 242.221C109.39 242.307 109.49 242.471 109.49 242.648V257.685C109.49 257.862 109.385 258.026 109.214 258.117C109.134 258.157 109.039 258.18 108.944 258.18Z" fill="black"/>
<path d="M108.883 227.869L94.8365 235.262L80.7998 227.859L94.9969 220.375L108.883 227.869Z" fill="#6C93EC"/>
<path d="M81.8873 227.86L94.8369 234.69L107.812 227.864L94.9922 220.947L81.8873 227.86ZM94.8369 235.757C94.7418 235.757 94.6466 235.735 94.5614 235.694L80.5247 228.286C80.3594 228.196 80.2542 228.037 80.2542 227.86C80.2542 227.682 80.3594 227.519 80.5247 227.433L94.7217 219.943C94.892 219.857 95.1075 219.857 95.2778 219.948L109.164 227.442C109.33 227.533 109.43 227.696 109.43 227.869C109.43 228.046 109.325 228.205 109.159 228.296L95.1125 235.694C95.0273 235.735 94.9321 235.757 94.8369 235.757Z" fill="black"/>
<path d="M94.8416 250.241V235.203L108.943 227.841V242.706L94.8416 250.241Z" fill="white"/>
<path d="M95.3877 235.489V249.378L108.398 242.425V228.695L95.3877 235.489ZM94.8417 250.736C94.7465 250.736 94.6513 250.713 94.5712 250.672C94.4009 250.581 94.2957 250.418 94.2957 250.241V235.203C94.2957 235.026 94.4009 234.863 94.5662 234.776L108.668 227.414C108.838 227.324 109.049 227.328 109.214 227.414C109.384 227.501 109.49 227.664 109.49 227.841V242.706C109.49 242.883 109.384 243.042 109.219 243.133L95.1172 250.668C95.0321 250.713 94.9369 250.736 94.8417 250.736Z" fill="black"/>
<path d="M94.842 250.241V235.203L80.8604 227.832V242.742L94.842 250.241Z" fill="#99B9FF"/>
<path d="M81.4058 242.465L94.2954 249.373V235.485L81.4058 228.69V242.465ZM94.8414 250.736C94.7412 250.736 94.646 250.713 94.5609 250.667L80.5792 243.169C80.4139 243.078 80.3137 242.919 80.3137 242.742V227.832C80.3137 227.655 80.4189 227.491 80.5892 227.405C80.7546 227.314 80.965 227.314 81.1353 227.405L95.1119 234.776C95.2822 234.863 95.3874 235.026 95.3874 235.203V250.241C95.3874 250.418 95.2822 250.581 95.1119 250.672C95.0268 250.713 94.9316 250.736 94.8414 250.736Z" fill="black"/>
<path d="M28.6755 193.997L14.6288 201.39L0.592041 193.983L14.7841 186.498L28.6755 193.997Z" fill="#6C93EC"/>
<path d="M1.67424 193.984L14.6289 200.824L27.5986 193.988L14.7842 187.072L1.67424 193.984ZM14.6289 201.886C14.5337 201.886 14.4386 201.864 14.3534 201.818L0.316657 194.411C0.151343 194.325 0.0461426 194.161 0.0461426 193.984C0.0461426 193.811 0.151343 193.648 0.316657 193.562L14.5137 186.072C14.684 185.982 14.8944 185.986 15.0648 186.077L28.9562 193.571C29.1215 193.661 29.2217 193.825 29.2217 193.998C29.2167 194.175 29.1165 194.334 28.9462 194.424L14.8994 201.818C14.8143 201.864 14.7191 201.886 14.6289 201.886Z" fill="black"/>
<path d="M14.6289 216.369V201.332L28.7308 193.97V208.835L14.6289 216.369Z" fill="white"/>
<path d="M15.1751 201.618V215.502L28.1849 208.553V194.824L15.1751 201.618ZM14.629 216.864C14.5389 216.864 14.4437 216.842 14.3585 216.796C14.1882 216.71 14.083 216.547 14.083 216.369V201.332C14.083 201.155 14.1882 200.991 14.3585 200.905L28.4604 193.543C28.6307 193.452 28.8361 193.452 29.0064 193.543C29.1718 193.629 29.277 193.793 29.277 193.97V208.835C29.277 209.012 29.1768 209.171 29.0114 209.262L14.9096 216.796C14.8194 216.842 14.7242 216.864 14.629 216.864Z" fill="black"/>
<path d="M14.6291 216.37V201.332L0.647461 193.961V208.871L14.6291 216.37Z" fill="#99B9FF"/>
<path d="M1.1934 208.59L14.083 215.502V201.614L1.1934 194.82V208.59ZM14.629 216.865C14.5338 216.865 14.4386 216.842 14.3535 216.797L0.371834 209.298C0.20652 209.208 0.101318 209.049 0.101318 208.872V193.961C0.101318 193.784 0.20652 193.621 0.376844 193.53C0.547169 193.444 0.757569 193.444 0.922885 193.534L14.9045 200.905C15.0698 200.992 15.175 201.155 15.175 201.332V216.37C15.175 216.547 15.0698 216.71 14.8995 216.801C14.8144 216.842 14.7242 216.865 14.629 216.865Z" fill="black"/>
<path d="M302.402 212.903L288.355 220.301L274.319 212.894L288.516 205.409L302.402 212.903Z" fill="#6C93EC"/>
<path d="M275.406 212.895L288.356 219.73L301.325 212.899L288.511 205.982L275.406 212.895ZM288.356 220.797C288.261 220.797 288.165 220.775 288.08 220.729L274.043 213.322C273.873 213.235 273.773 213.072 273.773 212.895C273.773 212.722 273.878 212.559 274.043 212.468L288.241 204.983C288.411 204.892 288.621 204.892 288.792 204.983L302.683 212.477C302.848 212.568 302.949 212.731 302.949 212.908C302.949 213.081 302.843 213.245 302.678 213.331L288.626 220.729C288.546 220.775 288.451 220.797 288.356 220.797Z" fill="black"/>
<path d="M288.355 235.276V220.239L302.462 212.877V227.746L288.355 235.276Z" fill="white"/>
<path d="M288.902 220.526V234.414L301.911 227.465V213.732L288.902 220.526ZM288.356 235.772C288.265 235.772 288.17 235.749 288.085 235.709C287.915 235.618 287.81 235.459 287.81 235.277V220.24C287.81 220.063 287.915 219.899 288.085 219.813L302.187 212.451C302.357 212.365 302.563 212.365 302.733 212.451C302.898 212.542 303.004 212.705 303.004 212.878V227.747C303.004 227.92 302.903 228.083 302.738 228.174L288.636 235.704C288.551 235.749 288.456 235.772 288.356 235.772Z" fill="black"/>
<path d="M288.356 235.276V220.238L274.379 212.867V227.782L288.356 235.276Z" fill="#99B9FF"/>
<path d="M274.925 227.501L287.81 234.413V220.525L274.925 213.73V227.501ZM288.356 235.771C288.26 235.771 288.165 235.748 288.08 235.703L274.099 228.205C273.933 228.118 273.833 227.955 273.833 227.782V212.867C273.833 212.69 273.933 212.527 274.104 212.441C274.274 212.354 274.484 212.354 274.65 212.441L288.631 219.812C288.802 219.902 288.902 220.061 288.902 220.239V235.276C288.902 235.458 288.797 235.621 288.626 235.707C288.546 235.748 288.451 235.771 288.356 235.771Z" fill="black"/>
</svg>
