<svg width="285" height="247" viewBox="0 0 285 247" fill="none" xmlns="http://www.w3.org/2000/svg">
<path d="M216.701 232.131C157.133 262.275 84.4746 240.251 44.707 205.628C-7.39349 160.261 -11.7032 85.7232 25.0885 41.5306C40.3872 23.1611 72.3236 -2.29403 106.422 1.13271C135.322 4.04237 139.177 24.9709 187.296 57.7659C241.857 94.9474 265.437 87.4892 278.174 110.946C297.146 145.902 268.398 205.97 216.701 232.131Z" fill="#CADDFF"/>
<path d="M263.825 128.61L41.0346 119.217C29.7914 118.743 21.1525 109.09 21.9242 97.8632L24.8871 54.7576C25.5528 45.0731 33.0766 37.265 42.7298 36.2407L197.881 19.7782L277.987 19.5285C279.478 19.5241 280.655 20.2734 280.544 21.1542L267.089 126.831C266.963 127.839 265.533 128.619 263.825 128.61Z" fill="#99B9FF"/>
<path d="M259.243 128.435H25.8645C13.8284 128.435 4.51881 117.881 6.02081 105.939L14.6552 37.2894C15.9138 27.2826 24.4263 19.7786 34.5119 19.7852L272.031 19.9402C273.829 19.9402 275.244 20.8429 275.107 21.9077L261.476 127.208C261.385 127.9 260.415 128.435 259.243 128.435Z" fill="white"/>
<path d="M147.205 128.715H5.18196C4.24221 128.715 3.3833 128.421 2.87301 127.926C2.52944 127.593 2.37282 127.19 2.42334 126.782L15.0291 29.3789C15.0645 29.1335 15.3171 28.9583 15.595 28.9845C15.8779 29.0108 16.08 29.2343 16.0497 29.4753L3.43888 126.883C3.41867 127.037 3.48435 127.19 3.63592 127.335C3.94917 127.637 4.54031 127.825 5.18196 127.825H147.205C147.483 127.825 147.716 128.027 147.716 128.272C147.716 128.518 147.483 128.715 147.205 128.715Z" fill="black"/>
<path d="M258.692 128.715H174.984C174.701 128.715 174.473 128.518 174.473 128.272C174.473 128.027 174.701 127.825 174.984 127.825H258.692C259.642 127.825 260.465 127.427 260.531 126.936L274.147 21.7409C274.193 21.4079 273.996 21.1362 273.824 20.9697C273.344 20.5096 272.455 20.2204 271.5 20.2204H152.905C152.622 20.2204 152.394 20.0188 152.394 19.7734C152.394 19.5324 152.622 19.3308 152.905 19.3308H271.5C272.758 19.3308 273.91 19.7208 274.587 20.3781C275.027 20.8076 275.229 21.3246 275.163 21.8417L261.547 127.032C261.425 127.992 260.198 128.715 258.692 128.715Z" fill="black"/>
<path d="M123.424 20.2204H33.4505C33.1675 20.2204 32.9402 20.0188 32.9402 19.7734C32.9402 19.5324 33.1675 19.3308 33.4505 19.3308H123.424C123.707 19.3308 123.934 19.5324 123.934 19.7734C123.934 20.0188 123.707 20.2204 123.424 20.2204Z" fill="black"/>
<path d="M108.953 45.281H94.5743C94.2913 45.281 94.064 45.0839 94.064 44.8385C94.064 44.5931 94.2913 44.3959 94.5743 44.3959H108.953C109.236 44.3959 109.464 44.5931 109.464 44.8385C109.464 45.0839 109.236 45.281 108.953 45.281Z" fill="#99B9FF"/>
<path d="M88.3198 55.9995H28.3779C25.2656 55.9995 22.8707 53.6113 23.3002 50.9383L25.4677 37.5074C25.8213 35.312 27.9888 33.6819 30.5403 33.6819H90.4872C93.5995 33.6819 95.9893 36.0657 95.5599 38.7387L93.3924 52.1696C93.0387 54.365 90.8763 55.9995 88.3198 55.9995Z" fill="#99B9FF"/>
<path d="M86.5565 43.3578H33.0514C31.5509 43.3578 30.3686 42.2448 30.5 40.9477C30.6162 39.7996 31.7227 38.9232 33.0514 38.9232H86.5565C88.0571 38.9232 89.2394 40.0363 89.108 41.3333C88.9918 42.4814 87.8853 43.3578 86.5565 43.3578Z" fill="white"/>
<path d="M78.3308 50.7588H32.3033C30.8027 50.7588 29.6255 49.6414 29.7568 48.3443C29.868 47.1962 30.9745 46.3198 32.3033 46.3198H78.3308C79.8313 46.3198 81.0086 47.4329 80.8772 48.7299C80.761 49.878 79.6545 50.7588 78.3308 50.7588Z" fill="white"/>
<path d="M90.1084 77.0422C89.9063 77.0422 89.7093 76.937 89.6335 76.7618C89.5274 76.5339 89.6588 76.2753 89.9215 76.1833L106.6 70.4911C106.862 70.4034 107.16 70.513 107.266 70.7409C107.368 70.9687 107.241 71.2273 106.978 71.3193L90.2954 77.0115C90.2348 77.0334 90.1691 77.0422 90.1084 77.0422Z" fill="#99B9FF"/>
<path d="M83.8483 87.7564H23.9064C20.7941 87.7564 18.3993 85.3725 18.8338 82.6951L20.9962 69.2686C21.3499 67.0732 23.5174 65.4387 26.0739 65.4387H86.0158C89.128 65.4387 91.5229 67.8269 91.0884 70.5L88.9259 83.9308C88.5723 86.1219 86.4048 87.7564 83.8483 87.7564Z" fill="#99B9FF"/>
<path d="M82.09 75.1186H28.5799C27.0793 75.1186 25.9021 74.0011 26.0335 72.7084C26.1497 71.5604 27.2561 70.6796 28.5799 70.6796H82.09C83.5906 70.6796 84.7678 71.797 84.6364 73.0941C84.5202 74.2378 83.4138 75.1186 82.09 75.1186Z" fill="white"/>
<path d="M43.9998 82.5154H27.8321C26.3315 82.5154 25.1543 81.4024 25.2857 80.1053C25.4019 78.9572 26.5083 78.0764 27.8321 78.0764H43.9998C45.5004 78.0764 46.6826 79.1938 46.5513 80.4909C46.4351 81.6346 45.3286 82.5154 43.9998 82.5154Z" fill="white"/>
<path d="M85.3234 109.096C85.1566 109.096 84.995 109.026 84.899 108.899C84.7423 108.698 84.803 108.422 85.0354 108.286L119.574 88.0977C119.806 87.9619 120.124 88.0188 120.281 88.2204C120.443 88.422 120.377 88.6981 120.145 88.8339L85.6063 109.022C85.5204 109.074 85.4194 109.096 85.3234 109.096Z" fill="#99B9FF"/>
<path d="M79.0634 119.811H19.1215C16.0092 119.811 13.6144 117.427 14.0438 114.754L16.2113 101.323C16.565 99.1277 18.7325 97.4932 21.289 97.4932H81.2309C84.3432 97.4932 86.738 99.8814 86.3035 102.554L84.1411 115.985C83.7874 118.181 81.6199 119.811 79.0634 119.811Z" fill="#99B9FF"/>
<path d="M67.5687 107.94H24.2998C22.7993 107.94 21.6221 106.827 21.7534 105.53C21.8696 104.382 22.9761 103.505 24.2998 103.505H67.5687C69.0744 103.505 70.2516 104.618 70.1202 105.915C70.004 107.063 68.8975 107.94 67.5687 107.94Z" fill="white"/>
<path d="M246.03 119.811H186.094C182.976 119.811 180.581 117.427 181.016 114.754L183.178 101.323C183.537 99.1277 185.699 97.4932 188.256 97.4932H248.198C251.31 97.4932 253.705 99.8814 253.276 102.554L251.108 115.985C250.754 118.181 248.587 119.811 246.03 119.811Z" fill="#99B9FF"/>
<path d="M181.996 109.097C181.87 109.097 181.749 109.057 181.648 108.979L156.699 88.7906C156.492 88.6241 156.481 88.3436 156.673 88.164C156.865 87.9843 157.189 87.9756 157.396 88.1421L182.345 108.33C182.557 108.497 182.567 108.777 182.375 108.957C182.274 109.049 182.133 109.097 181.996 109.097Z" fill="#99B9FF"/>
<path d="M244.273 107.173H190.762C189.262 107.173 188.085 106.06 188.216 104.763C188.332 103.615 189.439 102.739 190.762 102.739H244.273C245.773 102.739 246.95 103.852 246.819 105.149C246.703 106.297 245.601 107.173 244.273 107.173Z" fill="white"/>
<path d="M216.424 114.571H190.015C188.519 114.571 187.337 113.458 187.468 112.16C187.585 111.012 188.691 110.136 190.015 110.136H216.424C217.924 110.136 219.102 111.249 218.975 112.546C218.854 113.694 217.748 114.571 216.424 114.571Z" fill="white"/>
<path d="M255.287 55.9995H195.345C192.233 55.9995 189.838 53.6113 190.267 50.9383L192.435 37.5074C192.788 35.312 194.956 33.6819 197.512 33.6819H257.454C260.567 33.6819 262.961 36.0657 262.527 38.7387L260.364 52.1696C260.011 54.365 257.843 55.9995 255.287 55.9995Z" fill="#99B9FF"/>
<path d="M191.252 45.281H175.842C175.559 45.281 175.332 45.0839 175.332 44.8385C175.332 44.5931 175.559 44.3959 175.842 44.3959H191.252C191.535 44.3959 191.762 44.5931 191.762 44.8385C191.762 45.0839 191.535 45.281 191.252 45.281Z" fill="#99B9FF"/>
<path d="M253.468 43.3578H199.958C198.462 43.3578 197.28 42.2448 197.411 40.9477C197.528 39.7996 198.634 38.9232 199.958 38.9232H253.468C254.968 38.9232 256.146 40.0363 256.019 41.3333C255.903 42.4814 254.797 43.3578 253.468 43.3578Z" fill="white"/>
<path d="M225.619 50.7588H199.215C197.714 50.7588 196.537 49.6414 196.664 48.3443C196.78 47.1962 197.886 46.3198 199.215 46.3198H225.619C227.125 46.3198 228.302 47.4329 228.17 48.7299C228.054 49.878 226.948 50.7588 225.619 50.7588Z" fill="white"/>
<path d="M148.741 108.734C148.418 108.265 148.479 107.656 148.898 107.187C149.479 106.538 149.833 105.837 149.903 105.105C150.247 101.714 144.462 98.9617 136.989 98.9617C129.512 98.9617 123.176 101.714 122.832 105.105C122.762 105.837 122.969 106.538 123.419 107.187C123.747 107.656 123.681 108.265 123.262 108.734C122.686 109.382 122.332 110.083 122.256 110.815C122.108 112.291 123.122 113.646 124.931 114.705C125.215 114.872 125.333 115.212 125.298 115.539C125.045 118.05 129.325 120.087 134.857 120.087C140.39 120.087 145.078 118.05 145.336 115.539C145.362 115.21 145.519 114.888 145.812 114.736C147.869 113.672 149.178 112.305 149.327 110.815C149.403 110.083 149.191 109.382 148.741 108.734Z" fill="#6C93EC"/>
<path d="M136.99 99.4081C129.785 99.4081 123.661 101.98 123.343 105.144C123.282 105.762 123.454 106.371 123.858 106.958C124.293 107.585 124.217 108.391 123.666 109.005C123.136 109.601 122.833 110.223 122.767 110.85C122.631 112.221 123.671 113.553 125.697 114.601C125.899 114.706 125.995 114.92 125.92 115.118C125.859 115.28 125.824 115.429 125.809 115.578C125.748 116.196 126.016 116.792 126.607 117.348C128.102 118.763 131.26 119.64 134.857 119.64C140.036 119.64 144.598 117.747 144.826 115.499C144.841 115.354 144.831 115.205 144.806 115.048C144.775 114.859 144.881 114.679 145.068 114.592C147.347 113.527 148.681 112.169 148.817 110.775C148.883 110.157 148.711 109.544 148.307 108.961C147.872 108.334 147.943 107.528 148.494 106.915C149.029 106.319 149.333 105.696 149.398 105.07C149.484 104.189 149.105 103.343 148.272 102.554C146.22 100.613 141.9 99.4081 136.99 99.4081ZM134.857 120.529C130.982 120.529 127.536 119.539 125.854 117.948C125.071 117.208 124.702 116.362 124.788 115.499C124.816 115.314 124.73 115.125 124.569 115.029C122.589 113.844 121.592 112.352 121.751 110.775C121.832 109.973 122.201 109.198 122.858 108.461C123.151 108.137 123.196 107.725 122.979 107.414C122.464 106.665 122.242 105.876 122.322 105.07C122.696 101.398 129.138 98.5186 136.99 98.5186C142.173 98.5186 146.786 99.8332 149.024 101.954C150.045 102.922 150.525 104.022 150.414 105.144C150.333 105.946 149.959 106.722 149.302 107.458C149.014 107.782 148.969 108.194 149.181 108.505C149.701 109.25 149.924 110.039 149.838 110.85C149.678 112.417 148.382 113.9 146.161 115.073C145.974 115.172 145.869 115.369 145.841 115.578C145.563 118.356 140.738 120.529 134.857 120.529Z" fill="black"/>
<path d="M177.858 58.007C179.616 40.6103 164.414 25.7684 144.356 25.7684C124.333 25.7684 106.361 40.2072 104.477 57.5731C103.517 66.4161 107.604 74.6411 113.728 80.3947C118.149 84.5489 121.155 89.7065 122.287 95.4207L122.342 95.6967C123.444 101.24 128.829 105.109 135.433 105.109H138.141C144.745 105.109 150.909 101.24 153.127 95.6967L153.192 95.5302C155.466 89.8555 159.376 84.6497 164.626 80.5568C171.962 74.8339 176.969 66.8455 177.858 58.007Z" fill="white"/>
<path d="M144.356 26.211C124.525 26.211 106.862 40.2992 104.987 57.6125C104.113 65.636 107.438 73.8304 114.107 80.0923C118.654 84.3692 121.66 89.6407 122.792 95.3461L122.848 95.6222C123.909 100.946 129.082 104.667 135.433 104.667H138.141C144.528 104.667 150.495 100.92 152.642 95.5521L152.713 95.3856C155.052 89.5443 159.053 84.3034 164.283 80.2238C171.856 74.3212 176.499 66.416 177.348 57.9675C178.187 49.6592 175.024 41.4473 168.673 35.4351C162.388 29.4887 153.753 26.211 144.356 26.211ZM138.141 105.556H135.433C128.572 105.556 122.984 101.534 121.837 95.7712L121.782 95.4951C120.685 89.965 117.77 84.8468 113.354 80.697C106.488 74.2467 103.068 65.8025 103.967 57.5293C104.891 49.0106 109.615 40.9477 117.27 34.8304C124.939 28.7 134.559 25.3258 144.356 25.3258C154.041 25.3258 162.944 28.7 169.426 34.8348C175.974 41.031 179.233 49.4927 178.369 58.0464C177.495 66.7184 172.735 74.8295 164.97 80.8854C159.867 84.8643 155.961 89.9781 153.678 95.6748L153.612 95.8413C151.318 101.56 144.957 105.556 138.141 105.556Z" fill="black"/>
<path d="M149.052 54.0468C148.286 52.8254 146.576 52.7175 145.71 53.8701C142.653 57.9234 143.295 60.1145 143.947 61.061C144.599 61.9987 145.826 62.5202 147.135 62.415C148.388 62.3142 149.383 61.6701 149.808 60.6885C150.762 58.4729 150.275 55.9969 149.052 54.0468ZM139.353 57.4686C138.93 53.8582 134.582 53.9978 133.084 57.31C132.109 59.4615 132.154 61.3064 133.195 62.3712C133.862 63.0504 134.903 63.3396 135.969 63.1424C137.444 62.8664 138.637 61.7577 139.167 60.1714C139.411 59.4387 139.47 58.4734 139.353 57.4686ZM138.869 101.043C138.854 101.043 138.839 101.043 138.819 101.043C138.541 101.021 138.334 100.802 138.359 100.556C140.142 83.6503 153.46 64.5534 156.113 60.8945C157.725 58.6728 158.432 56.8455 158.291 55.3161C158.073 53.055 156.886 51.6002 154.759 50.9867C151.668 50.1043 150.947 54.2378 151.283 57.4351C151.408 58.6266 151.261 59.8448 150.762 60.9996C150.202 62.3055 148.883 63.1643 147.231 63.2958C145.518 63.4316 143.932 62.7524 143.073 61.5167C142.295 60.3949 141.491 57.8446 144.856 53.3837C145.297 52.796 145.791 52.2941 146.321 51.8688C146.501 51.7244 146.498 51.4365 146.296 51.3241C144.907 50.5178 142.522 49.9 140.001 50.5879C138.657 50.9518 138.653 52.7983 139.329 54.0154C140.441 56.0177 140.726 58.6916 140.152 60.4168C139.516 62.323 138.03 63.6683 136.186 64.0101C134.741 64.2774 133.332 63.8786 132.417 62.9452C131.654 62.1696 130.608 60.3598 132.134 56.9857C133.197 54.6327 132.041 51.4015 129.66 52.3979C128.355 52.9438 127.407 53.778 126.94 54.6019C125.793 56.6132 125.894 59.0014 127.188 60.8419C130.113 64.9785 136.702 77.0685 134.787 99.8594C134.767 100.105 134.524 100.289 134.241 100.271C133.958 100.254 133.746 100.039 133.766 99.798C135.661 77.2613 129.189 65.3685 126.319 61.3064C124.813 59.1767 124.707 56.5256 126.021 54.2075C127.055 52.3877 129.519 51.0023 132.543 50.906C134.933 50.8299 137.384 50.3661 139.693 49.7422C142.557 48.9622 145.276 49.6677 146.867 50.5879C147.305 50.8383 147.838 50.8758 148.3 50.6728C150.726 49.6054 153.392 49.6647 155.077 50.1454C158.26 51.0568 159.134 53.4187 159.311 55.2416C159.478 56.9988 158.735 58.9445 156.977 61.3677C154.35 64.996 141.143 83.9307 139.379 100.639C139.354 100.872 139.132 101.043 138.869 101.043Z" fill="black"/>
<path d="M155.956 78.2211C155.779 78.2211 155.613 78.1422 155.517 78.002C155.37 77.796 155.451 77.52 155.693 77.3973C162.6 73.8259 167.9 68.0241 170.229 61.4818C170.315 61.2451 170.603 61.1181 170.871 61.1882C171.139 61.2583 171.29 61.5081 171.209 61.7447C168.804 68.493 163.343 74.4745 156.214 78.1597C156.133 78.2036 156.042 78.2211 155.956 78.2211Z" fill="black"/>
<path d="M116.79 74.5705C116.638 74.5705 116.492 74.5135 116.391 74.4039C111.97 69.6275 109.893 63.4708 110.54 57.0774C111.545 47.1215 118.831 38.1865 129.552 33.7607C129.81 33.6555 130.113 33.7519 130.234 33.971C130.355 34.1945 130.249 34.4574 129.992 34.5626C119.594 38.8526 112.531 47.5115 111.56 57.1519C110.939 63.3218 112.935 69.2507 117.189 73.8518C117.366 74.0402 117.33 74.3207 117.108 74.4741C117.012 74.5398 116.901 74.5705 116.79 74.5705Z" fill="black"/>
<path d="M138.348 108.838C138.106 108.838 137.889 108.685 137.848 108.466C137.803 108.225 137.99 107.997 138.267 107.953C139.52 107.773 140.748 107.537 141.915 107.261C142.188 107.191 142.471 107.331 142.542 107.568C142.623 107.804 142.461 108.05 142.188 108.115C140.986 108.4 139.728 108.641 138.439 108.83C138.409 108.834 138.379 108.838 138.348 108.838Z" fill="white"/>
<path d="M132.033 114.872C131.755 114.872 131.528 114.675 131.523 114.434C131.523 114.189 131.75 113.987 132.033 113.983C134.837 113.965 138.99 113.623 142.825 112.129C143.088 112.028 143.386 112.129 143.502 112.353C143.618 112.576 143.502 112.839 143.244 112.94C139.248 114.495 134.948 114.85 132.043 114.872C132.038 114.872 132.038 114.872 132.033 114.872Z" fill="white"/>
<path d="M250.816 87.7564H190.874C187.761 87.7564 185.372 85.3725 185.801 82.6951L187.968 69.2686C188.322 67.0732 190.485 65.4387 193.041 65.4387H252.983C256.095 65.4387 258.49 67.8269 258.061 70.5L255.893 83.9308C255.54 86.1219 253.372 87.7564 250.816 87.7564Z" fill="#99B9FF"/>
<path d="M187.003 75.6666C186.948 75.6666 186.887 75.6579 186.832 75.6403L173.205 71.324C172.943 71.2364 172.801 70.9822 172.902 70.7544C172.998 70.5221 173.291 70.4038 173.559 70.4871L187.18 74.8077C187.448 74.891 187.584 75.1452 187.488 75.373C187.408 75.5571 187.216 75.6666 187.003 75.6666Z" fill="#99B9FF"/>
<path d="M248.901 75.1186H195.391C193.89 75.1186 192.713 74.0011 192.844 72.7084C192.96 71.5604 194.062 70.6796 195.391 70.6796H248.901C250.401 70.6796 251.579 71.797 251.447 73.0941C251.331 74.2378 250.225 75.1186 248.901 75.1186Z" fill="white"/>
<path d="M205.273 82.5154H194.642C193.142 82.5154 191.965 81.4024 192.096 80.1053C192.212 78.9572 193.319 78.0764 194.642 78.0764H205.273C206.773 78.0764 207.95 79.1938 207.819 80.4909C207.703 81.6346 206.601 82.5154 205.273 82.5154Z" fill="white"/>
<path d="M228.857 245.675C227.654 245.675 226.598 244.873 226.276 243.714L222.781 231.136C217.395 211.749 189.907 211.749 184.52 231.136L181.026 243.712C180.704 244.872 179.647 245.675 178.443 245.675C176.672 245.675 175.388 243.989 175.859 242.282L199.515 156.521C200.027 154.663 201.716 153.375 203.644 153.372C205.576 153.37 207.271 154.659 207.784 156.521L231.439 242.285C231.909 243.99 230.626 245.675 228.857 245.675Z" fill="white"/>
<path d="M226.784 243.644C227.045 244.583 227.901 245.234 228.876 245.234C230.31 245.234 231.351 243.867 230.969 242.485L207.272 156.577C206.823 154.946 205.338 153.817 203.646 153.818C201.957 153.819 200.475 154.948 200.026 156.577L176.333 242.485C175.952 243.868 176.992 245.234 178.426 245.234C179.402 245.234 180.257 244.583 180.518 243.643L203.151 162.185C203.207 161.984 203.414 161.844 203.651 161.844C203.884 161.844 204.091 161.984 204.146 162.185L226.784 243.644ZM232.374 246.119H226.822C226.584 246.119 226.377 245.978 226.321 245.781L222.919 233.535C217.494 214.007 189.805 214.006 184.379 233.534L180.976 245.781C180.92 245.978 180.713 246.119 180.481 246.119H174.923C174.766 246.119 174.62 246.057 174.524 245.952C174.428 245.847 174.393 245.707 174.428 245.575L199.887 153.272C199.943 153.075 200.145 152.935 200.382 152.935L206.915 152.926C207.152 152.926 207.36 153.066 207.41 153.264L232.874 245.575C232.91 245.707 232.874 245.847 232.778 245.952C232.682 246.057 232.531 246.119 232.374 246.119Z" fill="black"/>
<path d="M30.3784 149.876C30.3784 151.831 31.9636 153.416 33.9191 153.416H236.003C237.958 153.416 239.543 151.831 239.543 149.876C239.543 147.92 237.958 146.335 236.003 146.335H33.9191C31.9636 146.335 30.3784 147.92 30.3784 149.876Z" fill="white"/>
<path d="M30.8888 149.876C30.8888 151.587 32.2758 152.974 33.9868 152.974H235.93C237.641 152.974 239.028 151.587 239.028 149.876C239.028 148.165 237.641 146.778 235.93 146.778H33.9868C32.2758 146.778 30.8888 148.165 30.8888 149.876ZM239.543 153.864H30.3785C30.0955 153.864 29.8682 153.667 29.8682 153.417V146.335C29.8682 146.09 30.0955 145.893 30.3785 145.893H239.543C239.826 145.893 240.054 146.09 240.054 146.335V153.417C240.054 153.667 239.826 153.864 239.543 153.864Z" fill="black"/>
<path d="M84.4862 245.676C83.2821 245.676 82.2257 244.873 81.9034 243.713L78.4091 231.136C73.0229 211.749 45.534 211.749 40.1477 231.136L36.6529 243.715C36.3309 244.874 35.2755 245.676 34.0724 245.676C32.3032 245.676 31.0201 243.991 31.4905 242.286L55.1474 156.509C55.6597 154.651 57.3491 153.363 59.2762 153.362C61.2054 153.361 62.8978 154.649 63.4107 156.508L87.0704 242.282C87.5413 243.989 86.257 245.676 84.4862 245.676Z" fill="white"/>
<path d="M82.4109 243.643C82.672 244.583 83.5277 245.234 84.5031 245.234C85.9374 245.234 86.9777 243.868 86.5963 242.485L62.8993 156.564C62.4496 154.933 60.9651 153.805 59.2735 153.807C57.5863 153.81 56.1079 154.937 55.6593 156.564L31.96 242.485C31.5786 243.868 32.6189 245.234 34.0532 245.234C35.0286 245.234 35.8842 244.583 36.1453 243.644L58.783 162.172C58.8386 161.975 59.0406 161.835 59.2781 161.835C59.5156 161.835 59.7227 161.975 59.7783 162.172L82.4109 243.643ZM88.0062 246.119H82.4485C82.2161 246.119 82.0089 245.979 81.9534 245.781L78.5503 233.533C73.1244 214.005 45.4347 214.006 40.0099 233.534L36.6079 245.781C36.5523 245.979 36.3452 246.119 36.1077 246.119H30.5551C30.3985 246.119 30.2469 246.057 30.1509 245.952C30.0549 245.847 30.0196 245.707 30.0549 245.575L55.5141 153.264C55.5696 153.062 55.7768 152.922 56.0142 152.922L62.542 152.913C62.7794 152.913 62.9866 153.058 63.0422 153.255L88.5013 245.575C88.5367 245.707 88.5013 245.847 88.4053 245.952C88.3093 246.057 88.1628 246.119 88.0062 246.119Z" fill="black"/>
<path d="M84.3686 152.409C84.0857 152.409 83.8533 152.207 83.8533 151.962V147.593C83.8533 147.348 84.0857 147.15 84.3686 147.15C84.6465 147.15 84.8789 147.348 84.8789 147.593V151.962C84.8789 152.207 84.6465 152.409 84.3686 152.409Z" fill="#CADDFF"/>
<path d="M81.4339 227.25C79.0886 227.408 77.442 229.628 77.9716 231.918L79.1191 236.88C79.1948 237.196 79.5334 237.41 79.8466 237.34L86.1621 235.947C86.435 235.89 86.5966 235.636 86.536 235.364L85.4187 230.244C85.0156 228.397 83.3205 227.123 81.4339 227.25Z" fill="white"/>
<path d="M81.4505 227.692C79.417 227.83 77.9901 229.755 78.4497 231.741L79.6195 236.793C79.628 236.827 79.6446 236.853 79.6624 236.872C79.6968 236.909 79.7505 236.906 79.7998 236.895L85.9664 235.534C85.9755 235.532 86.038 235.457 86.036 235.448L84.9077 230.287C84.5574 228.685 83.0867 227.581 81.4505 227.692ZM79.7256 237.797C79.5285 237.797 79.3315 237.749 79.1547 237.652C78.8768 237.503 78.6848 237.254 78.6191 236.969L76.4567 227.639C76.4264 227.512 76.4617 227.385 76.5527 227.284C76.6386 227.184 76.775 227.118 76.9215 227.109L84.6769 226.583C84.9397 226.57 85.1721 226.724 85.2226 226.943L87.0415 235.286C87.1476 235.79 86.8293 236.259 86.2887 236.377L79.9731 237.771C79.8923 237.788 79.8064 237.797 79.7256 237.797Z" fill="black"/>
<path d="M59.3375 221.123C57.7881 220.23 55.8133 220.668 54.7864 222.132L53.6113 223.807C52.398 225.537 53.049 227.944 54.9689 228.826C56.377 229.473 58.0447 229.081 59.0173 227.875L60.3016 226.282C61.6324 224.631 61.1747 222.182 59.3375 221.123Z" fill="white"/>
<path d="M53.9929 224.117C52.9545 225.597 53.5109 227.655 55.1531 228.411C56.3577 228.964 57.7846 228.629 58.6164 227.597L59.9392 225.955C61.081 224.538 60.6881 222.436 59.1115 221.527C57.7815 220.76 56.0862 221.135 55.2042 222.392L53.9929 224.117ZM57.3634 230.369C57.2775 230.369 57.1967 230.352 57.1209 230.316L51.0429 227.525C50.9166 227.468 50.8256 227.367 50.7852 227.249C50.7498 227.131 50.77 227.004 50.8458 226.903L56.166 219.318C56.2367 219.212 56.353 219.138 56.4894 219.112C56.6258 219.085 56.7673 219.112 56.8835 219.177L63.1181 222.771C63.2343 222.836 63.3101 222.937 63.3354 223.055C63.3607 223.174 63.3303 223.296 63.2546 223.393L57.7828 230.181C57.6817 230.303 57.5251 230.369 57.3634 230.369Z" fill="black"/>
<path d="M76.8707 232.779C76.4362 234.124 75.5268 237.906 75.1478 240.18C74.9104 241.605 75.9461 242.959 77.5376 243.331C82.0393 244.387 92.7959 244.339 101.754 244.685C102.365 244.707 103.497 244.444 103.997 243.16C105.705 238.787 96.2872 237.433 86.9857 232.99C86.8038 232.902 86.5815 232.911 86.4097 233.016C86.3036 233.082 86.1672 233.16 86.0055 233.252C84.3887 234.142 81.6958 234.146 80.0537 233.288L78.1995 232.319C77.6892 232.052 77.0324 232.284 76.8707 232.779Z" fill="#6C93EC"/>
<path d="M77.3607 232.902C76.9262 234.26 76.0168 238.064 75.653 240.242C75.4509 241.443 76.3199 242.586 77.674 242.902C80.9631 243.673 87.9304 243.853 94.6653 244.028C97.0298 244.089 99.4752 244.151 101.774 244.238C101.981 244.247 103.042 244.225 103.512 243.016C104.502 240.483 101.087 239.059 94.9634 236.758C92.5803 235.859 89.8949 234.851 87.2057 233.6C86.9089 233.462 86.5699 233.467 86.2833 233.625C84.52 234.598 81.6098 234.615 79.7909 233.669L77.9367 232.7C77.7902 232.626 77.6588 232.652 77.5931 232.674C77.482 232.714 77.3961 232.797 77.3607 232.902ZM101.83 245.128C101.794 245.128 101.764 245.128 101.729 245.128C99.4398 245.04 96.9995 244.974 94.6349 244.913C87.5262 244.733 80.8115 244.558 77.4062 243.756C75.552 243.322 74.3646 241.758 74.6425 240.115C75.0215 237.849 75.9258 234.059 76.3755 232.661C76.4968 232.288 76.805 231.995 77.2142 231.85C77.6285 231.71 78.0832 231.741 78.4622 231.938L80.3164 232.906C81.8119 233.686 84.2876 233.673 85.7326 232.876C85.8842 232.792 86.0105 232.718 86.1115 232.652C86.445 232.451 86.8744 232.429 87.2332 232.6C90.0322 233.936 92.8717 235.001 95.3726 235.943C101.208 238.134 105.821 239.869 104.482 243.3C103.957 244.655 102.749 245.128 101.83 245.128Z" fill="black"/>
<path d="M74.8752 241.21C74.8619 241.262 74.8549 241.316 74.8485 241.369C74.6815 242.746 76.212 243.605 77.6793 244.203C82.1102 246.004 100.016 244.97 100.708 244.93C100.718 244.93 100.728 244.93 100.744 244.93C100.966 244.935 103.239 244.935 103.896 243.708C103.977 243.554 104.028 243.34 104.058 243.138C104.108 242.814 104.083 242.481 103.997 242.156C103.932 241.893 103.634 241.731 103.33 241.797C100.011 242.533 92.2151 243.015 84.495 242.038C81.6505 241.674 77.1033 240.57 75.9059 239.948C75.5825 239.781 75.1632 239.943 75.0874 240.268C75.0267 240.539 74.951 240.872 74.8752 241.21Z" fill="white"/>
<path d="M75.6816 240.349C75.6554 240.336 75.6086 240.326 75.594 240.351C75.5892 240.36 75.5915 240.361 75.5894 240.37L75.3804 241.294L75.3652 241.355C75.2137 242.271 75.9917 243.024 77.8965 243.8C81.3422 245.202 94.3017 244.865 100.673 244.488C100.703 244.488 100.723 244.488 100.749 244.488C100.84 244.492 102.906 244.506 103.431 243.52C103.457 243.471 103.507 243.344 103.548 243.081C103.593 242.82 103.573 242.546 103.499 242.259C103.498 242.255 103.497 242.25 103.496 242.246C103.491 242.231 103.474 242.229 103.458 242.232C99.7247 243.048 91.8103 243.413 84.4192 242.477C81.5229 242.108 76.9923 241.005 75.6816 240.349ZM89.4362 245.715C84.601 245.715 79.6042 245.474 77.462 244.602C76.0153 244.013 74.1315 243.037 74.3399 241.326C74.3482 241.258 74.3609 241.19 74.375 241.123L74.5872 240.185C74.6528 239.887 74.8852 239.642 75.1985 239.519C75.5117 239.396 75.8755 239.414 76.1686 239.567C77.3205 240.167 81.7919 241.245 84.5707 241.596C92.7253 242.63 100.329 242.003 103.204 241.368C103.482 241.302 103.77 241.342 104.017 241.473C104.26 241.6 104.432 241.815 104.497 242.06C104.599 242.45 104.619 242.832 104.563 243.2C104.518 243.493 104.452 243.721 104.361 243.892C103.573 245.369 101.026 245.378 100.738 245.373C99.7431 245.43 94.6857 245.715 89.4362 245.715Z" fill="black"/>
<path d="M87.6225 236.964C87.471 236.964 87.3194 236.903 87.2183 236.789C87.0466 236.596 87.087 236.316 87.3143 236.167L90.0325 234.374C90.2548 234.225 90.5782 234.265 90.7449 234.458C90.9167 234.655 90.8763 234.931 90.6489 235.08L87.9358 236.872C87.8398 236.933 87.7337 236.964 87.6225 236.964Z" fill="black"/>
<path d="M91.2344 238.248C91.0777 238.248 90.9211 238.187 90.8251 238.068C90.6533 237.875 90.6988 237.595 90.9262 237.45L93.3008 235.904C93.5282 235.755 93.8465 235.794 94.0182 235.991C94.185 236.188 94.1395 236.464 93.9172 236.613L91.5375 238.16C91.4466 238.217 91.3405 238.248 91.2344 238.248Z" fill="black"/>
<path d="M59.3956 229.679C58.3209 228.79 57.0206 228.217 55.6368 228.043C52.6988 227.673 49.8344 229.142 48.4208 231.744L46.637 235.028C46.0308 236.167 46.5107 237.644 47.7435 238.319C49.3451 239.2 51.7349 240.343 54.4834 241.11C59.6672 242.556 64.8409 246.697 69.2971 244.66C73.7534 242.626 73.4553 242.473 73.6776 241.079C73.8999 239.682 69.4841 236.934 66.4981 235.129C64.8483 234.13 61.4344 231.366 59.3956 229.679Z" fill="#6C93EC"/>
<path d="M55.569 228.481C52.8547 228.14 50.2088 229.498 48.9028 231.901L47.1021 235.216C46.5969 236.162 47.0061 237.389 48.0166 237.946C49.5273 238.774 51.907 239.927 54.6403 240.689C56.3127 241.154 57.985 241.894 59.5967 242.608C63.0122 244.125 66.2407 245.557 69.0549 244.269C72.9604 242.481 72.9907 242.28 73.1322 241.298C73.1423 241.21 73.1574 241.114 73.1726 241.018C73.3646 239.821 67.9787 236.561 66.2053 235.492C64.5135 234.465 61.0743 231.679 59.0281 229.985C58.0393 229.167 56.8425 228.641 55.569 228.481ZM66.6802 245.654C64.2146 245.654 61.643 244.515 59.1319 243.401C57.5556 242.7 55.9236 241.977 54.3271 241.53C51.4927 240.742 49.0321 239.55 47.4709 238.695C46.0411 237.911 45.4601 236.18 46.1725 234.843L47.9573 231.56C49.4709 228.775 52.5365 227.203 55.6812 227.598L57.8475 227.87C57.9471 227.882 58.0406 227.924 58.1164 227.99C58.1821 228.043 64.4117 233.323 66.7914 234.76C71.5305 237.626 74.4155 239.694 74.1881 241.136C74.173 241.232 74.1578 241.324 74.1477 241.408C73.9456 242.823 73.6172 243.187 69.5348 245.054C68.6052 245.479 67.6553 245.654 66.6802 245.654Z" fill="black"/>
<path d="M60.0563 234.958C59.8895 234.958 59.7228 234.887 59.6268 234.756C59.4702 234.55 59.5409 234.274 59.7784 234.142L62.9311 232.363C63.1685 232.228 63.4818 232.289 63.6384 232.495C63.79 232.701 63.7243 232.972 63.4868 233.108L60.3341 234.887C60.2482 234.936 60.1523 234.958 60.0563 234.958Z" fill="black"/>
<path d="M62.2997 236.995C62.1329 236.995 61.9662 236.924 61.8702 236.793C61.7136 236.587 61.7843 236.315 62.0167 236.179L65.1745 234.4C65.4069 234.269 65.7252 234.326 65.8818 234.532C66.0334 234.738 65.9677 235.009 65.7303 235.145L62.5775 236.924C62.4917 236.973 62.3957 236.995 62.2997 236.995Z" fill="black"/>
<path d="M67.2232 245.612C70.2608 245.588 68.9179 244.054 66.0081 243.182C62.899 242.247 52.2309 237.471 48.1981 235.648C47.3184 235.25 46.2848 235.607 45.8338 236.46C45.4296 237.231 45.7782 238.152 46.6371 238.568C50.4972 240.457 60.8142 245.268 66.1799 245.584C66.5459 245.605 66.8934 245.614 67.2232 245.612Z" fill="white"/>
<path d="M48.0019 236.058C47.369 235.771 46.6267 236.029 46.3035 236.644C46.0104 237.201 46.263 237.875 46.8845 238.182C50.9567 240.172 60.9959 244.834 66.215 245.141C66.2454 245.143 66.2757 245.144 66.3059 245.146C68.2981 245.253 67.7521 244.172 65.8412 243.598C62.6894 242.654 52.0851 237.905 48.0019 236.058ZM67.1043 246.057C66.8011 246.057 66.4778 246.048 66.1443 246.026C60.718 245.706 50.5172 240.974 46.3843 238.953C45.3031 238.428 44.8585 237.249 45.3688 236.276L46.1721 234.755C46.2277 234.642 46.3388 234.558 46.4702 234.519C46.6066 234.479 46.7531 234.488 46.8744 234.545C47.031 234.615 62.4005 241.626 66.1746 242.761C69.7265 243.826 73.0408 241.784 73.0762 241.762C73.2379 241.657 73.4551 241.648 73.632 241.736C73.8088 241.828 73.9048 241.999 73.8846 242.174C73.8795 242.214 73.2985 246.057 67.1043 246.057Z" fill="black"/>
<path d="M59.1621 167.927C61.3235 167.961 63.4661 168.341 65.482 169.121C72.2526 171.742 88.4628 178.521 95.4027 185.813C102.065 192.811 79.938 214.276 70.1087 223.188C67.2253 225.802 63.7398 226.317 60.241 224.612C59.1753 224.092 58.0691 223.548 57.0416 223.037C54.1253 221.587 53.4446 219.241 54.9663 216.361L62.5671 201.978C66.4827 194.66 74.3139 190.479 71.1158 187.907C68.2106 185.567 52.0581 186.777 43.7721 186.527C41.2611 186.451 39.1822 185.846 37.461 184.896C27.735 179.526 38.2348 167.602 49.3435 167.774L59.1621 167.927Z" fill="#6C93EC"/>
<path d="M82.9487 191.111C85.0252 197.855 87.0058 218.148 87.4605 229.497C87.4656 229.655 74.203 229.765 74.1777 229.559C74.0463 228.564 64.2396 197.829 58.7678 189.7C55.8576 185.384 37.098 186.619 32.9146 185.901C20.2381 183.719 34.7503 168.668 46.9051 172.877L72.8703 181.868C74.1429 182.309 75.4913 182.537 76.7348 183.053C80.0061 184.412 81.9508 187.882 82.9487 191.111Z" fill="#6C93EC"/>
<path d="M71.9749 221.886C71.8586 221.886 71.7475 221.855 71.6515 221.789C71.4342 221.636 71.3989 221.356 71.5757 221.167L82.0645 209.787C82.2363 209.594 82.5597 209.564 82.782 209.717C83.0043 209.87 83.0396 210.151 82.8628 210.344L72.374 221.719C72.2729 221.829 72.1214 221.886 71.9749 221.886Z" fill="#CADDFF"/>
<path d="M19.1211 133.452C19.1215 133.437 19.1215 133.434 19.122 133.42C19.1377 132.96 19.7319 117.776 30.1562 114.793C31.0505 114.535 31.9953 114.408 32.9401 114.377L42.2769 114.07C45.0507 114.053 47.3445 114.631 50.3103 115.573C52.786 116.362 55.5496 117.826 57.1563 119.097C64.26 124.692 64.3307 143.474 70.4745 143.031C72.5359 142.882 75.9867 139.894 79.4021 136.239C80.8938 134.645 82.9717 132.852 84.5545 131.551C85.9573 130.398 87.8863 130.171 89.5498 130.899C92.4143 132.153 93.4152 135.691 91.8818 138.417C91.1751 139.673 90.5151 140.949 89.9111 142.247C86.91 148.706 81.9839 154.131 75.8098 158.763C73.7535 160.305 70.8534 160.621 68.4282 159.573C67.7027 159.26 66.911 158.911 66.079 158.534C60.3276 155.931 53.4979 159.779 58.1011 164.1C59.0964 165.033 60.1777 165.892 61.3144 166.593C62.431 167.281 62.6988 168.644 61.9308 169.634C60.693 171.23 58.2224 173.066 53.5034 172.636C47.3041 172.071 29.656 172.132 21.8652 172.189C19.7987 172.207 18.1264 170.721 18.1769 168.911L19.1211 133.452Z" fill="white"/>
<path d="M31.1868 171.711C39.3515 171.711 49.2391 171.803 53.5589 172.193C58.0101 172.601 60.3392 170.892 61.5063 169.384C62.1227 168.591 61.9055 167.5 61.0163 166.952C59.9148 166.273 58.8084 165.414 57.7271 164.398C54.3016 161.19 53.0385 156.598 54.438 152.417C54.4835 152.273 54.6098 152.159 54.7765 152.115C54.9382 152.071 55.115 152.102 55.2515 152.194C58.8134 154.713 64.5075 157.382 68.6555 159.174C70.8988 160.147 73.5766 159.854 75.4763 158.429C81.9636 153.561 86.6573 148.062 89.4361 142.08C90.0508 140.757 90.7356 139.429 91.4981 138.083C92.8842 135.635 91.9738 132.458 89.3973 131.329C87.8775 130.664 86.11 130.879 84.8302 131.935C83.2669 133.225 81.2449 134.975 79.8011 136.519C75.6228 140.989 72.4954 143.329 70.5148 143.474C70.4239 143.482 70.338 143.482 70.2521 143.482C66.8164 143.482 65.2704 138.522 63.4818 132.799C61.9004 127.746 60.1119 122.024 56.8127 119.425C55.1706 118.128 52.4221 116.717 50.1334 115.99C47.0766 115.021 44.9294 114.495 42.2819 114.513L32.9602 114.82C32.0103 114.85 31.1211 114.982 30.3127 115.214C20.1927 118.11 19.637 133.29 19.6319 133.443L18.6871 168.92C18.6669 169.682 18.9953 170.397 19.6067 170.936C20.2079 171.466 20.9961 171.759 21.86 171.746C24.174 171.729 27.5086 171.711 31.1868 171.711ZM54.8675 173.144C54.4178 173.144 53.9479 173.122 53.4477 173.078C47.2383 172.513 29.2972 172.579 21.8701 172.636C20.7333 172.64 19.6723 172.259 18.8791 171.558C18.0707 170.848 17.6362 169.902 17.6665 168.898L18.6113 133.421C18.6315 132.768 19.1924 117.462 29.9944 114.373C30.8887 114.114 31.8739 113.965 32.9198 113.93L42.2566 113.628C45.0557 113.61 47.3899 114.175 50.487 115.157C52.9223 115.933 55.7466 117.383 57.5048 118.768C61.0213 121.542 62.8503 127.4 64.4671 132.567C66.1091 137.825 67.6602 142.79 70.4289 142.588C71.3838 142.518 73.7635 141.567 79.0079 135.958C81.7362 133.036 86.4653 129.42 86.5158 129.385C86.6724 129.263 86.8947 129.241 87.0817 129.32L95.2919 132.913C95.4182 132.97 95.5142 133.071 95.5495 133.185C95.59 133.303 95.5748 133.43 95.499 133.535C93.3972 136.629 91.7249 139.53 90.386 142.413C87.5465 148.526 82.7568 154.139 76.1432 159.1C73.9302 160.756 70.8129 161.098 68.1957 159.967C67.3195 159.588 66.3748 159.171 65.3952 158.723C60.2599 156.378 54.3559 159.937 58.4749 163.797C59.5106 164.77 60.5666 165.585 61.6124 166.229C62.9463 167.053 63.2797 168.692 62.3552 169.88C61.1628 171.418 58.9195 173.144 54.8675 173.144Z" fill="black"/>
<path d="M55.0491 153.066C54.9379 153.066 54.8268 153.036 54.7308 152.97C53.6445 152.229 50.3251 149.561 48.582 147.343C48.4203 147.142 48.4809 146.866 48.7134 146.725C48.9508 146.59 49.2691 146.642 49.4257 146.844C51.1082 148.978 54.3114 151.559 55.3623 152.273C55.5846 152.422 55.6251 152.703 55.4482 152.895C55.3472 153.009 55.2007 153.066 55.0491 153.066Z" fill="black"/>
<path d="M90.2666 130.962C88.8768 130.353 88.1062 128.851 88.4219 127.368L89.1212 124.081C89.1288 124.045 89.1366 124.009 89.1451 123.974C89.2652 123.467 90.2387 119.501 91.4113 118.939C92.3359 118.497 92.9472 120.166 92.7552 122.27C92.7249 122.62 93.2706 122.743 93.4373 122.427C94.0891 121.174 94.7762 119.702 94.8318 118.939C94.948 117.441 95.2865 114.347 96.883 114.645C98.4796 114.947 101.329 119.737 99.1667 123.83C97.7404 126.523 95.0799 129.086 93.4274 130.523C92.5546 131.282 91.3261 131.426 90.2666 130.962Z" fill="white"/>
<path d="M88.9008 127.555C88.6387 128.787 89.2783 130.033 90.4318 130.539C91.3354 130.935 92.3881 130.802 93.1301 130.152C94.7612 128.723 97.3324 126.23 98.6969 123.646C99.9954 121.2 99.384 118.475 98.3837 116.735C97.742 115.622 97.07 115.136 96.777 115.079C96.6456 115.057 96.5446 115.074 96.4385 115.144C96.1252 115.35 95.5594 116.122 95.3421 118.97C95.2916 119.654 94.8065 120.876 93.9022 122.607C93.7253 122.949 93.311 123.12 92.8967 123.028C92.4774 122.936 92.2096 122.607 92.245 122.235C92.4073 120.488 91.9699 119.499 91.7378 119.333C91.714 119.316 91.6849 119.316 91.6589 119.329C91.0122 119.636 90.1027 122.051 89.6329 124.114L88.9008 127.555ZM91.9822 132.155C91.9014 132.155 91.8256 132.142 91.7498 132.112L87.6473 130.315C87.4452 130.223 87.334 130.03 87.3744 129.837L88.6274 123.948C88.8093 123.159 89.7743 119.215 91.1638 118.549C91.5326 118.374 91.9216 118.378 92.2601 118.571C92.3885 118.643 92.5028 118.738 92.6043 118.852C93.072 119.38 94.2699 119.612 94.3215 118.909C94.5135 116.402 94.9884 114.982 95.8221 114.435C96.1656 114.211 96.5698 114.132 96.9942 114.215C97.7521 114.356 98.611 115.149 99.2981 116.341C100.405 118.26 101.072 121.284 99.6316 124.014C97.4439 128.146 92.5279 131.893 92.3157 132.05C92.2248 132.12 92.1035 132.155 91.9822 132.155Z" fill="black"/>
<path d="M45.5762 116.476C45.8339 116.432 45.8996 116.13 45.6672 116.012C44.8891 115.622 43.7927 114.916 43.8584 114.062L43.6917 110.758C43.7018 110.354 44.01 110.004 44.4496 109.89L47.188 109.167C47.6124 109.053 47.8953 108.711 47.8852 108.325L47.8416 106.437C47.8183 105.426 48.301 104.471 49.1281 103.891C49.2342 103.821 49.2544 103.689 49.1736 103.593L47.2536 101.398C45.9566 99.6689 44.4182 98.5524 42.2574 98.5099C38.8306 98.4425 33.8468 98.9036 33.2534 102.077C33.1119 102.826 33.3241 103.589 33.7991 104.224L34.759 105.499C35.724 106.783 36.1889 108.325 35.9312 109.846C35.9099 109.98 35.7931 110.424 35.6363 110.993C34.9867 113.349 33.2761 115.378 30.899 115.946C30.6009 116.02 30.5857 116.384 30.8788 116.476L33.4252 117.006C35.9665 117.523 38.6039 117.58 41.1756 117.173L45.5762 116.476Z" fill="white"/>
<path d="M33.4855 115.603C33.0254 115.768 33.0627 116.473 33.5411 116.573C36.032 117.081 38.5683 117.138 41.0844 116.739L42.2204 116.559C43.1334 116.414 43.2899 114.98 43.3479 114.057L43.1812 110.775C43.1812 110.767 43.1812 110.758 43.1812 110.749C43.1963 110.153 43.646 109.636 44.3028 109.465L47.0412 108.742C47.2433 108.689 47.3797 108.519 47.3747 108.334L47.2888 104.833C47.2888 104.693 47.3595 104.562 47.4808 104.478C48.0831 104.054 48.1858 103.202 47.7014 102.647L46.866 101.69C46.8515 101.673 46.835 101.658 46.8239 101.639C46.5612 101.293 46.3238 100.797 46.0964 100.32C45.9044 99.9298 45.6265 99.3557 45.4547 99.1805C45.4497 99.1761 45.4396 99.1761 45.4295 99.1761C45.3234 99.1629 34.5769 97.7475 33.7584 102.147C33.6422 102.769 33.8089 103.422 34.2283 103.979L35.1882 105.258C36.2593 106.682 36.704 108.334 36.4412 109.912C36.3553 110.398 35.1983 114.373 35.067 114.829C35.0265 114.956 34.9204 115.065 34.779 115.122C34.7334 115.14 34.192 115.351 33.4855 115.603ZM37.7599 117.887C36.2694 117.887 34.779 117.738 33.3037 117.436L30.7573 116.91C30.737 116.906 30.7219 116.901 30.7017 116.893C30.3581 116.787 30.1409 116.503 30.156 116.187C30.1712 115.872 30.4137 115.6 30.7623 115.517C32.9409 115.001 34.5163 113.136 35.1146 110.978C35.2852 110.363 35.4061 109.906 35.4257 109.781C35.6581 108.422 35.264 106.985 34.3293 105.74L33.3694 104.465C32.8085 103.72 32.5913 102.848 32.7479 102.007C33.476 98.0969 39.9311 97.9128 43.4104 98.1051C44.8158 98.1828 46.2935 98.4476 46.9087 99.7135C46.9506 99.7997 46.993 99.888 47.0361 99.978C47.2483 100.412 47.4656 100.863 47.6728 101.144L49.5775 103.326C49.8301 103.611 49.7746 104.014 49.4512 104.237C48.7443 104.733 48.3322 105.549 48.3534 106.412L48.4003 108.317C48.4104 108.895 47.9759 109.421 47.3393 109.592L44.6009 110.311C44.3735 110.372 44.2169 110.547 44.2017 110.758L44.367 114.012C44.368 114.03 44.3726 114.049 44.3722 114.068C44.372 114.084 44.3676 114.101 44.3671 114.117C44.3536 114.573 44.9174 115.123 45.9246 115.631C46.2177 115.775 46.3692 116.056 46.3086 116.345C46.253 116.638 46.0004 116.862 45.6669 116.914L41.2663 117.611C40.0992 117.795 38.927 117.887 37.7599 117.887Z" fill="black"/>
<path d="M46.263 91.1304C43.6459 90.92 46.8542 93.3739 37.2394 90.6089C33.4147 89.509 35.2134 93.4966 34.2181 93.2118C30.55 92.1689 30.6763 92.1996 28.8473 92.5545C27.6398 92.7955 26.786 94.6929 26.9527 96.139C27.175 98.0452 29.4941 101.139 31.5453 104.399C32.6114 106.086 34.6273 106.31 37.1939 103.948C37.4668 103.698 36.2138 102.116 36.9413 101.476C38.8309 99.8199 39.5079 102.449 41.0035 101.704C42.4434 100.981 43.0446 100.503 44.5806 99.3948C46.4399 98.0496 49.34 100.355 50.5323 97.2214C51.1538 95.5825 49.8503 91.4239 46.263 91.1304Z" fill="black"/>
<path d="M36.5728 241.29C36.5728 243.557 38.4107 245.395 40.6778 245.395C42.945 245.395 44.7829 243.557 44.7829 241.29V191.412C44.7829 189.145 42.945 187.307 40.6778 187.307C38.4107 187.307 36.5728 189.145 36.5728 191.412V241.29Z" fill="#99B9FF"/>
<path d="M18.6466 237.306H62.7087C66.498 237.306 69.5699 239.971 69.5699 243.257C69.5699 244.966 68.1848 246.351 66.4762 246.351H14.8791C13.1705 246.351 11.7854 244.966 11.7854 243.257C11.7854 239.971 14.8573 237.306 18.6466 237.306Z" fill="#99B9FF"/>
<path d="M36.9163 225.383C36.6334 225.383 36.406 225.181 36.406 224.936V197.391C36.406 197.145 36.6334 196.948 36.9163 196.948C37.1992 196.948 37.4266 197.145 37.4266 197.391V224.936C37.4266 225.181 37.1992 225.383 36.9163 225.383Z" fill="black"/>
<path d="M16.171 134.543H20.2989C31.3081 134.543 40.8369 141.252 43.1863 150.673L47.9962 169.906C49.1179 174.406 53.6701 177.614 58.9347 177.614H67.6148C72.1518 177.614 75.83 180.835 75.83 184.805C75.83 188.779 72.1518 192 67.6148 192H53.5296C53.5216 192 53.516 192.008 53.5185 192.015C53.521 192.023 53.5154 192.031 53.5074 192.031H28.7162C20.0361 192.031 12.5282 186.742 10.669 179.314L3.0499 148.811C1.21588 141.48 7.59708 134.543 16.171 134.543Z" fill="#99B9FF"/>
<path d="M53.5236 192.478H28.7162C19.8644 192.478 12.0635 186.978 10.1688 179.411L2.54976 148.907C2.48914 148.666 2.66597 148.43 2.9388 148.377C3.21668 148.325 3.48951 148.478 3.55014 148.719L11.1692 179.222C12.9628 186.387 20.3393 191.588 28.7162 191.588H53.5236C53.8065 191.588 54.0339 191.786 54.0339 192.031C54.0339 192.276 53.8065 192.478 53.5236 192.478Z" fill="black"/>
<path d="M53.5236 192.478H28.7162C19.8644 192.478 12.0635 186.978 10.1688 179.411L2.54976 148.907C2.48914 148.666 2.66597 148.43 2.9388 148.377C3.21668 148.325 3.48951 148.478 3.55014 148.719L11.1692 179.222C12.9628 186.387 20.3393 191.588 28.7162 191.588H53.5236C53.8065 191.588 54.0339 191.786 54.0339 192.031C54.0339 192.276 53.8065 192.478 53.5236 192.478Z" fill="black"/>
<path d="M130.937 182.898C133.518 193.157 123.277 221.215 121.135 228.051C120.852 228.949 119.907 229.571 118.831 229.571H109.292C107.963 229.571 106.892 228.642 106.902 227.499C106.993 219.383 108.691 189.804 102.86 181.29C99.4854 176.36 93.3012 174.134 89.1633 171.79C79.828 166.492 91.7894 158.23 101.333 163.143L117.354 171.39C119.411 172.449 121.717 172.99 123.788 174.022C127.377 175.809 130.075 179.471 130.937 182.898Z" fill="white"/>
<path d="M100.625 163.293C91.87 158.785 80.8812 166.559 89.4462 171.418C90.3405 171.93 91.3359 172.43 92.3868 172.964C96.2367 174.91 100.597 177.119 103.3 181.062C108.458 188.591 107.817 212.1 107.509 223.397C107.468 225.04 107.428 226.46 107.418 227.503C107.413 227.932 107.6 228.336 107.953 228.642C108.307 228.953 108.782 229.124 109.292 229.124H118.831C119.675 229.124 120.418 228.638 120.64 227.937C120.918 227.047 121.322 225.838 121.832 224.3C125.071 214.58 132.655 191.816 130.437 182.995C129.381 178.797 125.334 174.069 120.387 173.429C120.324 173.42 120.262 173.402 120.204 173.374L120.2 173.372L100.625 163.293ZM118.831 230.014H109.292C108.509 230.014 107.771 229.747 107.226 229.269C106.68 228.791 106.387 228.16 106.392 227.494C106.402 226.447 106.443 225.023 106.488 223.375C106.791 212.162 107.428 188.827 102.421 181.518C99.8542 177.767 95.6152 175.62 91.8714 173.727C90.8053 173.192 89.805 172.684 88.8854 172.162C78.7705 166.422 82.4436 153.705 82.479 153.578C82.5683 153.282 82.9046 153.139 83.1798 153.281L117.616 171.009C119.617 172.039 121.85 172.581 123.882 173.552C127.76 175.404 130.555 179.313 131.437 182.802C133.71 191.847 126.354 213.932 122.817 224.55C122.307 226.079 121.903 227.288 121.625 228.169C121.287 229.256 120.135 230.014 118.831 230.014Z" fill="black"/>
<path d="M116.669 156.918C116.702 156.918 116.712 156.918 116.745 156.918C117.794 156.929 149.614 157.348 159.76 167.834C169.032 177.417 155.284 219.612 152.409 228.056C152.111 228.932 151.176 229.528 150.115 229.528H137.823C137.565 229.528 137.353 229.349 137.353 229.125V184.42C137.353 181.602 136.716 183.114 133.968 181.589C130.118 179.446 123.125 181.265 113.496 181.326C101.085 181.406 94.5219 177.341 91.1043 172.482C85.5529 164.589 94.8443 156.639 104.493 156.762L116.669 156.918Z" fill="white"/>
<path d="M137.863 216.833C137.863 223.599 143.349 229.085 150.116 229.085C150.944 229.085 151.687 228.612 151.919 227.928C154.759 219.593 168.476 177.53 159.366 168.118C149.317 157.732 117.037 157.364 116.714 157.36H116.709L105.807 157.222C95.7776 157.095 86.0038 165.859 92.5054 173.496C92.7567 173.791 93.0217 174.082 93.3011 174.367C97.6007 178.749 104.406 180.935 113.491 180.883C116.795 180.861 119.801 180.633 122.454 180.427C127.546 180.037 131.573 179.73 134.246 181.211C135.186 181.733 135.853 181.873 136.338 181.974C137.56 182.228 137.863 182.543 137.863 184.419V216.833ZM150.116 229.974H137.823C137.282 229.974 136.843 229.593 136.843 229.124V184.419C136.843 182.99 136.787 182.977 136.1 182.837C135.575 182.727 134.776 182.561 133.695 181.961C131.315 180.642 127.445 180.935 122.544 181.312C119.872 181.514 116.84 181.746 113.501 181.768C104.083 181.834 97.0197 179.529 92.518 174.936C85.2526 167.522 87.2483 156.922 87.3342 156.475C87.3782 156.259 87.5695 156.104 87.7901 156.107L116.724 156.47C118.083 156.484 149.802 156.856 160.155 167.548C164.181 171.711 164.51 182.105 161.145 198.45C158.543 211.088 154.511 223.45 152.899 228.182C152.541 229.234 151.394 229.974 150.116 229.974Z" fill="black"/>
<path d="M112.537 229.63C110.654 229.619 109.078 231.054 108.912 232.929C108.725 235.039 110.382 236.858 112.5 236.868L113.282 236.872C114.989 236.879 116.469 235.694 116.834 234.026C117.326 231.778 115.621 229.647 113.319 229.634L112.537 229.63Z" fill="white"/>
<path d="M109.422 232.968C109.257 234.819 110.71 236.415 112.569 236.424L113.219 236.427C114.716 236.434 116.013 235.394 116.334 233.933C116.766 231.96 115.271 230.091 113.252 230.079L112.602 230.075C110.951 230.066 109.568 231.323 109.422 232.968ZM117.335 234.121C116.926 235.992 115.265 237.323 113.351 237.315L112.43 237.311C110.051 237.301 108.19 235.259 108.4 232.889C108.587 230.784 110.357 229.174 112.471 229.186L113.391 229.192C115.974 229.207 117.887 231.598 117.335 234.121Z" fill="black"/>
<path d="M143.13 229.63C141.102 229.619 139.461 231.278 139.494 233.306C139.525 235.275 141.126 236.857 143.095 236.866L144.435 236.872C146.174 236.879 147.672 235.649 148.003 233.942C148.433 231.717 146.736 229.648 144.47 229.637L143.13 229.63Z" fill="white"/>
<path d="M140.002 233.299C140.029 235.026 141.433 236.414 143.161 236.422L144.37 236.427C145.895 236.434 147.208 235.355 147.498 233.858C147.876 231.907 146.388 230.092 144.401 230.082L143.191 230.076C141.413 230.066 139.974 231.52 140.002 233.299ZM148.504 234.03C148.132 235.943 146.452 237.323 144.502 237.315L143.023 237.309C140.811 237.3 139.013 235.523 138.979 233.311C138.944 231.035 140.785 229.175 143.062 229.187L144.54 229.195C147.085 229.209 148.989 231.532 148.504 234.03Z" fill="black"/>
<path d="M147.317 235.961H139.986C139.47 235.961 139 236.228 138.803 236.644C138.152 238.003 136.828 241.184 137.005 244.203C137.055 245.027 137.848 245.676 138.808 245.676H160.316C161.307 245.676 162.06 244.896 161.863 244.059C161.625 243.06 160.807 241.745 158.447 240.566C154.627 238.651 149.828 236.736 148.317 236.145C148.004 236.022 147.665 235.961 147.317 235.961Z" fill="#6C93EC"/>
<path d="M115.946 235.961H108.615C108.095 235.961 107.63 236.228 107.428 236.644C106.781 238.003 105.458 241.184 105.635 244.203C105.685 245.027 106.478 245.676 107.438 245.676H128.946C129.937 245.676 130.689 244.896 130.492 244.059C130.255 243.06 129.436 241.745 127.077 240.566C123.257 238.651 118.458 236.736 116.947 236.145C116.629 236.022 116.29 235.961 115.946 235.961Z" fill="#6C93EC"/>
<path d="M147.004 144.486C146.956 143.603 147.51 142.797 148.352 142.525L150.803 141.734C152.445 141.199 154.249 141.216 155.871 141.795C157.902 142.514 160.655 143.684 162.54 145.23C163.015 145.62 162.722 146.33 162.085 146.33H148.951C147.916 146.33 147.061 145.521 147.004 144.486Z" fill="white"/>
<path d="M147.514 144.453C147.556 145.257 148.221 145.888 149.027 145.888H162.085C162.16 145.888 162.211 145.853 162.241 145.787C162.256 145.752 162.297 145.643 162.186 145.555C160.352 144.043 157.633 142.9 155.678 142.207C154.178 141.673 152.51 141.651 150.979 142.15L148.561 142.932C147.908 143.143 147.478 143.767 147.514 144.453ZM162.085 146.778H148.875C147.607 146.778 146.56 145.786 146.492 144.521C146.433 143.439 147.11 142.453 148.141 142.12L150.626 141.318C152.394 140.744 154.329 140.77 156.067 141.383C158.103 142.106 160.938 143.307 162.893 144.911C163.267 145.218 163.388 145.691 163.196 146.116C163.009 146.524 162.58 146.778 162.085 146.778Z" fill="black"/>
<path d="M115.385 116.835C121.256 121.217 122.544 132.449 126.293 135.306C129.547 137.781 143.547 141.007 147.215 141.817C147.736 141.936 148.099 142.339 148.094 142.803C148.089 144.506 146.707 145.884 145.004 145.884H125.884C122.787 145.884 119.821 144.797 117.674 142.878C112.643 138.386 103.13 129.942 96.7227 122.287C93.3443 118.25 96.2972 113.101 101.555 112.843C101.734 112.835 101.91 112.82 102.089 112.807C103.429 112.711 109.625 112.538 115.385 116.835Z" fill="#6C93EC"/>
<path d="M109.257 133.604C111.664 136.295 113.565 139.851 112.106 143.154C110.49 146.835 111.263 151.006 114.37 153.894C116.594 155.965 117.797 159.217 114.974 160.342C113.841 160.794 112.375 161.127 110.479 161.199C107.539 161.313 99.7734 161.554 93.9985 161.273C85.9811 160.877 80.4033 153.836 80.5585 145.81L80.8925 128.543C80.8992 128.196 80.8962 127.854 80.9035 127.508C80.9315 126.171 81.1731 122.464 82.9002 119.165C85.9542 113.331 93.7715 116.292 98.1615 121.2L109.257 133.604Z" fill="#6C93EC"/>
<path d="M113.496 140.244C113.359 140.244 113.223 140.2 113.122 140.104C110.166 137.343 107.872 134.162 106.311 130.648C106.21 130.42 106.341 130.161 106.604 130.074C106.867 129.986 107.165 130.1 107.266 130.328C108.782 133.737 111.005 136.822 113.87 139.504C114.062 139.679 114.051 139.959 113.844 140.126C113.743 140.209 113.622 140.244 113.496 140.244Z" fill="#CADDFF"/>
<path d="M102.841 96.2032C106.021 96.2721 108.331 99.0762 110.626 101.279C110.767 101.415 110.798 101.612 110.692 101.77L109.929 102.865C109.868 102.962 109.812 103.063 109.772 103.168L108.509 106.384C108.398 106.678 108.09 106.888 107.731 106.91C106.943 106.967 104.947 106.704 104.78 107.16C104.598 107.668 104.74 111.796 104.811 113.593C104.831 114.07 104.442 114.482 103.901 114.57L99.6369 115.253C97.717 115.56 95.7415 115.354 93.9681 114.679C93.3921 114.46 93.1344 113.873 93.4022 113.378C94.1556 111.983 95.5996 109.092 96.0892 106.631C96.3513 105.313 95.971 103.988 95.458 102.746C94.7154 100.949 94.1245 98.7503 95.5394 97.4166C96.4093 96.5966 97.6709 96.0928 99.0609 96.1214L102.841 96.2032Z" fill="white"/>
<path d="M96.1001 97.5546C94.6867 98.724 95.2066 100.832 95.9001 102.53L96.0039 102.784C96.4901 103.975 96.8567 105.242 96.6322 106.508C96.1981 108.956 94.7973 111.84 93.867 113.566C93.7962 113.698 93.7912 113.843 93.8468 113.974C93.9074 114.11 94.0186 114.215 94.1752 114.272C95.8677 114.921 97.727 115.109 99.5459 114.815L103.81 114.132C104.103 114.088 104.31 113.864 104.3 113.606C104.144 109.662 104.144 107.449 104.295 107.028C104.523 106.384 105.629 106.419 106.801 106.459C107.155 106.472 107.483 106.485 107.69 106.468C107.842 106.459 107.973 106.367 108.024 106.24L109.287 103.028C109.337 102.892 109.408 102.765 109.494 102.642C109.92 102.022 109.822 101.191 109.404 100.566C109.126 100.151 108.896 99.7128 108.706 99.2831C108.081 97.8706 106.824 96.7331 105.28 96.6995L99.0508 96.5642C97.9392 96.5467 96.8934 96.8929 96.1001 97.5546ZM97.8685 115.836C96.4639 115.836 95.0695 115.582 93.7609 115.083C93.3567 114.929 93.0434 114.644 92.8868 114.285C92.7352 113.926 92.7504 113.54 92.9373 113.194C93.6292 111.908 94.9932 109.198 95.5251 106.851C95.8407 105.458 95.4494 104.044 94.9049 102.723L93.8533 100.173C93.8323 100.122 93.8215 100.068 93.8215 100.013C93.8468 98.8341 94.4025 97.7342 95.3878 96.9148C96.3831 96.0866 97.6866 95.644 99.076 95.6791L108.444 95.881C108.667 95.8858 108.852 96.0539 108.878 96.275C108.883 96.3057 109.297 99.3424 111.005 100.981C111.303 101.266 111.348 101.674 111.131 101.994L110.368 103.098C110.323 103.164 110.282 103.238 110.257 103.313L108.994 106.525C108.812 106.989 108.332 107.313 107.771 107.353C107.509 107.375 107.145 107.362 106.761 107.348C105.846 107.311 105.203 107.97 105.204 108.885C105.204 109.896 105.237 111.421 105.321 113.575C105.351 114.276 104.79 114.881 103.992 115.008L99.7278 115.687C99.1114 115.788 98.4899 115.836 97.8685 115.836Z" fill="black"/>
<path d="M109.232 95.197C109.616 95.6966 109.383 96.3758 108.752 96.6256L108.373 96.779L101.057 99.9033C100.875 99.9822 100.648 99.9691 100.481 99.8683C100.178 99.6755 99.6322 99.4432 99.0916 99.7456C98.3287 100.166 98.1771 102.41 100.127 103.006C100.385 103.085 100.526 103.321 100.425 103.54C100.314 103.773 100.142 104.088 99.9151 104.43C98.1923 106.998 93.928 107.151 91.8767 104.767C90.361 103.01 88.9766 100.122 90.6844 96.1742C93.3571 89.9781 104.291 88.6459 109.232 95.197Z" fill="black"/>
<path d="M91.4703 93.8161C91.438 93.7786 91.4065 93.7439 91.3707 93.7096C90.9442 93.3011 87.8854 90.567 83.5602 91.7484C78.8918 93.0236 78.6543 99.8771 78.1087 104.15C76.2039 119.202 71.9649 124.679 70.6008 126.038C69.08 127.545 81.0189 126.524 85.0406 125.337C96.6308 121.905 90.5275 112.23 89.9819 110.486C89.456 108.805 85.4249 99.6849 89.9401 98.0055C90.2904 97.8752 90.6427 97.7333 90.9433 97.5112L91.0653 97.4211C92.2232 96.566 92.4095 94.9069 91.4703 93.8161Z" fill="black"/>
<path d="M89.9511 98.4575L90.0118 98.475C90.517 98.6372 91.0829 98.4137 91.2698 97.9755L92.6946 94.6407C92.8815 94.2025 92.6188 93.7161 92.1136 93.554L92.0529 93.5365C91.5477 93.3743 90.9818 93.5978 90.7949 94.036L89.3701 97.3751C89.1832 97.8133 89.4459 98.2997 89.9511 98.4575Z" fill="#6C93EC"/>
<path d="M102.911 241.293C102.911 243.559 104.748 245.395 107.013 245.395C109.279 245.395 111.116 243.559 111.116 241.293V191.41C111.116 189.144 109.279 187.307 107.013 187.307C104.748 187.307 102.911 189.144 102.911 191.41V241.293Z" fill="#99B9FF"/>
<path d="M84.9799 237.306H129.047C132.836 237.306 135.908 239.971 135.908 243.257C135.908 244.966 134.523 246.351 132.815 246.351H81.2175C79.5089 246.351 78.1238 244.966 78.1238 243.257C78.1238 239.971 81.1906 237.306 84.9799 237.306Z" fill="#99B9FF"/>
<path d="M103.255 225.383C102.972 225.383 102.739 225.181 102.739 224.936V197.391C102.739 197.145 102.972 196.948 103.255 196.948C103.532 196.948 103.765 197.145 103.765 197.391V224.936C103.765 225.181 103.532 225.383 103.255 225.383Z" fill="black"/>
<path d="M82.5046 134.543H86.6324C97.6467 134.543 107.171 141.252 109.525 150.673L114.33 169.906C115.456 174.406 120.009 177.614 125.268 177.614H133.948C138.49 177.614 142.169 180.835 142.169 184.805C142.169 188.779 138.49 192 133.948 192H119.868C119.859 192 119.853 192.007 119.855 192.015C119.856 192.024 119.85 192.031 119.842 192.031H95.0548C86.3748 192.031 78.8618 186.742 77.0076 179.314L69.3835 148.811C67.5545 141.48 73.9307 134.543 82.5046 134.543Z" fill="#99B9FF"/>
<path d="M119.857 192.478H95.0543C86.1974 192.478 78.3964 186.978 76.5068 179.411L68.8827 148.907C68.8272 148.666 68.9989 148.43 69.2768 148.377C69.5547 148.325 69.8225 148.478 69.8831 148.719L77.5072 179.222C79.2958 186.387 86.6774 191.588 95.0543 191.588H119.857C120.14 191.588 120.372 191.786 120.372 192.031C120.372 192.276 120.14 192.478 119.857 192.478Z" fill="black"/>
<path d="M119.857 192.478H95.0543C86.1974 192.478 78.3964 186.978 76.5068 179.411L68.8827 148.907C68.8272 148.666 68.9989 148.43 69.2768 148.377C69.5547 148.325 69.8225 148.478 69.8831 148.719L77.5072 179.222C79.2958 186.387 86.6774 191.588 95.0543 191.588H119.857C120.14 191.588 120.372 191.786 120.372 192.031C120.372 192.276 120.14 192.478 119.857 192.478Z" fill="black"/>
<path d="M238.95 167.999C240.183 166.569 242.478 166.611 243.661 168.082C244.917 169.643 246.438 171.53 247.555 172.916C248.531 174.126 249.125 175.207 248.339 176.549C247.558 177.882 245.424 177.938 244.297 176.88L239.164 172.064C238.015 170.985 237.92 169.192 238.95 167.999Z" fill="white"/>
<path d="M239.357 168.272C238.473 169.296 238.554 170.834 239.54 171.76L244.686 176.591C245.631 177.478 247.112 177.602 247.794 176.5C248.394 175.53 248.12 174.39 247.405 173.502C246.259 172.081 244.597 170.021 243.244 168.34C242.254 167.11 240.389 167.076 239.357 168.272ZM246.102 179.021C245.96 179.021 245.824 178.969 245.723 178.877L236.729 170.437C236.563 170.279 236.552 170.042 236.699 169.871L240.948 164.942C241.049 164.828 241.211 164.762 241.378 164.766C241.544 164.771 241.696 164.85 241.787 164.972C241.964 165.205 247.44 172.001 249.537 174.6C249.623 174.709 249.653 174.845 249.608 174.977C249.492 175.331 248.41 178.487 246.238 179.004C246.192 179.012 246.147 179.021 246.102 179.021Z" fill="black"/>
<path d="M252.065 175.805C253.342 176.732 253.895 178.362 253.33 179.835C252.348 182.395 250.566 186.352 248.173 188.828C246.477 190.581 244.275 191.262 242.366 191.479C239.828 191.769 236.741 189.055 238.463 187.167C239.126 186.443 240.718 182.24 241.73 178.414C242.06 177.165 242.929 176.114 244.126 175.629C244.93 175.305 245.89 175.502 246.43 176.111C246.627 176.339 247.031 176.3 247.173 176.046C247.98 174.612 249.857 174.203 251.188 175.169L252.065 175.805Z" fill="white"/>
<path d="M238.861 187.443C237.444 189.006 240.067 191.264 242.165 191.044C244.008 190.851 246.153 190.219 247.779 188.538C250.115 186.126 251.877 182.21 252.85 179.68C253.343 178.397 252.867 176.963 251.754 176.156L250.89 175.529C249.809 174.744 248.286 175.078 247.632 176.243C247.486 176.501 247.203 176.672 246.874 176.698C246.541 176.729 246.228 176.611 246.026 176.383C245.626 175.936 244.934 175.791 244.348 176.032C243.295 176.457 242.527 177.376 242.237 178.473C241.243 182.231 239.635 186.602 238.861 187.443ZM240.817 192.018C239.25 192.018 238.119 191.772 238.007 191.75C237.805 191.702 237.654 191.553 237.628 191.374C237.548 190.791 237.189 187.846 238.063 186.891C238.735 186.155 240.791 180.655 241.706 176.326C241.736 176.186 241.842 176.063 241.994 176.002L243.914 175.226C243.939 175.216 243.964 175.206 243.989 175.197C245.389 174.675 247.496 174.461 248.228 173.158C248.299 173.035 248.425 172.947 248.582 172.921C248.734 172.89 248.895 172.925 249.017 173.013L254.524 177.009C254.675 177.119 254.741 177.294 254.69 177.461C254.6 177.772 252.366 185.182 248.562 189.113C246.243 191.514 243.075 192.018 240.817 192.018Z" fill="black"/>
<path d="M244.604 184.75C246.478 182.79 248.707 184.251 246.874 186.249C246.621 186.524 246.355 186.792 246.075 187.05C244.242 188.734 242.885 186.549 244.604 184.75Z" fill="white"/>
<path d="M239.639 190.388C239.382 190.388 239.159 190.221 239.134 189.989C239.104 189.748 239.306 189.529 239.589 189.502C248.239 188.714 250.618 177.938 250.644 177.829C250.694 177.588 250.962 177.426 251.24 177.469C251.518 177.518 251.699 177.746 251.649 177.991C251.548 178.46 249.097 189.529 239.695 190.388C239.675 190.388 239.66 190.388 239.639 190.388Z" fill="black"/>
<path d="M239.639 174.055C238.049 174.091 236.616 175.494 236.348 177.062C236.138 178.286 235.816 179.745 235.339 181.145C234.789 182.764 234.138 184.028 235.511 185.046C236.719 185.942 239.002 185.034 239.629 183.666C240.398 181.988 241.429 179.536 242.133 177.08C242.593 175.479 241.304 174.017 239.639 174.055Z" fill="white"/>
<path d="M235.671 181.712C235.222 182.937 234.954 184.149 236.05 184.857C237.048 185.502 238.569 184.774 239.067 183.695C239.809 182.083 240.837 179.668 241.559 177.238C241.983 175.807 240.842 174.473 239.35 174.507C238.121 174.534 237.114 175.497 236.921 176.712C236.69 178.162 236.296 180.004 235.671 181.712ZM237.937 186.313C235.79 186.313 234.299 184.774 233.779 183.872C233.703 183.749 233.703 183.6 233.774 183.477C235.663 180.16 236.209 174.709 236.168 174.161C236.158 174.038 236.209 173.916 236.3 173.828C236.396 173.741 236.527 173.679 236.664 173.679L242.797 173.539C242.954 173.539 243.09 173.592 243.191 173.684C243.287 173.78 243.338 173.907 243.318 174.034C242.625 179.161 239.2 185.721 239.058 185.997C238.988 186.128 238.851 186.225 238.685 186.251C238.427 186.295 238.179 186.313 237.937 186.313Z" fill="black"/>
<path d="M236.623 185.527C238.475 184.183 241.06 185.364 241.045 187.653C241.037 188.778 240.976 189.893 240.817 190.768C240.69 191.487 240.089 192.07 239.291 192.289C236.745 192.973 229.125 195.063 221.885 194.861C220.223 194.813 219.339 193.845 219.127 193.301C218.531 191.789 219.354 189.743 221.926 187.727C224.846 185.431 230.778 182.228 233.218 180.94C233.839 180.611 234.648 180.729 235.113 181.216L235.214 181.321C236.295 182.451 236.719 183.95 236.355 185.387C236.32 185.519 236.502 185.615 236.623 185.527Z" fill="white"/>
<path d="M233.981 181.198C233.814 181.198 233.637 181.238 233.48 181.321C231.075 182.592 225.159 185.786 222.269 188.056C220.031 189.809 219.041 191.715 219.611 193.157C219.743 193.49 220.415 194.375 221.9 194.414C228.933 194.611 236.259 192.64 239.013 191.895L239.139 191.864C239.761 191.693 240.21 191.25 240.311 190.698C240.469 189.836 240.528 188.726 240.534 187.604C240.543 185.758 238.444 184.783 236.951 185.869C236.729 186.027 236.416 186.049 236.163 185.922C235.916 185.79 235.794 185.541 235.855 185.291C236.188 183.981 235.81 182.635 234.819 181.601L234.718 181.5C234.531 181.303 234.258 181.198 233.981 181.198ZM222.896 195.317C222.552 195.317 222.208 195.313 221.865 195.304C219.874 195.247 218.884 194.064 218.641 193.441C217.924 191.627 218.995 189.428 221.582 187.399C224.538 185.076 230.515 181.842 232.95 180.563C233.799 180.116 234.87 180.273 235.506 180.935L235.602 181.036C236.702 182.179 238.954 183.255 240.237 182.324L240.478 182.149C240.625 182.044 240.827 182.018 241.003 182.079C241.18 182.145 241.302 182.289 241.317 182.451C241.337 182.675 241.847 187.955 241.322 190.839C241.16 191.724 240.443 192.442 239.442 192.71L239.316 192.745C236.648 193.463 229.772 195.317 222.896 195.317Z" fill="black"/>
<path d="M231.169 191.283C231.991 191.138 235.414 190.91 234.607 191.125C233.779 191.345 230.325 191.432 231.169 191.283Z" fill="white"/>
<path d="M222.244 193.298C221.966 193.298 221.739 193.105 221.734 192.864C221.729 192.618 221.951 192.417 222.234 192.412C231.192 192.22 237.583 189.731 237.644 189.704C237.901 189.599 238.205 189.7 238.321 189.923C238.442 190.147 238.326 190.41 238.068 190.511C237.805 190.616 231.444 193.105 222.259 193.298C222.254 193.298 222.249 193.298 222.244 193.298Z" fill="black"/>
<path d="M229.879 101.491C226.092 100.965 222.387 102.876 220.821 106.364C217.446 113.882 212.151 127.289 212.124 137.471C212.086 149.915 230.697 166.292 236.948 171.441C238.136 172.42 239.819 172.421 241.049 171.495C242.644 170.295 242.899 167.984 241.688 166.398C238.39 162.08 232.608 153.581 231.399 145.7C230.006 136.654 234.425 123.821 236.15 119.281C236.574 118.166 236.888 117.012 237.043 115.829L237.595 111.616C238.24 106.695 234.795 102.174 229.879 101.491Z" fill="black"/>
<path d="M241.226 100.255C246.863 100.465 251.544 104.552 251.933 110.179C252.809 122.846 252.74 146.989 244.076 175.888C243.919 176.405 243.333 176.738 242.721 176.65L235.537 175.642C234.91 175.555 234.471 175.059 234.537 174.507C235.236 168.713 238.38 138.394 230.328 119.963C229.699 118.524 229.211 117.024 229.014 115.466L228.807 113.832C227.87 106.444 233.784 99.9793 241.226 100.255Z" fill="black"/>
<path d="M234.309 137.944C234.026 137.944 233.799 137.743 233.799 137.502C233.829 132.589 232.232 123.221 229.959 120.337C229.797 120.136 229.858 119.859 230.09 119.719C230.328 119.583 230.646 119.632 230.802 119.833C233.268 122.962 234.854 132.541 234.824 137.506C234.819 137.747 234.592 137.944 234.309 137.944Z" fill="white"/>
<path d="M235.093 166.26C235.082 166.26 235.072 166.26 235.062 166.26C234.779 166.247 234.562 166.036 234.577 165.791C234.875 161.212 234.714 155.428 234.714 155.371C234.703 155.125 234.931 154.924 235.214 154.919C235.502 154.906 235.729 155.103 235.739 155.349C235.739 155.406 235.896 161.225 235.598 165.844C235.583 166.076 235.36 166.26 235.093 166.26Z" fill="white"/>
<path d="M232.581 53.9928C232.414 50.2813 234.041 45.0535 237.896 43.9405C239.892 43.3664 241.842 44.0807 242.681 44.3874C247.152 46.0219 247.157 49.4881 250.694 52.9368C255.878 58.0024 260.773 55.3206 265.129 60.1145C267.761 63.0154 269.711 68.1161 267.064 71.7926C263.764 76.385 255.62 75.5743 255.271 75.5348C250.845 75.0397 248.178 72.8048 243.297 68.5893C237.153 63.2783 232.828 59.5405 232.581 53.9928Z" fill="black"/>
<path d="M221.789 61.3195L234.269 64.0276C234.496 64.0714 234.723 63.9618 234.804 63.769C235.648 61.6963 234.329 59.3739 233.945 58.7735C233.885 58.6771 233.784 58.6114 233.662 58.5807C233.046 58.4405 232.485 58.2477 231.985 58.0154C231.364 57.735 231.111 57.0733 231.394 56.5168C231.849 55.6229 232.344 54.4134 232.627 53.9182C232.692 53.7956 232.692 53.6553 232.606 53.5414C232.394 53.2697 232.061 53.0594 232.101 52.6518C232.116 52.4941 232.238 52.3582 232.414 52.3144C233.981 51.9113 235.193 49.8693 236.239 49.247C236.739 48.9534 237.078 48.8745 237.639 48.6116C237.73 48.5678 237.841 48.5459 237.947 48.5678C240.609 49.0674 236.532 51.9332 240.018 53.6159C240.195 53.6991 240.301 53.87 240.261 54.0409C240.201 54.2884 240.21 54.6219 240.245 54.9306C240.245 54.9364 240.246 54.9422 240.246 54.948C240.286 55.2591 240.711 55.4081 240.988 55.2109C241.519 54.8385 242.06 54.7333 242.378 54.8911C242.827 55.1233 242.797 55.8814 242.635 56.3327C242.322 57.2398 241.231 57.6561 240.609 57.8226C240.377 57.8884 240.241 58.1031 240.311 58.309C240.726 59.5535 241.974 63.4404 242.07 65.2063C242.08 65.386 242.226 65.5394 242.428 65.5788L244.813 66.0302C248.187 66.6739 252.161 68.3787 254.904 70.3429C255.237 70.582 255.566 70.824 255.905 71.0566C257.18 71.933 260.405 74.1817 260.198 74.3648C252.781 80.9027 238.215 76.8143 232.824 74.7372C227.594 72.7259 221.436 61.2494 221.789 61.3195Z" fill="white"/>
<path d="M234.157 64.4618C229.506 63.452 226.021 68.2269 229.347 71.6307C230.565 72.8762 231.826 73.8716 233.031 74.3345C234.572 74.9288 246.067 79.1486 254.651 76.7612C257.445 75.984 257.48 72.6889 255.08 71.0612C252.371 68.9709 248.208 67.1349 244.702 66.4644L242.317 66.0131C241.893 65.9342 241.579 65.6099 241.559 65.2287C241.463 63.4978 240.205 59.589 239.816 58.4322C239.675 57.9896 239.953 57.5383 240.458 57.398C240.983 57.2578 241.898 56.9116 242.15 56.2061C242.302 55.7635 242.221 55.3297 242.115 55.2771C242.054 55.2465 241.741 55.2552 241.312 55.5576C241.034 55.7504 240.66 55.7986 240.326 55.6803C240.003 55.562 239.776 55.299 239.74 54.9967C239.74 54.9845 239.735 54.9724 239.733 54.9602C239.721 54.8498 239.713 54.7456 239.708 54.6472C239.69 54.2607 239.496 53.8838 239.175 53.6672C237.623 52.6183 237.989 51.2408 238.24 50.2992C238.356 49.861 238.477 49.4052 238.341 49.2168C238.139 48.9428 237.705 49.0866 237.39 49.2155C237.353 49.2307 237.316 49.2457 237.28 49.2606C237.012 49.3702 236.8 49.4534 236.527 49.6156C236.189 49.8171 235.779 50.2466 235.35 50.6979C234.672 51.4087 233.917 52.2004 233.005 52.5885C232.778 52.6851 232.662 52.8911 232.834 53.0686C232.899 53.1431 232.97 53.2176 233.031 53.2965C233.213 53.5331 233.238 53.8486 233.086 54.1159C232.95 54.3569 232.743 54.8083 232.526 55.2903C232.318 55.746 232.086 56.2587 231.864 56.6969C231.687 57.0431 231.843 57.4506 232.222 57.6259C232.702 57.845 233.228 58.0203 233.799 58.1561C234.056 58.2175 234.269 58.3621 234.395 58.5593C234.834 59.2516 236.199 61.688 235.284 63.9229C235.117 64.3216 234.632 64.5539 234.157 64.4618ZM248.784 78.3616C241.302 78.3616 233.854 75.6229 232.616 75.1452C229.792 74.0585 226.852 70.4652 224.886 67.6432C223.81 66.0963 221.072 61.7669 221.284 61.1885C221.369 60.9713 221.633 60.8403 221.888 60.8849C221.893 60.8857 221.898 60.8861 221.902 60.8861C221.908 60.8861 221.913 60.8867 221.918 60.8878L231.165 62.8968C232.992 63.2938 234.768 61.6638 234.01 59.9544C233.602 59.0347 232.946 58.9128 232.016 58.5289C231.923 58.4906 231.832 58.451 231.742 58.4103C230.894 58.0203 230.535 57.1088 230.924 56.3376C231.136 55.9169 231.369 55.4086 231.571 54.966C231.761 54.5433 231.931 54.17 232.073 53.8977C232.119 53.81 232.103 53.7065 232.04 53.6295C231.833 53.4104 231.545 53.1036 231.591 52.6129C231.626 52.2754 231.894 51.9818 232.268 51.8898C233.086 51.6795 233.869 50.8557 234.562 50.1326C235.042 49.6287 235.491 49.1554 235.951 48.8838C236.29 48.6822 236.562 48.5726 236.845 48.4543C237.012 48.3886 237.184 48.3185 237.391 48.2221C237.598 48.1213 237.836 48.0906 238.058 48.1344C238.604 48.2352 238.977 48.4368 239.205 48.7435C239.574 49.2475 239.407 49.8522 239.235 50.4963C238.967 51.5174 238.71 52.4814 240.266 53.2307C240.64 53.4104 240.842 53.7785 240.761 54.129C240.678 54.4289 241.064 54.6071 241.357 54.5026C241.827 54.3348 242.283 54.3329 242.635 54.5103C243.368 54.8827 243.333 55.8818 243.125 56.4647C242.585 58.0169 241.259 59.5351 241.711 61.1155C241.871 61.6774 242.027 62.2561 242.162 62.8123C242.493 64.1744 243.542 65.3381 244.919 65.6012C248.587 66.2935 252.932 68.2172 255.736 70.3776C260.673 73.7211 260.703 74.0891 260.718 74.3082C260.728 74.4353 260.662 74.5843 260.561 74.6763C257.414 77.4502 253.094 78.3616 248.784 78.3616Z" fill="black"/>
<path d="M235.83 59.3918C235.234 59.3918 234.536 59.313 233.809 59.0763C233.541 58.9887 233.41 58.7345 233.511 58.5023C233.607 58.2744 233.905 58.1605 234.168 58.2438C235.855 58.7959 237.361 58.292 237.376 58.2876C237.639 58.1956 237.932 58.3051 238.038 58.533C238.144 58.7608 238.018 59.0194 237.76 59.107C237.709 59.1245 236.936 59.3918 235.83 59.3918Z" fill="black"/>
<path d="M176.31 44.9597C177.617 44.5292 178.182 43.0305 177.696 41.744C177.587 41.454 177.501 41.1836 177.46 40.9648C176.974 38.4057 175.939 35.2069 173.786 33.0684C173.018 32.306 172.069 31.7144 170.26 31.561C167.804 31.3551 164.429 29.4752 163.954 31.4471C163.55 33.1517 166.784 32.8888 167.981 34.1201C168.603 34.7643 171.311 37.3891 169.477 38.7125C168.168 39.659 166.602 39.2471 166.203 39.8825C165.98 40.2374 166.087 40.6625 166.39 40.9736C167.204 41.8033 169.356 41.3185 170.175 41.0945C170.392 41.0351 170.605 40.9395 170.829 40.9566C171.37 40.998 171.934 41.5286 172.235 41.942L173.832 44.1555C174.394 44.9352 175.397 45.2606 176.31 44.9597Z" fill="white"/>
<path d="M170.76 40.5095C171.472 40.5095 172.2 41.0617 172.67 41.7058L174.24 43.8886C174.683 44.5039 175.473 44.7611 176.193 44.5242C177.208 44.1903 177.664 43.0357 177.27 42.0425C177.124 41.6729 177.006 41.3201 176.954 41.0398C176.51 38.7042 175.54 35.479 173.402 33.3581C172.781 32.7446 171.967 32.153 170.214 32.004C169.381 31.9339 168.486 31.6929 167.617 31.4607C166.516 31.1671 165.268 30.8297 164.758 31.0926C164.662 31.1408 164.53 31.2416 164.455 31.5352C164.328 32.0829 164.702 32.2889 166.061 32.7095C166.875 32.9593 167.794 33.2442 168.375 33.8357L168.456 33.9234C169.083 34.5631 170.755 36.2634 170.608 37.7357C170.553 38.266 170.285 38.7085 169.805 39.0547C169.002 39.6331 168.118 39.769 167.471 39.8698C167.102 39.9267 166.723 39.9837 166.652 40.0933C166.526 40.3036 166.632 40.5358 166.779 40.6848C167.37 41.2895 169.416 40.8776 170.315 40.5884C170.462 40.5315 170.608 40.5095 170.76 40.5095ZM176.45 45.3882C175.327 45.7578 174.095 45.3573 173.404 44.3986L171.801 42.1747C171.457 41.7015 170.917 41.329 170.694 41.4122C170.325 41.5306 167.213 42.499 166.001 41.2589C165.541 40.79 165.445 40.1677 165.753 39.6726C166.056 39.1862 166.683 39.0898 167.294 38.9977C167.885 38.9057 168.557 38.8006 169.148 38.3711C169.416 38.1827 169.557 37.9461 169.588 37.6612C169.699 36.557 168.178 35.0057 167.678 34.4974L167.592 34.4098C167.193 33.9979 166.445 33.7656 165.718 33.5465C164.561 33.1872 163.126 32.7446 163.454 31.3555C163.57 30.8822 163.833 30.5361 164.237 30.3301C165.137 29.8656 166.491 30.2293 167.921 30.6149C168.739 30.834 169.583 31.0575 170.31 31.1233C172.427 31.2985 173.448 32.0566 174.175 32.7753C176.469 35.0539 177.5 38.45 177.965 40.8952C178.142 41.8417 179.268 43.9231 179.283 43.945C179.405 44.1714 179.292 44.4525 179.048 44.5328L176.45 45.3882Z" fill="black"/>
<path d="M253.575 108.864C253.06 109.034 252.497 108.977 252.02 108.717C250.63 107.96 247.613 106.4 245.778 106.051C244.293 105.771 242.439 106.498 241.484 107.046C240.994 107.335 241.039 107.975 241.575 108.203C242.444 108.576 243.747 108.795 244.389 109.128C245.846 109.885 248.348 115.051 255.073 112.124C255.873 111.776 256.23 110.86 255.967 110.028C255.66 109.054 254.614 108.519 253.644 108.841L253.575 108.864Z" fill="white"/>
<path d="M245.081 106.433C243.974 106.433 242.651 106.906 241.771 107.419C241.66 107.484 241.65 107.581 241.655 107.62C241.66 107.66 241.681 107.752 241.797 107.804C242.181 107.971 242.676 108.107 243.156 108.238C243.727 108.396 244.267 108.545 244.651 108.746C245.035 108.948 245.409 109.325 245.879 109.803C247.507 111.448 249.897 113.863 254.792 111.751C255.399 111.489 255.678 110.799 255.48 110.168C255.251 109.441 254.473 109.042 253.749 109.28L252.947 109.544C252.791 109.597 252.619 109.579 252.483 109.5C252.437 109.474 247.991 106.924 245.672 106.485C245.485 106.45 245.288 106.433 245.081 106.433ZM251.25 113.462C248.148 113.462 246.288 111.573 245.101 110.381C244.722 109.995 244.363 109.632 244.126 109.509C243.843 109.36 243.358 109.229 242.843 109.084C242.332 108.944 241.797 108.795 241.347 108.602C240.928 108.422 240.665 108.08 240.635 107.677C240.604 107.279 240.817 106.906 241.201 106.678C242.373 106.003 244.298 105.315 245.889 105.618C247.219 105.869 249.097 106.707 250.596 107.456C252.035 108.173 253.696 108.347 255.221 107.839C255.357 107.796 255.509 107.804 255.635 107.861C255.767 107.918 255.863 108.019 255.898 108.137L256.914 111.341C256.974 111.529 256.883 111.726 256.696 111.831C254.549 113.015 252.755 113.462 251.25 113.462Z" fill="black"/>
<path d="M175.813 49.6024C174.682 47.3457 175.907 44.7717 178.282 43.9142C179.603 43.4371 181.068 43.5787 182.28 44.2894C186.53 46.7819 196.775 52.685 201.701 54.6017C208.324 57.174 224.194 60.9688 228.736 62.0336C229.438 62.1958 229.928 62.7391 229.954 63.3702C230.05 65.6181 230.924 70.8152 236.936 72.3884C244.959 74.4873 249.921 70.7802 251.821 68.9047C252.376 68.3525 253.316 68.2561 254.003 68.6724C259.025 71.6872 276.977 83.1418 278.573 93.9085C279.914 104.186 265.068 110.276 258.563 112.435C256.91 112.984 255.183 112.039 254.647 110.381C254.155 108.858 254.831 107.195 256.081 106.195C258.131 104.555 260.825 101.676 260.873 97.8454C260.883 97.0288 260.692 96.2212 260.406 95.4564C258.846 91.2902 256.58 90.1074 254.913 89.636C253.953 89.3599 253.063 89.8332 252.927 90.7052C252.154 95.543 252.412 99.0442 252.72 101.02C252.892 102.107 252.048 103.124 250.81 103.343C234.284 106.275 219.162 101.489 212.826 98.7857C210.568 97.8216 209.31 95.6919 209.694 93.536C210.719 87.8525 212.826 81.1217 213.998 77.5986C214.402 76.3672 213.447 75.1096 211.982 74.9606C208.789 74.632 205.444 73.9747 202.059 72.8309C186.684 67.6542 178.966 55.8926 175.813 49.6024Z" fill="white"/>
<path d="M256.289 106.644C255.229 107.47 254.686 108.85 255.098 110.129C255.573 111.601 257.128 112.437 258.593 111.94C265.099 109.738 279.346 103.762 278.068 93.957C276.507 83.4532 259.031 72.2265 253.716 69.0364C253.236 68.7516 252.589 68.8173 252.205 69.1941C250.366 71.0127 245.177 75.0047 236.785 72.8137C230.439 71.1485 229.54 65.6666 229.444 63.388C229.429 62.9454 229.09 62.5729 228.605 62.459C223.922 61.3635 208.123 57.5818 201.494 55.0052C196.479 53.0548 186.204 47.1289 181.959 44.6379C180.912 44.0235 179.647 43.9032 178.505 44.3153C176.382 45.0816 175.294 47.4323 176.313 49.4468C179.468 55.6828 187.151 67.3348 202.247 72.4193C205.354 73.4666 208.648 74.1721 212.043 74.5183C212.887 74.6059 213.645 75.0091 214.115 75.627C214.59 76.2448 214.726 77.0073 214.489 77.7216C213.322 81.2228 211.22 87.9448 210.199 93.6064C209.846 95.5871 210.992 97.5064 213.054 98.3872C217.399 100.245 232.965 106.06 250.704 102.909C251.685 102.734 252.346 101.932 252.215 101.078C251.887 98.9744 251.654 95.4556 252.422 90.6485C252.508 90.092 252.831 89.6407 253.337 89.3646C253.842 89.0929 254.463 89.0359 255.075 89.2156C258.025 90.057 260.061 92.4408 261.294 96.5073L261.309 96.5686C261.942 101.331 258.647 104.807 256.289 106.644ZM255.742 113.755C255.463 113.826 255.178 113.669 255.089 113.396L253.316 107.904C253.249 107.697 253.341 107.472 253.534 107.37C253.598 107.33 259.873 103.93 260.334 98.3731C260.426 97.2649 260.158 96.1572 259.737 95.1277C258.24 91.4633 256.218 90.4756 254.756 90.057C254.433 89.9649 254.125 89.9868 253.882 90.1183C253.64 90.2498 253.478 90.482 253.433 90.7668C252.685 95.4775 252.907 98.9086 253.231 100.959C253.433 102.274 252.417 103.51 250.912 103.777C232.854 106.985 217.02 101.073 212.599 99.1847C210.139 98.133 208.764 95.8368 209.189 93.4705C210.219 87.7608 212.331 80.9993 213.503 77.4762C213.66 77.0117 213.569 76.5165 213.261 76.1177C212.958 75.719 212.468 75.4604 211.922 75.4035C208.446 75.0441 205.066 74.3211 201.878 73.2475C190.631 69.4571 183.522 62.1347 179.541 56.6616C175.231 50.7371 173.549 45.6233 173.529 45.5707C173.461 45.3605 173.572 45.1344 173.78 45.0595L180.177 42.7523C180.338 42.6945 180.515 42.7108 180.663 42.7969C180.809 42.8845 195.719 51.7888 201.913 54.1945C208.471 56.7448 224.204 60.5134 228.868 61.6045C229.792 61.8192 230.434 62.5247 230.469 63.3529C230.555 65.4431 231.369 70.4649 237.083 71.9592C244.904 74.0056 249.724 70.2984 251.437 68.6113C252.16 67.8927 253.392 67.7656 254.297 68.309C259.703 71.5517 277.467 82.9756 279.084 93.8518C279.806 99.4082 275.972 104.614 267.999 108.917C262.052 112.129 255.807 113.737 255.742 113.755Z" fill="black"/>
<path d="M232.146 98.6019C232.081 98.6019 232.015 98.5932 231.949 98.5669C218.662 93.8431 216.716 80.8328 216.696 80.7014C216.661 80.4604 216.863 80.2369 217.141 80.2106C217.424 80.1799 217.676 80.3508 217.712 80.5962C217.732 80.7189 219.616 93.2252 232.338 97.7474C232.601 97.8438 232.727 98.1024 232.616 98.3259C232.535 98.5011 232.343 98.6019 232.146 98.6019Z" fill="black"/>
<path d="M204.9 229.063C205.452 238.766 213.481 246.351 223.2 246.351H250.012C252.659 246.351 254.645 244.243 254.109 241.995L247.415 213.766C246.849 211.396 244.444 209.691 241.65 209.691H223.2C212.667 209.691 204.301 218.547 204.9 229.063Z" fill="#99B9FF"/>
<path d="M205.409 229.037C205.948 238.506 213.784 245.908 223.268 245.908H250.012C251.124 245.908 252.159 245.483 252.857 244.738C253.559 243.989 253.832 243.025 253.609 242.083L246.915 213.858C246.405 211.698 244.187 210.133 241.65 210.133H223.268C212.989 210.133 204.825 218.775 205.409 229.037ZM250.012 246.798H205.884C205.611 246.798 205.384 246.609 205.374 246.373L203.282 209.713C203.277 209.59 203.328 209.472 203.424 209.384C203.52 209.296 203.656 209.244 203.798 209.244H241.65C244.672 209.244 247.309 211.111 247.915 213.678L254.61 241.903C254.898 243.108 254.549 244.344 253.65 245.299C252.756 246.25 251.432 246.798 250.012 246.798Z" fill="black"/>
<path d="M200.23 246.351H208.794C211.447 246.351 213.427 244.243 212.897 241.995L205.52 210.905C205.354 210.199 204.636 209.691 203.802 209.691H201.6C200.685 209.691 199.927 210.296 199.852 211.089L196.835 243.157C196.674 244.879 198.24 246.351 200.23 246.351Z" fill="#6C93EC"/>
<path d="M201.6 210.133C200.958 210.133 200.417 210.567 200.362 211.124L197.345 243.191C197.28 243.901 197.548 244.576 198.103 245.102C198.659 245.623 199.412 245.908 200.23 245.908H208.794C209.906 245.908 210.942 245.483 211.644 244.738C212.341 243.989 212.619 243.025 212.392 242.083L205.02 210.992C204.899 210.497 204.389 210.133 203.802 210.133H201.6ZM208.794 246.798H200.23C199.139 246.798 198.093 246.399 197.35 245.702C196.613 245.005 196.239 244.063 196.325 243.121L199.341 211.049C199.437 210.037 200.427 209.244 201.6 209.244H203.802C204.874 209.244 205.803 209.905 206.02 210.813L213.397 241.903C213.68 243.108 213.331 244.344 212.437 245.299C211.538 246.25 210.214 246.798 208.794 246.798Z" fill="black"/>
<path d="M245.45 224.949H214.378C213.109 224.949 212.018 224.204 211.73 223.134L208.683 211.982C208.618 211.746 208.785 211.505 209.062 211.448C209.335 211.391 209.613 211.54 209.679 211.776L212.725 222.928C212.907 223.595 213.584 224.063 214.378 224.063H245.45C245.728 224.063 245.96 224.261 245.96 224.506C245.96 224.751 245.728 224.949 245.45 224.949Z" fill="black"/>
<path d="M228.754 224.506C226.988 224.506 225.714 226.196 226.2 227.893C226.357 228.463 226.948 228.87 227.625 228.87H234.466C235.214 228.87 235.754 228.252 235.552 227.63C234.956 225.769 233.226 224.506 231.271 224.506H228.754Z" fill="white"/>
<path d="M228.839 224.949C227.359 224.949 226.29 226.365 226.695 227.789C226.802 228.165 227.181 228.424 227.625 228.424H234.466C234.663 228.424 234.84 228.349 234.956 228.214C235.077 228.082 235.113 227.911 235.057 227.749C234.525 226.081 232.974 224.949 231.223 224.949H228.839ZM234.466 229.314H227.625C226.706 229.314 225.912 228.77 225.7 227.995L224.735 224.612C224.7 224.48 224.73 224.34 224.831 224.23C224.927 224.125 225.074 224.064 225.23 224.064H234.552C234.779 224.064 234.981 224.195 235.042 224.388L236.047 227.512C236.184 227.942 236.083 228.398 235.775 228.753C235.461 229.108 234.986 229.314 234.466 229.314Z" fill="black"/>
<path d="M211.829 209.498C211.178 209.498 210.613 209.046 210.47 208.411L209.921 205.966C209.552 203.749 210.901 202.509 212.847 202.509H230.697C232.642 202.509 234.481 204.279 234.809 205.966L235.221 207.789C235.419 208.665 234.754 209.498 233.856 209.498C233.204 209.498 232.639 209.049 232.492 208.414L232.046 206.492C231.793 205.178 230.869 204.516 229.353 204.516H214.322C212.811 204.516 212.634 205.178 212.887 206.492L213.186 207.793C213.387 208.665 212.725 209.498 211.829 209.498Z" fill="white"/>
<path d="M232.997 208.362C233.091 208.768 233.452 209.055 233.868 209.055C234.441 209.055 234.866 208.524 234.74 207.965L234.309 206.049C234.026 204.581 232.419 202.956 230.696 202.956H212.846C212.058 202.956 211.411 203.183 210.977 203.617C210.456 204.139 210.264 204.928 210.426 205.9L210.978 208.364C211.069 208.768 211.428 209.055 211.842 209.055C212.41 209.055 212.831 208.527 212.705 207.973L212.386 206.58C212.24 205.83 212.174 205.081 212.659 204.581C212.998 204.24 213.538 204.069 214.321 204.069H229.352C231.121 204.069 232.257 204.906 232.551 206.417L232.997 208.362ZM235.607 209.945H232.743C232.495 209.945 232.288 209.796 232.237 209.586L231.545 206.58C231.328 205.471 230.636 204.958 229.352 204.958H214.321C213.867 204.958 213.569 205.024 213.442 205.155C213.22 205.383 213.306 205.984 213.392 206.417L214.079 209.415C214.109 209.546 214.074 209.678 213.973 209.783C213.877 209.884 213.73 209.945 213.579 209.945H210.714C210.466 209.945 210.259 209.796 210.214 209.586L209.416 206.049C209.208 204.796 209.481 203.762 210.204 203.039C210.83 202.412 211.77 202.066 212.846 202.066H230.696C232.98 202.066 234.966 204.082 235.314 205.892L236.107 209.415C236.138 209.546 236.097 209.678 236.001 209.783C235.905 209.884 235.759 209.945 235.607 209.945Z" fill="black"/>
<path d="M214.034 201.925H229.125C229.737 201.925 230.313 202.354 230.414 202.88L230.636 204.024C230.737 204.55 230.328 204.979 229.717 204.979H214.625C214.019 204.979 213.443 204.55 213.342 204.024L213.119 202.88C213.013 202.354 213.428 201.925 214.034 201.925Z" fill="#99B9FF"/>
<path d="M214.034 202.368C213.893 202.368 213.781 202.408 213.706 202.487C213.63 202.566 213.6 202.679 213.625 202.807L213.847 203.95C213.903 204.261 214.272 204.533 214.625 204.533H229.717C229.858 204.533 229.974 204.494 230.05 204.419C230.126 204.34 230.156 204.222 230.131 204.099L229.909 202.956C229.848 202.64 229.484 202.368 229.126 202.368H214.034ZM229.717 205.423H214.625C213.766 205.423 212.978 204.84 212.837 204.099L212.614 202.956C212.539 202.57 212.655 202.193 212.923 201.913C213.19 201.641 213.6 201.483 214.034 201.483H229.126C229.99 201.483 230.773 202.066 230.919 202.807L231.142 203.95C231.212 204.331 231.101 204.713 230.828 204.989C230.56 205.265 230.156 205.423 229.717 205.423Z" fill="black"/>
<path d="M208.875 242.336C208.794 242.336 208.703 242.319 208.623 242.275L202.711 239.352C202.55 239.278 202.448 239.129 202.448 238.971V213.831C202.448 213.586 202.681 213.389 202.964 213.389C203.242 213.389 203.474 213.586 203.474 213.831V232.401C203.474 236.266 205.668 239.796 209.133 241.508C209.375 241.626 209.461 241.898 209.32 242.113C209.229 242.253 209.057 242.336 208.875 242.336Z" fill="#99B9FF"/>
<path d="M70.4644 13.0778C70.2977 13.0778 70.1309 13.0033 70.0349 12.8719C69.8834 12.6615 69.9541 12.3898 70.1916 12.2584C70.2674 12.2189 77.5176 8.29265 87.6679 6.11479C97.0603 4.09906 110.934 3.20513 123.702 10.3873C123.939 10.5187 124.005 10.7948 123.853 11.0007C123.702 11.2067 123.383 11.268 123.146 11.1322C110.697 4.12535 97.1311 5.00176 87.9407 6.96928C77.942 9.10771 70.813 12.9683 70.7372 13.0077C70.6564 13.0559 70.5604 13.0778 70.4644 13.0778Z" fill="white"/>
<path d="M78.437 13.42C78.235 13.42 78.043 13.3192 77.9621 13.1483C77.856 12.9205 77.9823 12.6619 78.2451 12.5655C86.8796 9.48496 99.9603 6.52709 113.203 9.94507C113.471 10.0108 113.627 10.2606 113.546 10.4928C113.465 10.7294 113.183 10.8609 112.91 10.7908C99.9553 7.4517 87.1171 10.3614 78.6341 13.3893C78.5684 13.4112 78.5027 13.42 78.437 13.42Z" fill="white"/>
<path d="M268.322 173.797C268.252 173.797 268.176 173.784 268.1 173.754C267.848 173.648 267.741 173.381 267.863 173.162C283.242 145.599 276.629 128.588 276.558 128.422C276.462 128.189 276.603 127.935 276.871 127.852C277.134 127.773 277.427 127.891 277.523 128.124C277.594 128.303 279.286 132.549 279.059 140.306C278.857 147.435 276.906 158.986 268.787 173.548C268.696 173.705 268.514 173.797 268.322 173.797Z" fill="white"/>
</svg>
