<svg width="50" height="50" viewBox="0 0 50 50" fill="none" xmlns="http://www.w3.org/2000/svg">
<path d="M45.8333 17.7083C45.8333 25.1875 39.7708 31.25 32.2917 31.25C31.9375 31.25 31.5625 31.2292 31.2084 31.2084C30.6875 24.6042 25.3958 19.3125 18.7916 18.7916C18.7708 18.4375 18.75 18.0625 18.75 17.7083C18.75 10.2292 24.8125 4.16667 32.2917 4.16667C39.7708 4.16667 45.8333 10.2292 45.8333 17.7083Z" fill="#6C93EC"/>
<path fill-rule="evenodd" clip-rule="evenodd" d="M19.9998 17.6755C26.3259 18.6606 31.3391 23.6739 32.3243 29.9999C39.098 29.9822 44.5831 24.4862 44.5831 17.7083C44.5831 10.9195 39.0802 5.41666 32.2914 5.41666C25.5136 5.41666 20.0175 10.9018 19.9998 17.6755ZM17.4998 17.7083C17.4998 9.5388 24.1219 2.91666 32.2914 2.91666C40.4609 2.91666 47.0831 9.5388 47.0831 17.7083C47.0831 25.8778 40.4609 32.5 32.2914 32.5C31.8955 32.5 31.4859 32.4768 31.1347 32.4562C30.5116 32.4195 30.0111 31.9289 29.962 31.3066C29.4895 25.3153 24.6845 20.5103 18.6931 20.0378C18.0709 19.9887 17.5802 19.4881 17.5436 18.865C17.5229 18.5139 17.4998 18.1042 17.4998 17.7083Z" fill="#1E1E1E"/>
<path d="M31.2501 32.2917C31.2501 39.7708 25.1876 45.8333 17.7084 45.8333C10.2292 45.8333 4.16675 39.7708 4.16675 32.2917C4.16675 24.8125 10.2292 18.75 17.7084 18.75C18.0626 18.75 18.4376 18.7708 18.7917 18.7916C25.3959 19.3125 30.6876 24.6042 31.2084 31.2084C31.2293 31.5625 31.2501 31.9375 31.2501 32.2917Z" fill="#E69FBD"/>
<path fill-rule="evenodd" clip-rule="evenodd" d="M17.7082 20C10.9194 20 5.4165 25.5028 5.4165 32.2917C5.4165 39.0805 10.9194 44.5833 17.7082 44.5833C24.497 44.5833 29.9998 39.0805 29.9998 32.2917C29.9998 31.9829 29.9818 31.647 29.9611 31.2944C29.4834 25.3128 24.687 20.5164 18.7054 20.0387C18.3528 20.018 18.0169 20 17.7082 20ZM2.9165 32.2917C2.9165 24.1221 9.53865 17.5 17.7082 17.5C18.1041 17.5 18.5137 17.5231 18.8649 17.5438L18.8898 17.5452L18.8898 17.5455C26.1067 18.1147 31.8852 23.8931 32.4543 31.1101L32.4563 31.1349L32.456 31.1349C32.4767 31.4861 32.4998 31.8957 32.4998 32.2917C32.4998 40.4612 25.8777 47.0833 17.7082 47.0833C9.53865 47.0833 2.9165 40.4612 2.9165 32.2917Z" fill="#1E1E1E"/>
<path fill-rule="evenodd" clip-rule="evenodd" d="M2.9165 6.24999C2.9165 4.4138 4.41365 2.91666 6.24984 2.91666H11.6457C14.6334 2.91666 16.0678 6.52078 14.0157 8.60592L14.0087 8.61305L14.0087 8.61302L8.61287 14.0088C6.50883 16.1129 2.9165 14.6078 2.9165 11.6458V6.24999ZM6.24984 5.41666C5.79436 5.41666 5.4165 5.79451 5.4165 6.24999V11.6458C5.4165 12.3921 6.32414 12.762 6.8451 12.2411L12.2367 6.84951C12.7638 6.30936 12.365 5.41666 11.6457 5.41666H6.24984Z" fill="#1E1E1E"/>
<path fill-rule="evenodd" clip-rule="evenodd" d="M41.3872 35.9911C43.4912 33.8871 47.0836 35.3921 47.0836 38.3542V43.75C47.0836 45.5862 45.5864 47.0833 43.7502 47.0833H38.3544C35.3667 47.0833 33.9323 43.4792 35.9843 41.3941L35.9913 41.3869L35.9914 41.387L41.3872 35.9911ZM44.5836 38.3542C44.5836 37.6079 43.6759 37.2379 43.155 37.7589L37.7634 43.1505C37.2363 43.6906 37.635 44.5833 38.3544 44.5833H43.7502C44.2057 44.5833 44.5836 44.2055 44.5836 43.75V38.3542Z" fill="#1E1E1E"/>
</svg>
