<svg width="258" height="232" viewBox="0 0 258 232" fill="none" xmlns="http://www.w3.org/2000/svg">
<path d="M127.282 2.5589C110.016 5.14259 45.0074 14.8818 15.4959 67.8453C-12.9847 118.964 2.55288 190.672 50.9336 218.904C128.582 264.211 252.679 175.277 246.927 138.881C244.775 125.255 225.04 122.922 221.713 104.313C216.464 74.8889 261.922 59.0061 257.718 37.1231C252.868 11.8638 184.826 -6.06088 127.282 2.5589Z" fill="#CADDFF"/>
<path d="M243.759 160.594H38.4636C35.0224 160.594 32.3979 157.804 32.9507 154.732L32.9408 24.9343C33.379 22.4895 35.7146 20.6894 38.4536 20.6894H243.754C247.191 20.6894 249.183 22.8253 249.267 26.5508L249.272 156.349C249.128 159.08 246.498 160.594 243.759 160.594Z" fill="#6C93EC"/>
<path d="M238.395 160.751H33.0992C29.658 160.751 27.0385 157.952 27.5863 154.872L27.5813 25.2034C28.0196 22.7451 30.3552 20.9405 33.0942 20.9405H238.39C241.831 20.9405 243.823 23.0854 243.903 26.8244L243.908 156.493C243.763 159.233 241.139 160.751 238.395 160.751Z" fill="white"/>
<path d="M238.397 160.858H233.865C233.606 160.858 233.397 160.675 233.397 160.442C233.397 160.214 233.606 160.026 233.865 160.026H238.397C240.733 160.026 243.307 158.821 243.447 156.175L243.442 26.8108C243.367 23.3002 241.569 21.3614 238.392 21.3614H33.0962C30.5813 21.3614 28.4648 22.9823 28.0465 25.2257L28.0515 112.937C28.0515 113.165 27.8423 113.353 27.5883 113.353C27.3294 113.353 27.1202 113.165 27.1202 112.937L27.1152 25.1944C27.1152 25.172 27.1202 25.1496 27.1202 25.1272C27.5983 22.4584 30.1132 20.524 33.0962 20.524H238.392C242.107 20.524 244.283 22.8122 244.368 26.8064L244.378 156.193C244.214 159.264 241.245 160.858 238.397 160.858Z" fill="black"/>
<path d="M55.5005 69.2511C55.3909 65.8972 52.2884 63.3135 48.6081 63.5643C45.0176 63.8105 42.2985 66.6181 42.4578 69.9048C42.5375 71.4945 43.2696 72.9005 44.4299 73.908C45.3213 74.6827 45.8492 75.7439 45.8841 76.8768L45.909 77.5529C45.9239 78.1082 46.4319 78.538 47.0394 78.5112L51.4716 78.3186C52.0792 78.2962 52.5573 77.8216 52.5374 77.2663L52.5174 76.5947C52.4826 75.4797 52.9059 74.3737 53.7425 73.5453C54.8829 72.4124 55.5503 70.8944 55.5005 69.2511Z" fill="white"/>
<path d="M49.1018 63.9671C48.9524 63.9671 48.798 63.9716 48.6437 63.9806C45.2871 64.2089 42.7772 66.8061 42.9266 69.8868C42.9963 71.3242 43.6437 72.6451 44.7543 73.6079C45.7453 74.4676 46.313 75.6229 46.3529 76.8677L46.3728 77.5394C46.3778 77.7006 46.4525 77.8439 46.577 77.9513C46.6965 78.0498 46.8509 78.0991 47.0152 78.0946L51.4524 77.9021C51.806 77.8886 52.0848 77.6065 52.0749 77.2797L52.055 76.608C52.0151 75.3676 52.5032 74.1497 53.3996 73.2631C54.5001 72.1705 55.0828 70.751 55.033 69.2644C54.9832 67.7285 54.2711 66.3269 53.031 65.3239C51.9404 64.4418 50.561 63.9671 49.1018 63.9671ZM46.9853 78.9275C46.5969 78.9275 46.2333 78.8021 45.9445 78.5648C45.6357 78.3051 45.4565 77.9469 45.4415 77.5618L45.4216 76.8901C45.3867 75.8647 44.9236 74.9154 44.1069 74.2079C42.827 73.0974 42.075 71.5749 41.9954 69.9271C41.826 66.3896 44.7144 63.4119 48.5739 63.1477C50.4514 63.0223 52.2542 63.5731 53.6535 64.7015C55.0878 65.8613 55.9095 67.4733 55.9643 69.2375C56.0191 70.9436 55.3517 72.5735 54.0868 73.8228C53.3547 74.5527 52.9514 75.5557 52.9812 76.5811L53.0061 77.2528C53.031 78.0364 52.3538 78.6991 51.4922 78.7394L47.06 78.9275C47.0351 78.9275 47.0102 78.9275 46.9853 78.9275Z" fill="black"/>
<path d="M49.3949 82.4923C47.881 82.555 46.6161 81.4848 46.5713 80.1011L46.5215 78.4712L51.9995 78.2339L52.0493 79.8638C52.0941 81.2519 50.9039 82.4296 49.3949 82.4923Z" fill="white"/>
<path d="M46.9991 78.8691L47.039 80.0871C47.0539 80.6557 47.3129 81.1752 47.7661 81.5513C48.2043 81.914 48.772 82.0976 49.3696 82.0752C50.6296 82.0215 51.6206 81.0319 51.5857 79.8766L51.5459 78.6721L46.9991 78.8691ZM49.2601 82.9126C48.4682 82.9126 47.7212 82.6484 47.1336 82.1648C46.4961 81.6319 46.1326 80.902 46.1077 80.1095L46.043 78.072L52.4473 77.7944L52.517 79.8497C52.5668 81.4617 51.1774 82.832 49.4144 82.9081C49.3646 82.9126 49.3099 82.9126 49.2601 82.9126Z" fill="black"/>
<path d="M48.7525 59.6551C48.5085 59.6551 48.2994 59.4805 48.2894 59.2566L48.0902 55.24C48.0802 55.0116 48.2794 54.8146 48.5334 54.8056C48.7874 54.7922 49.0065 54.9758 49.0165 55.2042L49.2207 59.2208C49.2306 59.4491 49.0314 59.6462 48.7774 59.6551C48.7675 59.6551 48.7625 59.6551 48.7525 59.6551Z" fill="black"/>
<path d="M37.7196 71.6828L35.2893 71.6784C35.0353 71.6784 34.8262 71.4948 34.8262 71.2619C34.8262 71.0291 35.0353 70.8455 35.2893 70.8455H37.7196C37.9785 70.8455 38.1877 71.0336 38.1877 71.2664C38.1877 71.4948 37.9785 71.6828 37.7196 71.6828Z" fill="black"/>
<path d="M39.9671 63.8019C39.8526 63.8019 39.738 63.7661 39.6484 63.69L36.9044 61.3839C36.7202 61.2272 36.7102 60.963 36.8845 60.7928C37.0588 60.6272 37.3526 60.6182 37.5419 60.7749L40.2809 63.081C40.4701 63.2377 40.4801 63.5019 40.3058 63.6676C40.2111 63.7572 40.0866 63.8019 39.9671 63.8019Z" fill="black"/>
<path d="M60.3392 71.6828C60.0803 71.6828 59.8761 71.4948 59.8711 71.2664C59.8711 71.0336 60.0803 70.8455 60.3392 70.8455H62.7695C63.0234 70.8455 63.2326 71.0291 63.2326 71.2619C63.2326 71.4948 63.0234 71.6784 62.7695 71.6784L60.3392 71.6828Z" fill="black"/>
<path d="M58.0987 63.8019C57.9742 63.8019 57.8497 63.7572 57.7551 63.6676C57.5808 63.5019 57.5907 63.2377 57.78 63.081L60.519 60.7749C60.7082 60.6182 61.002 60.6272 61.1763 60.7928C61.3506 60.963 61.3407 61.2272 61.1564 61.3839L58.4124 63.69C58.3228 63.7661 58.2082 63.8019 58.0987 63.8019Z" fill="black"/>
<path d="M119.627 50.4266C119.622 60.0718 110.942 67.8856 100.245 67.8766C89.5478 67.8722 80.8826 60.045 80.8926 50.3998C80.9025 40.7546 89.5777 32.9408 100.275 32.9498C110.972 32.9542 119.637 40.7814 119.627 50.4266Z" fill="#CADDFF"/>
<path d="M100.604 50.4846L110.847 64.9882C116.081 61.8627 119.537 56.5117 119.542 50.4263C119.547 46.5709 118.163 43.0066 115.817 40.114L100.604 50.4846Z" fill="#99B9FF"/>
<path d="M104.408 33.3708L100.604 50.485L115.817 40.1189C113.093 36.756 109.07 34.3112 104.408 33.3708Z" fill="#6C93EC"/>
<path d="M106.162 50.4175C106.162 53.3594 103.518 55.7371 100.256 55.7371C96.9988 55.7327 94.3594 53.3505 94.3594 50.4086C94.3594 47.4711 97.0038 45.0889 100.266 45.0934C103.523 45.0934 106.167 47.4801 106.162 50.4175Z" fill="white"/>
<path d="M151.564 75.9277C151.44 75.9277 151.32 75.8829 151.236 75.8023L143.093 68.4587C142.909 68.2975 142.909 68.0333 143.093 67.8677C143.278 67.7065 143.571 67.7065 143.751 67.8721L151.564 74.9157L187.844 42.2277C188.023 42.0621 188.317 42.0621 188.501 42.2233C188.68 42.3889 188.68 42.6531 188.501 42.8143L151.893 75.8023C151.808 75.8829 151.689 75.9277 151.564 75.9277Z" fill="black"/>
<path d="M100.554 100.095C100.43 100.095 100.31 100.05 100.221 99.9692L89.0753 89.921L77.9948 99.9468C77.8155 100.113 77.5217 100.113 77.3374 99.9513C77.1532 99.7856 77.1532 99.5215 77.3374 99.3603L88.7466 89.0344C88.8313 88.9583 88.9508 88.9135 89.0753 88.9135C89.1998 88.9135 89.3193 88.9583 89.404 89.0344L100.554 99.0871L134.886 68.1231C135.071 67.9619 135.364 67.9619 135.544 68.1231C135.728 68.2843 135.728 68.553 135.549 68.7142L100.883 99.9692C100.793 100.05 100.674 100.095 100.554 100.095Z" fill="black"/>
<path d="M87.0039 89.3295C87.0039 88.2996 87.9352 87.4623 89.0756 87.4623C90.221 87.4623 91.1473 88.2996 91.1473 89.3295C91.1473 90.3594 90.221 91.1968 89.0756 91.1968C87.9352 91.1968 87.0039 90.3594 87.0039 89.3295Z" fill="#6C93EC"/>
<path d="M89.0741 86.6252C87.4208 86.6252 86.0762 87.8387 86.0762 89.3298C86.0762 90.8209 87.4208 92.0344 89.0741 92.0344C90.7325 92.0344 92.0771 90.8209 92.0771 89.3298C92.0771 87.8387 90.7325 86.6252 89.0741 86.6252ZM89.0741 87.4626C90.2195 87.4626 91.1458 88.2999 91.1458 89.3298C91.1458 90.3597 90.2195 91.1971 89.0741 91.1971C87.9337 91.1971 87.0025 90.3597 87.0025 89.3298C87.0025 88.2999 87.9337 87.4626 89.0741 87.4626Z" fill="black"/>
<path d="M149.557 75.4305C149.557 74.4006 150.483 73.5677 151.628 73.5677C152.774 73.5677 153.7 74.4006 153.7 75.4305C153.7 76.4648 152.774 77.2977 151.628 77.2977C150.483 77.2977 149.557 76.4648 149.557 75.4305Z" fill="#99B9FF"/>
<path d="M151.628 72.7301C149.975 72.7301 148.625 73.9436 148.625 75.4302C148.625 76.9213 149.975 78.1348 151.628 78.1348C153.281 78.1348 154.626 76.9213 154.626 75.4302C154.626 73.9436 153.281 72.7301 151.628 72.7301ZM151.628 73.5675C152.773 73.5675 153.7 74.4003 153.7 75.4302C153.7 76.4646 152.773 77.2975 151.628 77.2975C150.483 77.2975 149.556 76.4646 149.556 75.4302C149.556 74.4003 150.483 73.5675 151.628 73.5675Z" fill="black"/>
<path d="M186.584 42.34C186.584 41.3101 187.51 40.4727 188.656 40.4727C189.796 40.4727 190.722 41.3101 190.722 42.34C190.722 43.3699 189.796 44.2072 188.656 44.2072C187.51 44.2072 186.584 43.3699 186.584 42.34Z" fill="#6C93EC"/>
<path d="M188.655 39.635C186.997 39.635 185.652 40.8484 185.652 42.3396C185.652 43.8307 186.997 45.0397 188.655 45.0397C190.309 45.0397 191.653 43.8307 191.653 42.3396C191.653 40.8484 190.309 39.635 188.655 39.635ZM188.655 40.4723C189.796 40.4723 190.722 41.3097 190.722 42.3396C190.722 43.3695 189.796 44.2068 188.655 44.2068C187.51 44.2068 186.584 43.3695 186.584 42.3396C186.584 41.3097 187.51 40.4723 188.655 40.4723Z" fill="black"/>
<path d="M98.6719 99.4632C98.6719 98.4288 99.5982 97.5914 100.744 97.5914C101.889 97.5914 102.815 98.4288 102.815 99.4632C102.815 100.493 101.889 101.326 100.744 101.326C99.5982 101.326 98.6719 100.493 98.6719 99.4632Z" fill="#99B9FF"/>
<path d="M100.744 96.7584C99.0907 96.7584 97.7461 97.9719 97.7461 99.463C97.7461 100.95 99.0907 102.163 100.744 102.163C102.397 102.163 103.747 100.95 103.747 99.463C103.747 97.9719 102.397 96.7584 100.744 96.7584ZM100.744 97.5913C101.889 97.5913 102.816 98.4286 102.816 99.463C102.816 100.493 101.889 101.326 100.744 101.326C99.5987 101.326 98.6724 100.493 98.6724 99.463C98.6724 98.4286 99.5987 97.5913 100.744 97.5913Z" fill="black"/>
<path d="M137.385 64.7372C137.385 63.7073 138.311 62.8699 139.456 62.8699C140.597 62.8699 141.523 63.7073 141.523 64.7372C141.523 65.7671 140.597 66.6044 139.456 66.6044C138.311 66.6044 137.385 65.7671 137.385 64.7372Z" fill="#6C93EC"/>
<path d="M139.458 62.0374C137.8 62.0374 136.455 63.2465 136.455 64.7376C136.455 66.2287 137.8 67.4422 139.458 67.4422C141.111 67.4422 142.456 66.2287 142.456 64.7376C142.456 63.2465 141.111 62.0374 139.458 62.0374ZM139.458 62.8703C140.598 62.8703 141.525 63.7077 141.525 64.7376C141.525 65.7675 140.598 66.6048 139.458 66.6048C138.313 66.6048 137.386 65.7675 137.386 64.7376C137.386 63.7077 138.313 62.8703 139.458 62.8703Z" fill="black"/>
<path d="M84.0097 135.599L80.688 135.537C79.2239 135.51 78.0586 134.431 78.0586 133.114L78.0935 118.727C78.0935 117.375 79.3235 116.291 80.8175 116.313L84.1093 116.363C85.5734 116.385 86.7487 117.46 86.7487 118.781C86.7487 122.448 86.7487 129.46 86.7487 133.181C86.7487 134.538 85.5137 135.631 84.0097 135.599Z" fill="#CADDFF"/>
<path d="M95.7831 135.599L92.4565 135.536C90.9974 135.509 89.832 134.43 89.832 133.114L89.8669 109.645C89.8719 108.293 91.097 107.21 92.5959 107.227L95.8877 107.281C97.3518 107.304 98.5221 108.374 98.5221 109.695C98.5221 115.005 98.5221 127.79 98.5221 133.185C98.5221 134.538 97.2871 135.63 95.7831 135.599Z" fill="#CADDFF"/>
<path d="M107.56 135.599L104.234 135.536C102.775 135.509 101.604 134.43 101.609 133.114L101.644 114.486C101.644 113.134 102.869 112.046 104.368 112.068L107.66 112.117C109.124 112.14 110.299 113.214 110.299 114.535C110.299 119.009 110.299 128.64 110.299 133.181C110.299 134.538 109.059 135.63 107.56 135.599Z" fill="#CADDFF"/>
<path d="M119.334 135.599L116.007 135.536C114.548 135.51 113.383 134.43 113.383 133.118L113.418 96.4676C113.418 95.1153 114.648 94.0316 116.147 94.0495L119.434 94.0988C120.898 94.1212 122.073 95.2003 122.073 96.5213C122.073 103.807 122.073 125.779 122.073 133.186C122.073 134.538 120.838 135.63 119.334 135.599Z" fill="#CADDFF"/>
<path d="M131.105 135.598L127.779 135.536C126.32 135.509 125.154 134.434 125.154 133.118L125.194 87.0322C125.194 85.6799 126.419 84.5918 127.918 84.6142L131.21 84.6635C132.674 84.6858 133.844 85.7605 133.844 87.0815C133.844 95.5938 133.844 124.52 133.844 133.18C133.844 134.537 132.609 135.63 131.105 135.598Z" fill="#CADDFF"/>
<path d="M142.879 135.599L139.552 135.536C138.093 135.509 136.928 134.434 136.928 133.118L136.968 80.0157C136.968 78.6634 138.198 77.5753 139.692 77.5977L142.983 77.647C144.448 77.6694 145.618 78.744 145.618 80.065C145.618 89.4191 145.618 123.661 145.618 133.181C145.618 134.537 144.383 135.63 142.879 135.599Z" fill="#99B9FF"/>
<path d="M154.658 135.599L151.332 135.536C149.872 135.509 148.702 134.435 148.707 133.118L148.742 95.3927C148.742 94.0448 149.972 92.9567 151.466 92.9791L154.758 93.0284C156.222 93.0508 157.397 94.1254 157.397 95.4464C157.397 102.88 157.397 125.627 157.397 133.185C157.397 134.538 156.162 135.63 154.658 135.599Z" fill="#CADDFF"/>
<path d="M166.43 135.599L163.103 135.536C161.644 135.509 160.479 134.434 160.479 133.118L160.513 83.0605C160.518 81.7082 161.743 80.6201 163.242 80.6425L166.534 80.6917C167.993 80.7141 169.169 81.7933 169.169 83.1097C169.169 92.1101 169.169 124.032 169.169 133.185C169.169 134.537 167.934 135.63 166.43 135.599Z" fill="#CADDFF"/>
<path d="M178.203 135.599L174.876 135.536C173.417 135.509 172.252 134.434 172.252 133.118L172.292 68.0285C172.292 66.6762 173.522 65.5881 175.016 65.6105L178.308 65.6598C179.772 65.6822 180.942 66.7568 180.942 68.0778C180.942 78.7663 180.942 122.313 180.942 133.185C180.942 134.537 179.707 135.63 178.203 135.599Z" fill="#CADDFF"/>
<path d="M190.14 135.599L186.813 135.536C185.349 135.509 184.184 134.434 184.184 133.118L184.223 57.9267C184.223 56.5744 185.453 55.4863 186.947 55.5087L190.239 55.5624C191.703 55.5803 192.879 56.6595 192.879 57.9759C192.879 69.6988 192.879 121.256 192.879 133.185C192.879 134.537 191.644 135.63 190.14 135.599Z" fill="#99B9FF"/>
<path d="M217.2 36.1286H203.461C202.39 36.1286 201.523 35.3495 201.523 34.3867C201.523 33.424 202.39 32.6449 203.461 32.6449H217.2C218.271 32.6449 219.138 33.424 219.138 34.3867C219.138 35.3495 218.271 36.1286 217.2 36.1286Z" fill="#CADDFF"/>
<path d="M232.564 36.1286H226.06C224.99 36.1286 224.123 35.3495 224.123 34.3867C224.123 33.424 224.99 32.6449 226.06 32.6449H232.564C233.635 32.6449 234.501 33.424 234.501 34.3867C234.501 35.3495 233.635 36.1286 232.564 36.1286Z" fill="#CADDFF"/>
<path d="M232.797 43.7902H203.848C202.773 43.7902 201.906 43.0111 201.906 42.0483C201.906 41.0901 202.773 40.3065 203.848 40.3065H232.797C233.868 40.3065 234.734 41.0901 234.734 42.0483C234.734 43.0111 233.868 43.7902 232.797 43.7902Z" fill="#CADDFF"/>
<path d="M233.185 51.4519H210.367C209.296 51.4519 208.43 50.6728 208.43 49.7101C208.43 48.7518 209.296 47.9682 210.367 47.9682H233.185C234.251 47.9682 235.123 48.7518 235.123 49.7101C235.123 50.6728 234.251 51.4519 233.185 51.4519Z" fill="#CADDFF"/>
<path d="M229.352 59.1132H204.621C203.545 59.1132 202.684 58.334 202.684 57.3713C202.684 56.413 203.545 55.6294 204.621 55.6294H229.352C230.422 55.6294 231.289 56.413 231.289 57.3713C231.289 58.334 230.422 59.1132 229.352 59.1132Z" fill="#CADDFF"/>
<path d="M232.639 66.5688H210.543C209.472 66.5688 208.605 65.7896 208.605 64.8269C208.605 63.8642 209.472 63.085 210.543 63.085H232.639C233.71 63.085 234.576 63.8642 234.576 64.8269C234.576 65.7896 233.71 66.5688 232.639 66.5688Z" fill="#CADDFF"/>
<path d="M176.365 71.1455C176.375 65.2258 181.704 60.4032 188.272 60.3764C194.841 60.354 200.16 65.1318 200.15 71.0515C200.14 76.9756 194.811 81.7982 188.243 81.8206C181.674 81.8474 176.355 77.0696 176.365 71.1455Z" fill="white"/>
<path d="M188.327 60.7969C188.308 60.7969 188.293 60.7969 188.278 60.7969C181.973 60.8193 176.839 65.4628 176.834 71.1496C176.829 73.9079 178.019 76.4961 180.18 78.435C182.337 80.3604 185.19 81.4261 188.243 81.4037C194.543 81.3813 199.677 76.7379 199.687 71.0511C199.687 68.2927 198.497 65.7046 196.335 63.7657C194.194 61.8492 191.35 60.7969 188.327 60.7969ZM188.188 82.2411C184.916 82.2411 181.844 81.0992 179.528 79.026C177.182 76.9259 175.897 74.1318 175.902 71.1451C175.912 65.006 181.46 59.9864 188.273 59.9595C191.559 59.9461 194.662 61.0879 196.993 63.1746C199.333 65.2702 200.618 68.0688 200.613 71.0555C200.608 77.1946 195.055 82.2142 188.243 82.2411C188.228 82.2411 188.208 82.2411 188.188 82.2411Z" fill="black"/>
<path d="M194.287 66.1215L190.667 68.0425C190.478 68.141 190.473 68.3873 190.657 68.4903L191.19 68.8037C191.329 68.8798 191.364 69.0455 191.279 69.1664L189.601 71.5262C189.512 71.6516 189.332 71.6874 189.198 71.6068L186.08 69.8067C185.941 69.7261 185.762 69.762 185.677 69.8829L181.927 75.1264C181.837 75.2473 181.877 75.4129 182.012 75.4891L183.152 76.1473C183.287 76.2279 183.471 76.1921 183.555 76.0712L186.26 72.3009C186.349 72.1755 186.529 72.1397 186.663 72.2203L189.78 74.0203C189.915 74.101 190.094 74.0651 190.184 73.9442L192.908 70.1112C192.998 69.9903 193.177 69.9545 193.311 70.0351L193.889 70.3665C194.073 70.4739 194.317 70.3665 194.337 70.1694L194.726 66.3723C194.751 66.1618 194.492 66.014 194.287 66.1215Z" fill="#6C93EC"/>
<path d="M67.8697 187.819L24.434 187.434C16.5806 187.434 9.85757 182.826 8.48309 175.814L1.04794 137.918C0.1615 133.405 3.99112 129.263 9.05081 129.263H37.392L67.8697 187.819Z" fill="#99B9FF"/>
<path d="M9.05152 129.679C6.79558 129.679 4.66414 130.575 3.205 132.133C1.72594 133.723 1.10344 135.801 1.50682 137.847L8.94196 175.743C10.2467 182.379 16.6161 187.018 24.4348 187.018L67.1383 187.398L37.0939 129.679H9.05152ZM68.6024 188.245L24.4298 187.851C16.158 187.851 9.41008 182.929 8.02564 175.89L0.590496 137.99C0.142295 135.702 0.834517 133.374 2.49286 131.596C4.1263 129.85 6.5167 128.842 9.05152 128.842H37.6865L37.811 129.084L68.6024 188.245Z" fill="#6C93EC"/>
<path d="M41.9538 224.689H34.8125V187.367L41.9538 187.559V224.689Z" fill="#99B9FF"/>
<path d="M35.277 224.268H41.492V187.967L35.277 187.797V224.268ZM42.4233 225.106H34.3457V186.932L42.4233 187.156V225.106Z" fill="#6C93EC"/>
<path d="M55.2607 221.035H23.1148C18.0999 221.035 14.0312 224.685 14.0312 229.189H64.3392C64.3392 224.685 60.2756 221.035 55.2607 221.035Z" fill="#99B9FF"/>
<path d="M14.5096 228.773H63.8614C63.6174 224.698 59.8525 221.452 55.261 221.452H23.115C18.5185 221.452 14.7536 224.698 14.5096 228.773ZM64.8027 229.606H13.5684V229.19C13.5684 224.461 17.8512 220.615 23.115 220.615H55.261C60.5248 220.615 64.8027 224.461 64.8027 229.19V229.606Z" fill="#6C93EC"/>
<path d="M12.7964 158.937C12.5772 158.937 12.378 158.794 12.3432 158.592L8.73766 140.198C8.69284 139.969 8.86216 139.754 9.11614 139.714C9.36514 139.674 9.60916 139.826 9.65398 140.054L13.2545 158.449C13.2993 158.673 13.13 158.892 12.881 158.933C12.8511 158.937 12.8262 158.937 12.7964 158.937Z" fill="#6C93EC"/>
<path d="M46.291 117.312C46.291 117.312 50.7531 112.449 55.3397 114.876C58.0189 116.291 60.3247 118.691 63.975 120.182C65.4889 120.804 66.3704 120.948 66.3704 120.948C66.3704 120.948 63.8555 122.309 56.6494 122.533C49.4434 122.757 46.291 117.312 46.291 117.312Z" fill="black"/>
<path d="M59.0304 113.076C55.3602 112.543 53.1291 109.274 52.4568 107.478C51.9987 106.247 52.2327 105.589 52.3772 105.298C52.8702 104.308 54.1251 103.937 54.6281 103.775C59.2894 102.271 59.4537 99.1049 63.0891 98.7512C66.0373 98.4646 66.0971 100.533 70.9824 100.914C71.9784 100.99 73.4924 101.026 75.0262 101.913C75.7583 102.338 76.7891 102.938 76.9335 103.762C77.078 104.59 76.3509 105.844 66.7594 110.438C61.2714 113.067 60.2655 113.255 59.0304 113.076Z" fill="black"/>
<path d="M68.693 107.326C68.693 107.326 63.3345 105.561 61.467 105.66C59.5995 105.758 59.6792 110.026 59.6792 110.026C59.6792 110.026 57.7569 108.064 56.6215 109.327C55.486 110.59 58.4641 112 58.4641 112L49.0469 119.752L57.7768 121.789L62.209 117.45C62.209 117.45 63.6931 118.986 65.0476 118.672C66.4022 118.354 68.3743 115.157 68.3743 115.157C69.1113 115.059 69.5844 114.405 69.3902 113.756L69.0466 112.605C68.8374 111.906 68.8225 111.168 69.0167 110.465C69.2707 109.524 69.201 108.535 68.8175 107.63L68.693 107.326Z" fill="white"/>
<path d="M49.9923 119.541L57.6216 121.319L61.8646 117.168C61.9543 117.078 62.0788 117.034 62.2132 117.029C62.3477 117.034 62.4722 117.087 62.5618 117.177C62.9204 117.548 64.0508 118.466 64.9273 118.265C65.7739 118.068 67.243 116.129 67.9651 114.956C68.0348 114.844 68.1593 114.768 68.3038 114.745C68.5279 114.714 68.7171 114.607 68.8416 114.432C68.9611 114.262 69.001 114.06 68.9412 113.868L68.5976 112.717C68.3635 111.951 68.3536 111.136 68.5627 110.366C68.7968 109.502 68.732 108.606 68.3834 107.778L68.3336 107.653C66.7251 107.133 62.8855 106.005 61.4961 106.076C60.4204 106.135 60.1216 108.754 60.1415 110.017C60.1465 110.191 60.027 110.348 59.8427 110.415C59.6634 110.478 59.4593 110.433 59.3298 110.299C59.0758 110.044 58.2143 109.323 57.5519 109.323C57.5469 109.323 57.542 109.323 57.537 109.323C57.3179 109.327 57.1436 109.412 56.9842 109.591C56.8497 109.739 56.8049 109.882 56.8448 110.048C56.9742 110.626 58.04 111.324 58.6824 111.633C58.8169 111.696 58.9065 111.812 58.9264 111.947C58.9463 112.081 58.8916 112.215 58.777 112.309L49.9923 119.541ZM57.776 122.205C57.7362 122.205 57.6963 122.201 57.6565 122.192L48.9266 120.159C48.7622 120.119 48.6377 120.002 48.5929 119.855C48.5531 119.707 48.6078 119.546 48.7323 119.443L57.6914 112.068C57.0589 111.696 56.1127 111.015 55.9334 110.218C55.8388 109.806 55.9533 109.408 56.2621 109.063C56.5908 108.696 57.029 108.494 57.5171 108.485C58.1445 108.476 58.772 108.781 59.2401 109.099C59.3398 107.715 59.7531 105.333 61.4413 105.243C63.3785 105.14 68.6324 106.86 68.8516 106.936C68.981 106.976 69.0806 107.066 69.1255 107.178L69.2549 107.482C69.6683 108.467 69.743 109.533 69.4641 110.563C69.2948 111.199 69.3047 111.866 69.494 112.497L69.8376 113.648C69.9671 114.069 69.8874 114.526 69.6185 114.889C69.3994 115.198 69.0657 115.421 68.6773 115.524C68.1643 116.33 66.5259 118.757 65.1614 119.075C63.9861 119.349 62.8009 118.538 62.2182 118.054L58.1147 122.071C58.025 122.156 57.9005 122.205 57.776 122.205Z" fill="black"/>
<path d="M62.2088 117.867C62.0794 117.867 61.9499 117.817 61.8553 117.719C60.6252 116.434 60.3563 115.193 60.3413 115.14C60.2965 114.916 60.4609 114.696 60.7148 114.652C60.9638 114.611 61.2079 114.759 61.2577 114.987C61.2626 115.005 61.5067 116.076 62.5624 117.177C62.7268 117.352 62.7068 117.616 62.5126 117.768C62.423 117.835 62.3134 117.867 62.2088 117.867Z" fill="black"/>
<path d="M71.6504 216.974C72.2679 216.41 75.8436 206.424 75.8436 206.424L82.9002 210.951L75.1613 220.297L71.6504 216.974Z" fill="white"/>
<path d="M72.2239 216.907L75.1173 219.647L82.2486 211.045L76.0884 207.096C75.177 209.635 73.0804 215.357 72.2239 216.907ZM75.1621 220.713C75.0326 220.713 74.9131 220.668 74.8234 220.583L71.3125 217.26C71.1432 217.099 71.1432 216.848 71.3125 216.687C71.7259 216.195 73.7278 210.974 75.4011 206.299C75.4459 206.169 75.5555 206.07 75.6949 206.03C75.8344 205.985 75.9937 206.008 76.1133 206.084L83.1749 210.611C83.2745 210.678 83.3442 210.776 83.3641 210.884C83.3841 210.996 83.3492 211.112 83.2745 211.202L75.5356 220.543C75.4509 220.646 75.3264 220.704 75.192 220.713C75.182 220.713 75.172 220.713 75.1621 220.713Z" fill="black"/>
<path d="M84.3749 229.597L79.6787 229.57C76.5712 229.556 73.6828 228.137 71.9896 225.799L67.3433 219.195C66.0634 217.372 66.7805 214.95 68.902 213.938C70.8392 213.015 72.8711 212.111 73.3442 212.156C74.3103 212.236 74.7037 216.342 74.7037 216.342L78.8869 216.486C78.8869 216.486 80.9536 224.205 82.7713 225.083C84.096 225.723 85.0223 226.664 85.6448 227.519C86.2922 228.414 85.5651 229.601 84.3749 229.597Z" fill="black"/>
<path d="M83.9015 228.37C83.8816 228.37 83.8567 228.365 83.8318 228.361L77.4076 227.492C75.824 227.281 74.4445 226.449 73.6228 225.213L67.9456 216.696C67.8161 216.499 67.8859 216.244 68.11 216.123C68.3291 216.006 68.6129 216.069 68.7474 216.271L74.4196 224.783C75.1019 225.804 76.2423 226.489 77.5471 226.668L83.9713 227.537C84.2252 227.572 84.3995 227.783 84.3647 228.011C84.3248 228.217 84.1306 228.37 83.9015 228.37Z" fill="white"/>
<path d="M75.9732 221.963C75.769 221.963 75.5797 221.842 75.525 221.658C75.4552 221.434 75.6046 221.206 75.8536 221.143L79.4293 220.266C79.6783 220.208 79.9323 220.337 80.002 220.561C80.0667 220.785 79.9223 221.014 79.6733 221.072L76.0977 221.949C76.0528 221.958 76.013 221.963 75.9732 221.963Z" fill="white"/>
<path d="M77.8341 223.614C77.6249 223.614 77.4357 223.485 77.3859 223.292C77.3211 223.073 77.4755 222.844 77.7245 222.79L80.1249 222.262C80.3739 222.208 80.6279 222.347 80.6876 222.571C80.7474 222.79 80.593 223.019 80.344 223.073L77.9486 223.601C77.9088 223.61 77.8739 223.614 77.8341 223.614Z" fill="white"/>
<path d="M95.7441 215.066L103.941 222.464L108.289 221.031L100.729 211.569L95.7441 215.066Z" fill="white"/>
<path d="M96.4409 215.107L104.06 221.98L107.551 220.829L100.634 212.165L96.4409 215.107ZM103.941 222.885C103.816 222.885 103.702 222.84 103.612 222.759L95.415 215.362C95.3204 215.277 95.2706 215.16 95.2806 215.04C95.2855 214.923 95.3503 214.811 95.4549 214.74L100.445 211.238C100.544 211.166 100.669 211.135 100.793 211.153C100.923 211.171 101.032 211.229 101.107 211.323L108.667 220.789C108.751 220.897 108.771 221.031 108.732 221.156C108.687 221.277 108.582 221.38 108.448 221.425L104.1 222.858C104.05 222.876 103.996 222.885 103.941 222.885Z" fill="black"/>
<path d="M101.352 221.308C101.352 221.308 100.953 224.456 101.625 227.237C101.984 228.719 103.473 229.762 105.161 229.762H125.28C126.72 229.762 127.372 228.15 126.267 227.322C122.691 224.626 116.112 220.516 108.02 219.311L105.764 222.146L101.352 221.308Z" fill="black"/>
<path d="M124.323 227.694H103.472C103.213 227.694 103.004 227.506 103.004 227.278C103.004 227.045 103.213 226.861 103.472 226.861H124.323C124.582 226.861 124.786 227.045 124.786 227.278C124.786 227.506 124.582 227.694 124.323 227.694Z" fill="white"/>
<path d="M112.689 224.367C112.629 224.367 112.57 224.358 112.51 224.336C112.276 224.251 112.161 224.004 112.256 223.789L113.361 221.385C113.461 221.174 113.73 221.071 113.969 221.161C114.208 221.246 114.318 221.492 114.223 221.707L113.117 224.112C113.043 224.268 112.868 224.367 112.689 224.367Z" fill="white"/>
<path d="M116.315 224.998C116.27 224.998 116.221 224.994 116.171 224.981C115.927 224.909 115.797 224.672 115.877 224.452L116.674 222.28C116.753 222.061 117.017 221.945 117.261 222.016C117.505 222.088 117.64 222.325 117.56 222.545L116.758 224.712C116.694 224.891 116.514 224.998 116.315 224.998Z" fill="white"/>
<path d="M52.3482 163.294C52.3482 163.294 89.8177 159.376 100.958 168.04C112.098 176.7 83.3686 213.956 83.3686 213.956L74.2851 207.902L82.9005 181.572L48.2695 172.737L52.3482 163.294Z" fill="black"/>
<path d="M31.7307 180.439C37.1738 181.993 46.9097 183.995 60.5201 183.829C64.3845 183.784 67.9552 185.701 69.7131 188.795C73.747 195.897 82.4719 208.685 96.6849 216.974L103.473 213.687L86.1472 178.657C84.5635 175.455 81.6054 172.97 77.9501 171.766L43.6129 160.455C43.6129 160.455 32.9657 157.781 27.7417 166.321C26.8104 167.843 26.1779 169.218 25.7646 170.449C24.3503 174.667 27.0544 179.109 31.7307 180.439Z" fill="black"/>
<path d="M93.9741 194.903C93.7948 194.903 93.6255 194.809 93.5508 194.657L85.7222 178.824C84.1983 175.747 81.3049 173.316 77.7841 172.161L61.3451 166.742C61.101 166.662 60.9765 166.425 61.0662 166.205C61.1558 165.99 61.4247 165.878 61.6638 165.959L78.1078 171.372C81.8627 172.613 84.9453 175.201 86.5688 178.483L94.3974 194.317C94.5019 194.527 94.3974 194.773 94.1633 194.868C94.1035 194.89 94.0388 194.903 93.9741 194.903Z" fill="white"/>
<path d="M84.8316 208.51C84.7121 208.51 84.5876 208.47 84.4979 208.385C82.9193 206.907 81.3655 205.327 79.8815 203.674C79.7221 203.495 79.752 203.236 79.9512 203.088C80.1504 202.944 80.4442 202.971 80.6036 203.15C82.0727 204.78 83.6065 206.343 85.1702 207.803C85.3445 207.969 85.3396 208.237 85.1553 208.394C85.0657 208.475 84.9511 208.51 84.8316 208.51Z" fill="white"/>
<path d="M80.2458 203.831C80.1063 203.831 79.9769 203.777 79.8822 203.674C79.1552 202.868 78.4281 202.026 77.7209 201.176C77.5715 200.992 77.6114 200.728 77.8155 200.593C78.0247 200.455 78.3135 200.495 78.4679 200.679C79.1651 201.52 79.8872 202.349 80.6043 203.15C80.7687 203.329 80.7338 203.594 80.5346 203.737C80.45 203.8 80.3454 203.831 80.2458 203.831Z" fill="white"/>
<path d="M101.267 110.245C101.456 109.914 102.387 108.911 102.815 108.624L107.317 104.867C107.317 104.867 107.9 106.676 107.193 107.747C108.572 107.787 109.668 107.997 109.668 107.997C109.668 107.997 111.72 106.372 112.233 106.09C112.745 105.812 113.418 105.364 114.105 105.373C114.792 105.382 115.479 105.857 115.479 105.857L111.525 110.357L104.334 112.135L102.845 123.253L99.5684 119.308L101.267 110.245Z" fill="white"/>
<path d="M100.055 119.201L102.52 122.165L103.874 112.081C103.894 111.916 104.029 111.777 104.213 111.732L111.255 109.99L114.786 105.965C114.577 105.875 114.328 105.795 114.098 105.79C114.093 105.79 114.088 105.79 114.083 105.79C113.63 105.79 113.142 106.072 112.704 106.318C112.624 106.363 112.55 106.408 112.475 106.448C112.126 106.641 110.787 107.666 109.975 108.311C109.86 108.401 109.711 108.436 109.567 108.405C109.557 108.405 108.496 108.204 107.176 108.163C107.012 108.159 106.862 108.074 106.783 107.944C106.703 107.814 106.708 107.657 106.793 107.532C107.121 107.03 107.111 106.269 107.027 105.678L103.132 108.934C103.118 108.942 103.108 108.951 103.093 108.96C102.744 109.193 101.927 110.057 101.713 110.384L100.055 119.201ZM102.844 123.67C102.699 123.67 102.56 123.607 102.47 123.5L99.1933 119.559C99.1136 119.465 99.0837 119.349 99.1036 119.241L100.807 110.178C100.812 110.138 100.832 110.098 100.852 110.062C101.061 109.681 102.017 108.651 102.515 108.307L106.997 104.559C107.116 104.46 107.286 104.424 107.44 104.465C107.595 104.5 107.719 104.612 107.764 104.751C107.784 104.818 108.222 106.202 107.868 107.362C108.615 107.411 109.218 107.496 109.532 107.55C110.06 107.133 111.534 105.987 111.992 105.732C112.062 105.696 112.131 105.656 112.206 105.611C112.724 105.32 113.361 104.957 114.083 104.957C114.088 104.957 114.098 104.957 114.108 104.957C114.93 104.966 115.677 105.468 115.762 105.526C115.861 105.593 115.921 105.696 115.936 105.804C115.956 105.915 115.916 106.027 115.841 106.112L111.887 110.613C111.828 110.684 111.743 110.734 111.648 110.76L104.761 112.462L103.302 123.303C103.282 123.473 103.147 123.612 102.963 123.657C102.923 123.665 102.883 123.67 102.844 123.67Z" fill="black"/>
<path d="M64.5681 122.13C64.5681 122.13 71.8837 128.573 85.768 127.118C99.6522 125.667 100.066 112.646 100.066 112.646H104.622C104.622 112.646 111.36 135.397 87.3267 142.557C63.2982 149.722 55.4746 137.162 55.4746 137.162L64.5681 122.13Z" fill="#6C93EC"/>
<path d="M45.2264 174.941C45.2264 174.941 30.4557 180.238 22.1192 175.129C11.6014 168.676 17.0894 150.299 20.8244 142.557C24.1311 135.724 29.1958 130.91 36.621 123.862C38.7375 121.852 40.0223 120.8 41.9794 119.958C49.7184 116.631 59.1107 120.401 63.7271 122.259C67.233 123.665 69.9322 125.233 71.7399 126.397C71.7399 126.397 56.9145 142.826 57.2133 152.798C57.5121 162.766 62.0787 162.354 62.0787 162.354C62.0787 162.354 55.779 171.435 45.2264 174.941Z" fill="#6C93EC"/>
<path d="M57.5129 128.363C57.9362 131.332 58.9472 135.102 61.3426 138.975C68.9819 151.325 84.3103 154.321 87.3332 154.858L84.3054 157.89C84.3054 157.89 51.7461 162.685 42.304 135.971C42.304 135.971 38.7184 125.994 46.6914 123.527C48.3497 123.016 50.531 122.716 52.6226 123.446C56.238 124.713 57.3735 127.937 57.5129 128.363Z" fill="#6C93EC"/>
<path d="M83.9746 157.298C84.2186 157.164 86.4895 154.003 88.9895 153.344C91.4845 152.682 96.9127 157.603 96.9127 157.603L83.9746 157.298Z" fill="white"/>
<path d="M84.9411 156.9L95.7278 157.16C93.6163 155.414 90.5336 153.367 89.1193 153.743C87.4311 154.191 85.7827 155.946 84.9411 156.9ZM96.913 158.024C96.908 158.024 96.9031 158.024 96.9031 158.024L83.96 157.715C83.7509 157.711 83.5766 157.581 83.5218 157.402C83.477 157.236 83.5417 157.066 83.6911 156.963C83.7409 156.918 83.8803 156.757 84.0048 156.614C84.8216 155.682 86.7389 153.502 88.8554 152.942C91.5396 152.234 96.669 156.788 97.2467 157.312C97.3762 157.433 97.416 157.612 97.3413 157.773C97.2666 157.926 97.0973 158.024 96.913 158.024Z" fill="black"/>
<path d="M36.1027 124.355C36.1027 124.355 31.4314 116.819 48.2688 115.91C51.0527 115.757 51.9491 116.098 55.8683 118.108C64.2895 122.429 66.3712 120.947 66.3712 120.947L64.5684 126.164L36.1027 124.355Z" fill="#6C93EC"/>
<path d="M38.1394 123.482C38.0647 123.482 37.99 123.468 37.9202 123.433C37.6912 123.321 37.6115 123.07 37.731 122.864C37.7758 122.792 42.3973 115.386 52.2377 119.031C52.4718 119.12 52.5863 119.362 52.4867 119.577C52.3921 119.788 52.1182 119.891 51.8792 119.801C42.8056 116.443 38.717 122.985 38.5477 123.262C38.4631 123.401 38.3037 123.482 38.1394 123.482Z" fill="black"/>
<path d="M57.2142 153.215C57.1196 153.215 57.025 153.188 56.9403 153.134C56.3626 152.753 42.832 143.78 40.8101 133.785C40.7653 133.557 40.9296 133.342 41.1836 133.302C41.4376 133.257 41.6766 133.409 41.7264 133.638C43.6786 143.301 57.3487 152.368 57.4881 152.458C57.6973 152.597 57.7421 152.856 57.5877 153.045C57.4981 153.152 57.3586 153.215 57.2142 153.215Z" fill="black"/>
<path d="M62.9853 142.445C62.8758 142.445 62.7662 142.409 62.6766 142.338C62.4823 142.186 62.4674 141.921 62.6367 141.747C67.4673 136.897 66.6008 130.046 66.5908 129.979C66.556 129.751 66.7402 129.54 66.9942 129.513C67.2482 129.486 67.4823 129.648 67.5121 129.876C67.552 130.172 68.4434 137.166 63.3339 142.302C63.2393 142.396 63.1148 142.445 62.9853 142.445Z" fill="black"/>
<path d="M62.2186 141.066C62.0493 141.066 61.885 140.981 61.8003 140.838L57.1789 132.554C57.0593 132.348 57.154 132.093 57.383 131.99C57.6121 131.887 57.891 131.972 58.0055 132.178L62.632 140.462C62.7465 140.668 62.6569 140.919 62.4228 141.022C62.3581 141.053 62.2884 141.066 62.2186 141.066Z" fill="black"/>
<path d="M49.3446 116.295C49.0358 116.295 48.7021 116.309 48.3336 116.326C41.9841 116.671 37.9055 118.037 36.5459 120.28C35.3856 122.192 36.5659 124.131 36.5808 124.149C36.6804 124.31 36.6505 124.507 36.5111 124.642C29.549 131.264 24.5143 136.051 21.2872 142.728C18.0353 149.458 11.8949 168.341 22.4027 174.784C30.4355 179.71 44.9223 174.605 45.0667 174.551C53.8714 171.627 59.7428 164.664 61.2816 162.672C60.8733 162.569 60.3603 162.358 59.8225 161.946C58.0197 160.545 56.9988 157.692 56.7797 153.47C56.7697 153.313 56.8594 153.17 57.0038 153.089C57.1482 153.013 57.3325 153.009 57.4819 153.089C68.9807 159.161 82.4566 157.701 84.0701 157.5L86.4506 155.118C81.6897 154.182 71.5803 151.388 64.4439 143.784C64.3095 143.641 64.2995 143.435 64.419 143.278C64.5385 143.126 64.7577 143.063 64.9569 143.126C71.1171 145.105 78.5921 144.814 87.1826 142.253C96.9733 139.338 102.81 133.526 104.528 124.982C105.644 119.443 104.573 114.508 104.254 113.246H100.499C100.275 115.489 98.5321 126.294 85.8231 127.628C78.0692 128.439 72.2725 126.742 68.7715 125.17C68.7616 125.166 68.7516 125.161 68.7367 125.152C67.9598 124.722 67.1929 124.306 66.3612 123.907C66.3513 123.903 66.3363 123.894 66.3264 123.889C65.9877 123.688 65.6989 123.495 65.4449 123.325L65.4001 123.294C65.2457 123.191 65.176 123.007 65.2357 122.837L65.669 121.583C64.3194 121.736 61.4011 121.436 55.6393 118.476C52.2678 116.743 51.2519 116.295 49.3446 116.295ZM31.6207 177.784C28.1945 177.784 24.6985 177.202 21.8748 175.474C17.1887 172.599 15.0473 167.006 15.6897 159.295C16.2126 152.995 18.4835 146.431 20.4356 142.396C23.6926 135.657 28.6975 130.857 35.6097 124.284C35.2661 123.625 35.1167 122.506 35.1067 122.304C35.0071 120.03 36.5808 116.125 48.2788 115.494C51.1523 115.337 52.0935 115.691 56.1024 117.75C63.9509 121.78 66.0774 120.625 66.1023 120.612C66.2616 120.5 66.4758 120.5 66.6451 120.603C66.8094 120.706 66.8792 120.898 66.8144 121.073L66.2218 122.801C66.406 122.922 66.6052 123.052 66.8194 123.182C67.656 123.58 68.4279 124.001 69.2048 124.431C72.5912 125.949 78.1987 127.584 85.7135 126.796C99.045 125.398 99.5928 112.941 99.5978 112.816C99.6077 112.592 99.8119 112.413 100.066 112.413H104.623C104.832 112.413 105.016 112.538 105.071 112.722C105.141 112.955 106.769 118.552 105.444 125.13C104.219 131.229 100.106 139.284 87.4764 143.05C79.4238 145.446 72.3024 145.893 66.2766 144.38C73.5723 151.352 83.3978 153.734 87.4266 154.446C87.591 154.477 87.7205 154.58 87.7752 154.724C87.83 154.867 87.7902 155.024 87.6806 155.136L84.6478 158.167C84.5781 158.239 84.4835 158.283 84.3789 158.301C84.2345 158.324 70.0713 160.316 57.7608 154.191C58.1094 158.61 59.3892 160.504 60.43 161.31C61.2916 161.982 62.0286 161.937 62.0336 161.937C62.2079 161.919 62.3822 161.996 62.4768 162.13C62.5714 162.269 62.5714 162.439 62.4768 162.573C62.4121 162.663 55.9779 171.82 45.4004 175.33C44.997 175.474 38.4433 177.784 31.6207 177.784Z" fill="black"/>
<path d="M128.999 156.788H101.43L121.868 128.555C122.505 127.673 123.616 127.136 124.816 127.136H147.186C148.605 127.136 149.472 128.501 148.71 129.549L128.999 156.788Z" fill="black"/>
<path d="M134.875 137.036C133.983 138.272 132.056 139.275 130.572 139.275C129.093 139.275 128.62 138.272 129.516 137.036C130.413 135.8 132.34 134.797 133.819 134.797C135.298 134.797 135.771 135.8 134.875 137.036Z" fill="white"/>
<path d="M126.909 159.143H79.6882C78.483 159.143 77.502 158.265 77.502 157.177V156.586H129.095V157.177C129.095 158.265 128.119 159.143 126.909 159.143Z" fill="black"/>
<path d="M127.565 157.227H103.89C103.631 157.227 103.422 157.043 103.422 156.81C103.422 156.582 103.631 156.394 103.89 156.394H127.565C127.819 156.394 128.028 156.582 128.028 156.81C128.028 157.043 127.819 157.227 127.565 157.227Z" fill="white"/>
<path d="M141.141 159.179H37.7362C35.809 159.179 34.31 160.992 34.5291 163.061L41.6704 230.792H46.8248L42.3577 167.225C42.278 166.106 43.0997 165.148 44.1405 165.148H132.904C134.458 165.148 135.688 166.576 135.568 168.255L131.141 231.191H136.3L143.561 162.107C143.726 160.544 142.595 159.179 141.141 159.179Z" fill="white"/>
<path d="M131.639 230.77H135.877L143.098 162.067C143.173 161.346 142.929 160.63 142.441 160.146C142.077 159.793 141.619 159.6 141.141 159.6H37.7364C37.0591 159.6 36.4117 159.873 35.9037 160.375C35.2314 161.037 34.8878 162.032 34.9924 163.021L42.0939 230.372H46.3318L41.8947 167.253C41.8399 166.527 42.1038 165.833 42.6168 165.345C43.0301 164.951 43.5729 164.732 44.1406 164.732H132.904C133.686 164.732 134.438 165.032 135.016 165.587C135.733 166.277 136.106 167.257 136.032 168.278L131.639 230.77ZM136.301 231.608H131.141C131.012 231.608 130.892 231.558 130.803 231.473C130.718 231.388 130.673 231.276 130.678 231.164L135.105 168.229C135.16 167.432 134.881 166.68 134.334 166.16C133.935 165.775 133.427 165.565 132.904 165.565H44.1406C43.7472 165.565 43.4634 165.757 43.294 165.918C42.9654 166.236 42.7861 166.711 42.8209 167.199L47.293 230.766C47.298 230.882 47.2532 230.994 47.1685 231.075C47.0789 231.16 46.9543 231.209 46.8249 231.209H41.6706C41.4315 231.209 41.2323 231.044 41.2074 230.829L34.0661 163.097C33.9366 161.861 34.3549 160.661 35.2165 159.811C35.8987 159.134 36.7951 158.763 37.7364 158.763H141.141C141.883 158.763 142.59 159.054 143.128 159.587C143.801 160.249 144.124 161.181 144.025 162.144L136.764 231.227C136.739 231.442 136.54 231.608 136.301 231.608Z" fill="black"/>
<path d="M119.513 15.2893C119.324 15.2893 119.145 15.1863 119.08 15.0162C118.99 14.7968 119.115 14.5594 119.359 14.4833C140.549 7.62333 167.002 7.09495 183.82 9.607C184.074 9.6473 184.243 9.86223 184.203 10.0906C184.159 10.319 183.92 10.4712 183.666 10.4309C166.968 7.93678 140.703 8.46068 119.672 15.2669C119.623 15.2849 119.568 15.2893 119.513 15.2893Z" fill="black"/>
<path d="M123.696 10.2471C123.507 10.2471 123.327 10.1441 123.258 9.97398C123.168 9.75457 123.293 9.51724 123.532 9.43664C138.576 4.4215 156.245 4.07671 162.45 4.69465C162.704 4.72151 162.889 4.92749 162.859 5.15586C162.829 5.38423 162.595 5.54991 162.346 5.52752C156.215 4.91406 138.745 5.25437 123.855 10.2203C123.8 10.2382 123.746 10.2471 123.696 10.2471Z" fill="black"/>
<path d="M177.574 196.738C177.424 196.738 177.28 196.676 177.19 196.559C177.046 196.371 177.101 196.107 177.31 195.977C185.472 190.935 192.489 185.513 198.161 179.87C198.33 179.696 198.624 179.687 198.813 179.839C199.008 179.991 199.023 180.256 198.848 180.43C193.131 186.121 186.06 191.584 177.838 196.667C177.758 196.716 177.663 196.738 177.574 196.738Z" fill="black"/>
<path d="M160.792 211.435C160.593 211.435 160.414 211.323 160.349 211.144C160.269 210.925 160.404 210.692 160.653 210.62C168.646 208.327 187.809 199.327 198.008 187.962C198.172 187.783 198.461 187.756 198.66 187.9C198.864 188.047 198.894 188.312 198.735 188.491C187.804 200.661 168.198 209.331 160.932 211.417C160.887 211.431 160.837 211.435 160.792 211.435Z" fill="black"/>
<path d="M156.211 203.052C156.181 203.052 156.146 203.048 156.117 203.043C155.868 202.994 155.703 202.775 155.753 202.546L156.176 200.688C156.226 200.46 156.475 200.316 156.724 200.361C156.973 200.406 157.137 200.625 157.088 200.854L156.664 202.717C156.62 202.914 156.425 203.052 156.211 203.052Z" fill="black"/>
<path d="M154.732 209.572C154.702 209.572 154.672 209.567 154.642 209.563C154.388 209.518 154.229 209.298 154.279 209.07L154.702 207.207C154.752 206.979 154.996 206.836 155.25 206.88C155.499 206.93 155.663 207.149 155.613 207.373L155.19 209.236C155.145 209.433 154.951 209.572 154.732 209.572Z" fill="black"/>
<path d="M153.132 204.88C153.102 204.88 153.067 204.875 153.032 204.871L150.995 204.468C150.746 204.419 150.587 204.199 150.642 203.971C150.696 203.747 150.945 203.604 151.194 203.653L153.231 204.056C153.485 204.105 153.645 204.324 153.59 204.548C153.54 204.745 153.346 204.88 153.132 204.88Z" fill="black"/>
<path d="M160.269 206.281C160.235 206.281 160.2 206.277 160.17 206.272L158.128 205.869C157.879 205.82 157.72 205.596 157.774 205.372C157.829 205.148 158.078 205.005 158.327 205.054L160.364 205.453C160.618 205.502 160.777 205.726 160.723 205.95C160.673 206.147 160.484 206.281 160.269 206.281Z" fill="black"/>
<path d="M170.369 198.154C170.105 198.154 169.836 198.204 169.583 198.307C168.591 198.705 168.143 199.775 168.582 200.689C168.796 201.137 169.184 201.477 169.677 201.651C170.16 201.817 170.683 201.804 171.156 201.616C172.147 201.213 172.6 200.142 172.162 199.229C171.948 198.786 171.56 198.445 171.067 198.271C170.842 198.19 170.603 198.154 170.369 198.154ZM170.369 202.601C170.026 202.601 169.677 202.543 169.343 202.426C168.611 202.175 168.039 201.674 167.725 201.02C167.088 199.69 167.75 198.132 169.204 197.545C169.906 197.263 170.683 197.241 171.4 197.492C172.132 197.747 172.7 198.244 173.014 198.898C173.656 200.228 172.994 201.79 171.54 202.377C171.166 202.525 170.768 202.601 170.369 202.601Z" fill="black"/>
<path d="M231.5 189.996C229.02 186.02 229.328 184.152 230.036 183.185C231.291 181.461 234.109 182.191 235.354 180.319C236.639 178.394 234.313 176.643 235.18 174.176C236.201 171.256 241.276 168.507 244.537 170.159C247.321 171.574 248.058 175.842 246.4 178.045C244.557 180.494 240.509 179.424 239.363 181.703C238.312 183.803 241.201 185.787 240.28 187.726C239.747 188.836 237.899 190.068 231.5 189.996Z" fill="#99B9FF"/>
<path d="M231.029 192.037C230.979 192.037 230.924 192.032 230.879 192.014C230.635 191.938 230.506 191.701 230.59 191.482C235.152 179.647 241.138 175.805 241.392 175.648C241.601 175.518 241.89 175.563 242.039 175.756C242.184 175.944 242.134 176.203 241.92 176.333C241.86 176.374 235.919 180.207 231.467 191.755C231.402 191.929 231.223 192.037 231.029 192.037Z" fill="white"/>
<path d="M227.654 188.62C227.624 184.908 228.809 182.642 229.9 181.263C231.882 178.746 234.083 178.487 234.835 176.055C235.552 173.758 233.879 173.064 234.442 170.476C235.104 167.395 237.738 167.185 238.416 164.65C239.242 161.561 235.846 159.998 234.143 155.668C231.937 150.062 235.592 147.523 234.755 142.284C233.396 133.789 221.444 125.958 216.334 128.089C211.514 130.104 211.16 141.652 215.06 150.044C219.208 158.986 225.642 158.856 226.578 166.334C227.221 171.501 224.522 174.528 225.911 182.468C226.384 185.154 227.126 187.29 227.654 188.62Z" fill="#6C93EC"/>
<path d="M228.92 192.207C228.745 192.207 228.576 192.118 228.496 191.966C225.991 187.053 227.007 181.698 228.287 174.914C228.954 171.363 229.716 167.342 230.01 162.918C230.827 150.613 219.363 135.697 219.248 135.55C219.104 135.362 219.154 135.102 219.363 134.968C219.577 134.838 219.866 134.883 220.01 135.071C220.13 135.223 231.773 150.371 230.937 162.967C230.643 167.436 229.876 171.484 229.203 175.053C227.949 181.693 226.957 186.941 229.343 191.616C229.447 191.827 229.348 192.073 229.114 192.172C229.049 192.194 228.984 192.207 228.92 192.207Z" fill="#99B9FF"/>
<path d="M224.599 189.529C224.047 187.165 223.459 183.681 223.653 179.481C223.972 172.63 226.088 169.715 223.962 167.158C221.616 164.337 217.667 166.222 214.873 162.868C212.966 160.58 213.922 158.646 211.303 156.492C210.805 156.08 209.181 154.781 206.89 154.625C204.764 154.472 204.012 155.444 201.298 156.295C196.388 157.835 194.196 156.107 192.389 157.732C190.79 159.165 190.471 162.34 191.995 164.091C194.869 167.391 202.468 163.549 205.322 166.679C207.757 169.352 203.559 173.633 206.223 176.611C208.628 179.297 213.434 177.39 215.406 180.197C216.91 182.347 214.804 184.46 216.198 186.699C217.657 189.037 221.666 189.484 224.599 189.529Z" fill="#6C93EC"/>
<path d="M226.429 192.104C226.329 192.104 226.23 192.077 226.145 192.019C223.605 190.255 222.739 187.353 221.424 182.961C220.438 179.669 219.213 175.572 216.843 170.561C211.559 159.385 197.157 160.67 197.012 160.683C196.753 160.71 196.529 160.545 196.499 160.316C196.469 160.088 196.654 159.882 196.908 159.855C197.062 159.842 212.151 158.494 217.699 170.235C220.09 175.299 221.33 179.428 222.321 182.741C223.586 186.973 224.422 189.767 226.713 191.356C226.917 191.5 226.957 191.759 226.798 191.943C226.708 192.05 226.569 192.104 226.429 192.104Z" fill="white"/>
<path d="M217.271 191.621C217.68 191.787 238.88 191.621 238.88 191.621L236.23 211.05C236.161 211.574 236.036 212.093 235.817 212.586C234.776 214.973 232.197 216.598 229.263 216.598C225.982 216.598 223.133 214.561 222.401 211.69L217.271 191.621Z" fill="#6C93EC"/>
</svg>
